G04*
G04 #@! TF.GenerationSoftware,Altium Limited,Altium Designer,25.2.1 (25)*
G04*
G04 Layer_Physical_Order=1*
G04 Layer_Color=255*
%FSLAX44Y44*%
%MOMM*%
G71*
G04*
G04 #@! TF.SameCoordinates,E4876766-9ADC-49B3-91D2-59FAE022AE3B*
G04*
G04*
G04 #@! TF.FilePolarity,Positive*
G04*
G01*
G75*
%ADD14C,0.2000*%
%ADD15C,0.2540*%
%ADD20R,0.7500X0.9000*%
%ADD21R,0.9500X1.3500*%
G04:AMPARAMS|DCode=22|XSize=2.2mm|YSize=2.7mm|CornerRadius=0.275mm|HoleSize=0mm|Usage=FLASHONLY|Rotation=180.000|XOffset=0mm|YOffset=0mm|HoleType=Round|Shape=RoundedRectangle|*
%AMROUNDEDRECTD22*
21,1,2.2000,2.1500,0,0,180.0*
21,1,1.6500,2.7000,0,0,180.0*
1,1,0.5500,-0.8250,1.0750*
1,1,0.5500,0.8250,1.0750*
1,1,0.5500,0.8250,-1.0750*
1,1,0.5500,-0.8250,-1.0750*
%
%ADD22ROUNDEDRECTD22*%
G04:AMPARAMS|DCode=23|XSize=2mm|YSize=1.8mm|CornerRadius=0.225mm|HoleSize=0mm|Usage=FLASHONLY|Rotation=180.000|XOffset=0mm|YOffset=0mm|HoleType=Round|Shape=RoundedRectangle|*
%AMROUNDEDRECTD23*
21,1,2.0000,1.3500,0,0,180.0*
21,1,1.5500,1.8000,0,0,180.0*
1,1,0.4500,-0.7750,0.6750*
1,1,0.4500,0.7750,0.6750*
1,1,0.4500,0.7750,-0.6750*
1,1,0.4500,-0.7750,-0.6750*
%
%ADD23ROUNDEDRECTD23*%
%ADD24R,1.0500X2.0000*%
%ADD25R,1.2000X0.8000*%
G04:AMPARAMS|DCode=26|XSize=2.18mm|YSize=2mm|CornerRadius=0.25mm|HoleSize=0mm|Usage=FLASHONLY|Rotation=180.000|XOffset=0mm|YOffset=0mm|HoleType=Round|Shape=RoundedRectangle|*
%AMROUNDEDRECTD26*
21,1,2.1800,1.5000,0,0,180.0*
21,1,1.6800,2.0000,0,0,180.0*
1,1,0.5000,-0.8400,0.7500*
1,1,0.5000,0.8400,0.7500*
1,1,0.5000,0.8400,-0.7500*
1,1,0.5000,-0.8400,-0.7500*
%
%ADD26ROUNDEDRECTD26*%
G04:AMPARAMS|DCode=27|XSize=0.6mm|YSize=1.15mm|CornerRadius=0.15mm|HoleSize=0mm|Usage=FLASHONLY|Rotation=180.000|XOffset=0mm|YOffset=0mm|HoleType=Round|Shape=RoundedRectangle|*
%AMROUNDEDRECTD27*
21,1,0.6000,0.8500,0,0,180.0*
21,1,0.3000,1.1500,0,0,180.0*
1,1,0.3000,-0.1500,0.4250*
1,1,0.3000,0.1500,0.4250*
1,1,0.3000,0.1500,-0.4250*
1,1,0.3000,-0.1500,-0.4250*
%
%ADD27ROUNDEDRECTD27*%
G04:AMPARAMS|DCode=28|XSize=0.3mm|YSize=1.15mm|CornerRadius=0.075mm|HoleSize=0mm|Usage=FLASHONLY|Rotation=180.000|XOffset=0mm|YOffset=0mm|HoleType=Round|Shape=RoundedRectangle|*
%AMROUNDEDRECTD28*
21,1,0.3000,1.0000,0,0,180.0*
21,1,0.1500,1.1500,0,0,180.0*
1,1,0.1500,-0.0750,0.5000*
1,1,0.1500,0.0750,0.5000*
1,1,0.1500,0.0750,-0.5000*
1,1,0.1500,-0.0750,-0.5000*
%
%ADD28ROUNDEDRECTD28*%
G04:AMPARAMS|DCode=29|XSize=1mm|YSize=5.5mm|CornerRadius=0.125mm|HoleSize=0mm|Usage=FLASHONLY|Rotation=90.000|XOffset=0mm|YOffset=0mm|HoleType=Round|Shape=RoundedRectangle|*
%AMROUNDEDRECTD29*
21,1,1.0000,5.2500,0,0,90.0*
21,1,0.7500,5.5000,0,0,90.0*
1,1,0.2500,2.6250,0.3750*
1,1,0.2500,2.6250,-0.3750*
1,1,0.2500,-2.6250,-0.3750*
1,1,0.2500,-2.6250,0.3750*
%
%ADD29ROUNDEDRECTD29*%
G04:AMPARAMS|DCode=30|XSize=1.6mm|YSize=3mm|CornerRadius=0.2mm|HoleSize=0mm|Usage=FLASHONLY|Rotation=90.000|XOffset=0mm|YOffset=0mm|HoleType=Round|Shape=RoundedRectangle|*
%AMROUNDEDRECTD30*
21,1,1.6000,2.6000,0,0,90.0*
21,1,1.2000,3.0000,0,0,90.0*
1,1,0.4000,1.3000,0.6000*
1,1,0.4000,1.3000,-0.6000*
1,1,0.4000,-1.3000,-0.6000*
1,1,0.4000,-1.3000,0.6000*
%
%ADD30ROUNDEDRECTD30*%
G04:AMPARAMS|DCode=31|XSize=0.7399mm|YSize=2.7899mm|CornerRadius=0.185mm|HoleSize=0mm|Usage=FLASHONLY|Rotation=270.000|XOffset=0mm|YOffset=0mm|HoleType=Round|Shape=RoundedRectangle|*
%AMROUNDEDRECTD31*
21,1,0.7399,2.4200,0,0,270.0*
21,1,0.3700,2.7899,0,0,270.0*
1,1,0.3700,-1.2100,-0.1850*
1,1,0.3700,-1.2100,0.1850*
1,1,0.3700,1.2100,0.1850*
1,1,0.3700,1.2100,-0.1850*
%
%ADD31ROUNDEDRECTD31*%
G04:AMPARAMS|DCode=32|XSize=1.7mm|YSize=1.8mm|CornerRadius=0.2125mm|HoleSize=0mm|Usage=FLASHONLY|Rotation=270.000|XOffset=0mm|YOffset=0mm|HoleType=Round|Shape=RoundedRectangle|*
%AMROUNDEDRECTD32*
21,1,1.7000,1.3750,0,0,270.0*
21,1,1.2750,1.8000,0,0,270.0*
1,1,0.4250,-0.6875,-0.6375*
1,1,0.4250,-0.6875,0.6375*
1,1,0.4250,0.6875,0.6375*
1,1,0.4250,0.6875,-0.6375*
%
%ADD32ROUNDEDRECTD32*%
G04:AMPARAMS|DCode=33|XSize=0.7mm|YSize=1.9mm|CornerRadius=0.0875mm|HoleSize=0mm|Usage=FLASHONLY|Rotation=270.000|XOffset=0mm|YOffset=0mm|HoleType=Round|Shape=RoundedRectangle|*
%AMROUNDEDRECTD33*
21,1,0.7000,1.7250,0,0,270.0*
21,1,0.5250,1.9000,0,0,270.0*
1,1,0.1750,-0.8625,-0.2625*
1,1,0.1750,-0.8625,0.2625*
1,1,0.1750,0.8625,0.2625*
1,1,0.1750,0.8625,-0.2625*
%
%ADD33ROUNDEDRECTD33*%
G04:AMPARAMS|DCode=34|XSize=1.4mm|YSize=2.6mm|CornerRadius=0.175mm|HoleSize=0mm|Usage=FLASHONLY|Rotation=270.000|XOffset=0mm|YOffset=0mm|HoleType=Round|Shape=RoundedRectangle|*
%AMROUNDEDRECTD34*
21,1,1.4000,2.2500,0,0,270.0*
21,1,1.0500,2.6000,0,0,270.0*
1,1,0.3500,-1.1250,-0.5250*
1,1,0.3500,-1.1250,0.5250*
1,1,0.3500,1.1250,0.5250*
1,1,0.3500,1.1250,-0.5250*
%
%ADD34ROUNDEDRECTD34*%
G04:AMPARAMS|DCode=35|XSize=1.05mm|YSize=0.4mm|CornerRadius=0.05mm|HoleSize=0mm|Usage=FLASHONLY|Rotation=270.000|XOffset=0mm|YOffset=0mm|HoleType=Round|Shape=RoundedRectangle|*
%AMROUNDEDRECTD35*
21,1,1.0500,0.3000,0,0,270.0*
21,1,0.9500,0.4000,0,0,270.0*
1,1,0.1000,-0.1500,-0.4750*
1,1,0.1000,-0.1500,0.4750*
1,1,0.1000,0.1500,0.4750*
1,1,0.1000,0.1500,-0.4750*
%
%ADD35ROUNDEDRECTD35*%
G04:AMPARAMS|DCode=36|XSize=0.8mm|YSize=1.2mm|CornerRadius=0.1mm|HoleSize=0mm|Usage=FLASHONLY|Rotation=0.000|XOffset=0mm|YOffset=0mm|HoleType=Round|Shape=RoundedRectangle|*
%AMROUNDEDRECTD36*
21,1,0.8000,1.0000,0,0,0.0*
21,1,0.6000,1.2000,0,0,0.0*
1,1,0.2000,0.3000,-0.5000*
1,1,0.2000,-0.3000,-0.5000*
1,1,0.2000,-0.3000,0.5000*
1,1,0.2000,0.3000,0.5000*
%
%ADD36ROUNDEDRECTD36*%
%ADD37R,1.0000X1.6000*%
%ADD38R,1.6000X1.0000*%
G04:AMPARAMS|DCode=39|XSize=3.3mm|YSize=0.45mm|CornerRadius=0.045mm|HoleSize=0mm|Usage=FLASHONLY|Rotation=180.000|XOffset=0mm|YOffset=0mm|HoleType=Round|Shape=RoundedRectangle|*
%AMROUNDEDRECTD39*
21,1,3.3000,0.3600,0,0,180.0*
21,1,3.2100,0.4500,0,0,180.0*
1,1,0.0900,-1.6050,0.1800*
1,1,0.0900,1.6050,0.1800*
1,1,0.0900,1.6050,-0.1800*
1,1,0.0900,-1.6050,-0.1800*
%
%ADD39ROUNDEDRECTD39*%
G04:AMPARAMS|DCode=40|XSize=0.3mm|YSize=0.63mm|CornerRadius=0.03mm|HoleSize=0mm|Usage=FLASHONLY|Rotation=180.000|XOffset=0mm|YOffset=0mm|HoleType=Round|Shape=RoundedRectangle|*
%AMROUNDEDRECTD40*
21,1,0.3000,0.5700,0,0,180.0*
21,1,0.2400,0.6300,0,0,180.0*
1,1,0.0600,-0.1200,0.2850*
1,1,0.0600,0.1200,0.2850*
1,1,0.0600,0.1200,-0.2850*
1,1,0.0600,-0.1200,-0.2850*
%
%ADD40ROUNDEDRECTD40*%
G04:AMPARAMS|DCode=41|XSize=1.01mm|YSize=1.47mm|CornerRadius=0.1263mm|HoleSize=0mm|Usage=FLASHONLY|Rotation=90.000|XOffset=0mm|YOffset=0mm|HoleType=Round|Shape=RoundedRectangle|*
%AMROUNDEDRECTD41*
21,1,1.0100,1.2175,0,0,90.0*
21,1,0.7575,1.4700,0,0,90.0*
1,1,0.2525,0.6088,0.3787*
1,1,0.2525,0.6088,-0.3787*
1,1,0.2525,-0.6088,-0.3787*
1,1,0.2525,-0.6088,0.3787*
%
%ADD41ROUNDEDRECTD41*%
G04:AMPARAMS|DCode=42|XSize=1.01mm|YSize=1.47mm|CornerRadius=0.1263mm|HoleSize=0mm|Usage=FLASHONLY|Rotation=0.000|XOffset=0mm|YOffset=0mm|HoleType=Round|Shape=RoundedRectangle|*
%AMROUNDEDRECTD42*
21,1,1.0100,1.2175,0,0,0.0*
21,1,0.7575,1.4700,0,0,0.0*
1,1,0.2525,0.3787,-0.6088*
1,1,0.2525,-0.3787,-0.6088*
1,1,0.2525,-0.3787,0.6088*
1,1,0.2525,0.3787,0.6088*
%
%ADD42ROUNDEDRECTD42*%
%ADD43R,1.6200X2.1800*%
%ADD44R,0.9000X0.8000*%
%ADD45R,0.8000X0.9000*%
G04:AMPARAMS|DCode=46|XSize=1mm|YSize=1.1mm|CornerRadius=0.125mm|HoleSize=0mm|Usage=FLASHONLY|Rotation=180.000|XOffset=0mm|YOffset=0mm|HoleType=Round|Shape=RoundedRectangle|*
%AMROUNDEDRECTD46*
21,1,1.0000,0.8500,0,0,180.0*
21,1,0.7500,1.1000,0,0,180.0*
1,1,0.2500,-0.3750,0.4250*
1,1,0.2500,0.3750,0.4250*
1,1,0.2500,0.3750,-0.4250*
1,1,0.2500,-0.3750,-0.4250*
%
%ADD46ROUNDEDRECTD46*%
G04:AMPARAMS|DCode=47|XSize=1.5mm|YSize=1.3mm|CornerRadius=0.1625mm|HoleSize=0mm|Usage=FLASHONLY|Rotation=270.000|XOffset=0mm|YOffset=0mm|HoleType=Round|Shape=RoundedRectangle|*
%AMROUNDEDRECTD47*
21,1,1.5000,0.9750,0,0,270.0*
21,1,1.1750,1.3000,0,0,270.0*
1,1,0.3250,-0.4875,-0.5875*
1,1,0.3250,-0.4875,0.5875*
1,1,0.3250,0.4875,0.5875*
1,1,0.3250,0.4875,-0.5875*
%
%ADD47ROUNDEDRECTD47*%
G04:AMPARAMS|DCode=48|XSize=1mm|YSize=1.1mm|CornerRadius=0.125mm|HoleSize=0mm|Usage=FLASHONLY|Rotation=270.000|XOffset=0mm|YOffset=0mm|HoleType=Round|Shape=RoundedRectangle|*
%AMROUNDEDRECTD48*
21,1,1.0000,0.8500,0,0,270.0*
21,1,0.7500,1.1000,0,0,270.0*
1,1,0.2500,-0.4250,-0.3750*
1,1,0.2500,-0.4250,0.3750*
1,1,0.2500,0.4250,0.3750*
1,1,0.2500,0.4250,-0.3750*
%
%ADD48ROUNDEDRECTD48*%
%ADD49R,1.3500X0.9500*%
%ADD50R,1.0682X1.2065*%
%ADD51R,0.9000X0.8000*%
%ADD52R,0.9562X1.2062*%
G04:AMPARAMS|DCode=53|XSize=0.9906mm|YSize=1.0922mm|CornerRadius=0.2477mm|HoleSize=0mm|Usage=FLASHONLY|Rotation=90.000|XOffset=0mm|YOffset=0mm|HoleType=Round|Shape=RoundedRectangle|*
%AMROUNDEDRECTD53*
21,1,0.9906,0.5969,0,0,90.0*
21,1,0.4953,1.0922,0,0,90.0*
1,1,0.4953,0.2985,0.2477*
1,1,0.4953,0.2985,-0.2477*
1,1,0.4953,-0.2985,-0.2477*
1,1,0.4953,-0.2985,0.2477*
%
%ADD53ROUNDEDRECTD53*%
G04:AMPARAMS|DCode=54|XSize=1.1mm|YSize=1.9mm|CornerRadius=0.1375mm|HoleSize=0mm|Usage=FLASHONLY|Rotation=0.000|XOffset=0mm|YOffset=0mm|HoleType=Round|Shape=RoundedRectangle|*
%AMROUNDEDRECTD54*
21,1,1.1000,1.6250,0,0,0.0*
21,1,0.8250,1.9000,0,0,0.0*
1,1,0.2750,0.4125,-0.8125*
1,1,0.2750,-0.4125,-0.8125*
1,1,0.2750,-0.4125,0.8125*
1,1,0.2750,0.4125,0.8125*
%
%ADD54ROUNDEDRECTD54*%
G04:AMPARAMS|DCode=55|XSize=0.45mm|YSize=0.25mm|CornerRadius=0.05mm|HoleSize=0mm|Usage=FLASHONLY|Rotation=90.000|XOffset=0mm|YOffset=0mm|HoleType=Round|Shape=RoundedRectangle|*
%AMROUNDEDRECTD55*
21,1,0.4500,0.1500,0,0,90.0*
21,1,0.3500,0.2500,0,0,90.0*
1,1,0.1000,0.0750,0.1750*
1,1,0.1000,0.0750,-0.1750*
1,1,0.1000,-0.0750,-0.1750*
1,1,0.1000,-0.0750,0.1750*
%
%ADD55ROUNDEDRECTD55*%
G04:AMPARAMS|DCode=56|XSize=0.24mm|YSize=0.6mm|CornerRadius=0.0504mm|HoleSize=0mm|Usage=FLASHONLY|Rotation=0.000|XOffset=0mm|YOffset=0mm|HoleType=Round|Shape=RoundedRectangle|*
%AMROUNDEDRECTD56*
21,1,0.2400,0.4992,0,0,0.0*
21,1,0.1392,0.6000,0,0,0.0*
1,1,0.1008,0.0696,-0.2496*
1,1,0.1008,-0.0696,-0.2496*
1,1,0.1008,-0.0696,0.2496*
1,1,0.1008,0.0696,0.2496*
%
%ADD56ROUNDEDRECTD56*%
G04:AMPARAMS|DCode=57|XSize=0.6mm|YSize=0.24mm|CornerRadius=0.0504mm|HoleSize=0mm|Usage=FLASHONLY|Rotation=0.000|XOffset=0mm|YOffset=0mm|HoleType=Round|Shape=RoundedRectangle|*
%AMROUNDEDRECTD57*
21,1,0.6000,0.1392,0,0,0.0*
21,1,0.4992,0.2400,0,0,0.0*
1,1,0.1008,0.2496,-0.0696*
1,1,0.1008,-0.2496,-0.0696*
1,1,0.1008,-0.2496,0.0696*
1,1,0.1008,0.2496,0.0696*
%
%ADD57ROUNDEDRECTD57*%
%ADD58R,1.2000X0.7000*%
%ADD59R,0.7000X1.2000*%
%ADD60R,2.0000X2.0000*%
G04:AMPARAMS|DCode=61|XSize=0.2393mm|YSize=0.966mm|CornerRadius=0.0598mm|HoleSize=0mm|Usage=FLASHONLY|Rotation=180.000|XOffset=0mm|YOffset=0mm|HoleType=Round|Shape=RoundedRectangle|*
%AMROUNDEDRECTD61*
21,1,0.2393,0.8464,0,0,180.0*
21,1,0.1196,0.9660,0,0,180.0*
1,1,0.1196,-0.0598,0.4232*
1,1,0.1196,0.0598,0.4232*
1,1,0.1196,0.0598,-0.4232*
1,1,0.1196,-0.0598,-0.4232*
%
%ADD61ROUNDEDRECTD61*%
G04:AMPARAMS|DCode=62|XSize=0.966mm|YSize=0.2393mm|CornerRadius=0.0598mm|HoleSize=0mm|Usage=FLASHONLY|Rotation=180.000|XOffset=0mm|YOffset=0mm|HoleType=Round|Shape=RoundedRectangle|*
%AMROUNDEDRECTD62*
21,1,0.9660,0.1196,0,0,180.0*
21,1,0.8464,0.2393,0,0,180.0*
1,1,0.1196,-0.4232,0.0598*
1,1,0.1196,0.4232,0.0598*
1,1,0.1196,0.4232,-0.0598*
1,1,0.1196,-0.4232,-0.0598*
%
%ADD62ROUNDEDRECTD62*%
G04:AMPARAMS|DCode=64|XSize=1.05mm|YSize=0.65mm|CornerRadius=0.0813mm|HoleSize=0mm|Usage=FLASHONLY|Rotation=180.000|XOffset=0mm|YOffset=0mm|HoleType=Round|Shape=RoundedRectangle|*
%AMROUNDEDRECTD64*
21,1,1.0500,0.4875,0,0,180.0*
21,1,0.8875,0.6500,0,0,180.0*
1,1,0.1625,-0.4438,0.2438*
1,1,0.1625,0.4438,0.2438*
1,1,0.1625,0.4438,-0.2438*
1,1,0.1625,-0.4438,-0.2438*
%
%ADD64ROUNDEDRECTD64*%
G04:AMPARAMS|DCode=65|XSize=1mm|YSize=1.6mm|CornerRadius=0.125mm|HoleSize=0mm|Usage=FLASHONLY|Rotation=90.000|XOffset=0mm|YOffset=0mm|HoleType=Round|Shape=RoundedRectangle|*
%AMROUNDEDRECTD65*
21,1,1.0000,1.3500,0,0,90.0*
21,1,0.7500,1.6000,0,0,90.0*
1,1,0.2500,0.6750,0.3750*
1,1,0.2500,0.6750,-0.3750*
1,1,0.2500,-0.6750,-0.3750*
1,1,0.2500,-0.6750,0.3750*
%
%ADD65ROUNDEDRECTD65*%
%ADD66R,0.8000X0.6000*%
G04:AMPARAMS|DCode=67|XSize=1.5mm|YSize=1.3mm|CornerRadius=0.325mm|HoleSize=0mm|Usage=FLASHONLY|Rotation=180.000|XOffset=0mm|YOffset=0mm|HoleType=Round|Shape=RoundedRectangle|*
%AMROUNDEDRECTD67*
21,1,1.5000,0.6500,0,0,180.0*
21,1,0.8500,1.3000,0,0,180.0*
1,1,0.6500,-0.4250,0.3250*
1,1,0.6500,0.4250,0.3250*
1,1,0.6500,0.4250,-0.3250*
1,1,0.6500,-0.4250,-0.3250*
%
%ADD67ROUNDEDRECTD67*%
G04:AMPARAMS|DCode=68|XSize=1.5mm|YSize=1.3mm|CornerRadius=0.325mm|HoleSize=0mm|Usage=FLASHONLY|Rotation=90.000|XOffset=0mm|YOffset=0mm|HoleType=Round|Shape=RoundedRectangle|*
%AMROUNDEDRECTD68*
21,1,1.5000,0.6500,0,0,90.0*
21,1,0.8500,1.3000,0,0,90.0*
1,1,0.6500,0.3250,0.4250*
1,1,0.6500,0.3250,-0.4250*
1,1,0.6500,-0.3250,-0.4250*
1,1,0.6500,-0.3250,0.4250*
%
%ADD68ROUNDEDRECTD68*%
%ADD69R,1.1500X1.4500*%
%ADD70R,0.8000X0.9500*%
%ADD71R,0.9061X1.3098*%
%ADD72R,1.4500X0.9500*%
%ADD73R,1.3500X1.0000*%
G04:AMPARAMS|DCode=74|XSize=0.9906mm|YSize=1.0922mm|CornerRadius=0.2477mm|HoleSize=0mm|Usage=FLASHONLY|Rotation=180.000|XOffset=0mm|YOffset=0mm|HoleType=Round|Shape=RoundedRectangle|*
%AMROUNDEDRECTD74*
21,1,0.9906,0.5969,0,0,180.0*
21,1,0.4953,1.0922,0,0,180.0*
1,1,0.4953,-0.2477,0.2985*
1,1,0.4953,0.2477,0.2985*
1,1,0.4953,0.2477,-0.2985*
1,1,0.4953,-0.2477,-0.2985*
%
%ADD74ROUNDEDRECTD74*%
G04:AMPARAMS|DCode=75|XSize=1.8mm|YSize=1.6mm|CornerRadius=0.2mm|HoleSize=0mm|Usage=FLASHONLY|Rotation=180.000|XOffset=0mm|YOffset=0mm|HoleType=Round|Shape=RoundedRectangle|*
%AMROUNDEDRECTD75*
21,1,1.8000,1.2000,0,0,180.0*
21,1,1.4000,1.6000,0,0,180.0*
1,1,0.4000,-0.7000,0.6000*
1,1,0.4000,0.7000,0.6000*
1,1,0.4000,0.7000,-0.6000*
1,1,0.4000,-0.7000,-0.6000*
%
%ADD75ROUNDEDRECTD75*%
G04:AMPARAMS|DCode=76|XSize=1.8mm|YSize=1.6mm|CornerRadius=0.2mm|HoleSize=0mm|Usage=FLASHONLY|Rotation=90.000|XOffset=0mm|YOffset=0mm|HoleType=Round|Shape=RoundedRectangle|*
%AMROUNDEDRECTD76*
21,1,1.8000,1.2000,0,0,90.0*
21,1,1.4000,1.6000,0,0,90.0*
1,1,0.4000,0.6000,0.7000*
1,1,0.4000,0.6000,-0.7000*
1,1,0.4000,-0.6000,-0.7000*
1,1,0.4000,-0.6000,0.7000*
%
%ADD76ROUNDEDRECTD76*%
G04:AMPARAMS|DCode=77|XSize=1.5mm|YSize=1.3mm|CornerRadius=0.1625mm|HoleSize=0mm|Usage=FLASHONLY|Rotation=180.000|XOffset=0mm|YOffset=0mm|HoleType=Round|Shape=RoundedRectangle|*
%AMROUNDEDRECTD77*
21,1,1.5000,0.9750,0,0,180.0*
21,1,1.1750,1.3000,0,0,180.0*
1,1,0.3250,-0.5875,0.4875*
1,1,0.3250,0.5875,0.4875*
1,1,0.3250,0.5875,-0.4875*
1,1,0.3250,-0.5875,-0.4875*
%
%ADD77ROUNDEDRECTD77*%
G04:AMPARAMS|DCode=98|XSize=1.15mm|YSize=0.35mm|CornerRadius=0.0508mm|HoleSize=0mm|Usage=FLASHONLY|Rotation=90.000|XOffset=0mm|YOffset=0mm|HoleType=Round|Shape=RoundedRectangle|*
%AMROUNDEDRECTD98*
21,1,1.1500,0.2485,0,0,90.0*
21,1,1.0485,0.3500,0,0,90.0*
1,1,0.1015,0.1243,0.5243*
1,1,0.1015,0.1243,-0.5243*
1,1,0.1015,-0.1243,-0.5243*
1,1,0.1015,-0.1243,0.5243*
%
%ADD98ROUNDEDRECTD98*%
G04:AMPARAMS|DCode=99|XSize=1.45mm|YSize=0.2mm|CornerRadius=0.05mm|HoleSize=0mm|Usage=FLASHONLY|Rotation=90.000|XOffset=0mm|YOffset=0mm|HoleType=Round|Shape=RoundedRectangle|*
%AMROUNDEDRECTD99*
21,1,1.4500,0.1000,0,0,90.0*
21,1,1.3500,0.2000,0,0,90.0*
1,1,0.1000,0.0500,0.6750*
1,1,0.1000,0.0500,-0.6750*
1,1,0.1000,-0.0500,-0.6750*
1,1,0.1000,-0.0500,0.6750*
%
%ADD99ROUNDEDRECTD99*%
G04:AMPARAMS|DCode=103|XSize=1.6637mm|YSize=1.6637mm|CornerRadius=0.0499mm|HoleSize=0mm|Usage=FLASHONLY|Rotation=180.000|XOffset=0mm|YOffset=0mm|HoleType=Round|Shape=RoundedRectangle|*
%AMROUNDEDRECTD103*
21,1,1.6637,1.5639,0,0,180.0*
21,1,1.5639,1.6637,0,0,180.0*
1,1,0.0998,-0.7819,0.7819*
1,1,0.0998,0.7819,0.7819*
1,1,0.0998,0.7819,-0.7819*
1,1,0.0998,-0.7819,-0.7819*
%
%ADD103ROUNDEDRECTD103*%
G04:AMPARAMS|DCode=104|XSize=0.65mm|YSize=0.25mm|CornerRadius=0.0625mm|HoleSize=0mm|Usage=FLASHONLY|Rotation=270.000|XOffset=0mm|YOffset=0mm|HoleType=Round|Shape=RoundedRectangle|*
%AMROUNDEDRECTD104*
21,1,0.6500,0.1250,0,0,270.0*
21,1,0.5250,0.2500,0,0,270.0*
1,1,0.1250,-0.0625,-0.2625*
1,1,0.1250,-0.0625,0.2625*
1,1,0.1250,0.0625,0.2625*
1,1,0.1250,0.0625,-0.2625*
%
%ADD104ROUNDEDRECTD104*%
%ADD121R,1.3000X1.3000*%
%ADD122C,1.3000*%
%ADD127C,0.5080*%
%ADD128C,0.1778*%
%ADD129R,1.6400X0.4400*%
G04:AMPARAMS|DCode=130|XSize=0.6mm|YSize=0.25mm|CornerRadius=0.125mm|HoleSize=0mm|Usage=FLASHONLY|Rotation=0.000|XOffset=0mm|YOffset=0mm|HoleType=Round|Shape=RoundedRectangle|*
%AMROUNDEDRECTD130*
21,1,0.6000,0.0000,0,0,0.0*
21,1,0.3500,0.2500,0,0,0.0*
1,1,0.2500,0.1750,0.0000*
1,1,0.2500,-0.1750,0.0000*
1,1,0.2500,-0.1750,0.0000*
1,1,0.2500,0.1750,0.0000*
%
%ADD130ROUNDEDRECTD130*%
%ADD131R,0.6000X0.2500*%
%AMCUSTOMSHAPE132*
4,1,5,-1.2500,-0.8500,-1.2500,0.8500,0.7400,0.8500,1.2500,0.3400,1.2500,-0.8500,-1.2500,-0.8500,0.0*%
%ADD132CUSTOMSHAPE132*%

%ADD133C,0.3131*%
%ADD134C,0.3810*%
%ADD135C,0.5080*%
%ADD136C,0.2286*%
%ADD137C,0.3048*%
%ADD138R,1.6510X1.6510*%
%ADD139C,1.6510*%
%ADD140R,1.6510X1.6510*%
%ADD141C,0.9000*%
%ADD142O,0.9000X1.7000*%
%ADD143C,1.5500*%
%ADD144C,1.6256*%
%ADD145C,2.1000*%
%ADD146C,0.7620*%
%ADD147C,0.7000*%
%ADD148C,0.6350*%
G36*
X-63946Y175322D02*
X-74168Y165100D01*
X-77724D01*
Y154940D01*
X-76390Y153606D01*
Y153360D01*
X-76144D01*
X-69596Y146812D01*
X-57015D01*
X-56184Y146256D01*
X-55200Y146061D01*
X-54230D01*
X-53594Y144526D01*
Y139369D01*
X-68494D01*
X-69337Y139202D01*
X-70051Y138725D01*
X-70332Y138444D01*
X-82846D01*
X-83119Y140222D01*
X-82779Y140562D01*
X-82199Y141962D01*
Y143478D01*
X-82779Y144878D01*
X-83312Y145411D01*
Y156210D01*
X-83820Y156718D01*
Y156968D01*
X-84400Y158368D01*
X-85472Y159440D01*
X-86872Y160020D01*
X-87122D01*
X-107518Y180416D01*
X-106279Y181654D01*
X-106279Y181654D01*
X-106207Y181829D01*
X-104902Y183134D01*
Y184883D01*
X-103124Y185620D01*
X-102996Y185492D01*
X-101596Y184912D01*
X-100080D01*
X-98680Y185492D01*
X-97608Y186564D01*
X-97028Y187964D01*
Y189480D01*
X-97608Y190880D01*
X-98680Y191952D01*
X-100080Y192532D01*
X-101596D01*
X-102996Y191952D01*
X-103124Y191824D01*
X-104902Y192561D01*
Y203286D01*
X-78456D01*
X-77613Y203454D01*
X-76965Y203887D01*
X-76361Y203636D01*
X-74845D01*
X-73445Y204216D01*
X-73191Y204470D01*
X-63946D01*
Y175322D01*
D02*
G37*
G36*
X64262Y165791D02*
X64208D01*
Y154251D01*
X64262D01*
Y141224D01*
X50963D01*
X49343Y142195D01*
Y147187D01*
X49205Y147879D01*
X49022Y148154D01*
Y148590D01*
X48729D01*
Y149322D01*
X48561Y150165D01*
X48084Y150879D01*
X42085Y156877D01*
X41371Y157355D01*
X40529Y157522D01*
X29972D01*
Y172212D01*
X64262D01*
Y165791D01*
D02*
G37*
G36*
X-26670Y138176D02*
X-27661Y136652D01*
X-32559D01*
X-34632Y138725D01*
X-35346Y139202D01*
X-36188Y139369D01*
X-48692D01*
X-49276Y139954D01*
Y142900D01*
X-49131Y143630D01*
X-49276Y144360D01*
Y147660D01*
X-30480D01*
Y148336D01*
X-26670D01*
Y138176D01*
D02*
G37*
G36*
X-53594Y110744D02*
X-59208D01*
X-59355Y111480D01*
X-60243Y112810D01*
X-61573Y113698D01*
X-62910Y113964D01*
X-72531Y123586D01*
Y125649D01*
X-73146Y127943D01*
X-74334Y130000D01*
X-76013Y131679D01*
X-77025Y132263D01*
X-76549Y134042D01*
X-69420D01*
X-68577Y134209D01*
X-67863Y134686D01*
X-67583Y134967D01*
X-53594D01*
Y110744D01*
D02*
G37*
G36*
X72276Y127961D02*
X72929Y127524D01*
X73772Y127357D01*
X73956D01*
X74008Y127322D01*
X74676Y127189D01*
X77781Y124084D01*
X78495Y123607D01*
X79136Y123479D01*
X79523Y123285D01*
X80609Y122384D01*
X80609Y121661D01*
Y110701D01*
X96649D01*
Y115651D01*
X98771D01*
X99567Y115321D01*
X101083D01*
X102483Y115901D01*
X103555Y116973D01*
X104135Y118373D01*
Y119889D01*
X103555Y121289D01*
X102483Y122361D01*
X102457Y122372D01*
X102199Y123064D01*
X102156Y124421D01*
X105310Y127575D01*
X110998Y127508D01*
Y95355D01*
X110744Y95250D01*
X76708D01*
Y112014D01*
X75692Y113030D01*
X74069D01*
X74026Y113058D01*
X73334Y113196D01*
X68342D01*
X67056Y114637D01*
Y126447D01*
X68629Y128004D01*
X72276Y127961D01*
D02*
G37*
G36*
X26668Y105412D02*
Y102314D01*
X26836Y101472D01*
X26924Y101340D01*
Y89916D01*
X11684D01*
X10922Y90678D01*
Y113792D01*
X18288D01*
X26668Y105412D01*
D02*
G37*
G36*
X101346Y59944D02*
X100610Y58166D01*
X75692D01*
Y91948D01*
X76008Y92710D01*
X101346D01*
Y59944D01*
D02*
G37*
G36*
X-8636Y106172D02*
X-7366Y106172D01*
X1812Y96994D01*
X1850Y96902D01*
X2922Y95830D01*
X3014Y95792D01*
X15088Y83718D01*
Y75250D01*
X23556D01*
X26670Y72136D01*
Y52381D01*
X22295Y48006D01*
X16002D01*
X15239Y48769D01*
Y66352D01*
X15071Y67195D01*
X14594Y67909D01*
X10160Y72343D01*
Y77470D01*
X-7366Y94996D01*
X-16510D01*
Y104817D01*
X-15576Y106547D01*
X-8636Y106172D01*
D02*
G37*
G36*
X67650Y108324D02*
X68342Y108187D01*
X73334D01*
X74168Y106540D01*
Y56642D01*
X73660Y56134D01*
X83058Y46736D01*
Y27288D01*
X81280Y26811D01*
X81092Y27136D01*
X78759Y29469D01*
X75901Y31119D01*
X72714Y31973D01*
X72334D01*
Y19441D01*
X69794D01*
Y31973D01*
X69415D01*
X66227Y31119D01*
X63369Y29469D01*
X61036Y27136D01*
X59386Y24279D01*
X58609Y21376D01*
X57730Y20922D01*
X56754Y20716D01*
X49530Y27940D01*
Y46990D01*
X49022Y47498D01*
X50546Y49022D01*
X57912D01*
Y64262D01*
X58674Y65024D01*
X57579Y66119D01*
Y67711D01*
X55987D01*
X51288Y72410D01*
Y89687D01*
X51120Y90529D01*
X50643Y91243D01*
X49784Y92103D01*
Y104394D01*
X49018Y105160D01*
X48813Y105466D01*
X48768Y105496D01*
Y108458D01*
X67450D01*
X67650Y108324D01*
D02*
G37*
G36*
G01X-120841Y174498D02*
G03X-118808Y172466I2032J0D01*
G01X-107252D01*
G01X-112331Y177546D01*
G01X-107252Y182626D01*
G01X-118808D01*
G03X-120841Y180594I0J-2032D01*
G01Y174498D01*
D02*
G37*
G36*
G01X-97599Y172466D02*
G03X-95568Y174498I0J2032D01*
G01Y180594D01*
G03X-97599Y182626I-2032J0D01*
G01X-104711D01*
G01X-109791Y177546D01*
G01X-104711Y172466D01*
G01X-101600D01*
G01X-97599D01*
D02*
G37*
G36*
G01X16746Y167705D02*
G03X18779Y169737I0J2032D01*
G01Y181294D01*
G01X13699Y176214D01*
G01X8619Y181294D01*
G01Y169737D01*
G03X10651Y167705I2032J0D01*
G01X16746D01*
D02*
G37*
G36*
G01X18779Y190946D02*
G03X16746Y192978I-2032J0D01*
G01X10651D01*
G03X8619Y190946I0J-2032D01*
G01Y183834D01*
G01X13699Y178754D01*
G01X18779Y183834D01*
G01Y186945D01*
G01Y190946D01*
D02*
G37*
G36*
G01X-115333Y134367D02*
G03X-113301Y136399I0J2032D01*
G01Y147956D01*
G01X-118382Y142876D01*
G01X-123462Y147956D01*
G01Y136399D01*
G03X-121430Y134367I2032J0D01*
G01X-115333D01*
D02*
G37*
G36*
G01X-113301Y157608D02*
G03X-115333Y159640I-2032J0D01*
G01X-121430D01*
G03X-123462Y157608I0J-2032D01*
G01Y150496D01*
G01X-118382Y145416D01*
G01X-113301Y150496D01*
G01Y153608D01*
G01Y157608D01*
D02*
G37*
G36*
G01X-3873Y44958D02*
G03X-5906Y46990I-2032J0D01*
G01X-17463D01*
G01X-12383Y41910D01*
G01X-17463Y36830D01*
G01X-5906D01*
G03X-3873Y38862I0J2032D01*
G01Y44958D01*
D02*
G37*
G36*
G01X-27115Y46990D02*
G03X-29146Y44958I0J-2032D01*
G01Y38862D01*
G03X-27115Y36830I2032J0D01*
G01X-20003D01*
G01X-14923Y41910D01*
G01X-20003Y46990D01*
G01X-23114D01*
G01X-27115D01*
D02*
G37*
G36*
G01X122428Y111824D02*
G03X124460Y113855I0J2032D01*
G01Y125413D01*
G01X119380Y120332D01*
G01X114300Y125413D01*
G01Y113855D01*
G03X116332Y111824I2032J0D01*
G01X122428D01*
D02*
G37*
G36*
G01X124460Y135064D02*
G03X122428Y137097I-2032J0D01*
G01X116332D01*
G03X114300Y135064I0J-2032D01*
G01Y127953D01*
G01X119380Y122873D01*
G01X124460Y127953D01*
G01Y131064D01*
G01Y135064D01*
D02*
G37*
G36*
G01X-99839Y159958D02*
G03X-101872Y157926I0J-2032D01*
G01Y146369D01*
G01X-96791Y151449D01*
G01X-91712Y146369D01*
G01Y157926D01*
G03X-93743Y159958I-2032J0D01*
G01X-99839D01*
D02*
G37*
G36*
G01X-101872Y136717D02*
G03X-99839Y134685I2032J0D01*
G01X-93743D01*
G03X-91712Y136717I0J2032D01*
G01Y143829D01*
G01X-96791Y148909D01*
G01X-101872Y143829D01*
G01Y140717D01*
G01Y136717D01*
D02*
G37*
G36*
G01X-153180Y335218D02*
G03X-155211Y333186I0J-2032D01*
G01Y321629D01*
G01X-150132Y326709D01*
G01X-145051Y321629D01*
G01Y333186D01*
G03X-147084Y335218I-2032J0D01*
G01X-153180D01*
D02*
G37*
G36*
G01X-155211Y311977D02*
G03X-153180Y309945I2032J0D01*
G01X-147084D01*
G03X-145051Y311977I0J2032D01*
G01Y319089D01*
G01X-150132Y324169D01*
G01X-155211Y319089D01*
G01Y315977D01*
G01Y311977D01*
D02*
G37*
G36*
G01X251546Y373666D02*
G03X253578Y371634I2032J0D01*
G01X265135D01*
G01X260055Y376714D01*
G01X265135Y381794D01*
G01X253578D01*
G03X251546Y379762I0J-2032D01*
G01Y373666D01*
D02*
G37*
G36*
G01X274787Y371634D02*
G03X276819Y373666I0J2032D01*
G01Y379762D01*
G03X274787Y381794I-2032J0D01*
G01X267675D01*
G01X262595Y376714D01*
G01X267675Y371634D01*
G01X270786D01*
G01X274787D01*
D02*
G37*
G36*
G01X-153692Y244440D02*
G03X-155724Y242408I0J-2032D01*
G01Y230851D01*
G01X-150644Y235931D01*
G01X-145564Y230851D01*
G01Y242408D01*
G03X-147596Y244440I-2032J0D01*
G01X-153692D01*
D02*
G37*
G36*
G01X-155724Y221199D02*
G03X-153692Y219167I2032J0D01*
G01X-147596D01*
G03X-145564Y221199I0J2032D01*
G01Y228311D01*
G01X-150644Y233391D01*
G01X-155724Y228311D01*
G01Y225200D01*
G01Y221199D01*
D02*
G37*
G36*
G01X251523Y397002D02*
G03X253555Y394970I2032J0D01*
G01X265112D01*
G01X260032Y400050D01*
G01X265112Y405130D01*
G01X253555D01*
G03X251523Y403098I0J-2032D01*
G01Y397002D01*
D02*
G37*
G36*
G01X274764Y394970D02*
G03X276796Y397002I0J2032D01*
G01Y403098D01*
G03X274764Y405130I-2032J0D01*
G01X267652D01*
G01X262572Y400050D01*
G01X267652Y394970D01*
G01X270764D01*
G01X274764D01*
D02*
G37*
G36*
G01X43389Y137741D02*
G02X44788Y139141I1400J-0D01*
G01X49889D01*
G01Y146991D01*
G02X51288Y148391I1400J-0D01*
G01X51888D01*
G02X53289Y146991I0J-1400D01*
G01X53288Y143141D01*
G01X55388D01*
G01Y146991D01*
G02X56788Y148391I1400J0D01*
G01X57389Y148391D01*
G02X58788Y146991I-0J-1400D01*
G01Y139141D01*
G01X63889D01*
G02X65289Y137741I-0J-1400D01*
G01Y108641D01*
G02X63889Y107241I-1400J0D01*
G01X58788Y107241D01*
G01Y99391D01*
G02X57388Y97991I-1400J0D01*
G01X56788Y97991D01*
G02X55388Y99391I0J1400D01*
G01Y103241D01*
G01X53288D01*
G01Y99391D01*
G02X51888Y97991I-1400J0D01*
G01X51288D01*
G02X49889Y99391I0J1400D01*
G01Y107241D01*
G01X44788D01*
G02X43389Y108641I0J1400D01*
G01Y137741D01*
D02*
G37*
D14*
X200390Y278075D02*
X227060D01*
X173720D02*
X200390D01*
D15*
X243483Y397098D02*
X246380Y399994D01*
X240849Y394810D02*
X243136Y397098D01*
X246380Y399994D02*
Y407126D01*
X240849Y393441D02*
Y394810D01*
X246380Y407126D02*
X246924Y407670D01*
X244722Y416933D02*
Y419199D01*
Y416933D02*
X245094Y416560D01*
X241164Y422757D02*
X244722Y419199D01*
X243136Y397098D02*
X243483D01*
D20*
X57228Y160021D02*
D03*
X69229D02*
D03*
D21*
X36558Y59691D02*
D03*
X51559D02*
D03*
X83429Y83821D02*
D03*
X68428D02*
D03*
D22*
X-71392Y48161D02*
D03*
Y99161D02*
D03*
D23*
X-73572Y193041D02*
D03*
X-28572D02*
D03*
D24*
X129049Y309881D02*
D03*
X111049D02*
D03*
X93049D02*
D03*
X75049D02*
D03*
X57049D02*
D03*
X39049D02*
D03*
X21049D02*
D03*
X3048D02*
D03*
X-14952D02*
D03*
X147049D02*
D03*
X-15511Y474981D02*
D03*
X92488D02*
D03*
X74488D02*
D03*
X56488D02*
D03*
X38488D02*
D03*
X20489D02*
D03*
X2489D02*
D03*
X110489D02*
D03*
X128489D02*
D03*
X146489D02*
D03*
D25*
X20048Y119492D02*
D03*
Y101491D02*
D03*
D26*
X281969Y567051D02*
D03*
X179768D02*
D03*
X281969Y527751D02*
D03*
X179768D02*
D03*
D27*
X262868Y522001D02*
D03*
X198869D02*
D03*
X254869D02*
D03*
X206869D02*
D03*
D28*
X248369D02*
D03*
X243368D02*
D03*
X238369D02*
D03*
X233368D02*
D03*
X228369D02*
D03*
X223368D02*
D03*
X218369D02*
D03*
X213368D02*
D03*
D29*
X-238400Y559986D02*
D03*
Y539986D02*
D03*
D30*
X-260900Y583986D02*
D03*
Y515986D02*
D03*
D31*
X-257115Y475003D02*
D03*
X-216475D02*
D03*
X-257115Y462303D02*
D03*
X-216475D02*
D03*
X-257115Y449603D02*
D03*
X-216475D02*
D03*
Y436903D02*
D03*
X-257115Y424203D02*
D03*
X-216475D02*
D03*
D32*
X-189540Y347700D02*
D03*
Y192700D02*
D03*
D33*
X-179040Y332200D02*
D03*
Y321200D02*
D03*
Y310200D02*
D03*
Y299200D02*
D03*
Y288200D02*
D03*
Y277200D02*
D03*
Y266200D02*
D03*
Y255200D02*
D03*
Y244200D02*
D03*
D34*
X-285540Y345200D02*
D03*
Y188200D02*
D03*
D35*
X242720Y500740D02*
D03*
X236220D02*
D03*
X229720D02*
D03*
Y482240D02*
D03*
X236220D02*
D03*
X242720D02*
D03*
D36*
X219328Y440691D02*
D03*
X237329D02*
D03*
D37*
X236686Y134953D02*
D03*
X206686D02*
D03*
D38*
X-189501Y141211D02*
D03*
Y171211D02*
D03*
D39*
X200390Y278075D02*
D03*
D40*
X217890Y285674D02*
D03*
X212890D02*
D03*
X207890D02*
D03*
X202890D02*
D03*
X197890D02*
D03*
X192890D02*
D03*
X187890D02*
D03*
X182890D02*
D03*
X217890Y270474D02*
D03*
X212890D02*
D03*
X207890D02*
D03*
X202890D02*
D03*
X197890D02*
D03*
X192890D02*
D03*
X187890D02*
D03*
X182890D02*
D03*
D41*
X-15511Y546460D02*
D03*
Y566060D02*
D03*
X11158Y567331D02*
D03*
Y547730D02*
D03*
X-40911Y268332D02*
D03*
Y287932D02*
D03*
X-150132Y277772D02*
D03*
Y258172D02*
D03*
X199118Y478430D02*
D03*
Y458830D02*
D03*
D42*
X56518Y528321D02*
D03*
X36918D02*
D03*
X3178Y586741D02*
D03*
X-16422D02*
D03*
X254089Y350521D02*
D03*
X273689D02*
D03*
D43*
X35779Y219711D02*
D03*
X77978D02*
D03*
D44*
X256026Y145954D02*
D03*
Y130954D02*
D03*
D45*
X-178191Y123191D02*
D03*
X-193192D02*
D03*
X68428Y64771D02*
D03*
X83429D02*
D03*
D46*
X248920Y227720D02*
D03*
Y244720D02*
D03*
X115299Y503311D02*
D03*
Y520311D02*
D03*
X20705Y57809D02*
D03*
Y40809D02*
D03*
X-12700Y153280D02*
D03*
Y136280D02*
D03*
X-53611Y311541D02*
D03*
Y328541D02*
D03*
X183388Y439538D02*
D03*
Y422538D02*
D03*
X201676Y439030D02*
D03*
Y422030D02*
D03*
D47*
X-42841Y127001D02*
D03*
X-61842D02*
D03*
X-2201Y115571D02*
D03*
X-21202D02*
D03*
X-19932Y63501D02*
D03*
X-931D02*
D03*
X254164Y300219D02*
D03*
X235164D02*
D03*
X260738Y421641D02*
D03*
X279739D02*
D03*
D48*
X30090Y283210D02*
D03*
X13090D02*
D03*
X94703Y502920D02*
D03*
X77702D02*
D03*
X32358Y266701D02*
D03*
X15359D02*
D03*
X-70027Y329277D02*
D03*
X-87027D02*
D03*
X163168Y158751D02*
D03*
X146169D02*
D03*
X285360Y244856D02*
D03*
X268360D02*
D03*
X-109882Y237491D02*
D03*
X-126881D02*
D03*
X220100Y374650D02*
D03*
X237100D02*
D03*
X256676Y441960D02*
D03*
X273676D02*
D03*
D49*
X88629Y148351D02*
D03*
Y133351D02*
D03*
Y101721D02*
D03*
Y116721D02*
D03*
D50*
X36558Y180980D02*
D03*
Y164463D02*
D03*
D51*
X21336Y149506D02*
D03*
Y137006D02*
D03*
D52*
X41638Y82551D02*
D03*
X21139D02*
D03*
D53*
X-87624Y311098D02*
D03*
X-70624D02*
D03*
X-126881Y219711D02*
D03*
X-109882D02*
D03*
X54729Y266701D02*
D03*
X71728D02*
D03*
X72000Y283210D02*
D03*
X55000D02*
D03*
X94703Y523322D02*
D03*
X77702D02*
D03*
X52678Y553721D02*
D03*
X35679D02*
D03*
X191380Y302260D02*
D03*
X174380D02*
D03*
X236492Y340604D02*
D03*
X219492D02*
D03*
X265549Y480061D02*
D03*
X282548D02*
D03*
X272660Y458470D02*
D03*
X255660D02*
D03*
X282603Y496989D02*
D03*
X265602D02*
D03*
X195110Y505529D02*
D03*
X212110D02*
D03*
X288596Y302166D02*
D03*
X271595D02*
D03*
X146169Y177801D02*
D03*
X163168D02*
D03*
X268360Y226060D02*
D03*
X285360D02*
D03*
X220100Y356870D02*
D03*
X237100D02*
D03*
X-22252Y242571D02*
D03*
X-39251D02*
D03*
X-56542D02*
D03*
X-73541D02*
D03*
X-135282Y297181D02*
D03*
X-152281D02*
D03*
X219630Y458883D02*
D03*
X236630D02*
D03*
D54*
X-131880Y322580D02*
D03*
X-106880D02*
D03*
D55*
X-9281Y98651D02*
D03*
X-14282D02*
D03*
X-19281D02*
D03*
X-24282D02*
D03*
D56*
X46838Y144691D02*
D03*
Y101691D02*
D03*
X61839D02*
D03*
Y144691D02*
D03*
D57*
X37839Y140691D02*
D03*
Y135691D02*
D03*
Y130691D02*
D03*
Y125691D02*
D03*
Y120691D02*
D03*
Y115691D02*
D03*
Y110691D02*
D03*
Y105691D02*
D03*
X70838D02*
D03*
Y110691D02*
D03*
Y115691D02*
D03*
Y120691D02*
D03*
Y125691D02*
D03*
Y130691D02*
D03*
Y135691D02*
D03*
Y140691D02*
D03*
D58*
X-39913Y363523D02*
D03*
Y375523D02*
D03*
Y387523D02*
D03*
Y399523D02*
D03*
Y411523D02*
D03*
Y423523D02*
D03*
Y435523D02*
D03*
Y447523D02*
D03*
Y459523D02*
D03*
Y471523D02*
D03*
Y483523D02*
D03*
Y495523D02*
D03*
Y507523D02*
D03*
Y519523D02*
D03*
Y531523D02*
D03*
Y543523D02*
D03*
Y555523D02*
D03*
Y567523D02*
D03*
Y579523D02*
D03*
Y591523D02*
D03*
X-173913D02*
D03*
Y579523D02*
D03*
Y567523D02*
D03*
Y555523D02*
D03*
Y543523D02*
D03*
Y531523D02*
D03*
Y519523D02*
D03*
Y507523D02*
D03*
Y495523D02*
D03*
Y483523D02*
D03*
Y471523D02*
D03*
Y459523D02*
D03*
Y447523D02*
D03*
Y435523D02*
D03*
Y423523D02*
D03*
Y411523D02*
D03*
Y399523D02*
D03*
Y387523D02*
D03*
Y375523D02*
D03*
Y363523D02*
D03*
D59*
X-166951Y349111D02*
D03*
X-154951D02*
D03*
X-142951D02*
D03*
X-130951D02*
D03*
X-118952D02*
D03*
X-106952D02*
D03*
X-94951D02*
D03*
X-82951D02*
D03*
X-70951D02*
D03*
X-58952D02*
D03*
X-46952D02*
D03*
D60*
X-127767Y399665D02*
D03*
X-98531D02*
D03*
Y428214D02*
D03*
X-127767D02*
D03*
X-88900Y520721D02*
D03*
X-118293Y520700D02*
D03*
Y550769D02*
D03*
X-88900D02*
D03*
D61*
X-71511Y262131D02*
D03*
X-76512D02*
D03*
X-81511D02*
D03*
X-86512D02*
D03*
Y291592D02*
D03*
X-81511D02*
D03*
X-76512D02*
D03*
X-71511D02*
D03*
D62*
X-93742Y269361D02*
D03*
Y274361D02*
D03*
Y279361D02*
D03*
Y284361D02*
D03*
X-64281D02*
D03*
Y279361D02*
D03*
Y274361D02*
D03*
Y269361D02*
D03*
D64*
X152575Y267901D02*
D03*
X111074D02*
D03*
Y289401D02*
D03*
X152575D02*
D03*
X141810Y123870D02*
D03*
X183310D02*
D03*
Y145370D02*
D03*
X141810D02*
D03*
X288681Y282698D02*
D03*
X247181D02*
D03*
Y261198D02*
D03*
X288681D02*
D03*
D65*
X197247Y334953D02*
D03*
Y359953D02*
D03*
Y384953D02*
D03*
X173247Y334953D02*
D03*
Y359953D02*
D03*
Y384953D02*
D03*
D66*
X-71120Y157630D02*
D03*
Y144630D02*
D03*
D67*
X-15511Y504851D02*
D03*
Y523851D02*
D03*
X9888Y504851D02*
D03*
Y523851D02*
D03*
X76781Y543519D02*
D03*
Y562519D02*
D03*
D68*
X56219Y505461D02*
D03*
X37218D02*
D03*
X2879Y19051D02*
D03*
X-16122D02*
D03*
X57991Y39406D02*
D03*
X38991D02*
D03*
D69*
X103728Y186691D02*
D03*
X86229D02*
D03*
D70*
X56979Y184151D02*
D03*
X69478D02*
D03*
D71*
X84678Y166371D02*
D03*
X100199D02*
D03*
D72*
X119784Y149001D02*
D03*
Y168501D02*
D03*
D73*
X7348Y136051D02*
D03*
Y156051D02*
D03*
D74*
X133078Y503311D02*
D03*
Y520311D02*
D03*
X152128Y503311D02*
D03*
Y520311D02*
D03*
X215646Y318516D02*
D03*
Y301516D02*
D03*
X-194582Y557921D02*
D03*
Y574921D02*
D03*
Y521091D02*
D03*
Y538091D02*
D03*
X11158Y209941D02*
D03*
Y226941D02*
D03*
D75*
X148319Y558771D02*
D03*
Y586771D02*
D03*
D76*
X257780Y200660D02*
D03*
X285780D02*
D03*
D77*
X-124732Y277471D02*
D03*
Y258471D02*
D03*
X-18052Y268631D02*
D03*
Y287631D02*
D03*
D98*
X-22282Y82651D02*
D03*
X-11281D02*
D03*
D99*
X-16782Y84151D02*
D03*
D103*
X-79012Y276861D02*
D03*
D104*
X240849Y393441D02*
D03*
X236348D02*
D03*
X231849D02*
D03*
X227349D02*
D03*
X222849D02*
D03*
X218348D02*
D03*
Y424441D02*
D03*
X222849D02*
D03*
X227349D02*
D03*
X231849D02*
D03*
X236348D02*
D03*
X240849D02*
D03*
D121*
X169900Y71120D02*
D03*
X-147871Y71121D02*
D03*
D122*
X134900Y71120D02*
D03*
X-182872Y71121D02*
D03*
D127*
X259461Y254042D02*
D03*
X271837Y313379D02*
D03*
X265357Y433697D02*
D03*
X-24216Y374015D02*
D03*
X-14351Y398399D02*
D03*
X-116586Y129286D02*
D03*
X-108712Y124968D02*
D03*
X-99894Y110797D02*
D03*
X-134874Y188468D02*
D03*
X-152908Y184150D02*
D03*
X-154443Y249225D02*
D03*
X-103391Y268478D02*
D03*
X265774Y367198D02*
D03*
X246380Y374650D02*
D03*
X-229362Y513334D02*
D03*
X-59710Y260669D02*
D03*
X-65387Y289371D02*
D03*
X-69800Y295584D02*
D03*
X-31575Y250643D02*
D03*
X-155702Y514350D02*
D03*
X-239776Y495808D02*
D03*
X-201373Y383540D02*
D03*
X-197612Y296926D02*
D03*
X-222758Y288798D02*
D03*
Y273304D02*
D03*
X282194Y186944D02*
D03*
X290322Y184912D02*
D03*
X258034Y242600D02*
D03*
X199330Y265440D02*
D03*
X142748Y513334D02*
D03*
X37846Y544830D02*
D03*
X85090Y289560D02*
D03*
X93980Y292100D02*
D03*
X21608Y275100D02*
D03*
X9702Y291134D02*
D03*
X24951Y257760D02*
D03*
X50546Y211328D02*
D03*
X-100838Y188722D02*
D03*
X273812Y433324D02*
D03*
X53594Y167894D02*
D03*
X48403Y161179D02*
D03*
X124460Y273605D02*
D03*
X211328Y432054D02*
D03*
X192786Y429733D02*
D03*
X224028Y319786D02*
D03*
X272796Y235966D02*
D03*
X276860Y253238D02*
D03*
X24130Y160274D02*
D03*
X31242Y148844D02*
D03*
X38862Y144780D02*
D03*
X28448Y133096D02*
D03*
X24130Y93408D02*
D03*
X-31875Y98794D02*
D03*
X59944Y151638D02*
D03*
X45466Y167640D02*
D03*
X68580Y149098D02*
D03*
X99954Y134492D02*
D03*
X100325Y119131D02*
D03*
X23368Y167894D02*
D03*
X30480Y71120D02*
D03*
X58420Y83820D02*
D03*
X13716Y110490D02*
D03*
X40640Y99060D02*
D03*
X-163620Y569514D02*
D03*
X-156571Y572409D02*
D03*
X-197612Y284226D02*
D03*
X-200406Y261112D02*
D03*
X244312Y36576D02*
D03*
X5080Y99060D02*
D03*
X-40005Y115951D02*
D03*
X-55951Y390271D02*
D03*
X57658Y418973D02*
D03*
X222969Y253876D02*
D03*
X208261Y256051D02*
D03*
X175594Y270035D02*
D03*
X143522Y283597D02*
D03*
X3683Y536798D02*
D03*
X-62230Y495300D02*
D03*
X-161936Y223371D02*
D03*
X-189230Y159004D02*
D03*
X-147807Y211964D02*
D03*
X-143637Y248008D02*
D03*
X-83693Y242381D02*
D03*
X-75603Y207446D02*
D03*
X-75Y212015D02*
D03*
X-21336Y224409D02*
D03*
X-35277Y216183D02*
D03*
X-56365Y95250D02*
D03*
X-44693Y106923D02*
D03*
X-30146Y140286D02*
D03*
X21082Y70866D02*
D03*
X-33020Y78740D02*
D03*
X238506Y220472D02*
D03*
X273361Y282589D02*
D03*
X261620Y273592D02*
D03*
X230248Y257429D02*
D03*
X230057Y270383D02*
D03*
X213740Y263227D02*
D03*
X246590Y361441D02*
D03*
X280389Y453500D02*
D03*
X271730Y514300D02*
D03*
X222504Y532638D02*
D03*
X225044Y499364D02*
D03*
X255578Y469689D02*
D03*
X251460Y497840D02*
D03*
X-139516Y462464D02*
D03*
X-211041Y411701D02*
D03*
X-194310Y365252D02*
D03*
X-134239Y307254D02*
D03*
X20361Y328126D02*
D03*
X-10668Y360172D02*
D03*
X-133574Y364344D02*
D03*
X-95686Y330665D02*
D03*
X161434Y296292D02*
D03*
X46231Y247691D02*
D03*
X107708Y150678D02*
D03*
X129756Y134275D02*
D03*
X76784Y135833D02*
D03*
X63103Y294513D02*
D03*
X-60089Y308102D02*
D03*
X-93980Y292100D02*
D03*
X-106680Y290830D02*
D03*
X-120904Y225552D02*
D03*
X-35924Y37269D02*
D03*
X211823Y422910D02*
D03*
X266372Y469085D02*
D03*
X269934Y334180D02*
D03*
X275455Y468249D02*
D03*
X272780Y269240D02*
D03*
X265292Y292839D02*
D03*
X271272Y409956D02*
D03*
X207264Y406654D02*
D03*
X208129Y368157D02*
D03*
X257702Y285393D02*
D03*
X143248Y130548D02*
D03*
X131486Y162560D02*
D03*
X154940Y149860D02*
D03*
X107708Y163909D02*
D03*
X121920Y182395D02*
D03*
X199736Y148775D02*
D03*
X201786Y45856D02*
D03*
X267122Y184150D02*
D03*
X259298Y46772D02*
D03*
X259969Y86360D02*
D03*
X150985Y36830D02*
D03*
X22860Y217043D02*
D03*
X1270Y231140D02*
D03*
X-14192Y204597D02*
D03*
X115702Y188257D02*
D03*
X246507Y273937D02*
D03*
X87630Y271145D02*
D03*
X223904Y293320D02*
D03*
X-43316Y297808D02*
D03*
X-7827Y285673D02*
D03*
X-163198Y294640D02*
D03*
X-175714Y344184D02*
D03*
X-80010Y148590D02*
D03*
X-87630Y156210D02*
D03*
X-188098Y220558D02*
D03*
X-175260Y160020D02*
D03*
X-105664Y361950D02*
D03*
X-121524Y323422D02*
D03*
X-54067Y260669D02*
D03*
X35905Y254345D02*
D03*
X228600Y332740D02*
D03*
X156975Y366525D02*
D03*
X102870Y297222D02*
D03*
Y332740D02*
D03*
X88773Y326390D02*
D03*
X66675Y323088D02*
D03*
X168910Y344551D02*
D03*
X-58420Y473710D02*
D03*
X85051Y532091D02*
D03*
X-201646Y203790D02*
D03*
X-175260Y351790D02*
D03*
X-150070Y363813D02*
D03*
X-158647Y333967D02*
D03*
X-120853Y359937D02*
D03*
X-121920Y377190D02*
D03*
X-161838Y388293D02*
D03*
X-199644Y430343D02*
D03*
X-192804Y487553D02*
D03*
X-125730Y460502D02*
D03*
X-153670Y436880D02*
D03*
X138048Y322919D02*
D03*
X62089Y128441D02*
D03*
X54480Y135249D02*
D03*
X46589Y128441D02*
D03*
X54338D02*
D03*
X46589Y117941D02*
D03*
X54338D02*
D03*
X62089D02*
D03*
X54338Y110441D02*
D03*
X-83217Y514392D02*
D03*
X-94639Y527267D02*
D03*
X-94327Y514392D02*
D03*
X-113030Y514350D02*
D03*
X-123190D02*
D03*
X-83321Y526956D02*
D03*
X-83820Y544830D02*
D03*
X-93980Y556260D02*
D03*
X-83820D02*
D03*
X-113293Y545770D02*
D03*
X-123293D02*
D03*
X-113293Y555770D02*
D03*
X-123293D02*
D03*
X-93980Y544830D02*
D03*
X-113030Y527050D02*
D03*
X-123190D02*
D03*
X-122767Y423214D02*
D03*
X-132767D02*
D03*
X-122767Y433214D02*
D03*
X-132767D02*
D03*
X-93532Y423214D02*
D03*
X-103532D02*
D03*
X-93532Y433214D02*
D03*
X-103532D02*
D03*
X-93532Y394665D02*
D03*
X-103532D02*
D03*
X-93532Y404665D02*
D03*
X-103532D02*
D03*
X-122767Y394665D02*
D03*
X-132767D02*
D03*
X-122767Y404665D02*
D03*
X-132767D02*
D03*
X-84303Y282154D02*
D03*
X-73719D02*
D03*
X-79012Y276861D02*
D03*
X-73719Y271569D02*
D03*
X-84303D02*
D03*
X133350Y558800D02*
D03*
X74930Y171450D02*
D03*
Y52070D02*
D03*
X245094Y416560D02*
D03*
X246924Y407670D02*
D03*
X-78373Y302061D02*
D03*
X228477Y438139D02*
D03*
X6560Y53784D02*
D03*
X-30480Y66040D02*
D03*
X214630Y384810D02*
D03*
X184150Y345440D02*
D03*
X-12700Y162560D02*
D03*
X-1405Y80145D02*
D03*
X-56537Y114173D02*
D03*
X-86009Y142720D02*
D03*
X-129204Y143675D02*
D03*
X191770Y405130D02*
D03*
X203200Y449580D02*
D03*
X93980Y66040D02*
D03*
X13761Y92804D02*
D03*
X-255270Y483870D02*
D03*
X-13800Y103760D02*
D03*
X3624Y294454D02*
D03*
X-186690Y477520D02*
D03*
X-59690Y566420D02*
D03*
X-160020Y556260D02*
D03*
X-199390Y586740D02*
D03*
X-288290Y370840D02*
D03*
X-195580Y323850D02*
D03*
X-257810Y204470D02*
D03*
X-265430Y86360D02*
D03*
X-271780Y34290D02*
D03*
X-179070Y104140D02*
D03*
X-133350Y88900D02*
D03*
X284480Y54610D02*
D03*
X228600Y68580D02*
D03*
X248920Y481330D02*
D03*
X224790Y474980D02*
D03*
X70354Y514431D02*
D03*
X-25400Y537210D02*
D03*
X82409Y567549D02*
D03*
X-54610Y364490D02*
D03*
X-137956Y279400D02*
D03*
X-106680Y250190D02*
D03*
X-40911Y252350D02*
D03*
X63500Y231140D02*
D03*
X-3731Y128919D02*
D03*
X119380Y106680D02*
D03*
X-41910Y163231D02*
D03*
X-98096Y64617D02*
D03*
X-110490Y268478D02*
D03*
X246380Y384810D02*
D03*
X-24130Y494030D02*
D03*
X-60960Y508000D02*
D03*
X-130810Y179070D02*
D03*
X-144780Y184150D02*
D03*
X15240Y238760D02*
D03*
X59690Y243840D02*
D03*
X168910Y36830D02*
D03*
X160020Y528320D02*
D03*
X165100Y586740D02*
D03*
X117323Y571298D02*
D03*
X-160020Y521970D02*
D03*
X-269240Y485140D02*
D03*
X-228600Y524510D02*
D03*
X-205680Y530920D02*
D03*
X-217170Y519430D02*
D03*
X198120Y349250D02*
D03*
X-147375Y317399D02*
D03*
X-162927Y360616D02*
D03*
X26670Y491490D02*
D03*
X15240Y584200D02*
D03*
X-186690Y459740D02*
D03*
X-203200Y549910D02*
D03*
X-186690Y530860D02*
D03*
X-110490Y495300D02*
D03*
X-144328Y416035D02*
D03*
X-162632Y404883D02*
D03*
X-163322Y374650D02*
D03*
X-160020Y508000D02*
D03*
D128*
X-134633Y139944D02*
G03*
X-147223Y146857I-10418J-4053D01*
G01*
X-147391Y146857D02*
X-147390D01*
X257556Y306642D02*
X257623Y306574D01*
X259520D01*
X266324Y313379D02*
X271837D01*
X259520Y306574D02*
X266324Y313379D01*
X-20447Y399523D02*
X-19558Y398634D01*
X-14586D02*
X-14351Y398399D01*
X-19558Y398634D02*
X-14586D01*
X-39913Y399523D02*
X-20447D01*
X253598Y302183D02*
X254164D01*
X198317Y269506D02*
X202890D01*
X-121126Y119996D02*
X-120637Y119507D01*
X-123063Y126603D02*
Y130159D01*
Y126603D02*
X-119269Y122809D01*
X-120637Y119507D02*
X-117081D01*
X-119269Y122809D02*
X-115713D01*
X-117081Y119507D02*
X-112763Y115189D01*
X-115713Y122809D02*
X-111395Y118491D01*
X-124604Y131700D02*
X-123063Y130159D01*
X-153803Y119996D02*
X-121126D01*
X-94287Y110797D02*
X-93203Y109713D01*
X-126389Y131700D02*
X-124604D01*
X-92820D02*
X-92115D01*
X-112763Y115189D02*
X-104661D01*
X-106029Y118491D02*
X-92820Y131700D01*
X-104661Y115189D02*
X-99854Y119996D01*
X-99894Y110797D02*
X-94287D01*
X-99854Y119996D02*
X-95978D01*
X-111395Y118491D02*
X-106029D01*
X-92115Y131700D02*
X-87572Y136243D01*
X-69420D01*
X-131887Y137198D02*
X-126389Y131700D01*
X-95978Y119996D02*
X-93746Y117764D01*
X-86074Y93290D02*
Y109983D01*
X-93746Y117655D02*
Y117764D01*
Y117655D02*
X-86074Y109983D01*
X-156718Y155448D02*
Y178800D01*
Y189500D02*
Y203187D01*
X-159385Y186833D02*
X-156718Y189500D01*
X-159385Y181467D02*
Y186833D01*
Y181467D02*
X-156718Y178800D01*
X241536Y348294D02*
X244620Y345211D01*
X213501Y348294D02*
X241536D01*
X240480Y364490D02*
X244077Y368088D01*
X231985Y364490D02*
X240480D01*
X253067Y351543D02*
Y364293D01*
X249273Y368088D02*
X253067Y364293D01*
X244077Y368088D02*
X249273D01*
X263144Y344144D02*
Y355408D01*
X220100Y356870D02*
X223184Y359954D01*
X227449D02*
X231985Y364490D01*
X263144Y355408D02*
X273384Y365648D01*
X253067Y351543D02*
X254089Y350521D01*
X223184Y359954D02*
X227449D01*
X273384Y365648D02*
Y376085D01*
X224367Y365377D02*
X228933Y369944D01*
X215872Y365377D02*
X224367D01*
X-29234Y257463D02*
Y316057D01*
Y257463D02*
X-21963Y250191D01*
X-66187Y257291D02*
X-63087Y254192D01*
X-67059Y253493D02*
X-62111Y248546D01*
X-67464Y253493D02*
X-67059D01*
X-69020Y250191D02*
X-68426D01*
X-65413Y247178D01*
Y238708D02*
Y247178D01*
X-63087Y254192D02*
X-53759D01*
X-67032Y305886D02*
X-51977Y290831D01*
X-65387Y284567D02*
Y289371D01*
X-70451Y295584D02*
X-69800D01*
X-78373Y301167D02*
X-76512Y299306D01*
Y291592D02*
Y299306D01*
X-71511Y291592D02*
Y294523D01*
X-70451Y295584D01*
X-51977Y290831D02*
X-43810D01*
X-7493Y187483D02*
Y231406D01*
X-12466Y236379D02*
Y245521D01*
X-16668Y178308D02*
X-7493Y187483D01*
X-14732Y217424D02*
X-10795Y221361D01*
X-12466Y236379D02*
X-7493Y231406D01*
X-16968Y233138D02*
X-10795Y226965D01*
Y221361D02*
Y226965D01*
X-59844Y233138D02*
X-16968D01*
X-21963Y250191D02*
X-17137D01*
X-12466Y245521D01*
X-162713Y519523D02*
X-160875D01*
X-173913D02*
X-162713D01*
X-160875D02*
X-155702Y514350D01*
X-233299Y488569D02*
X-214630Y507238D01*
X-244648Y477220D02*
X-233299Y488569D01*
Y489331D01*
X-239776Y495808D02*
X-233299Y489331D01*
X-201373Y383540D02*
Y398377D01*
X-204089Y275405D02*
Y299609D01*
X-193498Y310200D01*
X-204089Y275405D02*
X-193929Y265245D01*
X-193498Y310200D02*
X-179040D01*
X255351Y236123D02*
X256773D01*
X263008Y229888D01*
X243547Y236553D02*
X254921D01*
X255351Y236123D01*
X263165Y229888D02*
X266993Y226060D01*
X263008Y229888D02*
X263165D01*
X199330Y265440D02*
X199840Y265950D01*
X202279Y266436D02*
Y268214D01*
X199840Y265950D02*
X201794D01*
X202279Y266436D01*
X254164Y300219D02*
X256111Y302166D01*
X231266Y427844D02*
Y428600D01*
X231487Y424802D02*
X231849Y424441D01*
X229109Y430757D02*
X231266Y428600D01*
X231487Y424802D02*
Y427622D01*
X229109Y430757D02*
Y437508D01*
X231266Y427844D02*
X231487Y427622D01*
X88757Y283083D02*
X91297Y285623D01*
X96663D01*
X72127Y283083D02*
X88757D01*
X72000Y283210D02*
X72127Y283083D01*
X96663Y285623D02*
X100441Y289401D01*
X111074D01*
X1270Y219830D02*
X20315Y200785D01*
X88907D01*
X94979Y194713D01*
X-153952Y205487D02*
X-78456D01*
X-133364Y208789D02*
X-83420D01*
X-131996Y212091D02*
X-84788D01*
X-33528Y119888D02*
X-30369Y123047D01*
Y123224D01*
X-27854Y125738D02*
X-27678D01*
X-33528Y108927D02*
Y119888D01*
X-20367Y133049D02*
Y174705D01*
X-27678Y125738D02*
X-20367Y133049D01*
X-30369Y123224D02*
X-27854Y125738D01*
X-25166Y133096D02*
X-23669Y134593D01*
X-32116Y133096D02*
X-25166D01*
X-23669Y134593D02*
Y176490D01*
X94979Y178669D02*
Y194713D01*
X138167Y273818D02*
X158453D01*
X124460Y250971D02*
Y273605D01*
X131572Y275742D02*
X139414Y267901D01*
X129049Y282936D02*
X138167Y273818D01*
X137045Y279609D02*
X139534Y277120D01*
X159821D01*
X129049Y282936D02*
Y309881D01*
X127143Y280082D02*
X131483Y275742D01*
X137045Y279609D02*
Y294822D01*
X124460Y250971D02*
X131444Y243987D01*
X131483Y275742D02*
X131572D01*
X139414Y267901D02*
X152575D01*
X119025Y280082D02*
X127143D01*
X201676Y439030D02*
X202004Y438702D01*
X203993Y440691D02*
X219328D01*
X202004Y438702D02*
X203993Y440691D01*
X211358Y432024D02*
X223171D01*
X211328Y432054D02*
X211358Y432024D01*
X192843Y429189D02*
Y429630D01*
X183388Y439084D02*
X192843Y429630D01*
X183388Y439084D02*
Y439538D01*
X210901Y310386D02*
X246018D01*
X205199Y304684D02*
X210901Y310386D01*
X209869Y295836D02*
X215549Y301516D01*
X215646D01*
X209594Y295836D02*
X209869D01*
X207890Y294132D02*
X209594Y295836D01*
X207890Y285674D02*
Y294132D01*
X246018Y310386D02*
X248553Y307850D01*
Y307228D02*
Y307850D01*
Y307228D02*
X253598Y302183D01*
X223718Y293134D02*
X223904Y293320D01*
X217103Y293134D02*
X223718D01*
X254164Y300219D02*
Y302183D01*
X213501Y289532D02*
X217103Y293134D01*
X216916Y319786D02*
X224028D01*
X215646Y318516D02*
X216916Y319786D01*
X285360Y226060D02*
Y246380D01*
X276860Y253047D02*
Y253238D01*
Y253047D02*
X285051Y244856D01*
X285360D01*
X8777Y157480D02*
X20443D01*
X40529Y155321D02*
X46527Y149322D01*
X20443Y157480D02*
X23236Y160274D01*
X24130D01*
X28559Y155321D02*
X40529D01*
X27035Y153797D02*
X28559Y155321D01*
X26127Y153797D02*
X27035D01*
X21836Y149506D02*
X26127Y153797D01*
X21336Y149506D02*
X21836D01*
X46838Y144691D02*
Y146491D01*
X46527Y146802D02*
X46838Y146491D01*
X46527Y146802D02*
Y149322D01*
X34905Y136824D02*
X35728Y136002D01*
X37528D01*
X37839Y135691D01*
X31242Y139612D02*
Y148844D01*
Y139612D02*
X34029Y136824D01*
X34905D01*
X38350Y144268D02*
X38862Y144780D01*
X145789Y221334D02*
X161653D01*
X163830Y219156D01*
X142487Y224636D02*
X145789Y221334D01*
X101059Y224636D02*
X142487D01*
X62857Y262838D02*
X101059Y224636D01*
X62857Y262838D02*
Y275861D01*
X56367Y282351D02*
X62857Y275861D01*
X56367Y282351D02*
Y283210D01*
X54833D02*
X56367D01*
X156187Y230840D02*
X168669D01*
X152146Y234881D02*
X156187Y230840D01*
X152146Y234881D02*
Y254232D01*
X160606Y262692D01*
X168669Y230840D02*
X175514Y223996D01*
Y214317D02*
Y223996D01*
X168669Y207472D02*
X175514Y214317D01*
X154980Y207472D02*
X168669D01*
X141119Y221334D02*
X154980Y207472D01*
X-71392Y48161D02*
Y50119D01*
X-43421Y78089D01*
X-43421D01*
X-24643Y96867D01*
Y97290D01*
X-24282Y97651D01*
X-60477Y81978D02*
X-33528Y108927D01*
X-82306Y81978D02*
X-60477D01*
X84678Y164352D02*
X91875Y157155D01*
X127402D01*
X69723Y151135D02*
Y159527D01*
X68580Y149992D02*
X69723Y151135D01*
X68580Y149098D02*
Y149992D01*
X75623Y129355D02*
X79338Y125640D01*
X100262D02*
X114387Y139765D01*
X79338Y125640D02*
X100262D01*
X73772Y129558D02*
X74648D01*
X74850Y129355D01*
X70838Y130691D02*
X72638D01*
X73772Y129558D01*
X74850Y129355D02*
X75623D01*
X96517Y140969D02*
X109252D01*
X117284Y149001D01*
X80774Y140934D02*
X96483D01*
X79399Y142310D02*
X80774Y140934D01*
X96483D02*
X96517Y140969D01*
X25601Y109710D02*
X25601D01*
X47117Y91657D02*
X49086Y89687D01*
X28870Y102314D02*
Y106441D01*
X21139Y82551D02*
Y83039D01*
X47117Y91657D02*
Y101412D01*
X21902Y81788D02*
X29565D01*
X25601Y109710D02*
X28870Y106441D01*
X46838Y101691D02*
X47117Y101412D01*
X28870Y102314D02*
X30607Y100577D01*
X49086Y62163D02*
Y89687D01*
X29565Y81788D02*
X30607Y82830D01*
Y100577D01*
X21445Y113866D02*
X25601Y109710D01*
X49086Y62163D02*
X51559Y59691D01*
X33909Y96312D02*
X41638Y88582D01*
X33909Y96312D02*
Y101944D01*
X21139Y82551D02*
X21902Y81788D01*
X41638Y82551D02*
Y88582D01*
X32172Y103682D02*
X33909Y101944D01*
X32172Y103682D02*
Y108024D01*
X34839Y110691D01*
X182872Y361618D02*
X193707Y372453D01*
X174912Y361618D02*
X182872D01*
X173247Y359953D02*
X174912Y361618D01*
X-194509Y249660D02*
X-193929Y250240D01*
Y265245D01*
X-194509Y238740D02*
X-191207Y235438D01*
X-194509Y238740D02*
Y249660D01*
X-191207Y240108D02*
X-186846Y235747D01*
X-191207Y248292D02*
X-187651Y251848D01*
Y252589D02*
X-185040Y255200D01*
X-186846Y235747D02*
X-176446D01*
X-185040Y255200D02*
X-179040D01*
X-191207Y240108D02*
Y248292D01*
X-166254Y232547D02*
Y258673D01*
X-187651Y251848D02*
Y252589D01*
X-168948Y261367D02*
X-166254Y258673D01*
X-191207Y233006D02*
Y235438D01*
X-168783Y230018D02*
X-166254Y232547D01*
X-176446Y235747D02*
X-172085Y231386D01*
X-170954Y263370D02*
X-168951Y261367D01*
X-168948D01*
X-168783Y220319D02*
X-153952Y205487D01*
X-168783Y220319D02*
Y230018D01*
X-172085Y218554D02*
Y231386D01*
Y218554D02*
X-156718Y203187D01*
X-57428Y397955D02*
X-55981D01*
X-42524Y390134D02*
X-39913Y387523D01*
X-109636Y386998D02*
X-68385D01*
X-55814Y390134D02*
X-42524D01*
X-55981Y397955D02*
X-42413Y411523D01*
X-55951Y390271D02*
X-55814Y390134D01*
X-42413Y411523D02*
X-39913D01*
X-68385Y386998D02*
X-57428Y397955D01*
X57658Y418973D02*
Y419866D01*
X56488Y421036D02*
X57658Y419866D01*
X37218Y505461D02*
X54142Y488537D01*
X56488Y421036D02*
Y474981D01*
X54142Y477327D02*
X56488Y474981D01*
X54142Y477327D02*
Y488537D01*
X213640Y242605D02*
X213848Y242765D01*
X214588Y243098D02*
X215036Y243546D01*
X210944Y249574D02*
X214738Y253368D01*
X213848Y242765D02*
X214588Y243098D01*
X223851Y247399D02*
X224289Y247375D01*
X215036Y243546D02*
X218889Y247399D01*
X222337Y253244D02*
X222969Y253876D01*
X214738Y253368D02*
Y254328D01*
X218889Y247399D02*
X223851D01*
X204785Y246122D02*
X213021Y246201D01*
X212353Y242379D02*
X213640Y242605D01*
X213021Y246201D02*
X220065Y253244D01*
X222337D01*
X209248Y249574D02*
X210944D01*
X214738Y255064D02*
X230057Y270383D01*
X214738Y254328D02*
X214738Y255064D01*
X208261Y256051D02*
Y256945D01*
X207263Y257942D02*
Y265909D01*
Y257942D02*
X208261Y256945D01*
X208779Y249506D02*
X209246Y249572D01*
X209248Y249574D01*
X247349Y261030D02*
X288512D01*
X201897Y300042D02*
Y318382D01*
X193160Y291305D02*
X201897Y300042D01*
X163908Y267892D02*
Y272304D01*
X175594Y270035D02*
X182451D01*
X167210Y269260D02*
Y273672D01*
X176882Y259588D02*
X185904D01*
X182451Y270035D02*
X182890Y270474D01*
X167210Y269260D02*
X176882Y259588D01*
X163908Y267892D02*
X178816Y252984D01*
X167096Y273786D02*
Y274515D01*
X163794Y272419D02*
X163908Y272304D01*
X178816Y212949D02*
Y252984D01*
X163794Y272419D02*
Y273147D01*
X167096Y273786D02*
X167210Y273672D01*
X146215Y280422D02*
X161189D01*
X167096Y274515D01*
X166848Y286334D02*
X182279D01*
X166709Y286473D02*
X166848Y286334D01*
X182279D02*
X182890Y285723D01*
Y285674D02*
Y285723D01*
X161434Y296292D02*
X162066Y296924D01*
Y299226D01*
X165100Y302260D01*
X174380D01*
X143522Y283114D02*
Y283597D01*
X142688Y305520D02*
X147049Y309881D01*
X142688Y300464D02*
Y305520D01*
X137045Y294822D02*
X142688Y300464D01*
X25268Y321507D02*
X26309Y322548D01*
X45403D01*
X25268Y314100D02*
Y321507D01*
X-174698Y518739D02*
X-173913Y519523D01*
X-193040Y507238D02*
X-181539Y518739D01*
X-174698D01*
X-214630Y507238D02*
X-193040D01*
X-162713Y519523D02*
X-160266Y521970D01*
X-160020D01*
X-255270Y476934D02*
Y483870D01*
X-254897Y477220D02*
X-244648D01*
X-179025Y420912D02*
X-176413Y423523D01*
X-173913D01*
X-179025Y420726D02*
Y420912D01*
X-201373Y398377D02*
X-179025Y420726D01*
X-168803Y414993D02*
X-167761Y416035D01*
X-144328D01*
X-168803Y414134D02*
Y414993D01*
X-173913Y411523D02*
X-171413D01*
X-168803Y414134D01*
X-105564Y321264D02*
X-62572D01*
X-106880Y322580D02*
X-105564Y321264D01*
X-163449Y60579D02*
Y205248D01*
X-191207Y233006D02*
X-163449Y205248D01*
X-179040Y288200D02*
X-176429Y285589D01*
X-162966Y275175D02*
Y278790D01*
X-176429Y285589D02*
X-169765D01*
X-162966Y278790D01*
Y275175D02*
X-156346Y268555D01*
X-145082D01*
X-218071Y20484D02*
Y65417D01*
X-236475Y83821D02*
X-218071Y65417D01*
X-246651Y83821D02*
X-236475D01*
X-146050Y43180D02*
X-108966D01*
X-163449Y60579D02*
X-146050Y43180D01*
X-78456Y205487D02*
X-76497Y207446D01*
X-142897Y218322D02*
X-133364Y208789D01*
X-137160Y217255D02*
X-131996Y212091D01*
X-83420Y208789D02*
X-65675Y226534D01*
X-84788Y212091D02*
X-66984Y229895D01*
X-145082Y268555D02*
X-137160Y260632D01*
Y217255D02*
Y260632D01*
X-142897Y218322D02*
Y232629D01*
X-94488Y269054D02*
X-94181Y269361D01*
X-93742D01*
X-94488Y242062D02*
Y269054D01*
X-90170Y229870D02*
Y257814D01*
X-89128Y258856D02*
X-86819D01*
X-86512Y259163D02*
Y262131D01*
X-86819Y258856D02*
X-86512Y259163D01*
X-90170Y257814D02*
X-89128Y258856D01*
X-75375Y256546D02*
Y257140D01*
X-76204Y257969D02*
Y261823D01*
X-75375Y256546D02*
X-69020Y250191D01*
X-76512Y262131D02*
X-76204Y261823D01*
Y257969D02*
X-75375Y257140D01*
X-62111Y248492D02*
X-56542Y242922D01*
X-66187Y257291D02*
Y269054D01*
X-62111Y248492D02*
Y248546D01*
X-56542Y242571D02*
Y242922D01*
X-71511Y257541D02*
X-67464Y253493D01*
X-71511Y257541D02*
Y262131D01*
X-65675Y226534D02*
X-33494D01*
X-66984Y229895D02*
X-61270D01*
X-61211Y229836D01*
X-26763D01*
X-33494Y226534D02*
X-24384Y217424D01*
X-76497Y207446D02*
X-75603D01*
X-24384Y217424D02*
X-14732D01*
X-26763Y229836D02*
X-21336Y224409D01*
X-65413Y238708D02*
X-59844Y233138D01*
X-20367Y174705D02*
X-16764Y178308D01*
X-16668D01*
X-28572Y154309D02*
Y193041D01*
X-31750Y151130D02*
X-28572Y154309D01*
X-13970Y186189D02*
Y204375D01*
X-23669Y176490D02*
X-13970Y186189D01*
X-36188Y137168D02*
X-32116Y133096D01*
X21445Y113866D02*
Y118095D01*
X20048Y119492D02*
X21445Y118095D01*
X20048Y119492D02*
Y123351D01*
X13037Y29210D02*
Y66352D01*
X5721Y73668D02*
X13037Y66352D01*
X2879Y19051D02*
X13055Y29227D01*
X30225D01*
X-22365Y82735D02*
Y91999D01*
X-19281Y95082D02*
Y98651D01*
X-22365Y91999D02*
X-19281Y95082D01*
X-22282Y78961D02*
Y82651D01*
X-24282Y97651D02*
Y98651D01*
X-33020Y78740D02*
X-26193D01*
X-26127Y78806D02*
X-22437D01*
X-22282Y78961D01*
X-26193Y78740D02*
X-26127Y78806D01*
X74101Y142310D02*
X79399D01*
X72483Y140691D02*
X74101Y142310D01*
X269203Y134957D02*
Y145833D01*
X259588Y155448D02*
X269203Y145833D01*
X247396Y155448D02*
X259588D01*
X236686Y134492D02*
Y144738D01*
X247396Y155448D01*
X269203Y134957D02*
X281940Y122220D01*
X252415Y130954D02*
X256026D01*
X240686D02*
X252415D01*
X272780Y269240D02*
Y274011D01*
X269970Y276820D02*
X272780Y274011D01*
X236023Y254045D02*
X236725Y254746D01*
Y263221D01*
X236023Y253882D02*
Y254045D01*
X253059Y267115D02*
X266115D01*
X268097Y269097D01*
Y274947D01*
X236725Y263221D02*
X240618Y267115D01*
X241309D01*
X253059Y267115D01*
X245875Y273306D02*
X246507Y273937D01*
X230248Y257429D02*
X230879Y258061D01*
Y262046D01*
X242139Y273306D01*
X245875D01*
X229489Y247347D02*
X236023Y253882D01*
X224899Y247347D02*
X229489D01*
X224849D02*
X224899D01*
X224289Y247375D02*
X224849Y247347D01*
X207138Y249487D02*
X208779Y249506D01*
X205665Y249487D02*
X207138D01*
X205191Y249961D02*
X205665Y249487D01*
X203519Y246642D02*
X204040Y246122D01*
X201200Y253952D02*
X205191Y249961D01*
X204040Y246122D02*
X204785D01*
X189162Y261000D02*
X203519Y246642D01*
X185904Y259588D02*
X203141Y242351D01*
X212200D01*
X212353Y242379D01*
X196258Y258574D02*
X201200Y253952D01*
X192464Y262368D02*
Y268214D01*
X187890Y270474D02*
X188501Y268214D01*
X189162Y261000D01*
X192464Y268214D02*
X192890Y270474D01*
X192464Y262368D02*
X196258Y258574D01*
X202279Y268214D02*
X202890Y268825D01*
X207279Y265925D02*
Y269863D01*
X207890Y270474D01*
X207263Y265909D02*
X207279Y265925D01*
X212890Y270474D02*
X213501Y268214D01*
X213740Y263227D01*
X217540Y334025D02*
Y338652D01*
X201897Y318382D02*
X217540Y334025D01*
Y338652D02*
X219492Y340604D01*
X210488Y332155D02*
Y345281D01*
X205619Y327286D02*
X210488Y332155D01*
X259504Y340504D02*
X263144Y344144D01*
X247863Y432049D02*
X251571Y428340D01*
Y413988D02*
Y428340D01*
Y413988D02*
X255587Y409972D01*
X236709Y428208D02*
X240526Y432024D01*
X241872Y432049D02*
X247863D01*
X240526Y432024D02*
X241848D01*
X241872Y432049D01*
X273731Y492382D02*
Y501596D01*
X268618Y504609D02*
X270718D01*
X273731Y501596D01*
X254869Y518358D02*
Y518921D01*
Y518358D02*
X268618Y504609D01*
X254869Y518921D02*
Y522001D01*
X-81511Y262131D02*
Y274361D01*
X243368Y516251D02*
X259547Y500073D01*
X262519D01*
X265602Y496989D01*
X251053Y474323D02*
X251583Y474853D01*
X233578Y474323D02*
X251053D01*
X251583Y474853D02*
X251603D01*
X255578Y458551D02*
Y469689D01*
X259787Y488188D02*
X269537D01*
X255397Y483798D02*
X259787Y488188D01*
X255397Y478647D02*
Y483798D01*
X251984Y475234D02*
X255397Y478647D01*
X269537Y488188D02*
X273731Y492382D01*
X251603Y474853D02*
X251984Y475234D01*
X251984D01*
X227758Y468503D02*
X233578Y474323D01*
X255578Y458551D02*
X255660Y458470D01*
X222107Y468503D02*
X227758D01*
Y454276D02*
Y468503D01*
X222123Y448641D02*
X227758Y454276D01*
X30465Y586619D02*
X38021Y579063D01*
X43963Y585005D01*
X38021Y579063D02*
X41087Y575997D01*
X52678Y564405D01*
Y553721D02*
Y564405D01*
X43963Y585005D02*
X46477D01*
X55070Y593598D01*
X103872Y461679D02*
X119856D01*
X124047Y465870D01*
X124128D02*
X128489Y470231D01*
X124047Y465870D02*
X124128D01*
X128489Y470231D02*
Y474981D01*
X101750Y463801D02*
Y494039D01*
X103549Y495838D01*
X101750Y463801D02*
X103872Y461679D01*
X103549Y495838D02*
Y559645D01*
X81026Y582168D02*
X103549Y559645D01*
X83250Y593598D02*
X118160Y558689D01*
Y523172D02*
Y558689D01*
X115299Y520311D02*
X118160Y523172D01*
X55070Y593598D02*
X83250D01*
X63678Y582168D02*
X81026D01*
X61997Y580487D02*
X63678Y582168D01*
X-255270Y483870D02*
X-255270Y483870D01*
X-134465Y471523D02*
X-126362Y463420D01*
X-173913Y471523D02*
X-134465D01*
X-126362Y461134D02*
X-125730Y460502D01*
X-126362Y461134D02*
Y463420D01*
X-168090Y462134D02*
X-167761Y462464D01*
X-139516D01*
X-173913Y459523D02*
X-171303Y462134D01*
X-168090D01*
X-164313Y447523D02*
X-153670Y436880D01*
X-173913Y447523D02*
X-164313D01*
X-218218Y418878D02*
X-211041Y411701D01*
X-218218Y418878D02*
Y422460D01*
X-161255Y305308D02*
X-146558D01*
X-162297Y306350D02*
Y325569D01*
Y306350D02*
X-161255Y305308D01*
X-140716Y311150D02*
Y331710D01*
X-146558Y305308D02*
X-140716Y311150D01*
X-123104Y307254D02*
X-106680Y290830D01*
X-134239Y307254D02*
X-123104D01*
X-140716Y331710D02*
X-137679Y334747D01*
X-121524Y323422D02*
Y333705D01*
X-137679Y334747D02*
X-122566D01*
X-121524Y333705D01*
X-159599Y340487D02*
X-159556Y340444D01*
X-171975D02*
X-162347D01*
X-162304Y340487D02*
X-159599D01*
X-162347Y340444D02*
X-162304Y340487D01*
X-159556Y340444D02*
X-102347D01*
X-98791Y344000D01*
X49132Y288912D02*
Y318820D01*
Y288912D02*
X54833Y283210D01*
X45403Y322548D02*
X49132Y318820D01*
X21049Y309881D02*
X25268Y314100D01*
X-21727Y349113D02*
X-10668Y360172D01*
X-150070Y381593D02*
X-145681Y385982D01*
X-150070Y363813D02*
Y381593D01*
X-142951Y364126D02*
X-136257Y370821D01*
X-142951Y349111D02*
Y364126D01*
X-120853Y360059D02*
Y365922D01*
X-125752Y370821D02*
X-120853Y365922D01*
X-136257Y370821D02*
X-125752D01*
X-133574Y363450D02*
Y364344D01*
Y363450D02*
X-130951Y360828D01*
Y349111D02*
Y360828D01*
X-94951Y346611D02*
Y349111D01*
X-98791Y344000D02*
X-97563D01*
X-94951Y346611D01*
X-81352Y337142D02*
X-78860Y334650D01*
X-110284Y337142D02*
X-81352D01*
X-58952Y334194D02*
Y349111D01*
Y334194D02*
X-53611Y328853D01*
Y328541D02*
Y328853D01*
X-29234Y316057D02*
X-21727Y323564D01*
Y349113D01*
X152575Y289401D02*
Y296385D01*
X154965Y298776D01*
Y320986D01*
X143522Y283114D02*
X146215Y280422D01*
X111718Y268544D02*
Y272776D01*
X111074Y267901D02*
X111718Y268544D01*
Y272776D02*
X119025Y280082D01*
X104199Y268280D02*
X110695D01*
X111074Y267901D01*
X94857Y277622D02*
X104199Y268280D01*
X83157Y277622D02*
X94857D01*
X117728Y221334D02*
X141119D01*
X106044Y209650D02*
X117728Y221334D01*
X67183Y181856D02*
X69478Y184151D01*
X67183Y162067D02*
Y181856D01*
Y162067D02*
X69723Y159527D01*
X127402Y157155D02*
X129701Y154856D01*
X114387Y139765D02*
X126320D01*
X129701Y143146D01*
X61410Y297100D02*
X63103Y295406D01*
X61410Y297100D02*
Y305520D01*
X63103Y294513D02*
Y295406D01*
X57049Y309881D02*
X61410Y305520D01*
X-67032Y305886D02*
Y307506D01*
X-88023Y291857D02*
X-87757Y291592D01*
X-103989Y284361D02*
X-93742D01*
X-112542Y284353D02*
X-103997D01*
X-93980Y292100D02*
X-93737Y291857D01*
X-88023D01*
X-122842Y279361D02*
X-93742D01*
X-103997Y284353D02*
X-103989Y284361D01*
X-87757Y291592D02*
X-86512D01*
X37839Y140691D02*
X38039D01*
X38350Y141002D01*
Y144268D01*
X214431Y425233D02*
X216141D01*
X218348Y424441D02*
Y424871D01*
X217987Y425233D02*
X218348Y424871D01*
X211823Y422910D02*
X212109D01*
X217987Y424837D02*
X218348Y424476D01*
X212109Y422910D02*
X214431Y425233D01*
X218348Y424441D02*
Y424476D01*
X216141Y425233D02*
X217987D01*
X272755Y376714D02*
X273384Y376085D01*
X269934Y334180D02*
X270503Y334749D01*
Y347335D01*
X275455Y468249D02*
X276087Y468881D01*
X282548Y473282D02*
Y480061D01*
X276087Y468881D02*
X278147D01*
X282548Y473282D01*
X268097Y274947D02*
X269970Y276820D01*
X266884Y279906D02*
X269970Y276820D01*
X266884Y279906D02*
Y285272D01*
X271299Y289687D01*
X285351D01*
X270503Y347335D02*
X273689Y350521D01*
X215516Y371068D02*
X215985Y371536D01*
X208129Y368157D02*
X209023D01*
X211933Y371068D01*
X215985Y371536D02*
Y374650D01*
X211933Y371068D02*
X215516D01*
X200786Y372453D02*
X207914Y379581D01*
X193707Y372453D02*
X200786D01*
X207914Y379581D02*
Y387253D01*
X285351Y289687D02*
X290440Y294776D01*
X152257Y143383D02*
X157623D01*
X159610Y145370D01*
X150270D02*
X152257Y143383D01*
X1270Y219830D02*
Y231140D01*
X-14192Y204597D02*
X-13970Y204375D01*
X87630Y262401D02*
Y271145D01*
X72236Y266701D02*
X83157Y277622D01*
X-70624Y311098D02*
X-67032Y307506D01*
X-43810Y290831D02*
X-40911Y287932D01*
X-175714Y344184D02*
X-171975Y340444D01*
X-65387Y284567D02*
X-65181Y284361D01*
X160606Y262692D02*
Y266267D01*
X160492Y266381D02*
Y271779D01*
X158453Y273818D02*
X160492Y271779D01*
Y266381D02*
X160606Y266267D01*
X235595Y340604D02*
X236492D01*
X235595Y339975D02*
Y340604D01*
X228600Y332740D02*
Y332980D01*
X235595Y339975D01*
X102870Y332740D02*
X151930D01*
X66675Y323005D02*
X75049Y314631D01*
X66675Y323005D02*
Y323088D01*
X-173913Y387523D02*
X-173144Y388293D01*
X-161838D01*
X-199864Y430343D02*
X-199644D01*
X-206603Y423604D02*
X-199864Y430343D01*
X-215876Y423604D02*
X-206603D01*
X-192804Y488144D02*
X-186918Y494030D01*
X-192804Y487553D02*
Y488144D01*
X-186918Y494030D02*
X-175407D01*
X129542Y329396D02*
X146556D01*
X151930Y332740D02*
X157384Y327286D01*
X146556Y329396D02*
X154965Y320986D01*
X120843Y320697D02*
X129542Y329396D01*
X95469Y503686D02*
Y522556D01*
X94703Y502920D02*
X95469Y503686D01*
X94703Y523322D02*
X95469Y522556D01*
X288512Y261030D02*
X288681Y261198D01*
X247181D02*
X247349Y261030D01*
X247181Y260893D02*
Y261198D01*
Y260893D02*
X247558Y260515D01*
X244218Y258669D02*
X247558Y260515D01*
X240675Y255126D02*
X244218Y258669D01*
X240675Y239425D02*
Y255126D01*
Y239425D02*
X243547Y236553D01*
X266993Y226060D02*
X268360D01*
X290440Y294776D02*
Y300321D01*
X288596Y302166D02*
X290440Y300321D01*
X213501Y286285D02*
Y289532D01*
X205199Y298674D02*
Y304684D01*
X198245Y291720D02*
X205199Y298674D01*
X198245Y286029D02*
Y291720D01*
X197890Y285674D02*
X198245Y286029D01*
X-170954Y263370D02*
Y263589D01*
X-173565Y266200D02*
X-170954Y263589D01*
X-179040Y266200D02*
X-173565D01*
X-177800Y332740D02*
X-169468D01*
X-179040Y332200D02*
X-178340D01*
X-177800Y332740D01*
X-108966Y43180D02*
X-107924Y44222D01*
Y45694D01*
X-111659Y49429D02*
X-107924Y45694D01*
X-111659Y49429D02*
Y50901D01*
X-98096Y64464D01*
Y64617D01*
X-169468Y332740D02*
X-162297Y325569D01*
X-68494Y137168D02*
X-36188D01*
X-69420Y136243D02*
X-68494Y137168D01*
X-131887Y137198D02*
X-131887D01*
X-131887Y137198D02*
X-131887Y137198D01*
X-134379Y139690D02*
X-131887Y137198D01*
X-134633Y139944D02*
X-134379Y139690D01*
X-147390Y146857D02*
X-147223Y146857D01*
X-148127D02*
X-147391Y146857D01*
X-156718Y155448D02*
X-148127Y146857D01*
X-78860Y330319D02*
Y334650D01*
Y330319D02*
X-77818Y329277D01*
X-70027D01*
X-131880Y318843D02*
Y322580D01*
Y318843D02*
X-124776Y311739D01*
X-116089D01*
X-115047Y312781D01*
Y332379D01*
X-110284Y337142D01*
X-85695Y300223D02*
Y309170D01*
Y300223D02*
X-82648Y297176D01*
Y296362D02*
Y297176D01*
X-81511Y291592D02*
Y295225D01*
X-78373Y301167D02*
Y302061D01*
X-82648Y296362D02*
X-81511Y295225D01*
X-87624Y311098D02*
X-85695Y309170D01*
X-57031Y325121D02*
X-53611Y328541D01*
X-58714Y325121D02*
X-57031D01*
X-62572Y321264D02*
X-58714Y325121D01*
X219328Y440691D02*
X222123Y443486D01*
Y448641D01*
X207914Y387253D02*
X214101Y393441D01*
X218348D01*
X214630Y383917D02*
Y384810D01*
Y383917D02*
X216229Y382317D01*
Y378521D02*
Y382317D01*
Y378521D02*
X220100Y374650D01*
X197526Y360232D02*
X210931D01*
X197247Y359953D02*
X197526Y360232D01*
X231487Y393080D02*
X231849Y393441D01*
X231487Y382577D02*
Y393080D01*
X228933Y380023D02*
X231487Y382577D01*
X228933Y369944D02*
Y380023D01*
X211972Y361477D02*
X215872Y365377D01*
X211972Y361274D02*
Y361477D01*
X210931Y360232D02*
X211972Y361274D01*
X198120Y349250D02*
Y359080D01*
X197247Y359953D02*
X198120Y359080D01*
X157384Y327286D02*
X205619D01*
X193160Y285945D02*
Y291305D01*
X192890Y285674D02*
X193160Y285945D01*
X244620Y341766D02*
Y345211D01*
Y341766D02*
X245881Y340504D01*
X-39950Y151130D02*
X-31750D01*
X210488Y345281D02*
X213501Y348294D01*
X-53449Y158631D02*
X-42762D01*
X-53450Y158630D02*
X-53449Y158631D01*
X-42762D02*
X-39762D01*
X-60720Y153631D02*
X-53451D01*
X-53450Y153630D01*
X-64720Y157631D02*
X-60720Y153631D01*
X-71119Y157631D02*
X-64720D01*
X-71120Y157630D02*
X-71119Y157631D01*
X37839Y125691D02*
Y130691D01*
Y123241D02*
Y125691D01*
X24130Y119380D02*
X27352Y122603D01*
X-8883Y80253D02*
X-1513D01*
X-11281Y82651D02*
X-8883Y80253D01*
X246380Y384810D02*
Y388620D01*
X250063Y392303D01*
X266217D01*
X272732Y398819D01*
Y400050D01*
X222314Y376559D02*
X224488Y378733D01*
X220405Y374650D02*
X222314Y376559D01*
X220100Y374650D02*
X220405D01*
X227127Y393219D02*
X227349Y393441D01*
X224488Y383238D02*
X227127Y385877D01*
Y393219D01*
X224488Y378733D02*
Y383238D01*
X-65181Y284361D02*
X-64281D01*
X-93203Y83895D02*
Y109713D01*
X-158816Y114983D02*
X-153803Y119996D01*
X-158816Y62780D02*
Y114983D01*
X37839Y120691D02*
Y122603D01*
X37200D02*
X37839Y123241D01*
X27352Y122603D02*
X37200D01*
X-69111Y284361D02*
X-65181D01*
X-69378Y284095D02*
X-69111Y284361D01*
X-73719Y282154D02*
X-71778Y284095D01*
X-69378D01*
X223171Y432024D02*
X226988Y428208D01*
Y426244D02*
Y428208D01*
Y426244D02*
X227330Y425901D01*
X236709Y424802D02*
Y428208D01*
X236348Y424441D02*
X236709Y424802D01*
X203200Y449580D02*
Y454749D01*
X199118Y458830D02*
X203200Y454749D01*
X212890Y285674D02*
X213501Y286285D01*
X197890Y269933D02*
Y270474D01*
X202890Y269506D02*
Y270474D01*
X197890Y269933D02*
X198317Y269506D01*
X188160Y285945D02*
Y299040D01*
X187890Y285674D02*
X188160Y285945D01*
Y299040D02*
X191380Y302260D01*
X129701Y143146D02*
Y154856D01*
X117284Y149001D02*
X119784D01*
X70838Y140691D02*
X72483D01*
X98061Y175587D02*
X109153D01*
X94979Y178669D02*
X98061Y175587D01*
X84678Y164352D02*
Y166371D01*
X109153Y175587D02*
X109484Y175918D01*
X125118D01*
X134621Y185421D01*
X-135282Y297181D02*
X-125370D01*
X-112542Y284353D01*
X-256164Y483870D02*
X-255270D01*
X-257433Y485140D02*
X-256164Y483870D01*
X-269240Y485140D02*
X-257433D01*
X-175407Y494030D02*
X-173913Y495523D01*
X222849Y415691D02*
Y424441D01*
X111074Y289401D02*
X118991D01*
X134900Y71120D02*
X152051D01*
X198027Y117097D01*
X255587Y400050D02*
Y409972D01*
X213414Y477196D02*
Y491490D01*
Y477196D02*
X222107Y468503D01*
X203982Y500922D02*
X213414Y491490D01*
X-150644Y240376D02*
X-142897Y232629D01*
X-58276Y274240D02*
X-54067Y270032D01*
X-64160Y274240D02*
X-58276D01*
X-50927Y251317D02*
X-47133Y247523D01*
X-50927Y251317D02*
Y251360D01*
X-53759Y254192D02*
X-50927Y251360D01*
X134621Y185421D02*
X151284D01*
X140970Y145370D02*
Y150410D01*
X141810Y145370D02*
X150270D01*
X159610D02*
X183310D01*
X140970Y144780D02*
Y145370D01*
X-13273Y73668D02*
X5721D01*
X-15698Y76094D02*
Y76818D01*
X-16782Y77901D02*
Y84151D01*
X-15698Y76094D02*
X-13273Y73668D01*
X-16782Y77901D02*
X-15698Y76818D01*
X7348Y156051D02*
X8777Y157480D01*
X34839Y110691D02*
X37839D01*
X-86074Y93290D02*
X-86074Y93290D01*
Y85747D02*
Y93290D01*
X-86285Y46778D02*
Y76977D01*
X-90603Y55437D02*
Y75188D01*
X-86074Y85747D02*
X-82306Y81978D01*
X-93203Y83895D02*
X-86285Y76977D01*
X-94992Y79577D02*
X-90603Y75188D01*
X-115902Y79577D02*
X-94992D01*
X-101600Y31463D02*
X-86285Y46778D01*
X118991Y289401D02*
X120843Y291252D01*
Y320697D01*
X-93742Y274361D02*
Y279361D01*
X-101715Y234835D02*
X-94488Y242062D01*
X-45222Y245655D02*
X-42335D01*
X-47133Y247523D02*
X-47090D01*
X-45222Y245655D01*
X-42335D02*
X-39251Y242571D01*
X-65880Y269361D02*
X-64281D01*
X-66187Y269054D02*
X-65880Y269361D01*
X198027Y117097D02*
X213830D01*
X219583Y122850D01*
Y123333D01*
X223377Y127127D01*
X223860D02*
X231686Y134953D01*
X223377Y127127D02*
X223860D01*
X231686Y134953D02*
X236686D01*
X30225Y29227D02*
X38991Y37994D01*
Y39406D01*
X-107597Y38442D02*
X-90603Y55437D01*
X-155868Y38442D02*
X-107597D01*
X-218071Y20484D02*
X-205711Y8125D01*
X-186185D01*
X245881Y340504D02*
X259504D01*
X-64281Y274361D02*
Y279361D01*
X70838Y135691D02*
X70980Y135833D01*
X76784D01*
X7348Y136051D02*
X20048Y123351D01*
X-147375Y316765D02*
Y317399D01*
X-150132Y314009D02*
X-147375Y316765D01*
X-156213Y60176D02*
X-135303D01*
X-115902Y79577D01*
X-158816Y62780D02*
X-156213Y60176D01*
X159821Y277120D02*
X163794Y273147D01*
X-108861Y220095D02*
X-101715Y227242D01*
Y234835D01*
X-108861Y218691D02*
Y220095D01*
X-109882Y219711D02*
X-108861Y218691D01*
X-101600Y15240D02*
Y31463D01*
X-186185Y8125D02*
X-155868Y38442D01*
X-145681Y385982D02*
X-117114D01*
X-86452Y355320D01*
X-113149Y390511D02*
X-109636Y386998D01*
X-113149Y390511D02*
Y408819D01*
X-157295Y353955D02*
X-154951Y351611D01*
X-157295Y353955D02*
Y354641D01*
X-154951Y349111D02*
Y351611D01*
X-162927Y360272D02*
X-157295Y354641D01*
X-162927Y360272D02*
Y360616D01*
X170037Y204170D02*
X178816Y212949D01*
X75049Y309881D02*
Y314631D01*
X131444Y209650D02*
X136923Y204170D01*
X170037D01*
X151284Y185421D02*
X154471Y182234D01*
Y180989D02*
Y182234D01*
Y180989D02*
X157659Y177801D01*
X163168D01*
X71728Y266701D02*
X72236D01*
X87630Y262401D02*
X106044Y243987D01*
X281940Y106680D02*
Y122220D01*
X-162632Y404883D02*
X-146226D01*
X-138871Y412332D02*
X-116662D01*
X-113149Y408819D01*
X-140434Y410769D02*
X-138871Y412332D01*
X-140434Y410676D02*
Y410769D01*
X-146226Y404883D02*
X-140434Y410676D01*
X-86452Y352611D02*
Y355320D01*
Y352611D02*
X-82951Y349111D01*
X-173913Y375523D02*
X-173040Y374650D01*
X-163322D01*
X-173437Y508000D02*
X-160020D01*
X-173913Y507523D02*
X-173437Y508000D01*
X-260621Y69851D02*
X-246651Y83821D01*
X-284932Y69851D02*
X-260621D01*
X-292372Y77291D02*
X-284932Y69851D01*
X-292372Y77291D02*
Y128271D01*
X-279671Y140971D01*
X-152281Y279922D02*
X-150132Y277772D01*
X-152281Y279922D02*
Y297181D01*
X236686Y134953D02*
X240686Y130954D01*
X163168Y158751D02*
Y177801D01*
X138002Y153379D02*
Y169634D01*
Y153379D02*
X140970Y150410D01*
X138002Y169634D02*
X146169Y177801D01*
X141220Y144780D02*
X141810Y145370D01*
X140970Y144780D02*
X141220D01*
X53807Y180980D02*
X56979Y184151D01*
X36558Y180980D02*
X53807D01*
X37839Y115691D02*
Y120691D01*
X84678Y166371D02*
X86229Y167922D01*
Y186691D01*
X56219Y505461D02*
X56518Y505760D01*
Y528321D01*
X212110Y505529D02*
X213368Y506787D01*
Y522001D01*
X199118Y478430D02*
X200083D01*
X219630Y458883D01*
X203982Y500922D02*
Y510136D01*
X206869Y513022D01*
Y522001D01*
X243368Y516251D02*
Y522001D01*
D129*
X-39950Y157130D02*
D03*
Y151130D02*
D03*
Y145130D02*
D03*
D130*
X-53450Y143630D02*
D03*
Y148630D02*
D03*
Y153630D02*
D03*
D131*
Y158630D02*
D03*
D132*
X229599Y408941D02*
D03*
D133*
X4247Y259913D02*
Y283716D01*
Y259913D02*
X22356Y241804D01*
X-39004Y349111D02*
X-17275Y370840D01*
X-46952Y349111D02*
X-39004D01*
X-17275Y370840D02*
X-4318D01*
X-29217Y423381D02*
X12043Y382122D01*
X-39913Y423523D02*
X-39771Y423381D01*
X12043Y298909D02*
Y382122D01*
X-39771Y423381D02*
X-29217D01*
X274437Y185347D02*
X275041Y184743D01*
Y183981D02*
Y184743D01*
X279993Y179791D02*
X281940Y177844D01*
X279231Y179791D02*
X279993D01*
X275041Y183981D02*
X279231Y179791D01*
X274437Y185347D02*
Y204560D01*
X111164Y197289D02*
X111231Y197356D01*
X90555Y204763D02*
X98029Y197289D01*
X168782D02*
X182794Y211301D01*
X98029Y197289D02*
X111164D01*
X111231Y197356D02*
X121421D01*
X121488Y197289D01*
X69198Y204763D02*
X90555D01*
X244312Y36049D02*
X246117Y34244D01*
X244312Y36049D02*
Y36576D01*
X246117Y15250D02*
Y34244D01*
X246108Y15241D02*
X246117Y15250D01*
X271509Y15241D02*
Y74293D01*
X259969Y85833D02*
X271509Y74293D01*
X259969Y85833D02*
Y86360D01*
X281940Y165100D02*
Y177844D01*
X265993Y213004D02*
X274437Y204560D01*
X225088Y223774D02*
Y234652D01*
X223520Y236220D02*
X225088Y234652D01*
Y223774D02*
X235858Y213004D01*
X265993D01*
X193040Y236220D02*
X194398Y234862D01*
X203021D01*
X268524Y169359D01*
X280016Y453873D02*
X280389Y453500D01*
X278258Y453873D02*
X280016D01*
X272660Y458470D02*
X273661D01*
X278258Y453873D01*
X223368Y524256D02*
Y530395D01*
X222504Y532638D02*
X222877Y532265D01*
Y530887D02*
Y532265D01*
Y530887D02*
X223368Y530395D01*
X228369Y522001D02*
Y528540D01*
X230923Y531095D01*
X238369Y522001D02*
Y528540D01*
X235814Y531095D02*
X238369Y528540D01*
X230923Y531095D02*
X235814D01*
X225044Y499364D02*
X229285D01*
Y499618D01*
X238369Y515462D02*
Y522001D01*
X230154Y507014D02*
X233368Y510228D01*
X230154Y501174D02*
Y507014D01*
X-194582Y538091D02*
Y549910D01*
X-203200D02*
X-195225D01*
X-194582D02*
Y557921D01*
X12043Y298909D02*
X19398Y291553D01*
X7153Y333965D02*
Y359369D01*
X-5545Y321266D02*
X7153Y333965D01*
X-4318Y370840D02*
X7153Y359369D01*
X-5545Y293507D02*
Y321266D01*
X45924Y247998D02*
X46231Y247691D01*
X52578Y221383D02*
X69198Y204763D01*
X42168Y241804D02*
X52578Y231394D01*
X45924Y247998D02*
Y281871D01*
X22356Y241804D02*
X42168D01*
X52578Y221383D02*
Y231394D01*
X36242Y291553D02*
X45924Y281871D01*
X265549Y470436D02*
X266372Y469612D01*
X265549Y470436D02*
Y480061D01*
X266372Y469085D02*
Y469612D01*
X78468Y478961D02*
Y502154D01*
X77702Y502920D02*
X78468Y502154D01*
X74488Y474981D02*
X78468Y478961D01*
X156385Y399875D02*
X179325D01*
X194247Y384953D01*
X197247D01*
X96173Y460087D02*
X156385Y399875D01*
X96173Y460087D02*
Y471297D01*
X92488Y474981D02*
X96173Y471297D01*
X172968Y385232D02*
X173247Y384953D01*
X172802Y385232D02*
X172968D01*
X158328D02*
X172802D01*
X78173Y465387D02*
X158328Y385232D01*
X78173Y465387D02*
Y471297D01*
X74488Y474981D02*
X78173Y471297D01*
X238369Y510277D02*
Y515462D01*
Y510277D02*
X242285Y506360D01*
X268524Y153116D02*
Y169359D01*
X-5545Y293507D02*
X4247Y283716D01*
X243155Y481330D02*
X248920D01*
X242720Y481765D02*
X243155Y481330D01*
X242720Y481765D02*
Y482240D01*
X229720Y478990D02*
Y482240D01*
X224790Y474980D02*
X225163Y475353D01*
X226083D01*
X229720Y478990D01*
X233368Y510228D02*
Y522001D01*
X238369Y515462D02*
X238369Y515462D01*
X242285Y501174D02*
X242720Y500740D01*
X242285Y501174D02*
Y506360D01*
X121488Y197289D02*
X168782D01*
X19398Y291553D02*
X36242D01*
X182794Y225975D02*
X193040Y236220D01*
X182794Y211301D02*
Y225975D01*
X268524Y153116D02*
X281940Y139700D01*
X-190116Y533626D02*
X-189983D01*
X-187218Y530860D02*
X-186690D01*
X-189983Y533626D02*
X-187218Y530860D01*
X-194582Y538091D02*
X-190116Y533626D01*
X-74713Y459523D02*
X-39913D01*
X-110490Y495300D02*
X-74713Y459523D01*
D134*
X251436Y246820D02*
X258415Y253799D01*
X259218D01*
X248920Y244720D02*
X251020Y246820D01*
X251436D01*
X259218Y253799D02*
X259461Y254042D01*
X265357Y433697D02*
Y433779D01*
X257176Y441960D02*
X265357Y433779D01*
X236979Y441041D02*
Y458534D01*
X-24560Y374015D02*
X-24216D01*
X-39913Y375523D02*
X-26068D01*
X-24560Y374015D01*
X-127907Y165101D02*
X-118382Y155576D01*
X-130810Y168005D02*
X-127907Y165101D01*
X-145051D02*
X-127907D01*
X201712Y45930D02*
X202203D01*
X88773Y326046D02*
Y326390D01*
X89704Y319171D02*
Y325116D01*
X85090Y314557D02*
X89704Y319171D01*
X85090Y289560D02*
Y314557D01*
X88773Y326046D02*
X89704Y325116D01*
X238599Y441961D02*
X239234Y441326D01*
X252984Y242843D02*
X257447D01*
X257690Y242600D01*
X133078Y520311D02*
X152128D01*
X142748Y513334D02*
Y519938D01*
X148319Y586771D02*
X165069D01*
X147370D02*
X148319D01*
X-108469Y125211D02*
Y127668D01*
X-97388Y138749D02*
X-96791D01*
X-108469Y127668D02*
X-97388Y138749D01*
X-108712Y124968D02*
X-108469Y125211D01*
X-109619Y142686D02*
Y149482D01*
X-109618Y142686D02*
X-99023D01*
X-109619Y142686D02*
X-109618Y142686D01*
X-109619Y134032D02*
Y142686D01*
X-111776Y151639D02*
X-109888Y149751D01*
X-114122Y129529D02*
X-109619Y134032D01*
X-116586Y129286D02*
X-116343Y129529D01*
X-114122D01*
X-114827Y151639D02*
X-111776D01*
X-134874Y188468D02*
X-134631Y188225D01*
Y183235D02*
Y188225D01*
X-130810Y179070D02*
Y179414D01*
X-134631Y183235D02*
X-130810Y179414D01*
X-152908Y184150D02*
X-144780D01*
X-154686Y248920D02*
Y248982D01*
X-154443Y249225D01*
X-154099D02*
X-152998Y248123D01*
X-143752D01*
X-154443Y249225D02*
X-154099D01*
X-143752Y248123D02*
X-143637Y248008D01*
X-110490Y268478D02*
X-103391D01*
X237100Y374650D02*
X246380D01*
X265531Y367441D02*
X265774Y367198D01*
X255610Y373557D02*
Y376714D01*
X261726Y367441D02*
X265531D01*
X255610Y373557D02*
X261726Y367441D01*
X-228600Y514440D02*
Y524510D01*
X-229362Y513678D02*
X-228600Y514440D01*
X-229362Y513334D02*
Y513678D01*
X-60054Y260669D02*
X-59710D01*
X-54067D01*
X-27109Y246522D02*
X-27019D01*
X-31231Y250643D02*
X-27109Y246522D01*
X-31575Y250643D02*
X-31231D01*
X-27019Y246522D02*
X-23069Y242571D01*
X-210947Y345351D02*
Y401198D01*
X-197612Y284226D02*
Y296926D01*
X-222758Y273304D02*
Y288798D01*
X-210947Y401198D02*
X-178217Y433928D01*
X-212598Y273304D02*
X-200406Y261112D01*
X-230251Y270200D02*
X-208866Y248815D01*
X-222758Y273304D02*
X-212598D01*
X-230251Y270200D02*
Y326047D01*
X-210947Y345351D01*
X-208866Y228750D02*
Y248815D01*
Y228750D02*
X-189695Y209578D01*
X282194Y187288D02*
X285780Y190874D01*
X282194Y186944D02*
Y187288D01*
X285780Y190874D02*
Y200660D01*
X290099Y185135D02*
Y196342D01*
Y185135D02*
X290322Y184912D01*
X37603Y545073D02*
Y551797D01*
Y545073D02*
X37846Y544830D01*
X35679Y553721D02*
X37603Y551797D01*
X93737Y292343D02*
X93980Y292100D01*
X93737Y292343D02*
Y299193D01*
X93049Y299881D02*
X93737Y299193D01*
X93049Y299881D02*
Y309881D01*
X14224Y274956D02*
Y282076D01*
Y267836D02*
Y274956D01*
X21608Y275100D02*
X22416Y275908D01*
X21464Y274956D02*
X21608Y275100D01*
X14224Y274956D02*
X21464D01*
X9945Y286305D02*
X13040Y283210D01*
X9945Y286305D02*
Y290891D01*
X13040Y283210D02*
X13090D01*
X9702Y291134D02*
X9945Y290891D01*
X13090Y283210D02*
X14224Y282076D01*
X24951Y257760D02*
X25329Y258138D01*
Y258755D01*
X20962Y262093D02*
Y264280D01*
Y262093D02*
X24951Y258104D01*
Y257760D02*
Y258104D01*
X18541Y266701D02*
X20962Y264280D01*
X15359Y266701D02*
X18541D01*
X42163Y219711D02*
X50546Y211328D01*
X35779Y219711D02*
X42163D01*
X-120661Y181431D02*
Y191511D01*
X-122191Y193041D02*
X-120661Y191511D01*
Y181431D02*
X-116777Y177546D01*
X274156Y433324D02*
X277761Y436930D01*
X273812Y433324D02*
X274156D01*
X56314Y160936D02*
X57228Y160021D01*
X57037Y160212D02*
X59074Y158176D01*
X256042Y441326D02*
X256676Y441960D01*
X239234Y441326D02*
X256042D01*
X256676Y441960D02*
X257176D01*
X279739Y421641D02*
X281725Y423628D01*
Y424628D01*
Y432624D01*
X278063Y436286D02*
X281725Y432624D01*
X209046Y414147D02*
Y414160D01*
X201676Y421530D02*
X209046Y414160D01*
X201676Y421530D02*
Y422030D01*
X227367Y406709D02*
X229599Y408941D01*
X221054Y406709D02*
X227367D01*
X213616Y414147D02*
X221054Y406709D01*
X209046Y414147D02*
X213616D01*
X201466Y422240D02*
X201676Y422030D01*
X186476Y422240D02*
X201466D01*
X185932Y421696D02*
X186476Y422240D01*
X185932Y413508D02*
Y419995D01*
X183388Y422538D02*
X185932Y419995D01*
X191527Y405373D02*
X191770Y405130D01*
X191527Y405373D02*
Y407913D01*
X185932Y413508D02*
X191527Y407913D01*
X183388Y422198D02*
Y422538D01*
Y422198D02*
X183890Y421696D01*
X185932D01*
X272057Y235966D02*
X272796D01*
X271955Y235864D02*
X272057Y235966D01*
X268360Y244856D02*
X271455Y241761D01*
X271955D01*
X-26305Y11930D02*
Y27650D01*
X-28318Y29664D02*
X-26305Y27650D01*
X-28318Y29664D02*
X-24835Y33147D01*
X-26305Y11930D02*
X-22243Y7868D01*
X9000D01*
X17923Y16791D01*
X30131D01*
X31388Y18048D01*
X-25082Y42910D02*
X-22814Y45178D01*
X-25082Y41910D02*
Y42910D01*
X-22814Y45178D02*
Y60619D01*
X-19932Y63501D01*
X28104Y133096D02*
X28448D01*
X26289Y134911D02*
X28104Y133096D01*
X23431Y134911D02*
X26289D01*
X24049Y93490D02*
X24130Y93408D01*
X-31875Y98794D02*
X-31632Y99038D01*
Y104140D01*
X-21202Y114571D01*
X-70485Y106045D02*
X-69850Y106680D01*
X-73660Y102870D02*
X-70485Y106045D01*
X60752Y29754D02*
Y36645D01*
Y29754D02*
X71064Y19441D01*
Y22042D02*
X78994Y29972D01*
Y35052D01*
X57991Y39406D02*
X60752Y36645D01*
X59074Y152852D02*
Y158176D01*
Y152852D02*
X59944Y151982D01*
Y151638D02*
Y151982D01*
X88629Y133351D02*
X89526Y134249D01*
X99711D02*
X99954Y134492D01*
X89526Y134249D02*
X99711D01*
X90795Y118888D02*
X100082D01*
X100325Y119131D01*
X88629Y116721D02*
X90795Y118888D01*
X21147Y169771D02*
X23024Y167894D01*
X23368D01*
X15696Y169771D02*
X21147D01*
X13699Y171769D02*
X15696Y169771D01*
X30723Y65527D02*
Y70877D01*
X30480Y71120D02*
X30723Y70877D01*
Y65527D02*
X36558Y59691D01*
X40397Y99303D02*
X40640Y99060D01*
X-164359Y569118D02*
X-163964Y569514D01*
X-172318Y569118D02*
X-164359D01*
X-156814Y572651D02*
X-156571Y572409D01*
X-156814Y572651D02*
Y574139D01*
X-173913Y567523D02*
X-172318Y569118D01*
X-163964Y569514D02*
X-163620D01*
X-123293Y549727D02*
Y554884D01*
X-126388Y557979D02*
X-123293Y554884D01*
Y545770D02*
Y549727D01*
X-162199Y579523D02*
X-156814Y574139D01*
X-131545Y557979D02*
X-126388D01*
X-173344Y590954D02*
X-164520D01*
X-131545Y557979D01*
X-173913Y579523D02*
X-162199D01*
X-173913Y591523D02*
X-173344Y590954D01*
X-123293Y549727D02*
Y555770D01*
X150527Y340233D02*
X170247Y359953D01*
X32125Y340233D02*
X150527D01*
X250525Y281353D02*
X258044Y273835D01*
X245145Y284043D02*
Y290968D01*
X242047Y281430D02*
X245913D01*
X9888Y504851D02*
X17143Y497596D01*
Y491208D02*
Y497596D01*
X17272Y491336D02*
X26516D01*
X17143Y491208D02*
X17272Y491336D01*
X17143Y478326D02*
Y491208D01*
X-183596Y353643D02*
Y367395D01*
X-190586Y277200D02*
X-179040D01*
X-197612Y284226D02*
X-190586Y277200D01*
X-164777Y269633D02*
X-161936Y266792D01*
X-172344Y277200D02*
X-164777Y269633D01*
X-164846Y269748D02*
X-164777Y269679D01*
Y269633D02*
Y269679D01*
X-179040Y277200D02*
X-172344D01*
X-161936Y223371D02*
Y266792D01*
X-200406Y232866D02*
Y261112D01*
Y232866D02*
X-188098Y220558D01*
X-2201Y115571D02*
X5080Y108290D01*
Y99060D02*
Y108290D01*
X-12700Y126070D02*
X-2201Y115571D01*
X-40248Y116194D02*
Y124408D01*
Y116194D02*
X-40005Y115951D01*
X184150Y345440D02*
X194637Y334953D01*
X197247D01*
X-46830Y591523D02*
X-19567D01*
X-16422Y588378D01*
Y586741D02*
Y588378D01*
X17143Y478326D02*
X20489Y474981D01*
X-16511Y435523D02*
X21718Y473752D01*
X-48182Y577928D02*
X-41508D01*
X-59568Y566542D02*
X-48182Y577928D01*
X-41508D02*
X-39913Y579523D01*
X-20956Y543315D02*
X-17811Y546460D01*
X-25400Y537210D02*
X-20956Y541654D01*
X-17811Y546460D02*
X-15511D01*
X-20956Y541654D02*
Y543315D01*
X8859Y547730D02*
X11158D01*
X3683Y537141D02*
X5713Y539172D01*
X-12366Y562915D02*
X-6042D01*
X-15511Y523851D02*
X-12423Y526940D01*
X-6042D01*
X5713Y539172D02*
Y544585D01*
X3683Y536798D02*
Y537141D01*
X5713Y544585D02*
X8859Y547730D01*
X-6042Y562915D02*
X-3810Y560684D01*
Y529172D02*
Y560684D01*
X-6042Y526940D02*
X-3810Y529172D01*
X-15511Y566060D02*
X-12366Y562915D01*
X-83716Y556151D02*
X-80887Y558864D01*
X-46830Y591523D01*
X-82894Y494628D02*
X-71789Y483523D01*
X-39913D01*
X-82894Y494628D02*
Y514715D01*
X-88900Y520721D02*
X-82894Y514715D01*
X-60960Y495300D02*
X-60848Y495412D01*
X-62230Y495300D02*
X-60960D01*
X-36942Y495412D02*
X-36830Y495300D01*
X-60848Y495412D02*
X-36942D01*
X-37053Y495523D02*
X-36942Y495412D01*
X-39913Y495523D02*
X-37053D01*
X-167767Y55753D02*
Y151511D01*
X-201930Y21590D02*
X-167767Y55753D01*
X-179070Y104140D02*
Y122313D01*
X-178191Y123191D01*
X-193192Y138116D02*
X-190097Y141211D01*
X-193192Y81441D02*
Y138116D01*
X-190097Y141211D02*
X-189501D01*
X-234187Y107951D02*
X-200985Y141153D01*
X-194566D01*
X-279671Y107951D02*
X-234187D01*
X-194566Y141153D02*
X-192005Y143715D01*
X-189501Y141211D01*
X-192334Y151511D02*
X-167767D01*
Y192390D01*
X-210357Y169534D02*
X-192334Y151511D01*
X-246157Y169534D02*
X-210357D01*
X-189501Y159619D02*
X-189230Y159348D01*
Y159004D02*
Y159348D01*
X-189501Y159619D02*
Y171211D01*
X-96791Y138749D02*
Y140454D01*
X-99023Y142686D02*
X-96791Y140454D01*
Y138749D02*
X-93063Y142477D01*
X-147807Y211964D02*
Y220394D01*
X-143637Y248008D02*
Y248352D01*
X-144686Y249401D02*
X-143637Y248352D01*
X-144686Y249401D02*
Y255027D01*
X-73637Y242476D02*
X-73541Y242571D01*
X-83693Y242381D02*
X-83598Y242476D01*
X-73637D01*
X-42841Y127001D02*
X-40248Y124408D01*
X-2914Y52318D02*
X2078Y47326D01*
X-9661Y23816D02*
X2078Y35555D01*
Y47326D01*
X-16122Y19323D02*
X-11629Y23816D01*
X-16122Y19051D02*
Y19323D01*
X-11629Y23816D02*
X-9661D01*
X-35924Y37269D02*
X-28318Y29664D01*
X-24835Y33147D02*
X-16701D01*
X-21202Y114571D02*
Y115571D01*
X113538Y40780D02*
Y65237D01*
X77255Y4496D02*
X113538Y40780D01*
Y65237D02*
X130367Y82065D01*
X142914Y44135D02*
X143696D01*
X150985Y36846D01*
X142914Y44135D02*
X169900Y71120D01*
X121538Y22759D02*
X142914Y44135D01*
X192759Y36830D02*
X201786Y45856D01*
X168910Y36830D02*
X192759D01*
X202203Y45930D02*
X203044Y46772D01*
X259298D01*
X236483Y95247D02*
X236679D01*
X228600Y68580D02*
Y87364D01*
X236483Y95247D01*
X236679D02*
X264209Y122777D01*
X256526Y145954D02*
X264209Y138271D01*
Y122777D02*
Y138271D01*
X256026Y145954D02*
X256526D01*
X238749Y220715D02*
X242415D01*
X248920Y227220D01*
X238506Y220472D02*
X238749Y220715D01*
X273416Y282644D02*
X288626D01*
X288681Y282698D01*
X273361Y282589D02*
X273416Y282644D01*
X258044Y273835D02*
X261377D01*
X261620Y273592D01*
X256111Y302166D02*
X271595D01*
X244371Y359565D02*
X246247Y361441D01*
X239795Y359565D02*
X244371D01*
X246247Y361441D02*
X246590D01*
X263885Y424787D02*
Y433286D01*
X260738Y421641D02*
X263885Y424787D01*
X271487Y514543D02*
X271730Y514300D01*
X270674Y522001D02*
X271487Y521188D01*
Y514543D02*
Y521188D01*
X270674Y522001D02*
X276219D01*
X265129D02*
X270674D01*
X263888Y523241D02*
X265129Y522001D01*
X77702Y523241D02*
X78468D01*
X77584D02*
X77702D01*
X-88787Y556151D02*
X-83825Y556047D01*
X-93980Y556260D02*
X-88787Y556151D01*
X-83825Y556047D02*
X-83716Y556151D01*
X-40751Y364134D02*
X-40027Y363410D01*
X-123916Y515076D02*
X-118293Y520700D01*
X195110Y505529D02*
X195309D01*
X194911D02*
X195110D01*
X77702Y523241D02*
Y523322D01*
Y521779D02*
Y523241D01*
X251217Y497597D02*
X251460Y497840D01*
X245953Y491807D02*
X251217Y497071D01*
X239487Y491807D02*
X245953D01*
X251217Y497071D02*
Y497597D01*
X146731Y537891D02*
X147320Y538480D01*
X136487Y537891D02*
X146731D01*
X124443Y525847D02*
X136487Y537891D01*
X130383Y506007D02*
X133078Y503311D01*
X130383Y506007D02*
Y508834D01*
X124443Y514775D02*
X130383Y508834D01*
X16603Y561885D02*
X22192Y556297D01*
X11158Y567331D02*
X13458D01*
X16603Y564185D01*
Y561885D02*
Y564185D01*
X22192Y541448D02*
Y556297D01*
X74499Y526326D02*
X77584Y523241D01*
X74499Y526326D02*
Y527209D01*
X62354Y539354D02*
X74499Y527209D01*
X45070Y539354D02*
X62354D01*
X36918Y528321D02*
X40063Y531466D01*
Y534347D02*
X45070Y539354D01*
X40063Y531466D02*
Y534347D01*
X141282Y579735D02*
Y580683D01*
X132845Y571298D02*
X141282Y579735D01*
Y580683D02*
X147370Y586771D01*
X117323Y571298D02*
X132845D01*
X150399Y560852D02*
X173569D01*
X179768Y527751D02*
Y565435D01*
X-195789Y576129D02*
X-194582Y574921D01*
X-195789Y576129D02*
Y583139D01*
X-199390Y586740D02*
X-195789Y583139D01*
X-205923Y531163D02*
X-205680Y530920D01*
X-233019Y536891D02*
X-210356D01*
X-205923Y531163D02*
Y532458D01*
X-210356Y536891D02*
X-205923Y532458D01*
X-238400Y539986D02*
X-236114D01*
X-233019Y536891D01*
X-123916Y515076D02*
Y515076D01*
X-150652Y488340D02*
X-126388Y512605D01*
X-167587Y488340D02*
X-150652D01*
X-126388Y512605D02*
X-123916Y515076D01*
X-126388Y512605D02*
X-126388D01*
X-173913Y483523D02*
X-171413D01*
X-169818Y485118D02*
Y486108D01*
X-171413Y483523D02*
X-169818Y485118D01*
Y486108D02*
X-167587Y488340D01*
X-178217Y433928D02*
X-175508D01*
X-173913Y435523D01*
X-236220Y388620D02*
Y403308D01*
X-257115Y424203D02*
X-236220Y403308D01*
X-235715Y388115D02*
X-223520Y375920D01*
X-259051Y388115D02*
X-235715D01*
X-189540Y347700D02*
Y360138D01*
X-194310Y364908D02*
X-189540Y360138D01*
X-194310Y364908D02*
Y365252D01*
X-175508Y397928D02*
X-173913Y399523D01*
X-178217Y397928D02*
X-175508D01*
X-183596Y367395D02*
Y392549D01*
X-178217Y397928D01*
X-181365Y365163D02*
X-180240D01*
X-183596Y367395D02*
X-181365Y365163D01*
X-180196Y365118D02*
X-175508D01*
X-180240Y365163D02*
X-180196Y365118D01*
X-195580Y323850D02*
X-192223Y327207D01*
Y345017D02*
X-189540Y347700D01*
X-192223Y327207D02*
Y345017D01*
X-155780Y331154D02*
X-150132D01*
X-158594Y333967D02*
X-155780Y331154D01*
X-158647Y333967D02*
X-158594D01*
X20361Y328469D02*
X32125Y340233D01*
X20361Y328126D02*
Y328469D01*
X167370Y363048D02*
X170465Y359953D01*
X-53910Y364134D02*
X-40751D01*
X-54266Y364490D02*
X-53910Y364134D01*
X-54610Y364490D02*
X-54266D01*
X-95443Y330422D02*
X-88172D01*
X-87027Y329277D01*
X-95686Y330665D02*
X-95443Y330422D01*
X-59845Y308345D02*
X-56707D01*
X-53611Y311440D01*
Y311541D01*
X-60089Y308102D02*
X-59845Y308345D01*
X-150644Y223231D02*
X-147807Y220394D01*
X-126559Y219711D02*
X-120904Y225366D01*
Y225552D01*
X-126881Y219711D02*
X-126559D01*
X21336Y137006D02*
X23431Y134911D01*
X268360Y244856D02*
X268860D01*
X271955Y235864D02*
Y241761D01*
X265535Y293082D02*
X265922D01*
X265292Y292839D02*
X265535Y293082D01*
X268860Y244856D02*
X271955Y241761D01*
X265922Y293082D02*
X268392Y295552D01*
X271515Y409713D02*
X276231D01*
X271272Y409956D02*
X271515Y409713D01*
X276231D02*
X280479Y405465D01*
Y394635D02*
Y405465D01*
X236979Y441041D02*
X237329Y440691D01*
X236630Y458883D02*
X236979Y458534D01*
X248920Y227220D02*
Y227720D01*
X143005Y125065D02*
Y130305D01*
X143248Y130548D01*
X141810Y123870D02*
X143005Y125065D01*
X119784Y168501D02*
X125545D01*
X131486Y162560D01*
X154940Y149860D02*
Y149980D01*
X146169Y158751D02*
X154940Y149980D01*
X126465Y189888D02*
X126614Y189739D01*
X116045Y188257D02*
X117676Y189888D01*
X119945Y180764D02*
X121576Y182395D01*
X112598Y180764D02*
X119945D01*
X117676Y189888D02*
X126465D01*
X121576Y182395D02*
X121920D01*
X199736Y148775D02*
X199979Y148532D01*
Y141661D02*
X206686Y134953D01*
X199979Y141661D02*
Y148532D01*
X257780Y200660D02*
X263816Y194624D01*
Y187800D02*
X267122Y184494D01*
Y184150D02*
Y184494D01*
X263816Y187800D02*
Y194624D01*
X22860Y217043D02*
X33110D01*
X35779Y219711D01*
X103728Y185191D02*
Y186691D01*
Y185191D02*
X107573Y181346D01*
X112016D02*
X112598Y180764D01*
X115702Y188257D02*
X116045D01*
X107573Y181346D02*
X112016D01*
X-16336Y285916D02*
X-8070D01*
X-18052Y287631D02*
X-16336Y285916D01*
X-8070D02*
X-7827Y285673D01*
X-166507Y297605D02*
X-163542Y294640D01*
X-177445Y297605D02*
X-166507D01*
X-179040Y299200D02*
X-177445Y297605D01*
X-163542Y294640D02*
X-163198D01*
X-96791Y155894D02*
X-96475Y156210D01*
X-87630D01*
X-189501Y171211D02*
X-186451D01*
X-175260Y160020D01*
X32567Y266701D02*
X35662Y263606D01*
X32358Y266701D02*
X32567D01*
X35662Y254588D02*
Y263606D01*
Y254588D02*
X35905Y254345D01*
X31224Y267836D02*
X32358Y266701D01*
X157319Y366525D02*
X160796Y363048D01*
X167370D01*
X156975Y366525D02*
X157319D01*
X102870Y297222D02*
X103139D01*
X111049Y305131D01*
Y309881D01*
X168910Y338048D02*
Y344551D01*
X-58420Y473710D02*
X-56233Y471523D01*
X-39913D01*
X84808Y532334D02*
Y535763D01*
Y532334D02*
X85051Y532091D01*
X77053Y543519D02*
X84808Y535763D01*
X-201403Y203547D02*
X-201007D01*
X-190159Y192700D01*
X-201646Y203790D02*
X-201403Y203547D01*
X-190159Y192700D02*
X-189540D01*
X-175260Y351790D02*
X-168546D01*
X-166951Y349111D02*
Y350195D01*
X-168546Y351790D02*
X-166951Y350195D01*
X268392Y295552D02*
Y299161D01*
X124443Y514775D02*
Y525847D01*
X133350Y558800D02*
X133379Y558771D01*
X148319D01*
X-2948Y246381D02*
X-271D01*
X-14377Y257810D02*
X-2948Y246381D01*
X-19050Y257152D02*
X-18440Y257763D01*
X-16103Y257810D02*
Y266683D01*
X-18052Y268631D02*
X-16103Y266683D01*
X-18440Y257763D02*
X-16151D01*
X-16103Y257810D01*
X-14377D01*
X76781Y543519D02*
X77053D01*
X236738Y299375D02*
X245145Y290968D01*
X236007Y299375D02*
X236738D01*
X235164Y300219D02*
X236007Y299375D01*
X238872Y278256D02*
X242047Y281430D01*
X227657Y278256D02*
X238872D01*
X227414Y278013D02*
X227657Y278256D01*
X-254000Y235696D02*
X-194515Y176211D01*
X-194501D02*
X-189501Y171211D01*
X-194515Y176211D02*
X-194501D01*
X-254000Y235696D02*
Y375920D01*
X-288290Y347950D02*
Y370840D01*
Y347950D02*
X-285540Y345200D01*
Y188200D02*
X-269270Y204470D01*
X-285540Y345200D02*
X-278506Y352234D01*
Y368661D01*
X-259051Y388115D01*
X-269270Y204470D02*
X-257810D01*
X50968Y18048D02*
X64520Y4496D01*
X31388Y18048D02*
X50968D01*
X64520Y4496D02*
X77255D01*
X148319Y558771D02*
X150399Y560852D01*
X-70489Y329739D02*
X-70027Y329277D01*
X-70489Y329739D02*
Y348649D01*
X-70951Y349111D02*
X-70489Y348649D01*
X5768Y54576D02*
Y55801D01*
X-22470Y66040D02*
X-19932Y63501D01*
X-931Y62501D02*
X5768Y55801D01*
Y54576D02*
X6560Y53784D01*
X-30480Y66040D02*
X-22470D01*
X-931Y62501D02*
Y63501D01*
X-19932Y62501D02*
Y63501D01*
Y62501D02*
X-9749Y52318D01*
X-2914D01*
X168910Y338048D02*
X172005Y334953D01*
X173247D01*
X170465Y359953D02*
X173247D01*
X237100Y356870D02*
X239795Y359565D01*
X-42762Y157425D02*
Y159331D01*
Y157425D02*
X-42467Y157130D01*
X-39950D01*
X-42762Y159331D02*
X-42153Y159940D01*
Y162988D02*
X-41910Y163231D01*
X-42153Y159940D02*
Y162988D01*
X-12700Y153280D02*
Y162560D01*
X-121920Y274320D02*
X-120580D01*
X179768Y527751D02*
X186277Y521243D01*
Y514362D02*
X191907Y508732D01*
X186277Y514362D02*
Y521243D01*
X191907Y508533D02*
Y508732D01*
Y508533D02*
X194911Y505529D01*
X277271Y438365D02*
Y438865D01*
X273676Y441960D02*
X274176D01*
X277271Y438865D01*
X264650Y385754D02*
X271598D01*
X255610Y376714D02*
X264650Y385754D01*
X271598D02*
X280479Y394635D01*
X119108Y15241D02*
X121538Y17671D01*
X168910Y16240D02*
Y36830D01*
Y16240D02*
X169909Y15241D01*
X192243Y117419D02*
Y149670D01*
X156889Y82065D02*
X192243Y117419D01*
X130367Y82065D02*
X156889D01*
X-1513Y80253D02*
X-1405Y80145D01*
X-61842Y127001D02*
X-57247Y122406D01*
Y115226D02*
X-56537Y114517D01*
X-57247Y115226D02*
Y122406D01*
X-56537Y114173D02*
Y114517D01*
X-93063Y142477D02*
X-86252D01*
X-86009Y142720D01*
X-129204Y143675D02*
X-128860D01*
X-123616Y138431D02*
X-118382D01*
X-120580Y274320D02*
X-114981Y268721D01*
X-23069Y242571D02*
X-22252D01*
X-16701Y33147D02*
X-7937Y41910D01*
X83429Y64771D02*
X84454Y65797D01*
X-205680Y532190D02*
X-194582Y521091D01*
X-233019Y529272D02*
Y536891D01*
X-228600Y524510D02*
Y524854D01*
X-233019Y529272D02*
X-228600Y524854D01*
X-238326Y559911D02*
X-209591D01*
X-238400Y559986D02*
X-238326Y559911D01*
X-209591D02*
X-194582Y574921D01*
X-173177Y556260D02*
X-160020D01*
X-173913Y555523D02*
X-173177Y556260D01*
X222849Y415691D02*
X229599Y408941D01*
X-249320Y166371D02*
X-246157Y169534D01*
X-133593Y85400D02*
Y88657D01*
X-133350Y88900D01*
X-147871Y71121D02*
X-133593Y85400D01*
X121538Y17671D02*
Y22759D01*
X281940Y57494D02*
Y81280D01*
Y57494D02*
X284480Y54954D01*
Y54610D02*
Y54954D01*
X236315Y494979D02*
X239487Y491807D01*
X236315Y494979D02*
Y500645D01*
X236220Y500740D02*
X236315Y500645D01*
X70354Y514431D02*
X77702Y521779D01*
X-147831Y258172D02*
X-144686Y255027D01*
X-150132Y258172D02*
X-147831D01*
X-138430Y279400D02*
X-137956D01*
X-137712Y279157D01*
Y271452D02*
Y279157D01*
Y271452D02*
X-124732Y258471D01*
X-110733Y268721D02*
X-110490Y268478D01*
X-114981Y268721D02*
X-110733D01*
X-106680Y249846D02*
Y250190D01*
X-109882Y237491D02*
Y246645D01*
X-106680Y249846D01*
X-126881Y256321D02*
X-124732Y258471D01*
X-126881Y237491D02*
Y256321D01*
X-40911Y252350D02*
Y268332D01*
X-54067Y260669D02*
Y270032D01*
X-81511Y274361D02*
X-79012Y276861D01*
X63500Y231140D02*
X63844D01*
X67172Y227811D01*
X69878D01*
X77978Y219711D01*
X59690Y243840D02*
Y256738D01*
X54729Y261700D02*
X59690Y256738D01*
X54729Y261700D02*
Y266701D01*
X126614Y189739D02*
X165402D01*
X-12700Y126070D02*
Y136280D01*
X-3731Y128919D02*
Y174153D01*
X-4459Y128919D02*
X-3731D01*
Y128919D02*
Y128919D01*
X20705Y40809D02*
X23800Y43904D01*
Y44932D01*
X36558Y57691D01*
Y59691D01*
X119380Y106680D02*
Y115887D01*
X-24130Y494030D02*
X-22860D01*
X-15511Y501379D01*
X-46390Y508000D02*
X-45913Y507523D01*
X-60960Y508000D02*
X-46390D01*
X-45913Y507523D02*
X-39913D01*
X-3731Y174153D02*
X7093Y184977D01*
X12700D01*
X-130810Y168005D02*
Y179070D01*
X-144916Y165237D02*
Y184014D01*
X-145051Y165101D02*
X-144916Y165237D01*
Y184014D02*
X-144780Y184150D01*
X-189695Y209578D02*
X-184955D01*
X-167767Y192390D01*
X182929Y158983D02*
X192243Y149670D01*
X165402Y189739D02*
X182929Y172212D01*
Y158983D02*
Y172212D01*
X-258204Y19174D02*
Y50960D01*
Y19174D02*
X-258081Y19051D01*
X-258327Y51082D02*
X-258204Y50960D01*
X15240Y231023D02*
Y238760D01*
X11158Y226941D02*
X15240Y231023D01*
X152128Y520311D02*
X160020Y528203D01*
Y528320D01*
X165069Y586771D02*
X165100Y586740D01*
X-217413Y519673D02*
X-217170Y519430D01*
X-228600Y524510D02*
X-228256D01*
X-217170Y519430D02*
X-205680Y530920D01*
X141810Y123870D02*
X183310D01*
X30090Y283210D02*
X31224Y282076D01*
Y267836D02*
Y282076D01*
X14224Y267836D02*
X15359Y266701D01*
X-15511Y501379D02*
Y504851D01*
X2489Y474981D02*
Y486851D01*
X-15511Y504851D02*
X2489Y486851D01*
X11158Y530415D02*
X22192Y541448D01*
X9888Y523851D02*
X11158Y525121D01*
Y530415D01*
X12699Y586741D02*
X15240Y584200D01*
X3178Y586741D02*
X12699D01*
X-279671Y166371D02*
X-249320D01*
X-193192Y81441D02*
X-182872Y71121D01*
X-2761Y467273D02*
Y469731D01*
X-22511Y447523D02*
X-2761Y467273D01*
Y469731D02*
X2489Y474981D01*
X-39913Y435523D02*
X-16511D01*
X-39913Y447523D02*
X-22511D01*
X-257115Y449603D02*
Y462303D01*
Y424203D02*
Y449603D01*
X174869Y503311D02*
X175260Y502920D01*
X152128Y503311D02*
X174869D01*
X281969Y527751D02*
X282603Y527117D01*
Y496989D02*
Y527117D01*
X281969Y527751D02*
Y567051D01*
X198313Y508533D02*
Y508732D01*
X198869Y509287D01*
Y522001D01*
D135*
X-70485Y106045D02*
X-47880D01*
X-71755D02*
X-70485D01*
X-47880D02*
X-45570D01*
X-68580Y95250D02*
X-56365D01*
X-128860Y143675D02*
X-123616Y138431D01*
D136*
X129156Y133674D02*
X129756Y134275D01*
X125102Y133674D02*
X129156D01*
X124460Y133033D02*
X125102Y133674D01*
X119380Y133033D02*
X124460D01*
X116523D02*
X119380D01*
X107696Y124206D02*
X116523Y133033D01*
X70838Y120691D02*
Y125691D01*
X76200Y157734D02*
Y170408D01*
Y149393D02*
Y157734D01*
X85583Y148351D02*
X88629D01*
X77242D02*
X85583D01*
X76200Y149393D02*
X77242Y148351D01*
X74930Y171450D02*
X75158D01*
X76200Y170408D01*
X39884Y99060D02*
X40640D01*
X38545Y100399D02*
X39884Y99060D01*
X37465Y100399D02*
X38545D01*
X37465D02*
Y105634D01*
X37522Y105691D02*
X37839D01*
X37465Y105634D02*
X37522Y105691D01*
X91232Y150955D02*
X91509Y150678D01*
X107708D01*
X102661Y163909D02*
X107708D01*
X100199Y166371D02*
X102661Y163909D01*
D137*
X-121920Y377190D02*
X-113741Y369011D01*
Y356821D02*
Y369011D01*
X-106790Y360274D02*
X-105664Y361400D01*
Y361950D01*
X-106790Y349272D02*
Y360274D01*
X-118952Y349111D02*
Y351611D01*
X-113741Y356821D01*
X-106952Y349111D02*
X-106790Y349272D01*
X-213958Y477520D02*
X-186690D01*
X-213912Y459740D02*
X-186690D01*
X-216475Y475003D02*
X-213958Y477520D01*
X-216475Y462303D02*
X-213912Y459740D01*
X115299Y484541D02*
Y503311D01*
X110489Y479731D02*
X115299Y484541D01*
X110489Y474981D02*
Y479731D01*
D138*
X163830Y244557D02*
D03*
X281940Y165100D02*
D03*
Y106680D02*
D03*
X-279671Y166371D02*
D03*
Y107951D02*
D03*
D139*
X163830Y219156D02*
D03*
X-127000Y15240D02*
D03*
X-283482Y19051D02*
D03*
X-258081D02*
D03*
X-283727Y51082D02*
D03*
X-258327D02*
D03*
X119108Y15241D02*
D03*
X144508D02*
D03*
X169909D02*
D03*
X195308D02*
D03*
X220709D02*
D03*
X246108D02*
D03*
X106044Y243987D02*
D03*
X61997Y580487D02*
D03*
X106044Y209650D02*
D03*
X-68851Y15241D02*
D03*
X281940Y139700D02*
D03*
Y81280D02*
D03*
X-279671Y140971D02*
D03*
Y82551D02*
D03*
D140*
X-101600Y15240D02*
D03*
X-232682Y19051D02*
D03*
X-232927Y51082D02*
D03*
X271509Y15241D02*
D03*
X131444Y243987D02*
D03*
X36597Y580487D02*
D03*
X131444Y209650D02*
D03*
X-43451Y15241D02*
D03*
D141*
X-289540Y316200D02*
D03*
D142*
Y236200D02*
D03*
D143*
X175260Y502920D02*
D03*
X147320Y538480D02*
D03*
X-36830Y331470D02*
D03*
X172720Y458470D02*
D03*
X-201930Y21590D02*
D03*
X223520Y236220D02*
D03*
X193040D02*
D03*
X-246651Y83821D02*
D03*
X-218711Y582931D02*
D03*
X31388Y18048D02*
D03*
X-254000Y375920D02*
D03*
X-122191Y193041D02*
D03*
X-81552Y124461D02*
D03*
X94636Y42004D02*
D03*
X-145051Y135891D02*
D03*
Y165101D02*
D03*
X-271Y246381D02*
D03*
X-90170Y229870D02*
D03*
D144*
X-223520Y375920D02*
D03*
D145*
X71064Y19441D02*
D03*
D146*
X166706Y286470D02*
D03*
D147*
X-19050Y257152D02*
D03*
D148*
X227060Y278075D02*
D03*
X173720D02*
D03*
M02*
