G04*
G04 #@! TF.GenerationSoftware,Altium Limited,Altium Designer,25.2.1 (25)*
G04*
G04 Layer_Color=128*
%FSLAX44Y44*%
%MOMM*%
G71*
G04*
G04 #@! TF.SameCoordinates,B15882C5-6AF9-4ACE-82F3-A7E45BBBB3D7*
G04*
G04*
G04 #@! TF.FilePolarity,Positive*
G04*
G01*
G75*
G04:AMPARAMS|DCode=149|XSize=0.8128mm|YSize=1.016mm|CornerRadius=0.2032mm|HoleSize=0mm|Usage=FLASHONLY|Rotation=90.000|XOffset=0mm|YOffset=0mm|HoleType=Round|Shape=RoundedRectangle|*
%AMROUNDEDRECTD149*
21,1,0.8128,0.6096,0,0,90.0*
21,1,0.4064,1.0160,0,0,90.0*
1,1,0.4064,0.3048,0.2032*
1,1,0.4064,0.3048,-0.2032*
1,1,0.4064,-0.3048,-0.2032*
1,1,0.4064,-0.3048,0.2032*
%
%ADD149ROUNDEDRECTD149*%
G04:AMPARAMS|DCode=150|XSize=0.8128mm|YSize=1.016mm|CornerRadius=0.2032mm|HoleSize=0mm|Usage=FLASHONLY|Rotation=0.000|XOffset=0mm|YOffset=0mm|HoleType=Round|Shape=RoundedRectangle|*
%AMROUNDEDRECTD150*
21,1,0.8128,0.6096,0,0,0.0*
21,1,0.4064,1.0160,0,0,0.0*
1,1,0.4064,0.2032,-0.3048*
1,1,0.4064,-0.2032,-0.3048*
1,1,0.4064,-0.2032,0.3048*
1,1,0.4064,0.2032,0.3048*
%
%ADD150ROUNDEDRECTD150*%
%ADD151C,1.2700*%
G36*
X-49971Y301065D02*
X-49601Y300911D01*
X-49268Y300689D01*
X-48985Y300406D01*
X-48763Y300073D01*
X-48610Y299703D01*
X-48531Y299311D01*
Y299111D01*
Y295047D01*
Y294847D01*
X-48610Y294454D01*
X-48763Y294084D01*
X-48985Y293751D01*
X-49268Y293468D01*
X-49601Y293246D01*
X-49971Y293093D01*
X-50363Y293015D01*
X-56860D01*
X-57252Y293093D01*
X-57622Y293246D01*
X-57955Y293468D01*
X-58238Y293751D01*
X-58460Y294084D01*
X-58613Y294454D01*
X-58692Y294847D01*
Y295047D01*
Y295047D01*
Y299111D01*
Y299311D01*
X-58613Y299703D01*
X-58460Y300073D01*
X-58238Y300406D01*
X-57955Y300689D01*
X-57622Y300911D01*
X-57252Y301065D01*
X-56860Y301143D01*
X-50363D01*
X-49971Y301065D01*
D02*
G37*
D149*
X-53611Y279934D02*
D03*
D150*
X-110173Y303530D02*
D03*
X-93027D02*
D03*
D151*
X-148862Y548641D02*
D03*
X-67582Y552451D02*
D03*
X-123462Y581661D02*
D03*
X-95521D02*
D03*
M02*
