G04*
G04 #@! TF.GenerationSoftware,Altium Limited,Altium Designer,25.2.1 (25)*
G04*
G04 Layer_Color=16711935*
%FSLAX44Y44*%
%MOMM*%
G71*
G04*
G04 #@! TF.SameCoordinates,B15882C5-6AF9-4ACE-82F3-A7E45BBBB3D7*
G04*
G04*
G04 #@! TF.FilePolarity,Negative*
G04*
G01*
G75*
%ADD116R,1.7526X1.7526*%
%ADD117C,1.7526*%
%ADD118R,1.7526X1.7526*%
%ADD119C,1.0016*%
%ADD120O,1.0016X1.8016*%
%ADD121R,1.3000X1.3000*%
%ADD122C,1.3000*%
%ADD123C,1.6516*%
%ADD124C,1.7272*%
%ADD125C,2.2016*%
%ADD126C,0.8636*%
%ADD127C,0.5080*%
G04:AMPARAMS|DCode=152|XSize=0.9144mm|YSize=1.1176mm|CornerRadius=0.254mm|HoleSize=0mm|Usage=FLASHONLY|Rotation=90.000|XOffset=0mm|YOffset=0mm|HoleType=Round|Shape=RoundedRectangle|*
%AMROUNDEDRECTD152*
21,1,0.9144,0.6096,0,0,90.0*
21,1,0.4064,1.1176,0,0,90.0*
1,1,0.5080,0.3048,0.2032*
1,1,0.5080,0.3048,-0.2032*
1,1,0.5080,-0.3048,-0.2032*
1,1,0.5080,-0.3048,0.2032*
%
%ADD152ROUNDEDRECTD152*%
G04:AMPARAMS|DCode=153|XSize=0.9144mm|YSize=1.1176mm|CornerRadius=0.254mm|HoleSize=0mm|Usage=FLASHONLY|Rotation=0.000|XOffset=0mm|YOffset=0mm|HoleType=Round|Shape=RoundedRectangle|*
%AMROUNDEDRECTD153*
21,1,0.9144,0.6096,0,0,0.0*
21,1,0.4064,1.1176,0,0,0.0*
1,1,0.5080,0.2032,-0.3048*
1,1,0.5080,-0.2032,-0.3048*
1,1,0.5080,-0.2032,0.3048*
1,1,0.5080,0.2032,0.3048*
%
%ADD153ROUNDEDRECTD153*%
%ADD154C,1.3716*%
G36*
X-50264Y301643D02*
X-49871Y301565D01*
X-49775Y301536D01*
X-49775Y301536D01*
X-49406Y301383D01*
X-49406Y301383D01*
X-49375Y301367D01*
X-49317Y301336D01*
X-49317Y301336D01*
X-48985Y301113D01*
X-48907Y301050D01*
X-48624Y300767D01*
X-48624Y300767D01*
X-48595Y300732D01*
X-48561Y300690D01*
X-48561Y300689D01*
X-48338Y300357D01*
X-48291Y300268D01*
X-48291Y300268D01*
X-48138Y299899D01*
X-48138Y299899D01*
X-48109Y299803D01*
X-48031Y299410D01*
X-48021Y299311D01*
Y299111D01*
Y295047D01*
Y294847D01*
Y294847D01*
D01*
X-48031Y294747D01*
X-48047Y294666D01*
X-47516D01*
Y285014D01*
Y280378D01*
X-59707D01*
Y285014D01*
Y294666D01*
X-59176D01*
X-59192Y294747D01*
X-59202Y294847D01*
Y295047D01*
Y295047D01*
Y299111D01*
Y299311D01*
Y299311D01*
D01*
X-59192Y299410D01*
X-59114Y299803D01*
X-59085Y299899D01*
X-59085Y299899D01*
X-58932Y300268D01*
X-58932Y300269D01*
X-58915Y300299D01*
X-58885Y300357D01*
X-58885Y300357D01*
X-58662Y300690D01*
X-58599Y300767D01*
X-58316Y301050D01*
X-58316Y301050D01*
X-58281Y301079D01*
X-58238Y301113D01*
X-58238Y301114D01*
X-57906Y301336D01*
X-57817Y301383D01*
X-57817Y301383D01*
X-57448Y301536D01*
X-57448Y301536D01*
X-57352Y301565D01*
X-56959Y301643D01*
X-56860Y301653D01*
X-50363D01*
X-50363D01*
D01*
X-50264Y301643D01*
D02*
G37*
G36*
X-95441Y303530D02*
Y297434D01*
X-109728D01*
Y309626D01*
X-95441D01*
Y303530D01*
D02*
G37*
D116*
X163830Y244557D02*
D03*
X281940Y165100D02*
D03*
Y106680D02*
D03*
X-279671Y166371D02*
D03*
Y107951D02*
D03*
D117*
X163830Y219156D02*
D03*
X-127000Y15240D02*
D03*
X-283482Y19051D02*
D03*
X-258081D02*
D03*
X-283727Y51082D02*
D03*
X-258327D02*
D03*
X119108Y15241D02*
D03*
X144508D02*
D03*
X169909D02*
D03*
X195308D02*
D03*
X220709D02*
D03*
X246108D02*
D03*
X106044Y243987D02*
D03*
X61997Y580487D02*
D03*
X106044Y209650D02*
D03*
X-68851Y15241D02*
D03*
X281940Y139700D02*
D03*
Y81280D02*
D03*
X-279671Y140971D02*
D03*
Y82551D02*
D03*
D118*
X-101600Y15240D02*
D03*
X-232682Y19051D02*
D03*
X-232927Y51082D02*
D03*
X271509Y15241D02*
D03*
X131444Y243987D02*
D03*
X36597Y580487D02*
D03*
X131444Y209650D02*
D03*
X-43451Y15241D02*
D03*
D119*
X-289540Y316200D02*
D03*
D120*
Y236200D02*
D03*
D121*
X169900Y71120D02*
D03*
X-147871Y71121D02*
D03*
D122*
X134900Y71120D02*
D03*
X-182872Y71121D02*
D03*
D123*
X175260Y502920D02*
D03*
X147320Y538480D02*
D03*
X-36830Y331470D02*
D03*
X172720Y458470D02*
D03*
X-201930Y21590D02*
D03*
X223520Y236220D02*
D03*
X193040D02*
D03*
X-246651Y83821D02*
D03*
X-218711Y582931D02*
D03*
X31388Y18048D02*
D03*
X-254000Y375920D02*
D03*
X-122191Y193041D02*
D03*
X-81552Y124461D02*
D03*
X94636Y42004D02*
D03*
X-145051Y135891D02*
D03*
Y165101D02*
D03*
X-271Y246381D02*
D03*
X-90170Y229870D02*
D03*
D124*
X-223520Y375920D02*
D03*
D125*
X71064Y19441D02*
D03*
D126*
X166706Y286470D02*
D03*
D127*
X62089Y128441D02*
D03*
X54480Y135249D02*
D03*
X46589Y128441D02*
D03*
X54338D02*
D03*
X46589Y117941D02*
D03*
X54338D02*
D03*
X62089D02*
D03*
X54338Y110441D02*
D03*
X-84303Y282154D02*
D03*
X-73719D02*
D03*
X-79012Y276861D02*
D03*
X-73719Y271569D02*
D03*
X-84303D02*
D03*
D152*
X-53611Y279934D02*
D03*
D153*
X-110173Y303530D02*
D03*
X-93027D02*
D03*
D154*
X-148862Y548641D02*
D03*
X-67582Y552451D02*
D03*
X-123462Y581661D02*
D03*
X-95521D02*
D03*
M02*
