G04*
G04 #@! TF.GenerationSoftware,Altium Limited,Altium Designer,25.2.1 (25)*
G04*
G04 Layer_Physical_Order=2*
G04 Layer_Color=16776960*
%FSLAX44Y44*%
%MOMM*%
G71*
G04*
G04 #@! TF.SameCoordinates,B15882C5-6AF9-4ACE-82F3-A7E45BBBB3D7*
G04*
G04*
G04 #@! TF.FilePolarity,Positive*
G04*
G01*
G75*
%ADD121R,1.3000X1.3000*%
%ADD122C,1.3000*%
%ADD127C,0.5080*%
%ADD138R,1.6510X1.6510*%
%ADD139C,1.6510*%
%ADD140R,1.6510X1.6510*%
%ADD141C,0.9000*%
%ADD142O,0.9000X1.7000*%
%ADD143C,1.5500*%
%ADD144C,1.6256*%
%ADD145C,2.1000*%
%ADD146C,0.7620*%
%ADD147C,0.7000*%
%ADD148C,0.6350*%
G36*
X-187063Y546997D02*
X-187470Y546590D01*
Y534661D01*
X-188848Y534090D01*
X-189920Y533018D01*
X-190500Y531618D01*
Y530102D01*
X-189920Y528702D01*
X-188848Y527630D01*
X-187470Y527059D01*
Y516460D01*
X-136337Y434551D01*
X-136577Y433972D01*
Y432457D01*
X-135997Y431056D01*
X-134925Y429985D01*
X-134201Y429684D01*
X-133637Y428598D01*
X-134336Y426688D01*
X-134925Y426445D01*
X-135997Y425373D01*
X-136577Y423972D01*
Y422457D01*
X-135997Y421056D01*
X-134925Y419985D01*
X-133525Y419404D01*
X-132009D01*
X-130609Y419985D01*
X-129828Y420766D01*
X-128369Y420869D01*
X-127732Y420767D01*
X-120999Y409981D01*
X-121691Y408950D01*
X-122155Y408475D01*
X-123525D01*
X-124925Y407895D01*
X-125997Y406823D01*
X-126577Y405423D01*
Y403907D01*
X-125997Y402507D01*
X-124925Y401435D01*
X-123525Y400855D01*
X-122009D01*
X-120609Y401435D01*
X-119537Y402507D01*
X-119095Y403573D01*
X-117972Y403892D01*
X-117190Y403880D01*
X-60804Y313555D01*
X-61664Y311574D01*
X-62247Y311332D01*
X-63318Y310260D01*
X-63899Y308860D01*
Y307344D01*
X-63318Y305944D01*
X-62247Y304872D01*
X-60846Y304292D01*
X-59331D01*
X-57930Y304872D01*
X-57653Y305149D01*
X-55469Y305007D01*
X-45826Y289560D01*
X-11843D01*
X-10877Y288011D01*
X-11057Y287831D01*
X-11637Y286431D01*
Y284915D01*
X-11057Y283515D01*
X-10160Y282618D01*
Y251460D01*
X-27789D01*
X-28345Y252802D01*
X-29417Y253873D01*
X-30817Y254453D01*
X-32333D01*
X-33733Y253873D01*
X-34805Y252802D01*
X-35361Y251460D01*
X-37013D01*
X-37102Y251592D01*
Y253108D01*
X-37682Y254508D01*
X-38753Y255580D01*
X-40154Y256160D01*
X-41669D01*
X-43070Y255580D01*
X-44141Y254508D01*
X-44721Y253108D01*
Y251592D01*
X-44810Y251460D01*
X-68580D01*
X-71120Y254000D01*
Y268780D01*
X-70489Y269411D01*
X-69909Y270812D01*
Y272327D01*
X-70489Y273728D01*
X-71120Y274358D01*
Y279364D01*
X-70489Y279995D01*
X-69909Y281396D01*
Y282911D01*
X-70489Y284312D01*
X-71120Y284943D01*
Y289560D01*
X-69197D01*
Y288614D01*
X-68617Y287213D01*
X-67545Y286141D01*
X-66145Y285562D01*
X-64629D01*
X-63229Y286141D01*
X-62157Y287213D01*
X-61577Y288614D01*
Y290129D01*
X-62157Y291530D01*
X-63229Y292601D01*
X-64629Y293181D01*
X-64690D01*
X-65990Y295151D01*
Y296341D01*
X-66570Y297742D01*
X-67642Y298814D01*
X-68696Y299250D01*
X-106392Y356362D01*
X-105435Y358140D01*
X-104906D01*
X-103506Y358720D01*
X-102434Y359792D01*
X-101854Y361192D01*
Y362708D01*
X-102434Y364108D01*
X-103506Y365180D01*
X-104906Y365760D01*
X-106422D01*
X-107822Y365180D01*
X-108894Y364108D01*
X-109079Y363661D01*
X-111083Y363469D01*
X-118705Y375017D01*
X-118690Y375032D01*
X-118110Y376432D01*
Y377948D01*
X-118690Y379348D01*
X-119762Y380420D01*
X-121162Y381000D01*
X-122654D01*
X-129966Y392078D01*
X-129537Y392507D01*
X-128957Y393907D01*
Y395423D01*
X-129537Y396823D01*
X-130609Y397895D01*
X-132009Y398475D01*
X-133377D01*
X-133767Y398913D01*
X-133932Y399212D01*
X-133903Y399328D01*
X-132807Y400855D01*
X-132009D01*
X-130609Y401435D01*
X-129537Y402507D01*
X-128957Y403907D01*
Y405423D01*
X-129537Y406823D01*
X-130609Y407895D01*
X-132009Y408475D01*
X-133525D01*
X-134925Y407895D01*
X-135997Y406823D01*
X-136577Y405423D01*
Y405321D01*
X-138355Y404787D01*
X-142638Y411277D01*
X-142170Y412805D01*
X-141098Y413877D01*
X-140518Y415277D01*
Y416793D01*
X-141098Y418193D01*
X-142170Y419265D01*
X-143570Y419845D01*
X-145086D01*
X-146486Y419265D01*
X-148344Y419921D01*
X-156251Y431901D01*
X-155068Y433335D01*
X-154428Y433070D01*
X-152912D01*
X-151512Y433650D01*
X-150440Y434722D01*
X-149860Y436122D01*
Y437638D01*
X-150440Y439038D01*
X-151512Y440110D01*
X-152912Y440690D01*
X-154428D01*
X-155828Y440110D01*
X-156900Y439038D01*
X-157480Y437638D01*
Y436990D01*
X-159258Y436456D01*
X-161670Y440110D01*
X-184350Y474472D01*
X-183460Y475362D01*
X-182880Y476762D01*
Y478278D01*
X-183460Y479678D01*
X-184532Y480750D01*
X-185932Y481330D01*
X-187448D01*
X-188570Y480865D01*
X-190711Y484109D01*
X-190646Y484323D01*
X-189574Y485395D01*
X-188994Y486795D01*
Y488311D01*
X-189574Y489711D01*
X-190646Y490783D01*
X-192046Y491363D01*
X-193562D01*
X-194962Y490783D01*
X-195127Y490800D01*
X-206480Y508000D01*
X-267970D01*
X-269200Y547363D01*
X-267963Y548640D01*
X-206798D01*
X-206430Y547752D01*
X-205358Y546680D01*
X-203958Y546100D01*
X-202442D01*
X-201042Y546680D01*
X-199970Y547752D01*
X-199602Y548640D01*
X-187743D01*
X-187063Y546997D01*
D02*
G37*
G36*
X289560Y505460D02*
X288290Y504190D01*
X276860D01*
Y472491D01*
X276213Y472059D01*
X274697D01*
X273297Y471479D01*
X272225Y470407D01*
X271960Y469769D01*
X270622Y469824D01*
X270124Y469983D01*
X269602Y471243D01*
X268531Y472315D01*
X267130Y472895D01*
X265615D01*
X264214Y472315D01*
X263143Y471243D01*
X262562Y469843D01*
Y468327D01*
X263143Y466927D01*
X264214Y465855D01*
X265615Y465275D01*
X267130D01*
X268531Y465855D01*
X269602Y466927D01*
X269867Y467565D01*
X271205Y467509D01*
X271703Y467351D01*
X272225Y466091D01*
X273297Y465019D01*
X274697Y464439D01*
X276213D01*
X276860Y464006D01*
Y454936D01*
X276579Y454258D01*
Y452742D01*
X276860Y452064D01*
Y437987D01*
X275082Y436922D01*
X274570Y437134D01*
X273054D01*
X271654Y436554D01*
X270582Y435482D01*
X268700Y435584D01*
X268587Y435855D01*
X267515Y436927D01*
X266115Y437507D01*
X264599D01*
X263199Y436927D01*
X262127Y435855D01*
X261547Y434455D01*
Y432939D01*
X262127Y431539D01*
X263199Y430467D01*
X264599Y429887D01*
X266115D01*
X267515Y430467D01*
X268587Y431539D01*
X270469Y431437D01*
X270582Y431166D01*
X271654Y430094D01*
X273054Y429514D01*
X274570D01*
X275082Y429726D01*
X276860Y428661D01*
Y401320D01*
X295910Y382270D01*
Y6350D01*
X281033D01*
Y24766D01*
X261984D01*
Y6350D01*
X253185D01*
X252466Y8128D01*
X253730Y9393D01*
X254984Y11565D01*
X255634Y13987D01*
Y16495D01*
X254984Y18918D01*
X253730Y21090D01*
X251957Y22863D01*
X249785Y24117D01*
X247362Y24766D01*
X244855D01*
X242432Y24117D01*
X240260Y22863D01*
X238487Y21090D01*
X237233Y18918D01*
X236583Y16495D01*
Y13987D01*
X237233Y11565D01*
X238487Y9393D01*
X239751Y8128D01*
X239032Y6350D01*
X227785D01*
X227066Y8128D01*
X228330Y9393D01*
X229584Y11565D01*
X230233Y13987D01*
Y16495D01*
X229584Y18918D01*
X228330Y21090D01*
X226557Y22863D01*
X224385Y24117D01*
X221963Y24766D01*
X219454D01*
X217032Y24117D01*
X214860Y22863D01*
X213087Y21090D01*
X211833Y18918D01*
X211183Y16495D01*
Y13987D01*
X211833Y11565D01*
X213087Y9393D01*
X214351Y8128D01*
X213632Y6350D01*
X202385D01*
X201666Y8128D01*
X202930Y9393D01*
X204184Y11565D01*
X204834Y13987D01*
Y16495D01*
X204184Y18918D01*
X202930Y21090D01*
X201157Y22863D01*
X198985Y24117D01*
X196562Y24766D01*
X194055D01*
X191632Y24117D01*
X189460Y22863D01*
X187687Y21090D01*
X186433Y18918D01*
X185784Y16495D01*
Y13987D01*
X186433Y11565D01*
X187687Y9393D01*
X188951Y8128D01*
X188232Y6350D01*
X178080D01*
X177343Y8128D01*
X178140Y8925D01*
X179494Y11271D01*
X180196Y13887D01*
Y13971D01*
X169909D01*
Y15241D01*
X168638D01*
Y25528D01*
X168554D01*
X165938Y24827D01*
X163592Y23473D01*
X161677Y21558D01*
X160613Y19715D01*
X158840Y20200D01*
X159041Y39806D01*
X159607Y95145D01*
X247650D01*
X248622Y95548D01*
X249025Y96520D01*
Y269870D01*
X248971Y270000D01*
X248998Y270138D01*
X248776Y270472D01*
X248674Y270716D01*
X249737Y271779D01*
X250317Y273180D01*
Y274695D01*
X249737Y276096D01*
X248674Y277159D01*
X248776Y277403D01*
X248998Y277737D01*
X248971Y277875D01*
X249025Y278005D01*
Y350520D01*
Y351387D01*
X248920Y351639D01*
Y351861D01*
X248920Y351861D01*
Y351913D01*
D01*
X248727Y352106D01*
X248622Y352359D01*
X248564Y352383D01*
X248564Y352383D01*
D01*
X248479Y352467D01*
X248396Y352555D01*
D01*
X248396Y352556D01*
X248373Y352614D01*
X248123Y352725D01*
X247936Y352922D01*
X247935Y352923D01*
X247935D01*
X247925Y352923D01*
X247925Y352924D01*
X247662Y352930D01*
X247654Y352934D01*
X247654D01*
X247412Y353041D01*
X244995Y353103D01*
X235244Y353353D01*
X235048Y353277D01*
X234839Y353302D01*
X234575Y353095D01*
X234262Y352975D01*
X234177Y352783D01*
X234011Y352653D01*
X226246Y338867D01*
X226195Y338446D01*
X226114Y338318D01*
X226152Y338152D01*
X226108Y337868D01*
X226133Y337763D01*
X226442Y335970D01*
X225370Y334898D01*
X224790Y333498D01*
Y333463D01*
X223552Y332297D01*
X223012Y332194D01*
X222953Y332201D01*
X222707Y332008D01*
X222411Y331906D01*
X222309Y331696D01*
X222125Y331552D01*
X203116Y297804D01*
X182899Y261914D01*
X175075Y248024D01*
X173355Y248475D01*
Y254081D01*
X162498D01*
X161247Y255345D01*
X161520Y281957D01*
X163305Y282686D01*
X163828Y282163D01*
X165695Y281390D01*
X167716D01*
X168667Y281784D01*
X169398Y281105D01*
X169851Y280350D01*
X169275Y278959D01*
Y277191D01*
X169951Y275557D01*
X171202Y274307D01*
X171740Y274084D01*
X172359Y272208D01*
X172312Y272068D01*
X171784Y270793D01*
Y269277D01*
X172364Y267877D01*
X173436Y266805D01*
X174836Y266225D01*
X176352D01*
X177752Y266805D01*
X178824Y267877D01*
X179404Y269277D01*
Y270793D01*
X178824Y272194D01*
X177752Y273265D01*
X177723Y273277D01*
X177306Y275375D01*
X177488Y275557D01*
X178165Y277191D01*
Y278959D01*
X177488Y280593D01*
X176238Y281843D01*
X174604Y282520D01*
X172836D01*
X172184Y282250D01*
X171261Y283307D01*
X171061Y283709D01*
X171786Y285460D01*
Y287481D01*
X171012Y289348D01*
X169583Y290777D01*
X167716Y291550D01*
X165695D01*
X164106Y290892D01*
X163390Y291095D01*
X162373Y291836D01*
X162527Y292621D01*
X163592Y293062D01*
X164664Y294134D01*
X165244Y295534D01*
Y297050D01*
X164664Y298451D01*
X163592Y299522D01*
X162192Y300102D01*
X161711Y300588D01*
X162031Y331906D01*
X162560Y383540D01*
X166370Y387350D01*
X209634D01*
X210822Y385572D01*
X210820Y385568D01*
Y384052D01*
X211400Y382652D01*
X212472Y381580D01*
X213872Y381000D01*
X215388D01*
X216788Y381580D01*
X217860Y382652D01*
X218440Y384052D01*
Y385568D01*
X218438Y385572D01*
X219626Y387350D01*
X240030D01*
Y414184D01*
X241808Y414538D01*
X241864Y414402D01*
X242936Y413330D01*
X244336Y412750D01*
X244587D01*
X244940Y410972D01*
X244766Y410900D01*
X243695Y409828D01*
X243114Y408428D01*
Y406912D01*
X243695Y405512D01*
X244766Y404440D01*
X246167Y403860D01*
X247682D01*
X249083Y404440D01*
X250154Y405512D01*
X250735Y406912D01*
Y408428D01*
X250154Y409828D01*
X249083Y410900D01*
X247682Y411480D01*
X247432D01*
X247079Y413258D01*
X247253Y413330D01*
X248324Y414402D01*
X248904Y415802D01*
Y417318D01*
X248324Y418718D01*
X247253Y419790D01*
X245852Y420370D01*
X244336D01*
X242936Y419790D01*
X241864Y418718D01*
X241808Y418582D01*
X240030Y418936D01*
Y504190D01*
X184258D01*
X183665Y506402D01*
X182478Y508459D01*
X180798Y510138D01*
X178741Y511325D01*
X176447Y511940D01*
X174072D01*
X171778Y511325D01*
X169721Y510138D01*
X168042Y508459D01*
X166854Y506402D01*
X166262Y504190D01*
X99060D01*
X48365Y503159D01*
X47095Y504403D01*
Y556260D01*
X46692Y557232D01*
X45720Y557635D01*
X33020D01*
X32048Y557232D01*
X31645Y556260D01*
Y502819D01*
X-147320Y499179D01*
Y457968D01*
X-149029Y457478D01*
X-174713Y498622D01*
D01*
X-186095Y516853D01*
D01*
Y527050D01*
X-185932D01*
X-184532Y527630D01*
X-183460Y528702D01*
X-182880Y530102D01*
Y531618D01*
X-183460Y533018D01*
X-183690Y533248D01*
X-184532Y534090D01*
X-185932Y534670D01*
X-186095D01*
Y546021D01*
X-186091Y546025D01*
X-185986Y546278D01*
X-185793Y546471D01*
Y546745D01*
X-185688Y546997D01*
X-185793Y547250D01*
Y547523D01*
X-186473Y549166D01*
X-186666Y549359D01*
X-186771Y549612D01*
X-187024Y549717D01*
X-187217Y549910D01*
X-187491D01*
X-187743Y550015D01*
X-199390D01*
Y550668D01*
X-199970Y552068D01*
X-201042Y553140D01*
X-202442Y553720D01*
X-203958D01*
X-205358Y553140D01*
X-206430Y552068D01*
X-207010Y550668D01*
Y550015D01*
X-267963D01*
X-267973Y550010D01*
X-267984Y550014D01*
X-268457Y549810D01*
X-268935Y549612D01*
X-268939Y549601D01*
X-268950Y549597D01*
X-270187Y548320D01*
X-270191Y548309D01*
X-270202Y548304D01*
X-270385Y547821D01*
X-270575Y547342D01*
X-270570Y547331D01*
X-270574Y547320D01*
X-269344Y507957D01*
X-269136Y507496D01*
X-268942Y507028D01*
X-268921Y507019D01*
X-268911Y506998D01*
X-268437Y506819D01*
X-267970Y506625D01*
X-207220D01*
X-202591Y499612D01*
D01*
X-196275Y490042D01*
X-196034Y489711D01*
X-196614Y488311D01*
Y486795D01*
X-196034Y485395D01*
X-194962Y484323D01*
X-193562Y483743D01*
X-192046D01*
X-191929Y483498D01*
X-191926Y483465D01*
X-191904Y483447D01*
X-191859Y483352D01*
X-189717Y480108D01*
X-189697Y479901D01*
X-189920Y479678D01*
X-190500Y478278D01*
Y476762D01*
X-189920Y475362D01*
X-188848Y474290D01*
X-187448Y473710D01*
X-185932D01*
X-185682Y473814D01*
X-185497Y473714D01*
X-162817Y439353D01*
X-160405Y435699D01*
X-160124Y435509D01*
X-159909Y435246D01*
X-159704Y435225D01*
X-159534Y435109D01*
X-159200Y435174D01*
X-158863Y435140D01*
X-157271Y435617D01*
X-156900Y434722D01*
X-156245Y434067D01*
X-157311Y432776D01*
X-157410Y432455D01*
X-157598Y432177D01*
X-157558Y431971D01*
X-157620Y431770D01*
X-157462Y431473D01*
X-157399Y431143D01*
X-149492Y419164D01*
X-149128Y418918D01*
X-148802Y418625D01*
X-148779Y418617D01*
X-148055Y416993D01*
X-148138Y416793D01*
Y415277D01*
X-147558Y413877D01*
X-147320Y413638D01*
Y368723D01*
X-149098Y367535D01*
X-149312Y367623D01*
X-150828D01*
X-152228Y367043D01*
X-153300Y365971D01*
X-153880Y364571D01*
Y363055D01*
X-153300Y361655D01*
X-152228Y360583D01*
X-150828Y360003D01*
X-149312D01*
X-149098Y360092D01*
X-147320Y358904D01*
Y321209D01*
X-148133D01*
X-149534Y320629D01*
X-150605Y319557D01*
X-151185Y318157D01*
Y316641D01*
X-150605Y315241D01*
X-149534Y314169D01*
X-148133Y313589D01*
X-147320D01*
Y289665D01*
X-159747D01*
X-160253Y289874D01*
X-160480Y290319D01*
X-160486Y290335D01*
X-160761Y291521D01*
X-160771Y291679D01*
X-159968Y292482D01*
X-159388Y293882D01*
Y295398D01*
X-159968Y296798D01*
X-161040Y297870D01*
X-162440Y298450D01*
X-163956D01*
X-165356Y297870D01*
X-166428Y296798D01*
X-167008Y295398D01*
Y293882D01*
X-166428Y292482D01*
X-165356Y291410D01*
X-163956Y290830D01*
X-163209D01*
X-162472Y289052D01*
X-216872Y234652D01*
X-217275Y233680D01*
X-217275Y233680D01*
Y210820D01*
X-276860D01*
X-279400Y213360D01*
Y497763D01*
Y533400D01*
D01*
Y595630D01*
X289560D01*
Y505460D01*
D02*
G37*
G36*
X247377Y351667D02*
X247377Y351667D01*
X247399Y351609D01*
X247483Y351521D01*
X247500Y351513D01*
X247507Y351496D01*
X247592Y351410D01*
X247650Y351387D01*
X247650Y351386D01*
Y279390D01*
X247265Y277747D01*
X245749D01*
X244349Y277167D01*
X243277Y276096D01*
X242697Y274695D01*
Y273180D01*
X243277Y271779D01*
X244349Y270707D01*
X245749Y270128D01*
X247265D01*
X247650Y268485D01*
Y96793D01*
X247570Y96600D01*
X247376Y96520D01*
X93345D01*
X64450Y125415D01*
X65318Y126283D01*
X65899Y127683D01*
Y129199D01*
X65318Y130600D01*
X64247Y131671D01*
X62846Y132251D01*
X61331D01*
X59930Y131671D01*
X59062Y130803D01*
X57242Y132623D01*
X57710Y133091D01*
X58290Y134491D01*
Y136007D01*
X57710Y137407D01*
X56638Y138479D01*
X55238Y139059D01*
X53723D01*
X52322Y138479D01*
X51854Y138011D01*
X40005Y149860D01*
X34945D01*
X34472Y151002D01*
X33400Y152074D01*
X32000Y152654D01*
X30484D01*
X29084Y152074D01*
X28012Y151002D01*
X27539Y149860D01*
X-12595D01*
X-12595Y149860D01*
X-12595Y149860D01*
X-76412D01*
X-76780Y150748D01*
X-77852Y151820D01*
X-79252Y152400D01*
X-80768D01*
X-82168Y151820D01*
X-83240Y150748D01*
X-83608Y149860D01*
X-203440D01*
X-205105Y151525D01*
Y171176D01*
X-205046Y171201D01*
X-204856Y171391D01*
X-204832Y171450D01*
X-153992D01*
X-153934Y171434D01*
X-153896Y171420D01*
X-153720Y171245D01*
X-153212Y170131D01*
X-153082Y169231D01*
X-153457Y168583D01*
X-154072Y166289D01*
Y163914D01*
X-153457Y161620D01*
X-152269Y159563D01*
X-150590Y157883D01*
X-148533Y156696D01*
X-146239Y156081D01*
X-143864D01*
X-141570Y156696D01*
X-139513Y157883D01*
X-137834Y159563D01*
X-136646Y161620D01*
X-136032Y163914D01*
Y166289D01*
X-136646Y168583D01*
X-137021Y169231D01*
X-136891Y170131D01*
X-136383Y171245D01*
X-136207Y171420D01*
X-136169Y171434D01*
X-136111Y171450D01*
X19021D01*
X19438Y170928D01*
X19981Y169672D01*
X19558Y168652D01*
Y167136D01*
X20138Y165736D01*
X21009Y164865D01*
X21210Y164581D01*
X21208Y162740D01*
X20900Y162432D01*
X20320Y161032D01*
Y159516D01*
X20900Y158116D01*
X21972Y157044D01*
X23372Y156464D01*
X24888D01*
X26288Y157044D01*
X27360Y158116D01*
X27940Y159516D01*
Y161032D01*
X27360Y162432D01*
X26489Y163304D01*
X26288Y163587D01*
X26290Y165428D01*
X26598Y165736D01*
X27178Y167136D01*
Y168652D01*
X26755Y169672D01*
X27298Y170928D01*
X27715Y171450D01*
X41373D01*
X42236Y169798D01*
X41656Y168398D01*
Y166882D01*
X42236Y165482D01*
X43308Y164410D01*
X43762Y164222D01*
X44702Y163633D01*
X44651Y162076D01*
X44593Y161937D01*
Y160421D01*
X45173Y159021D01*
X46245Y157949D01*
X47645Y157369D01*
X49161D01*
X50561Y157949D01*
X51633Y159021D01*
X52213Y160421D01*
Y161937D01*
X51972Y162517D01*
X52311Y163131D01*
X53209Y164084D01*
X54352D01*
X55752Y164664D01*
X56824Y165736D01*
X57404Y167136D01*
Y168652D01*
X56981Y169672D01*
X57524Y170928D01*
X57941Y171450D01*
X71120D01*
Y170692D01*
X71700Y169292D01*
X72772Y168220D01*
X74172Y167640D01*
X75688D01*
X77088Y168220D01*
X78160Y169292D01*
X78740Y170692D01*
Y171450D01*
X133519D01*
X156055Y211458D01*
X157538Y211661D01*
X158100Y211466D01*
X160153Y210281D01*
X162576Y209632D01*
X165084D01*
X167506Y210281D01*
X169678Y211535D01*
X171452Y213308D01*
X172706Y215480D01*
X173355Y217903D01*
Y220410D01*
X172706Y222833D01*
X171452Y225005D01*
X169678Y226778D01*
X167506Y228032D01*
X167069Y228149D01*
X166380Y229788D01*
X169334Y235032D01*
X173355D01*
Y242170D01*
X179161Y252478D01*
X184096Y261239D01*
X201751Y292581D01*
X209552Y306431D01*
X223300Y330837D01*
X223319Y330853D01*
X223809Y330947D01*
X225370Y330582D01*
X226442Y329510D01*
X227842Y328930D01*
X229358D01*
X230758Y329510D01*
X231830Y330582D01*
X232410Y331982D01*
Y333498D01*
X231830Y334898D01*
X230758Y335970D01*
X229358Y336550D01*
X228604D01*
X227689Y337712D01*
X227513Y338177D01*
X227510Y338193D01*
X227560Y338281D01*
X227578Y338431D01*
X235169Y351908D01*
X235221Y351957D01*
X235290Y351976D01*
X247377Y351667D01*
D02*
G37*
G36*
X-84139Y247969D02*
X-84275Y247191D01*
X-84751Y246066D01*
X-85851Y245611D01*
X-86923Y244539D01*
X-87503Y243139D01*
Y241623D01*
X-86923Y240222D01*
X-86863Y240163D01*
X-87784Y238569D01*
X-88982Y238890D01*
X-91357D01*
X-93652Y238275D01*
X-95708Y237088D01*
X-97388Y235408D01*
X-98575Y233352D01*
X-99190Y231057D01*
Y228682D01*
X-98575Y226388D01*
X-97388Y224332D01*
X-95708Y222652D01*
X-93652Y221465D01*
X-91357Y220850D01*
X-88982D01*
X-86688Y221465D01*
X-84632Y222652D01*
X-82952Y224332D01*
X-81765Y226388D01*
X-81150Y228682D01*
Y231057D01*
X-81765Y233352D01*
X-82952Y235408D01*
X-84337Y236793D01*
X-84050Y238012D01*
X-83699Y238571D01*
X-82935D01*
X-81535Y239151D01*
X-80463Y240222D01*
X-80007Y241323D01*
X-78883Y241798D01*
X-78105Y241935D01*
X-74930Y238760D01*
X-20320D01*
Y228391D01*
X-20578Y228219D01*
X-22094D01*
X-23494Y227639D01*
X-24566Y226567D01*
X-25146Y225167D01*
Y223651D01*
X-24566Y222251D01*
X-23494Y221179D01*
X-22094Y220599D01*
X-20578D01*
X-20320Y220427D01*
Y172825D01*
X-136122D01*
X-136212Y172787D01*
X-136232Y172795D01*
X-136232Y172795D01*
X-136323Y172757D01*
X-136478Y172778D01*
X-136587Y172749D01*
X-136810Y172577D01*
X-136840Y172579D01*
X-136909Y172515D01*
X-137204Y172393D01*
X-137335Y172262D01*
X-137335Y172262D01*
X-139001Y172885D01*
X-139045Y172929D01*
X-141276Y174217D01*
X-143764Y174883D01*
X-143781D01*
Y165101D01*
X-146321D01*
Y174883D01*
X-146339D01*
X-148827Y174217D01*
X-151058Y172929D01*
X-151102Y172885D01*
X-152768Y172262D01*
X-152768Y172262D01*
X-152900Y172393D01*
X-153194Y172515D01*
X-153263Y172579D01*
X-153293Y172577D01*
X-153515Y172748D01*
X-153625Y172778D01*
X-153780Y172757D01*
X-153871Y172795D01*
X-153872Y172795D01*
X-153891Y172787D01*
X-153981Y172825D01*
X-204832D01*
X-205084Y172720D01*
X-205358Y172720D01*
X-205358Y172720D01*
X-205551Y172640D01*
X-205551Y172640D01*
X-205745Y172446D01*
X-205804Y172422D01*
X-205828Y172363D01*
X-206018Y172173D01*
X-206077Y172149D01*
X-206101Y172090D01*
X-206295Y171896D01*
X-206295Y171896D01*
X-206375Y171703D01*
X-206375Y171703D01*
X-206375Y171429D01*
X-206480Y171176D01*
Y150133D01*
X-206375Y149881D01*
X-206375Y149607D01*
X-206375Y149607D01*
X-206295Y149414D01*
X-206295Y149414D01*
X-206101Y149220D01*
X-206077Y149161D01*
X-206018Y149137D01*
X-205828Y148947D01*
X-205804Y148888D01*
X-205745Y148863D01*
X-205551Y148670D01*
X-205551Y148670D01*
X-205358Y148590D01*
X-205358Y148590D01*
X-205084Y148590D01*
X-204832Y148485D01*
X-132105D01*
X-131706Y147636D01*
X-131560Y146707D01*
X-132434Y145833D01*
X-133014Y144433D01*
Y142917D01*
X-132434Y141517D01*
X-131362Y140445D01*
X-129962Y139865D01*
X-128446D01*
X-127046Y140445D01*
X-125974Y141517D01*
X-125394Y142917D01*
Y144433D01*
X-125974Y145833D01*
X-126848Y146707D01*
X-126702Y147636D01*
X-126303Y148485D01*
X-83820D01*
Y147832D01*
X-83240Y146432D01*
X-82168Y145360D01*
X-80768Y144780D01*
X-79252D01*
X-77852Y145360D01*
X-76780Y146432D01*
X-76200Y147832D01*
Y148485D01*
X-12595D01*
X-12595Y148485D01*
X10160Y125730D01*
X1270Y116840D01*
X-36249D01*
X-36775Y118109D01*
X-37847Y119181D01*
X-39247Y119761D01*
X-40763D01*
X-42163Y119181D01*
X-43235Y118109D01*
X-43761Y116840D01*
X-53816D01*
X-54378Y117403D01*
X-55779Y117983D01*
X-57295D01*
X-58695Y117403D01*
X-59258Y116840D01*
X-73902D01*
X-74639Y118618D01*
X-74334Y118923D01*
X-73146Y120980D01*
X-72531Y123274D01*
Y125649D01*
X-73146Y127943D01*
X-74334Y130000D01*
X-76013Y131679D01*
X-78070Y132866D01*
X-80364Y133481D01*
X-82739D01*
X-85033Y132866D01*
X-87090Y131679D01*
X-88769Y130000D01*
X-89957Y127943D01*
X-90571Y125649D01*
Y123274D01*
X-89957Y120980D01*
X-88769Y118923D01*
X-88464Y118618D01*
X-89201Y116840D01*
X-199390D01*
X-215900Y133350D01*
Y233407D01*
X-215707Y233873D01*
X-161649Y287931D01*
X-160020Y288290D01*
X-160020Y288290D01*
X-160020Y288290D01*
X-124460D01*
X-84139Y247969D01*
D02*
G37*
G36*
X45720Y434424D02*
X224909Y436797D01*
X225247Y435981D01*
X226318Y434909D01*
X227719Y434329D01*
X229235D01*
X229362Y434382D01*
X231140Y433194D01*
Y408940D01*
X232410Y407670D01*
X222250Y397510D01*
X45720D01*
Y342900D01*
X123190D01*
Y326390D01*
X153670D01*
Y271780D01*
X152400Y270510D01*
Y251460D01*
X140969D01*
Y253512D01*
X121919D01*
Y251460D01*
Y234462D01*
X123190D01*
Y219175D01*
X121919D01*
Y200125D01*
X123190D01*
Y186548D01*
X122678Y186205D01*
X121162D01*
X119762Y185625D01*
X118690Y184554D01*
X118523Y184150D01*
X-3810D01*
Y228802D01*
X-2032Y229156D01*
X-1960Y228982D01*
X-888Y227910D01*
X512Y227330D01*
X2028D01*
X3428Y227910D01*
X4500Y228982D01*
X5080Y230382D01*
Y231898D01*
X4500Y233298D01*
X3428Y234370D01*
X2028Y234950D01*
X512D01*
X-888Y234370D01*
X-1960Y233298D01*
X-2032Y233124D01*
X-3810Y233478D01*
Y236150D01*
X-2032Y237515D01*
X-1459Y237361D01*
X916D01*
X3210Y237976D01*
X5267Y239163D01*
X6946Y240843D01*
X8134Y242900D01*
X8748Y245194D01*
Y247569D01*
X8134Y249863D01*
X6946Y251920D01*
X5267Y253599D01*
X3210Y254786D01*
X916Y255401D01*
X-1459D01*
X-2032Y255248D01*
X-3810Y256612D01*
Y342900D01*
X33020D01*
Y556260D01*
X45720D01*
Y434424D01*
D02*
G37*
%LPC*%
G36*
X-122009Y398475D02*
X-123525D01*
X-124925Y397895D01*
X-125997Y396823D01*
X-126577Y395423D01*
Y393907D01*
X-125997Y392507D01*
X-124925Y391435D01*
X-123525Y390855D01*
X-122009D01*
X-120609Y391435D01*
X-119537Y392507D01*
X-118957Y393907D01*
Y395423D01*
X-119537Y396823D01*
X-120609Y397895D01*
X-122009Y398475D01*
D02*
G37*
G36*
X-198632Y590550D02*
X-200148D01*
X-201548Y589970D01*
X-202620Y588898D01*
X-203200Y587498D01*
Y585982D01*
X-202620Y584582D01*
X-201548Y583510D01*
X-200148Y582930D01*
X-198632D01*
X-197232Y583510D01*
X-196160Y584582D01*
X-195580Y585982D01*
Y587498D01*
X-196160Y588898D01*
X-197232Y589970D01*
X-198632Y590550D01*
D02*
G37*
G36*
X15998Y588010D02*
X14482D01*
X13082Y587430D01*
X12010Y586358D01*
X11430Y584958D01*
Y583442D01*
X12010Y582042D01*
X13082Y580970D01*
X14482Y580390D01*
X15998D01*
X17398Y580970D01*
X18470Y582042D01*
X19050Y583442D01*
Y584958D01*
X18470Y586358D01*
X17398Y587430D01*
X15998Y588010D01*
D02*
G37*
G36*
X-217524Y591951D02*
X-219899D01*
X-222193Y591337D01*
X-224250Y590149D01*
X-225929Y588470D01*
X-227117Y586413D01*
X-227731Y584119D01*
Y581744D01*
X-227117Y579450D01*
X-225929Y577393D01*
X-224250Y575713D01*
X-222193Y574526D01*
X-219899Y573911D01*
X-217524D01*
X-215230Y574526D01*
X-213173Y575713D01*
X-211494Y577393D01*
X-210306Y579450D01*
X-209692Y581744D01*
Y584119D01*
X-210306Y586413D01*
X-211494Y588470D01*
X-213173Y590149D01*
X-215230Y591337D01*
X-217524Y591951D01*
D02*
G37*
G36*
X-155814Y576219D02*
X-157329D01*
X-158730Y575639D01*
X-159801Y574567D01*
X-160085Y573881D01*
X-161007Y573119D01*
X-162159Y573032D01*
X-162862Y573324D01*
X-164378D01*
X-165778Y572743D01*
X-166850Y571672D01*
X-167430Y570271D01*
Y568756D01*
X-166850Y567355D01*
X-165778Y566284D01*
X-164378Y565704D01*
X-162862D01*
X-161462Y566284D01*
X-160390Y567355D01*
X-160106Y568041D01*
X-159184Y568803D01*
X-158032Y568890D01*
X-157329Y568599D01*
X-155814D01*
X-154413Y569179D01*
X-153342Y570250D01*
X-152761Y571651D01*
Y573166D01*
X-153342Y574567D01*
X-154413Y575639D01*
X-155814Y576219D01*
D02*
G37*
G36*
X63251Y590012D02*
X60743D01*
X58320Y589363D01*
X56148Y588109D01*
X54375Y586335D01*
X53121Y584163D01*
X52472Y581741D01*
Y579233D01*
X53121Y576810D01*
X54375Y574638D01*
X56148Y572865D01*
X58320Y571611D01*
X60743Y570962D01*
X63251D01*
X65673Y571611D01*
X67845Y572865D01*
X69619Y574638D01*
X70873Y576810D01*
X71522Y579233D01*
Y581741D01*
X70873Y584163D01*
X69619Y586335D01*
X67845Y588109D01*
X65673Y589363D01*
X63251Y590012D01*
D02*
G37*
G36*
X46122D02*
X27072D01*
Y570962D01*
X46122D01*
Y590012D01*
D02*
G37*
G36*
X83167Y571359D02*
X81651D01*
X80251Y570779D01*
X79179Y569707D01*
X78599Y568307D01*
Y566791D01*
X79179Y565391D01*
X80251Y564319D01*
X81651Y563739D01*
X83167D01*
X84567Y564319D01*
X85639Y565391D01*
X86219Y566791D01*
Y568307D01*
X85639Y569707D01*
X84567Y570779D01*
X83167Y571359D01*
D02*
G37*
G36*
X-58932Y570230D02*
X-60448D01*
X-61848Y569650D01*
X-62920Y568578D01*
X-63500Y567178D01*
Y565662D01*
X-62920Y564262D01*
X-61848Y563190D01*
X-60448Y562610D01*
X-58932D01*
X-57532Y563190D01*
X-56460Y564262D01*
X-55880Y565662D01*
Y567178D01*
X-56460Y568578D01*
X-57532Y569650D01*
X-58932Y570230D01*
D02*
G37*
G36*
X134108Y562610D02*
X132592D01*
X131192Y562030D01*
X130120Y560958D01*
X129540Y559558D01*
Y558042D01*
X130120Y556642D01*
X131192Y555570D01*
X132592Y554990D01*
X134108D01*
X135508Y555570D01*
X136580Y556642D01*
X137160Y558042D01*
Y559558D01*
X136580Y560958D01*
X135508Y562030D01*
X134108Y562610D01*
D02*
G37*
G36*
X-83062Y560070D02*
X-84578D01*
X-85978Y559490D01*
X-87050Y558418D01*
X-87630Y557018D01*
Y555502D01*
X-87050Y554102D01*
X-85978Y553030D01*
X-84578Y552450D01*
X-83062D01*
X-81662Y553030D01*
X-80590Y554102D01*
X-80010Y555502D01*
Y557018D01*
X-80590Y558418D01*
X-81662Y559490D01*
X-83062Y560070D01*
D02*
G37*
G36*
X-93222D02*
X-94738D01*
X-96138Y559490D01*
X-97210Y558418D01*
X-97790Y557018D01*
Y555502D01*
X-97210Y554102D01*
X-96138Y553030D01*
X-94738Y552450D01*
X-93222D01*
X-91822Y553030D01*
X-90750Y554102D01*
X-90170Y555502D01*
Y557018D01*
X-90750Y558418D01*
X-91822Y559490D01*
X-93222Y560070D01*
D02*
G37*
G36*
X-159262D02*
X-160778D01*
X-162178Y559490D01*
X-163250Y558418D01*
X-163830Y557018D01*
Y555502D01*
X-163250Y554102D01*
X-162178Y553030D01*
X-160778Y552450D01*
X-159262D01*
X-157862Y553030D01*
X-156790Y554102D01*
X-156210Y555502D01*
Y557018D01*
X-156790Y558418D01*
X-157862Y559490D01*
X-159262Y560070D01*
D02*
G37*
G36*
X-112535Y559580D02*
X-114051D01*
X-115451Y558999D01*
X-116523Y557928D01*
X-117103Y556527D01*
Y555012D01*
X-116523Y553611D01*
X-115451Y552539D01*
X-114051Y551959D01*
X-112535D01*
X-111135Y552539D01*
X-110063Y553611D01*
X-109483Y555012D01*
Y556527D01*
X-110063Y557928D01*
X-111135Y558999D01*
X-112535Y559580D01*
D02*
G37*
G36*
X-122535D02*
X-124051D01*
X-125451Y558999D01*
X-126523Y557928D01*
X-127103Y556527D01*
Y555012D01*
X-126523Y553611D01*
X-125451Y552539D01*
X-124051Y551959D01*
X-122535D01*
X-121135Y552539D01*
X-120063Y553611D01*
X-119483Y555012D01*
Y556527D01*
X-120063Y557928D01*
X-121135Y558999D01*
X-122535Y559580D01*
D02*
G37*
G36*
X-112535Y549580D02*
X-114051D01*
X-115451Y548999D01*
X-116523Y547928D01*
X-117103Y546527D01*
Y545012D01*
X-116523Y543611D01*
X-115451Y542539D01*
X-114051Y541959D01*
X-112535D01*
X-111135Y542539D01*
X-110063Y543611D01*
X-109483Y545012D01*
Y546527D01*
X-110063Y547928D01*
X-111135Y548999D01*
X-112535Y549580D01*
D02*
G37*
G36*
X-122535D02*
X-124051D01*
X-125451Y548999D01*
X-126523Y547928D01*
X-127103Y546527D01*
Y545012D01*
X-126523Y543611D01*
X-125451Y542539D01*
X-124051Y541959D01*
X-122535D01*
X-121135Y542539D01*
X-120063Y543611D01*
X-119483Y545012D01*
Y546527D01*
X-120063Y547928D01*
X-121135Y548999D01*
X-122535Y549580D01*
D02*
G37*
G36*
X-83062Y548640D02*
X-84578D01*
X-85978Y548060D01*
X-87050Y546988D01*
X-87630Y545588D01*
Y544072D01*
X-87050Y542672D01*
X-85978Y541600D01*
X-84578Y541020D01*
X-83062D01*
X-81662Y541600D01*
X-80590Y542672D01*
X-80010Y544072D01*
Y545588D01*
X-80590Y546988D01*
X-81662Y548060D01*
X-83062Y548640D01*
D02*
G37*
G36*
X-93222D02*
X-94738D01*
X-96138Y548060D01*
X-97210Y546988D01*
X-97790Y545588D01*
Y544072D01*
X-97210Y542672D01*
X-96138Y541600D01*
X-94738Y541020D01*
X-93222D01*
X-91822Y541600D01*
X-90750Y542672D01*
X-90170Y544072D01*
Y545588D01*
X-90750Y546988D01*
X-91822Y548060D01*
X-93222Y548640D01*
D02*
G37*
G36*
X-24642Y541020D02*
X-26158D01*
X-27558Y540440D01*
X-28630Y539368D01*
X-29210Y537968D01*
Y536452D01*
X-28630Y535052D01*
X-27558Y533980D01*
X-26158Y533400D01*
X-24642D01*
X-23242Y533980D01*
X-22170Y535052D01*
X-21590Y536452D01*
Y537968D01*
X-22170Y539368D01*
X-23242Y540440D01*
X-24642Y541020D01*
D02*
G37*
G36*
X4441Y540608D02*
X2925D01*
X1525Y540028D01*
X453Y538956D01*
X-127Y537556D01*
Y536040D01*
X453Y534640D01*
X1525Y533568D01*
X2925Y532988D01*
X4441D01*
X5841Y533568D01*
X6913Y534640D01*
X7493Y536040D01*
Y537556D01*
X6913Y538956D01*
X5841Y540028D01*
X4441Y540608D01*
D02*
G37*
G36*
X148507Y547500D02*
X146132D01*
X143838Y546885D01*
X141781Y545698D01*
X140102Y544019D01*
X138914Y541962D01*
X138300Y539668D01*
Y537293D01*
X138914Y534999D01*
X140102Y532942D01*
X141781Y531262D01*
X143838Y530075D01*
X146132Y529460D01*
X148507D01*
X150801Y530075D01*
X152858Y531262D01*
X154538Y532942D01*
X155725Y534999D01*
X156340Y537293D01*
Y539668D01*
X155725Y541962D01*
X154538Y544019D01*
X152858Y545698D01*
X150801Y546885D01*
X148507Y547500D01*
D02*
G37*
G36*
X223262Y536448D02*
X221746D01*
X220346Y535868D01*
X219274Y534796D01*
X218694Y533396D01*
Y531880D01*
X219274Y530480D01*
X220346Y529408D01*
X221746Y528828D01*
X223262D01*
X224662Y529408D01*
X225734Y530480D01*
X226314Y531880D01*
Y533396D01*
X225734Y534796D01*
X224662Y535868D01*
X223262Y536448D01*
D02*
G37*
G36*
X85809Y535901D02*
X84293D01*
X82893Y535321D01*
X81821Y534249D01*
X81241Y532849D01*
Y531334D01*
X81821Y529933D01*
X82893Y528861D01*
X84293Y528281D01*
X85809D01*
X87210Y528861D01*
X88281Y529933D01*
X88861Y531334D01*
Y532849D01*
X88281Y534249D01*
X87210Y535321D01*
X85809Y535901D01*
D02*
G37*
G36*
X260668Y537271D02*
X258870D01*
X257208Y536583D01*
X255937Y535311D01*
X255249Y533650D01*
Y531852D01*
X255937Y530191D01*
X257208Y528919D01*
X258870Y528231D01*
X260668D01*
X262329Y528919D01*
X263601Y530191D01*
X264289Y531852D01*
Y533650D01*
X263601Y535311D01*
X262329Y536583D01*
X260668Y537271D01*
D02*
G37*
G36*
X202868D02*
X201069D01*
X199408Y536583D01*
X198137Y535311D01*
X197448Y533650D01*
Y531852D01*
X198137Y530191D01*
X199408Y528919D01*
X201069Y528231D01*
X202868D01*
X204529Y528919D01*
X205800Y530191D01*
X206488Y531852D01*
Y533650D01*
X205800Y535311D01*
X204529Y536583D01*
X202868Y537271D01*
D02*
G37*
G36*
X-93881Y531077D02*
X-95397D01*
X-96797Y530497D01*
X-97869Y529426D01*
X-98449Y528025D01*
Y526510D01*
X-97869Y525109D01*
X-96797Y524038D01*
X-95397Y523457D01*
X-93881D01*
X-92481Y524038D01*
X-91409Y525109D01*
X-90829Y526510D01*
Y528025D01*
X-91409Y529426D01*
X-92481Y530497D01*
X-93881Y531077D01*
D02*
G37*
G36*
X-112272Y530860D02*
X-113788D01*
X-115188Y530280D01*
X-116260Y529208D01*
X-116840Y527808D01*
Y526292D01*
X-116260Y524892D01*
X-115188Y523820D01*
X-113788Y523240D01*
X-112272D01*
X-110872Y523820D01*
X-109800Y524892D01*
X-109220Y526292D01*
Y527808D01*
X-109800Y529208D01*
X-110872Y530280D01*
X-112272Y530860D01*
D02*
G37*
G36*
X-122432D02*
X-123948D01*
X-125348Y530280D01*
X-126420Y529208D01*
X-127000Y527808D01*
Y526292D01*
X-126420Y524892D01*
X-125348Y523820D01*
X-123948Y523240D01*
X-122432D01*
X-121032Y523820D01*
X-119960Y524892D01*
X-119380Y526292D01*
Y527808D01*
X-119960Y529208D01*
X-121032Y530280D01*
X-122432Y530860D01*
D02*
G37*
G36*
X-82563Y530766D02*
X-84078D01*
X-85479Y530186D01*
X-86551Y529114D01*
X-87130Y527714D01*
Y526198D01*
X-86551Y524798D01*
X-85479Y523726D01*
X-84078Y523146D01*
X-82563D01*
X-81162Y523726D01*
X-80091Y524798D01*
X-79510Y526198D01*
Y527714D01*
X-80091Y529114D01*
X-81162Y530186D01*
X-82563Y530766D01*
D02*
G37*
G36*
X71112Y518241D02*
X69596D01*
X68196Y517660D01*
X67124Y516589D01*
X66544Y515188D01*
Y513673D01*
X67124Y512272D01*
X68196Y511200D01*
X69596Y510620D01*
X71112D01*
X72512Y511200D01*
X73584Y512272D01*
X74164Y513673D01*
Y515188D01*
X73584Y516589D01*
X72512Y517660D01*
X71112Y518241D01*
D02*
G37*
G36*
X-82459Y518201D02*
X-83975D01*
X-85375Y517621D01*
X-86447Y516550D01*
X-87027Y515149D01*
Y513634D01*
X-86447Y512233D01*
X-85375Y511161D01*
X-83975Y510582D01*
X-82459D01*
X-81059Y511161D01*
X-79987Y512233D01*
X-79407Y513634D01*
Y515149D01*
X-79987Y516550D01*
X-81059Y517621D01*
X-82459Y518201D01*
D02*
G37*
G36*
X-93569D02*
X-95085D01*
X-96485Y517621D01*
X-97557Y516550D01*
X-98137Y515149D01*
Y513634D01*
X-97557Y512233D01*
X-96485Y511161D01*
X-95085Y510582D01*
X-93569D01*
X-92169Y511161D01*
X-91097Y512233D01*
X-90517Y513634D01*
Y515149D01*
X-91097Y516550D01*
X-92169Y517621D01*
X-93569Y518201D01*
D02*
G37*
G36*
X-112272Y518160D02*
X-113788D01*
X-115188Y517580D01*
X-116260Y516508D01*
X-116840Y515108D01*
Y513592D01*
X-116260Y512192D01*
X-115188Y511120D01*
X-113788Y510540D01*
X-112272D01*
X-110872Y511120D01*
X-109800Y512192D01*
X-109220Y513592D01*
Y515108D01*
X-109800Y516508D01*
X-110872Y517580D01*
X-112272Y518160D01*
D02*
G37*
G36*
X-122432D02*
X-123948D01*
X-125348Y517580D01*
X-126420Y516508D01*
X-127000Y515108D01*
Y513592D01*
X-126420Y512192D01*
X-125348Y511120D01*
X-123948Y510540D01*
X-122432D01*
X-121032Y511120D01*
X-119960Y512192D01*
X-119380Y513592D01*
Y515108D01*
X-119960Y516508D01*
X-121032Y517580D01*
X-122432Y518160D01*
D02*
G37*
G36*
X272488Y518110D02*
X270972D01*
X269572Y517530D01*
X268500Y516458D01*
X267920Y515058D01*
Y513542D01*
X268500Y512142D01*
X269572Y511070D01*
X270972Y510490D01*
X272488D01*
X273888Y511070D01*
X274960Y512142D01*
X275082Y512437D01*
D01*
X275540Y513542D01*
Y515058D01*
X274960Y516458D01*
X273888Y517530D01*
X272488Y518110D01*
D02*
G37*
G36*
X-60202Y511810D02*
X-61718D01*
X-63118Y511230D01*
X-64190Y510158D01*
X-64770Y508758D01*
Y507242D01*
X-64190Y505842D01*
X-63118Y504770D01*
X-61718Y504190D01*
X-60202D01*
X-58802Y504770D01*
X-57730Y505842D01*
X-57150Y507242D01*
Y508758D01*
X-57730Y510158D01*
X-58802Y511230D01*
X-60202Y511810D01*
D02*
G37*
G36*
X-159262D02*
X-160778D01*
X-162178Y511230D01*
X-163250Y510158D01*
X-163830Y508758D01*
Y507242D01*
X-163250Y505842D01*
X-162178Y504770D01*
X-160778Y504190D01*
X-159262D01*
X-157862Y504770D01*
X-156790Y505842D01*
X-156210Y507242D01*
Y508758D01*
X-156790Y510158D01*
X-157862Y511230D01*
X-159262Y511810D01*
D02*
G37*
G36*
X252218Y501650D02*
X250702D01*
X249302Y501070D01*
X248230Y499998D01*
X247650Y498598D01*
Y497082D01*
X248230Y495682D01*
X249302Y494610D01*
X250702Y494030D01*
X252218D01*
X253618Y494610D01*
X254690Y495682D01*
X255270Y497082D01*
Y498598D01*
X254690Y499998D01*
X253618Y501070D01*
X252218Y501650D01*
D02*
G37*
G36*
X249678Y485140D02*
X248162D01*
X246762Y484560D01*
X245690Y483488D01*
X245110Y482088D01*
Y480572D01*
X245690Y479172D01*
X246762Y478100D01*
X248162Y477520D01*
X249678D01*
X251078Y478100D01*
X252150Y479172D01*
X252730Y480572D01*
Y482088D01*
X252150Y483488D01*
X251078Y484560D01*
X249678Y485140D01*
D02*
G37*
G36*
X256336Y473499D02*
X254820D01*
X253420Y472919D01*
X252348Y471847D01*
X251768Y470447D01*
Y468931D01*
X252348Y467530D01*
X253420Y466459D01*
X254820Y465879D01*
X256336D01*
X257736Y466459D01*
X258808Y467530D01*
X259388Y468931D01*
Y470447D01*
X258808Y471847D01*
X257736Y472919D01*
X256336Y473499D01*
D02*
G37*
G36*
X-185932Y463550D02*
X-187448D01*
X-188848Y462970D01*
X-189920Y461898D01*
X-190500Y460498D01*
Y458982D01*
X-189920Y457582D01*
X-188848Y456510D01*
X-187448Y455930D01*
X-185932D01*
X-184532Y456510D01*
X-183460Y457582D01*
X-182880Y458982D01*
Y460498D01*
X-183460Y461898D01*
X-184532Y462970D01*
X-185932Y463550D01*
D02*
G37*
G36*
X-198886Y434153D02*
X-200402D01*
X-201802Y433573D01*
X-202874Y432501D01*
X-203454Y431101D01*
Y429585D01*
X-202874Y428185D01*
X-201802Y427113D01*
X-200402Y426533D01*
X-198886D01*
X-197486Y427113D01*
X-196414Y428185D01*
X-195834Y429585D01*
Y431101D01*
X-196414Y432501D01*
X-197486Y433573D01*
X-198886Y434153D01*
D02*
G37*
G36*
X-210283Y415511D02*
X-211799D01*
X-213199Y414931D01*
X-214271Y413859D01*
X-214851Y412459D01*
Y410943D01*
X-214271Y409543D01*
X-213199Y408471D01*
X-211799Y407891D01*
X-210283D01*
X-208883Y408471D01*
X-207811Y409543D01*
X-207231Y410943D01*
Y412459D01*
X-207811Y413859D01*
X-208883Y414931D01*
X-210283Y415511D01*
D02*
G37*
G36*
X272030Y413766D02*
X270514D01*
X269114Y413186D01*
X268042Y412114D01*
X267462Y410714D01*
Y409198D01*
X268042Y407798D01*
X269114Y406726D01*
X270514Y406146D01*
X272030D01*
X273430Y406726D01*
X274502Y407798D01*
X275082Y409198D01*
Y410714D01*
X274502Y412114D01*
X273430Y413186D01*
X272030Y413766D01*
D02*
G37*
G36*
X-161874Y408693D02*
X-163390D01*
X-164790Y408113D01*
X-165862Y407042D01*
X-166442Y405641D01*
Y404126D01*
X-165862Y402725D01*
X-164790Y401653D01*
X-163390Y401073D01*
X-161874D01*
X-160474Y401653D01*
X-159402Y402725D01*
X-158822Y404126D01*
Y405641D01*
X-159402Y407042D01*
X-160474Y408113D01*
X-161874Y408693D01*
D02*
G37*
G36*
X-161081Y392103D02*
X-162596D01*
X-163997Y391523D01*
X-165068Y390451D01*
X-165648Y389051D01*
Y387535D01*
X-165068Y386135D01*
X-163997Y385063D01*
X-162596Y384483D01*
X-161081D01*
X-159680Y385063D01*
X-158609Y386135D01*
X-158028Y387535D01*
Y389051D01*
X-158609Y390451D01*
X-159680Y391523D01*
X-161081Y392103D01*
D02*
G37*
G36*
X247138Y388620D02*
X245622D01*
X244222Y388040D01*
X243150Y386968D01*
X242570Y385568D01*
Y384052D01*
X243150Y382652D01*
X244222Y381580D01*
X245622Y381000D01*
X247138D01*
X248538Y381580D01*
X249610Y382652D01*
X250190Y384052D01*
Y385568D01*
X250188Y385572D01*
D01*
X249610Y386968D01*
X248538Y388040D01*
X247138Y388620D01*
D02*
G37*
G36*
X-200615Y387350D02*
X-202131D01*
X-203531Y386770D01*
X-204603Y385698D01*
X-205183Y384298D01*
Y382782D01*
X-204603Y381382D01*
X-203531Y380310D01*
X-202131Y379730D01*
X-200615D01*
X-199215Y380310D01*
X-198143Y381382D01*
X-197563Y382782D01*
Y384298D01*
X-198143Y385698D01*
X-199215Y386770D01*
X-200615Y387350D01*
D02*
G37*
G36*
X247138Y378460D02*
X245622D01*
X244222Y377880D01*
X243150Y376808D01*
X242570Y375408D01*
Y373892D01*
X243150Y372492D01*
X244222Y371420D01*
X245622Y370840D01*
X247138D01*
X248538Y371420D01*
X249610Y372492D01*
X250190Y373892D01*
Y375408D01*
X249610Y376808D01*
X248538Y377880D01*
X247138Y378460D01*
D02*
G37*
G36*
X-162564D02*
X-164080D01*
X-165480Y377880D01*
X-166552Y376808D01*
X-167132Y375408D01*
Y373892D01*
X-166552Y372492D01*
X-165480Y371420D01*
X-164080Y370840D01*
X-162564D01*
X-161164Y371420D01*
X-160092Y372492D01*
X-159512Y373892D01*
Y375408D01*
X-160092Y376808D01*
X-161164Y377880D01*
X-162564Y378460D01*
D02*
G37*
G36*
X-252813Y384940D02*
X-255188D01*
X-257482Y384325D01*
X-259539Y383138D01*
X-261218Y381459D01*
X-262405Y379402D01*
X-263020Y377108D01*
Y374733D01*
X-262405Y372439D01*
X-261218Y370382D01*
X-259539Y368702D01*
X-257482Y367515D01*
X-255188Y366900D01*
X-252813D01*
X-250519Y367515D01*
X-248462Y368702D01*
X-246782Y370382D01*
X-245595Y372439D01*
X-244980Y374733D01*
Y377108D01*
X-245595Y379402D01*
X-246782Y381459D01*
X-248462Y383138D01*
X-250519Y384325D01*
X-252813Y384940D01*
D02*
G37*
G36*
X-222283Y385318D02*
X-224757D01*
X-227148Y384678D01*
X-229291Y383441D01*
X-231040Y381691D01*
X-232278Y379548D01*
X-232918Y377158D01*
Y374683D01*
X-232278Y372293D01*
X-231040Y370150D01*
X-229291Y368400D01*
X-227148Y367163D01*
X-224757Y366522D01*
X-222283D01*
X-219893Y367163D01*
X-217750Y368400D01*
X-216000Y370150D01*
X-214763Y372293D01*
X-214122Y374683D01*
Y377158D01*
X-214763Y379548D01*
X-216000Y381691D01*
X-217750Y383441D01*
X-219893Y384678D01*
X-222283Y385318D01*
D02*
G37*
G36*
X208887Y371967D02*
X207371D01*
X205971Y371387D01*
X204899Y370315D01*
X204319Y368915D01*
Y367399D01*
X204899Y365999D01*
X205971Y364927D01*
X207371Y364347D01*
X208887D01*
X210287Y364927D01*
X211359Y365999D01*
X211939Y367399D01*
Y368915D01*
X211359Y370315D01*
X210287Y371387D01*
X208887Y371967D01*
D02*
G37*
G36*
X266532Y371008D02*
X265016D01*
X263616Y370428D01*
X262544Y369356D01*
X261964Y367956D01*
Y366440D01*
X262544Y365040D01*
X263616Y363968D01*
X265016Y363388D01*
X266532D01*
X267932Y363968D01*
X269004Y365040D01*
X269584Y366440D01*
Y367956D01*
X269004Y369356D01*
X267932Y370428D01*
X266532Y371008D01*
D02*
G37*
G36*
X-193552Y369062D02*
X-195068D01*
X-196468Y368482D01*
X-197540Y367410D01*
X-198120Y366010D01*
Y364494D01*
X-197540Y363094D01*
X-196468Y362022D01*
X-195068Y361442D01*
X-193552D01*
X-192152Y362022D01*
X-191080Y363094D01*
X-190500Y364494D01*
Y366010D01*
X-191080Y367410D01*
X-192152Y368482D01*
X-193552Y369062D01*
D02*
G37*
G36*
X-162169Y364426D02*
X-163684D01*
X-165085Y363846D01*
X-166157Y362774D01*
X-166737Y361374D01*
Y359858D01*
X-166157Y358457D01*
X-165085Y357386D01*
X-163684Y356806D01*
X-162169D01*
X-160768Y357386D01*
X-159697Y358457D01*
X-159117Y359858D01*
Y361374D01*
X-159697Y362774D01*
X-160768Y363846D01*
X-162169Y364426D01*
D02*
G37*
G36*
X198878Y353060D02*
X197362D01*
X195962Y352480D01*
X194890Y351408D01*
X194310Y350008D01*
Y348492D01*
X194890Y347092D01*
X195962Y346020D01*
X197362Y345440D01*
X198878D01*
X200278Y346020D01*
X201350Y347092D01*
X201930Y348492D01*
Y350008D01*
X201350Y351408D01*
X200278Y352480D01*
X198878Y353060D01*
D02*
G37*
G36*
X184908Y349250D02*
X183392D01*
X181992Y348670D01*
X180920Y347598D01*
X180340Y346198D01*
Y344682D01*
X180920Y343282D01*
X181992Y342210D01*
X183392Y341630D01*
X184908D01*
X186308Y342210D01*
X187380Y343282D01*
X187960Y344682D01*
Y346198D01*
X187380Y347598D01*
X186308Y348670D01*
X184908Y349250D01*
D02*
G37*
G36*
X169668Y348361D02*
X168152D01*
X166752Y347781D01*
X165680Y346709D01*
X165100Y345309D01*
Y343793D01*
X165680Y342393D01*
X166752Y341321D01*
X168152Y340741D01*
X169668D01*
X171068Y341321D01*
X172140Y342393D01*
X172720Y343793D01*
Y345309D01*
X172140Y346709D01*
X171068Y347781D01*
X169668Y348361D01*
D02*
G37*
G36*
X-174956Y347994D02*
X-176472D01*
X-177872Y347413D01*
X-178944Y346342D01*
X-179524Y344941D01*
Y343426D01*
X-178944Y342025D01*
X-177872Y340954D01*
X-176472Y340373D01*
X-174956D01*
X-173556Y340954D01*
X-172484Y342025D01*
X-171904Y343426D01*
Y344941D01*
X-172484Y346342D01*
X-173556Y347413D01*
X-174956Y347994D01*
D02*
G37*
G36*
X270692Y337990D02*
X269176D01*
X267776Y337410D01*
X266704Y336338D01*
X266124Y334938D01*
Y333422D01*
X266704Y332022D01*
X267776Y330950D01*
X269176Y330370D01*
X270692D01*
X272092Y330950D01*
X273164Y332022D01*
X273744Y333422D01*
Y334938D01*
X273164Y336338D01*
X272092Y337410D01*
X270692Y337990D01*
D02*
G37*
G36*
X-157889Y337777D02*
X-159405D01*
X-160805Y337197D01*
X-161877Y336125D01*
X-162457Y334725D01*
Y333209D01*
X-161877Y331809D01*
X-160805Y330737D01*
X-159405Y330157D01*
X-157889D01*
X-156489Y330737D01*
X-155417Y331809D01*
X-154837Y333209D01*
Y334725D01*
X-155417Y336125D01*
X-156489Y337197D01*
X-157889Y337777D01*
D02*
G37*
G36*
X-194822Y327660D02*
X-196338D01*
X-197738Y327080D01*
X-198810Y326008D01*
X-199390Y324608D01*
Y323092D01*
X-198810Y321692D01*
X-197738Y320620D01*
X-196338Y320040D01*
X-194822D01*
X-193422Y320620D01*
X-192350Y321692D01*
X-191770Y323092D01*
Y324608D01*
X-192350Y326008D01*
X-193422Y327080D01*
X-194822Y327660D01*
D02*
G37*
G36*
X274119Y286399D02*
X272603D01*
X271203Y285819D01*
X270131Y284747D01*
X269551Y283347D01*
Y281831D01*
X270131Y280431D01*
X271203Y279359D01*
X272603Y278779D01*
X274119D01*
X275520Y279359D01*
X276591Y280431D01*
X277171Y281831D01*
Y283347D01*
X276591Y284747D01*
X275520Y285819D01*
X274119Y286399D01*
D02*
G37*
G36*
X262378Y277402D02*
X260862D01*
X259462Y276822D01*
X258390Y275751D01*
X257810Y274350D01*
Y272834D01*
X258390Y271434D01*
X259462Y270362D01*
X260862Y269782D01*
X262378D01*
X263778Y270362D01*
X264850Y271434D01*
X265430Y272834D01*
Y274350D01*
X264850Y275751D01*
X263778Y276822D01*
X262378Y277402D01*
D02*
G37*
G36*
X273537Y273050D02*
X272022D01*
X270621Y272470D01*
X269550Y271398D01*
X268969Y269998D01*
Y268482D01*
X269550Y267082D01*
X270621Y266010D01*
X272022Y265430D01*
X273537D01*
X274938Y266010D01*
X276010Y267082D01*
X276590Y268482D01*
Y269998D01*
X276010Y271398D01*
X274938Y272470D01*
X273537Y273050D01*
D02*
G37*
G36*
X277618Y257048D02*
X276102D01*
X274702Y256468D01*
X273630Y255396D01*
X273050Y253996D01*
Y252480D01*
X273630Y251080D01*
X274702Y250008D01*
X276102Y249428D01*
X277618D01*
X279018Y250008D01*
X280090Y251080D01*
X280670Y252480D01*
Y253996D01*
X280090Y255396D01*
X279018Y256468D01*
X277618Y257048D01*
D02*
G37*
G36*
X273554Y239776D02*
X272038D01*
X270638Y239196D01*
X269566Y238124D01*
X268986Y236724D01*
Y235208D01*
X269566Y233808D01*
X270638Y232736D01*
X272038Y232156D01*
X273554D01*
X274954Y232736D01*
X276026Y233808D01*
X276606Y235208D01*
Y236724D01*
X276026Y238124D01*
X274954Y239196D01*
X273554Y239776D01*
D02*
G37*
G36*
X267880Y187960D02*
X266364D01*
X264964Y187380D01*
X263892Y186308D01*
X263312Y184908D01*
Y183392D01*
X263892Y181992D01*
X264964Y180920D01*
X266364Y180340D01*
X267880D01*
X269281Y180920D01*
X270352Y181992D01*
X270932Y183392D01*
Y184908D01*
X270352Y186308D01*
X269281Y187380D01*
X267880Y187960D01*
D02*
G37*
G36*
X291465Y174625D02*
X272415D01*
Y155575D01*
X291465D01*
Y174625D01*
D02*
G37*
G36*
X283194Y149225D02*
X280686D01*
X278263Y148576D01*
X276091Y147322D01*
X274318Y145549D01*
X273064Y143377D01*
X272415Y140954D01*
Y138446D01*
X273064Y136024D01*
X274318Y133852D01*
X276091Y132078D01*
X278263Y130824D01*
X280686Y130175D01*
X283194D01*
X285616Y130824D01*
X287788Y132078D01*
X289562Y133852D01*
X290816Y136024D01*
X291465Y138446D01*
Y140954D01*
X290816Y143377D01*
X289562Y145549D01*
X287788Y147322D01*
X285616Y148576D01*
X283194Y149225D01*
D02*
G37*
G36*
X291465Y116205D02*
X272415D01*
Y97155D01*
X291465D01*
Y116205D01*
D02*
G37*
G36*
X260727Y90170D02*
X259211D01*
X257811Y89590D01*
X256739Y88518D01*
X256159Y87118D01*
Y85602D01*
X256739Y84202D01*
X257811Y83130D01*
X259211Y82550D01*
X260727D01*
X262127Y83130D01*
X263199Y84202D01*
X263779Y85602D01*
Y87118D01*
X263199Y88518D01*
X262127Y89590D01*
X260727Y90170D01*
D02*
G37*
G36*
X283194Y90805D02*
X280686D01*
X278263Y90156D01*
X276091Y88902D01*
X274318Y87129D01*
X273064Y84957D01*
X272415Y82534D01*
Y80026D01*
X273064Y77604D01*
X274318Y75432D01*
X276091Y73658D01*
X278263Y72404D01*
X280686Y71755D01*
X283194D01*
X285616Y72404D01*
X287788Y73658D01*
X289562Y75432D01*
X290816Y77604D01*
X291465Y80026D01*
Y82534D01*
X290816Y84957D01*
X289562Y87129D01*
X287788Y88902D01*
X285616Y90156D01*
X283194Y90805D01*
D02*
G37*
G36*
X229358Y72390D02*
X227842D01*
X226442Y71810D01*
X225370Y70738D01*
X224790Y69338D01*
Y67822D01*
X225370Y66422D01*
X226442Y65350D01*
X227842Y64770D01*
X229358D01*
X230758Y65350D01*
X231830Y66422D01*
X232410Y67822D01*
Y69338D01*
X231830Y70738D01*
X230758Y71810D01*
X229358Y72390D01*
D02*
G37*
G36*
X177670Y78890D02*
X162130D01*
Y63350D01*
X177670D01*
Y78890D01*
D02*
G37*
G36*
X285238Y58420D02*
X283722D01*
X282322Y57840D01*
X281250Y56768D01*
X280670Y55368D01*
Y53852D01*
X281250Y52452D01*
X282322Y51380D01*
X283722Y50800D01*
X285238D01*
X286638Y51380D01*
X287710Y52452D01*
X288290Y53852D01*
Y55368D01*
X287710Y56768D01*
X286638Y57840D01*
X285238Y58420D01*
D02*
G37*
G36*
X245070Y40386D02*
X243554D01*
X242154Y39806D01*
X241082Y38734D01*
X240502Y37334D01*
Y35818D01*
X241082Y34418D01*
X242154Y33346D01*
X243554Y32766D01*
X245070D01*
X246471Y33346D01*
X247542Y34418D01*
X248122Y35818D01*
Y37334D01*
X247542Y38734D01*
X246471Y39806D01*
X245070Y40386D01*
D02*
G37*
G36*
X171263Y25528D02*
X171178D01*
Y16511D01*
X180196D01*
Y16595D01*
X179494Y19212D01*
X178140Y21558D01*
X176225Y23473D01*
X173879Y24827D01*
X171263Y25528D01*
D02*
G37*
G36*
X224786Y323596D02*
X223270D01*
X221870Y323016D01*
X220798Y321944D01*
X220218Y320544D01*
Y319028D01*
X220798Y317628D01*
X221870Y316556D01*
X223270Y315976D01*
X224786D01*
X226186Y316556D01*
X227258Y317628D01*
X227838Y319028D01*
Y320544D01*
X227258Y321944D01*
X226186Y323016D01*
X224786Y323596D01*
D02*
G37*
G36*
X224662Y297130D02*
X223147D01*
X221746Y296550D01*
X220674Y295478D01*
X220094Y294078D01*
Y292562D01*
X220674Y291162D01*
X221746Y290090D01*
X223147Y289510D01*
X224662D01*
X226063Y290090D01*
X227134Y291162D01*
X227714Y292562D01*
Y294078D01*
X227134Y295478D01*
X226063Y296550D01*
X224662Y297130D01*
D02*
G37*
G36*
X227944Y282520D02*
X226175D01*
X224542Y281843D01*
X223291Y280593D01*
X222615Y278959D01*
Y277191D01*
X223291Y275557D01*
X224542Y274307D01*
X225628Y273857D01*
X226275Y273147D01*
X226541Y271852D01*
X226247Y271141D01*
Y269625D01*
X226827Y268225D01*
X227899Y267153D01*
X229299Y266573D01*
X230814D01*
X232215Y267153D01*
X233287Y268225D01*
X233867Y269625D01*
Y271141D01*
X233287Y272541D01*
X232215Y273613D01*
X231638Y273852D01*
X231310Y274543D01*
X230960Y275776D01*
X230972Y275906D01*
X231505Y277191D01*
Y278959D01*
X230828Y280593D01*
X229578Y281843D01*
X227944Y282520D01*
D02*
G37*
G36*
X200088Y269250D02*
X198572D01*
X197172Y268670D01*
X196100Y267598D01*
X195520Y266198D01*
Y264682D01*
X196100Y263282D01*
X197172Y262210D01*
X198572Y261630D01*
X200088D01*
X201488Y262210D01*
X202560Y263282D01*
X203140Y264682D01*
Y266198D01*
X202560Y267598D01*
X201488Y268670D01*
X200088Y269250D01*
D02*
G37*
G36*
X214498Y267037D02*
X212983D01*
X211582Y266457D01*
X210511Y265385D01*
X209930Y263984D01*
Y262469D01*
X210461Y261188D01*
X210254Y260777D01*
X209334Y259731D01*
X209019Y259861D01*
X207503D01*
X206103Y259281D01*
X205031Y258209D01*
X204451Y256809D01*
Y255293D01*
X205031Y253893D01*
X206103Y252821D01*
X207503Y252241D01*
X209019D01*
X210419Y252821D01*
X211491Y253893D01*
X212071Y255293D01*
Y256809D01*
X211541Y258089D01*
X211747Y258501D01*
X212668Y259547D01*
X212983Y259417D01*
X214498D01*
X215899Y259997D01*
X216970Y261068D01*
X217550Y262469D01*
Y263984D01*
X216970Y265385D01*
X215899Y266457D01*
X214498Y267037D01*
D02*
G37*
G36*
X231005Y261239D02*
X229490D01*
X228089Y260659D01*
X227018Y259587D01*
X226438Y258187D01*
X226250Y258032D01*
X224660Y257300D01*
X223727Y257686D01*
X222211D01*
X220811Y257106D01*
X219739Y256034D01*
X219159Y254634D01*
Y253118D01*
X219739Y251718D01*
X220811Y250646D01*
X222211Y250066D01*
X223727D01*
X225127Y250646D01*
X226199Y251718D01*
X226779Y253118D01*
X226967Y253273D01*
X228557Y254006D01*
X229490Y253619D01*
X231005D01*
X232406Y254199D01*
X233478Y255271D01*
X234058Y256671D01*
Y258187D01*
X233478Y259587D01*
X232406Y260659D01*
X231005Y261239D01*
D02*
G37*
G36*
X224707Y245240D02*
X222332D01*
X220038Y244625D01*
X217981Y243438D01*
X216302Y241759D01*
X215114Y239702D01*
X214500Y237408D01*
Y235033D01*
X215114Y232739D01*
X216302Y230682D01*
X217981Y229002D01*
X220038Y227815D01*
X222332Y227200D01*
X224707D01*
X227001Y227815D01*
X229058Y229002D01*
X230738Y230682D01*
X231925Y232739D01*
X232540Y235033D01*
Y237408D01*
X231925Y239702D01*
X230738Y241759D01*
X229058Y243438D01*
X227001Y244625D01*
X224707Y245240D01*
D02*
G37*
G36*
X194227D02*
X191852D01*
X189558Y244625D01*
X187502Y243438D01*
X185822Y241759D01*
X184635Y239702D01*
X184020Y237408D01*
Y235033D01*
X184635Y232739D01*
X185822Y230682D01*
X187502Y229002D01*
X189558Y227815D01*
X191852Y227200D01*
X194227D01*
X196521Y227815D01*
X198578Y229002D01*
X200258Y230682D01*
X201445Y232739D01*
X202060Y235033D01*
Y237408D01*
X201445Y239702D01*
X200258Y241759D01*
X198578Y243438D01*
X196521Y244625D01*
X194227Y245240D01*
D02*
G37*
G36*
X239264Y224282D02*
X237748D01*
X236348Y223702D01*
X235276Y222630D01*
X234696Y221230D01*
Y219714D01*
X235276Y218314D01*
X236348Y217242D01*
X237748Y216662D01*
X239264D01*
X240664Y217242D01*
X241736Y218314D01*
X242316Y219714D01*
Y221230D01*
X241736Y222630D01*
X240664Y223702D01*
X239264Y224282D01*
D02*
G37*
G36*
X108466Y167719D02*
X106951D01*
X105550Y167139D01*
X104478Y166067D01*
X103898Y164667D01*
Y163151D01*
X104478Y161751D01*
X105550Y160679D01*
X106951Y160099D01*
X108466D01*
X109867Y160679D01*
X110938Y161751D01*
X111518Y163151D01*
Y164667D01*
X110938Y166067D01*
X109867Y167139D01*
X108466Y167719D01*
D02*
G37*
G36*
X-41152Y167041D02*
X-42668D01*
X-44068Y166461D01*
X-45140Y165389D01*
X-45720Y163989D01*
Y162473D01*
X-45140Y161073D01*
X-44068Y160001D01*
X-42668Y159421D01*
X-41152D01*
X-39752Y160001D01*
X-38680Y161073D01*
X-38100Y162473D01*
Y163989D01*
X-38680Y165389D01*
X-39752Y166461D01*
X-41152Y167041D01*
D02*
G37*
G36*
X132244Y166370D02*
X130728D01*
X129328Y165790D01*
X128256Y164718D01*
X127676Y163318D01*
Y161802D01*
X128256Y160402D01*
X129328Y159330D01*
X130728Y158750D01*
X132244D01*
X133644Y159330D01*
X134716Y160402D01*
X135296Y161802D01*
Y163318D01*
X134716Y164718D01*
X133644Y165790D01*
X132244Y166370D01*
D02*
G37*
G36*
X-11942D02*
X-13458D01*
X-14858Y165790D01*
X-15930Y164718D01*
X-16510Y163318D01*
Y161802D01*
X-15930Y160402D01*
X-14858Y159330D01*
X-13458Y158750D01*
X-11942D01*
X-10542Y159330D01*
X-9470Y160402D01*
X-8890Y161802D01*
Y163318D01*
X-9470Y164718D01*
X-10542Y165790D01*
X-11942Y166370D01*
D02*
G37*
G36*
X-86872Y160020D02*
X-88388D01*
X-89788Y159440D01*
X-90860Y158368D01*
X-91440Y156968D01*
Y155452D01*
X-90860Y154052D01*
X-89788Y152980D01*
X-88388Y152400D01*
X-86872D01*
X-85472Y152980D01*
X-84400Y154052D01*
X-83820Y155452D01*
Y156968D01*
X-84400Y158368D01*
X-85472Y159440D01*
X-86872Y160020D01*
D02*
G37*
G36*
X108466Y154488D02*
X106951D01*
X105550Y153908D01*
X104478Y152836D01*
X103898Y151436D01*
Y149920D01*
X104478Y148520D01*
X105550Y147448D01*
X106951Y146868D01*
X108466D01*
X109867Y147448D01*
X110938Y148520D01*
X111518Y149920D01*
Y151436D01*
X110938Y152836D01*
X109867Y153908D01*
X108466Y154488D01*
D02*
G37*
G36*
X155698Y153670D02*
X154182D01*
X152782Y153090D01*
X151710Y152018D01*
X151130Y150618D01*
Y149102D01*
X151710Y147702D01*
X152782Y146630D01*
X154182Y146050D01*
X155698D01*
X157098Y146630D01*
X158170Y147702D01*
X158750Y149102D01*
Y150618D01*
X158170Y152018D01*
X157098Y153090D01*
X155698Y153670D01*
D02*
G37*
G36*
X60702Y155448D02*
X59186D01*
X57786Y154868D01*
X56714Y153796D01*
X56134Y152396D01*
Y150880D01*
X56714Y149480D01*
X57786Y148408D01*
X59186Y147828D01*
X60702D01*
X62102Y148408D01*
X62992Y149298D01*
X63844Y149174D01*
X64770Y148753D01*
Y148340D01*
X65350Y146940D01*
X66422Y145868D01*
X67822Y145288D01*
X69338D01*
X70738Y145868D01*
X71810Y146940D01*
X72390Y148340D01*
Y149856D01*
X71810Y151256D01*
X70738Y152328D01*
X69338Y152908D01*
X67822D01*
X66422Y152328D01*
X65532Y151438D01*
X64680Y151561D01*
X63754Y151983D01*
Y152396D01*
X63174Y153796D01*
X62102Y154868D01*
X60702Y155448D01*
D02*
G37*
G36*
X77541Y139642D02*
X76026D01*
X74625Y139062D01*
X73554Y137991D01*
X72974Y136590D01*
Y135075D01*
X73554Y133674D01*
X74625Y132603D01*
X76026Y132022D01*
X77541D01*
X78942Y132603D01*
X80014Y133674D01*
X80594Y135075D01*
Y136590D01*
X80014Y137991D01*
X78942Y139062D01*
X77541Y139642D01*
D02*
G37*
G36*
X100712Y138301D02*
X99196D01*
X97795Y137721D01*
X96724Y136650D01*
X96144Y135249D01*
Y133734D01*
X96724Y132333D01*
X97795Y131262D01*
X99196Y130681D01*
X100712D01*
X102112Y131262D01*
X103184Y132333D01*
X103764Y133734D01*
Y135249D01*
X103184Y136650D01*
X102112Y137721D01*
X100712Y138301D01*
D02*
G37*
G36*
X130514Y138085D02*
X128998D01*
X127598Y137505D01*
X126526Y136433D01*
X125946Y135032D01*
Y133517D01*
X126526Y132116D01*
X127598Y131045D01*
X128998Y130465D01*
X130514D01*
X131914Y131045D01*
X132986Y132116D01*
X133566Y133517D01*
Y135032D01*
X132986Y136433D01*
X131914Y137505D01*
X130514Y138085D01*
D02*
G37*
G36*
X144006Y134358D02*
X142490D01*
X141090Y133778D01*
X140018Y132706D01*
X139438Y131306D01*
Y129790D01*
X140018Y128390D01*
X141090Y127318D01*
X142490Y126738D01*
X144006D01*
X145406Y127318D01*
X146478Y128390D01*
X147058Y129790D01*
Y131306D01*
X146478Y132706D01*
X145406Y133778D01*
X144006Y134358D01*
D02*
G37*
G36*
X101083Y122941D02*
X99567D01*
X98167Y122361D01*
X97095Y121289D01*
X96515Y119889D01*
Y118373D01*
X97095Y116973D01*
X98167Y115901D01*
X99567Y115321D01*
X101083D01*
X102483Y115901D01*
X103555Y116973D01*
X104135Y118373D01*
Y119889D01*
X103555Y121289D01*
X102483Y122361D01*
X101083Y122941D01*
D02*
G37*
G36*
X-137198Y283210D02*
X-138713D01*
X-140114Y282630D01*
X-141185Y281558D01*
X-141765Y280158D01*
Y278642D01*
X-141185Y277242D01*
X-140114Y276170D01*
X-138713Y275590D01*
X-137198D01*
X-135797Y276170D01*
X-134726Y277242D01*
X-134145Y278642D01*
Y280158D01*
X-134726Y281558D01*
X-135797Y282630D01*
X-137198Y283210D01*
D02*
G37*
G36*
X-105922Y254000D02*
X-107438D01*
X-108838Y253420D01*
X-109910Y252348D01*
X-110490Y250948D01*
Y249432D01*
X-109910Y248032D01*
X-108838Y246960D01*
X-107438Y246380D01*
X-105922D01*
X-104522Y246960D01*
X-103450Y248032D01*
X-102870Y249432D01*
Y250948D01*
X-103450Y252348D01*
X-104522Y253420D01*
X-105922Y254000D01*
D02*
G37*
G36*
X-120146Y229362D02*
X-121662D01*
X-123062Y228782D01*
X-124134Y227710D01*
X-124714Y226310D01*
Y224794D01*
X-124134Y223394D01*
X-123062Y222322D01*
X-121662Y221742D01*
X-120146D01*
X-118746Y222322D01*
X-117674Y223394D01*
X-117094Y224794D01*
Y226310D01*
X-117674Y227710D01*
X-118746Y228782D01*
X-120146Y229362D01*
D02*
G37*
G36*
X-161178Y227181D02*
X-162694D01*
X-164094Y226601D01*
X-165166Y225530D01*
X-165746Y224129D01*
Y222614D01*
X-165166Y221213D01*
X-164094Y220141D01*
X-162694Y219561D01*
X-161178D01*
X-159778Y220141D01*
X-158706Y221213D01*
X-158126Y222614D01*
Y224129D01*
X-158706Y225530D01*
X-159778Y226601D01*
X-161178Y227181D01*
D02*
G37*
G36*
X-187340Y224368D02*
X-188856D01*
X-190256Y223788D01*
X-191328Y222716D01*
X-191908Y221316D01*
Y219800D01*
X-191328Y218400D01*
X-190256Y217328D01*
X-188856Y216748D01*
X-187340D01*
X-185940Y217328D01*
X-184868Y218400D01*
X-184288Y219800D01*
Y221316D01*
X-184868Y222716D01*
X-185940Y223788D01*
X-187340Y224368D01*
D02*
G37*
G36*
X-147049Y215774D02*
X-148565D01*
X-149965Y215194D01*
X-151037Y214122D01*
X-151617Y212722D01*
Y211206D01*
X-151037Y209806D01*
X-149965Y208734D01*
X-148565Y208154D01*
X-147049D01*
X-145648Y208734D01*
X-144577Y209806D01*
X-143997Y211206D01*
Y212722D01*
X-144577Y214122D01*
X-145648Y215194D01*
X-147049Y215774D01*
D02*
G37*
G36*
X-74845Y211256D02*
X-76361D01*
X-77761Y210676D01*
X-78833Y209604D01*
X-79413Y208204D01*
Y206688D01*
X-78833Y205288D01*
X-77761Y204216D01*
X-76361Y203636D01*
X-74845D01*
X-73445Y204216D01*
X-72373Y205288D01*
X-71793Y206688D01*
Y208204D01*
X-72373Y209604D01*
X-73445Y210676D01*
X-74845Y211256D01*
D02*
G37*
G36*
X-200888Y207600D02*
X-202404D01*
X-203804Y207020D01*
X-204876Y205949D01*
X-205456Y204548D01*
Y203032D01*
X-204876Y201632D01*
X-203804Y200560D01*
X-202404Y199980D01*
X-200888D01*
X-199488Y200560D01*
X-198416Y201632D01*
X-197836Y203032D01*
Y204548D01*
X-198416Y205949D01*
X-199488Y207020D01*
X-200888Y207600D01*
D02*
G37*
G36*
X-100080Y192532D02*
X-101596D01*
X-102996Y191952D01*
X-104068Y190880D01*
X-104648Y189480D01*
Y187964D01*
X-104068Y186564D01*
X-102996Y185492D01*
X-101596Y184912D01*
X-100080D01*
X-98680Y185492D01*
X-97608Y186564D01*
X-97028Y187964D01*
Y189480D01*
X-97608Y190880D01*
X-98680Y191952D01*
X-100080Y192532D01*
D02*
G37*
G36*
X-121004Y202061D02*
X-123379D01*
X-125673Y201446D01*
X-127730Y200259D01*
X-129409Y198580D01*
X-130597Y196523D01*
X-131212Y194229D01*
Y191854D01*
X-130597Y189560D01*
X-129409Y187503D01*
X-127730Y185823D01*
X-125673Y184636D01*
X-123379Y184021D01*
X-121004D01*
X-118710Y184636D01*
X-116653Y185823D01*
X-114974Y187503D01*
X-113786Y189560D01*
X-113172Y191854D01*
Y194229D01*
X-113786Y196523D01*
X-114974Y198580D01*
X-116653Y200259D01*
X-118710Y201446D01*
X-121004Y202061D01*
D02*
G37*
G36*
X-29388Y144095D02*
X-30904D01*
X-32304Y143516D01*
X-33376Y142444D01*
X-33956Y141043D01*
Y139528D01*
X-33376Y138127D01*
X-32304Y137056D01*
X-30904Y136475D01*
X-29388D01*
X-27988Y137056D01*
X-26916Y138127D01*
X-26336Y139528D01*
Y141043D01*
X-26916Y142444D01*
X-27988Y143516D01*
X-29388Y144095D01*
D02*
G37*
G36*
X-143864Y144911D02*
X-146239D01*
X-148533Y144297D01*
X-150590Y143109D01*
X-152269Y141430D01*
X-153457Y139373D01*
X-154072Y137079D01*
Y134704D01*
X-153457Y132410D01*
X-152269Y130353D01*
X-150590Y128673D01*
X-148533Y127486D01*
X-146239Y126871D01*
X-143864D01*
X-141570Y127486D01*
X-139513Y128673D01*
X-137834Y130353D01*
X-136646Y132410D01*
X-136032Y134704D01*
Y137079D01*
X-136646Y139373D01*
X-137834Y141430D01*
X-139513Y143109D01*
X-141570Y144297D01*
X-143864Y144911D01*
D02*
G37*
G36*
X193544Y433543D02*
X192028D01*
X190628Y432963D01*
X189556Y431891D01*
X188976Y430491D01*
Y428975D01*
X189556Y427575D01*
X190628Y426503D01*
X192028Y425923D01*
X193544D01*
X194944Y426503D01*
X196016Y427575D01*
X196596Y428975D01*
Y430491D01*
X196016Y431891D01*
X194944Y432963D01*
X193544Y433543D01*
D02*
G37*
G36*
X212581Y426720D02*
X211066D01*
X209665Y426140D01*
X208593Y425068D01*
X208013Y423668D01*
Y422152D01*
X208593Y420752D01*
X209665Y419680D01*
X211066Y419100D01*
X212581D01*
X213982Y419680D01*
X215053Y420752D01*
X215633Y422152D01*
Y423668D01*
X215053Y425068D01*
X213982Y426140D01*
X212581Y426720D01*
D02*
G37*
G36*
X58416Y422783D02*
X56900D01*
X55500Y422203D01*
X54428Y421131D01*
X53848Y419731D01*
Y418215D01*
X54428Y416815D01*
X55500Y415743D01*
X56900Y415163D01*
X58416D01*
X59816Y415743D01*
X60888Y416815D01*
X61468Y418215D01*
Y419731D01*
X60888Y421131D01*
X59816Y422203D01*
X58416Y422783D01*
D02*
G37*
G36*
X208022Y410464D02*
X206506D01*
X205106Y409884D01*
X204034Y408812D01*
X203454Y407412D01*
Y405896D01*
X204034Y404496D01*
X205106Y403424D01*
X206506Y402844D01*
X208022D01*
X209422Y403424D01*
X210494Y404496D01*
X211074Y405896D01*
Y407412D01*
X210494Y408812D01*
X209422Y409884D01*
X208022Y410464D01*
D02*
G37*
G36*
X192528Y408940D02*
X191012D01*
X189612Y408360D01*
X188540Y407288D01*
X187960Y405888D01*
Y404372D01*
X188540Y402972D01*
X189612Y401900D01*
X191012Y401320D01*
X192528D01*
X193928Y401900D01*
X195000Y402972D01*
X195580Y404372D01*
Y405888D01*
X195000Y407288D01*
X193928Y408360D01*
X192528Y408940D01*
D02*
G37*
G36*
X103628Y336550D02*
X102112D01*
X100712Y335970D01*
X99640Y334898D01*
X99060Y333498D01*
Y331982D01*
X99640Y330582D01*
X100712Y329510D01*
X102112Y328930D01*
X103628D01*
X105028Y329510D01*
X106100Y330582D01*
X106680Y331982D01*
Y333498D01*
X106100Y334898D01*
X105028Y335970D01*
X103628Y336550D01*
D02*
G37*
G36*
X21119Y331936D02*
X19604D01*
X18203Y331356D01*
X17131Y330284D01*
X16551Y328883D01*
Y327368D01*
X17131Y325967D01*
X18203Y324896D01*
X19604Y324316D01*
X21119D01*
X22520Y324896D01*
X23591Y325967D01*
X24171Y327368D01*
Y328883D01*
X23591Y330284D01*
X22520Y331356D01*
X21119Y331936D01*
D02*
G37*
G36*
X67433Y326898D02*
X65917D01*
X64517Y326318D01*
X63445Y325246D01*
X62865Y323846D01*
Y322330D01*
X63445Y320930D01*
X64517Y319858D01*
X65917Y319278D01*
X67433D01*
X68833Y319858D01*
X69905Y320930D01*
X70485Y322330D01*
Y323846D01*
X69905Y325246D01*
X68833Y326318D01*
X67433Y326898D01*
D02*
G37*
G36*
X103628Y301031D02*
X102112D01*
X100712Y300452D01*
X99640Y299380D01*
X99060Y297979D01*
Y296464D01*
X99640Y295063D01*
X100712Y293992D01*
X102112Y293412D01*
X103628D01*
X105028Y293992D01*
X106100Y295063D01*
X106680Y296464D01*
Y297979D01*
X106100Y299380D01*
X105028Y300452D01*
X103628Y301031D01*
D02*
G37*
G36*
X63861Y298323D02*
X62345D01*
X60945Y297743D01*
X59873Y296671D01*
X59293Y295271D01*
Y293755D01*
X59873Y292355D01*
X60945Y291283D01*
X62345Y290703D01*
X63861D01*
X65261Y291283D01*
X66333Y292355D01*
X66913Y293755D01*
Y295271D01*
X66333Y296671D01*
X65261Y297743D01*
X63861Y298323D01*
D02*
G37*
G36*
X144280Y287407D02*
X142765D01*
X141364Y286827D01*
X140292Y285755D01*
X139712Y284354D01*
Y282839D01*
X140292Y281438D01*
X141364Y280367D01*
X142765Y279787D01*
X144280D01*
X145681Y280367D01*
X146752Y281438D01*
X147332Y282839D01*
Y284354D01*
X146752Y285755D01*
X145681Y286827D01*
X144280Y287407D01*
D02*
G37*
G36*
X125218Y277416D02*
X123702D01*
X122302Y276835D01*
X121230Y275764D01*
X120650Y274363D01*
Y272848D01*
X121230Y271447D01*
X122302Y270376D01*
X123702Y269795D01*
X125218D01*
X126618Y270376D01*
X127690Y271447D01*
X128270Y272848D01*
Y274363D01*
X127690Y275764D01*
X126618Y276835D01*
X125218Y277416D01*
D02*
G37*
G36*
X88388Y274955D02*
X86872D01*
X85472Y274375D01*
X84400Y273303D01*
X83820Y271903D01*
Y270387D01*
X84400Y268987D01*
X85472Y267915D01*
X86872Y267335D01*
X88388D01*
X89788Y267915D01*
X90860Y268987D01*
X91440Y270387D01*
Y271903D01*
X90860Y273303D01*
X89788Y274375D01*
X88388Y274955D01*
D02*
G37*
G36*
X36663Y258155D02*
X35148D01*
X33747Y257575D01*
X32675Y256504D01*
X32095Y255103D01*
Y253587D01*
X32675Y252187D01*
X33747Y251115D01*
X35148Y250535D01*
X36663D01*
X38063Y251115D01*
X39135Y252187D01*
X39715Y253587D01*
Y255103D01*
X39135Y256504D01*
X38063Y257575D01*
X36663Y258155D01*
D02*
G37*
G36*
X46989Y251501D02*
X45473D01*
X44073Y250921D01*
X43001Y249849D01*
X42421Y248449D01*
Y246933D01*
X43001Y245533D01*
X44073Y244461D01*
X45473Y243881D01*
X46989D01*
X48390Y244461D01*
X49461Y245533D01*
X50041Y246933D01*
Y248449D01*
X49461Y249849D01*
X48390Y250921D01*
X46989Y251501D01*
D02*
G37*
G36*
X60448Y247650D02*
X58932D01*
X57532Y247070D01*
X56460Y245998D01*
X55880Y244598D01*
Y243082D01*
X56460Y241682D01*
X57532Y240610D01*
X58932Y240030D01*
X60448D01*
X61848Y240610D01*
X62920Y241682D01*
X63500Y243082D01*
Y244598D01*
X62920Y245998D01*
X61848Y247070D01*
X60448Y247650D01*
D02*
G37*
G36*
X15998Y242570D02*
X14482D01*
X13082Y241990D01*
X12010Y240918D01*
X11430Y239518D01*
Y238002D01*
X12010Y236602D01*
X13082Y235530D01*
X14482Y234950D01*
X15998D01*
X17398Y235530D01*
X18470Y236602D01*
X19050Y238002D01*
Y239518D01*
X18470Y240918D01*
X17398Y241990D01*
X15998Y242570D01*
D02*
G37*
G36*
X107298Y253512D02*
X104790D01*
X102367Y252863D01*
X100195Y251609D01*
X98422Y249835D01*
X97168Y247663D01*
X96519Y245241D01*
Y242733D01*
X97168Y240310D01*
X98422Y238139D01*
X100195Y236365D01*
X102367Y235111D01*
X104790Y234462D01*
X107298D01*
X109720Y235111D01*
X111892Y236365D01*
X113666Y238139D01*
X114920Y240310D01*
X115569Y242733D01*
Y245241D01*
X114920Y247663D01*
X113666Y249835D01*
X111892Y251609D01*
X109720Y252863D01*
X107298Y253512D01*
D02*
G37*
G36*
X64258Y234950D02*
X62742D01*
X61342Y234370D01*
X60270Y233298D01*
X59690Y231898D01*
Y230382D01*
X60270Y228982D01*
X61342Y227910D01*
X62742Y227330D01*
X64258D01*
X65658Y227910D01*
X66730Y228982D01*
X67310Y230382D01*
Y231898D01*
X66730Y233298D01*
X65658Y234370D01*
X64258Y234950D01*
D02*
G37*
G36*
X107298Y219175D02*
X104790D01*
X102367Y218526D01*
X100195Y217272D01*
X98422Y215498D01*
X97168Y213326D01*
X96519Y210904D01*
Y208396D01*
X97168Y205973D01*
X98422Y203801D01*
X100195Y202028D01*
X102367Y200774D01*
X104790Y200125D01*
X107298D01*
X109720Y200774D01*
X111892Y202028D01*
X113666Y203801D01*
X114920Y205973D01*
X115569Y208396D01*
Y210904D01*
X114920Y213326D01*
X113666Y215498D01*
X111892Y217272D01*
X109720Y218526D01*
X107298Y219175D01*
D02*
G37*
%LPD*%
D121*
X169900Y71120D02*
D03*
X-147871Y71121D02*
D03*
D122*
X134900Y71120D02*
D03*
X-182872Y71121D02*
D03*
D127*
X259461Y254042D02*
D03*
X271837Y313379D02*
D03*
X265357Y433697D02*
D03*
X-24216Y374015D02*
D03*
X-14351Y398399D02*
D03*
X-116586Y129286D02*
D03*
X-108712Y124968D02*
D03*
X-99894Y110797D02*
D03*
X-134874Y188468D02*
D03*
X-152908Y184150D02*
D03*
X-154443Y249225D02*
D03*
X-103391Y268478D02*
D03*
X265774Y367198D02*
D03*
X246380Y374650D02*
D03*
X-229362Y513334D02*
D03*
X-59710Y260669D02*
D03*
X-65387Y289371D02*
D03*
X-69800Y295584D02*
D03*
X-31575Y250643D02*
D03*
X-155702Y514350D02*
D03*
X-239776Y495808D02*
D03*
X-201373Y383540D02*
D03*
X-197612Y296926D02*
D03*
X-222758Y288798D02*
D03*
Y273304D02*
D03*
X282194Y186944D02*
D03*
X290322Y184912D02*
D03*
X258034Y242600D02*
D03*
X199330Y265440D02*
D03*
X142748Y513334D02*
D03*
X37846Y544830D02*
D03*
X85090Y289560D02*
D03*
X93980Y292100D02*
D03*
X21608Y275100D02*
D03*
X9702Y291134D02*
D03*
X24951Y257760D02*
D03*
X50546Y211328D02*
D03*
X-100838Y188722D02*
D03*
X273812Y433324D02*
D03*
X53594Y167894D02*
D03*
X48403Y161179D02*
D03*
X124460Y273605D02*
D03*
X211328Y432054D02*
D03*
X192786Y429733D02*
D03*
X224028Y319786D02*
D03*
X272796Y235966D02*
D03*
X276860Y253238D02*
D03*
X24130Y160274D02*
D03*
X31242Y148844D02*
D03*
X38862Y144780D02*
D03*
X28448Y133096D02*
D03*
X24130Y93408D02*
D03*
X-31875Y98794D02*
D03*
X59944Y151638D02*
D03*
X45466Y167640D02*
D03*
X68580Y149098D02*
D03*
X99954Y134492D02*
D03*
X100325Y119131D02*
D03*
X23368Y167894D02*
D03*
X30480Y71120D02*
D03*
X58420Y83820D02*
D03*
X13716Y110490D02*
D03*
X40640Y99060D02*
D03*
X-163620Y569514D02*
D03*
X-156571Y572409D02*
D03*
X-197612Y284226D02*
D03*
X-200406Y261112D02*
D03*
X244312Y36576D02*
D03*
X5080Y99060D02*
D03*
X-40005Y115951D02*
D03*
X-55951Y390271D02*
D03*
X57658Y418973D02*
D03*
X222969Y253876D02*
D03*
X208261Y256051D02*
D03*
X175594Y270035D02*
D03*
X143522Y283597D02*
D03*
X3683Y536798D02*
D03*
X-62230Y495300D02*
D03*
X-161936Y223371D02*
D03*
X-189230Y159004D02*
D03*
X-147807Y211964D02*
D03*
X-143637Y248008D02*
D03*
X-83693Y242381D02*
D03*
X-75603Y207446D02*
D03*
X-75Y212015D02*
D03*
X-21336Y224409D02*
D03*
X-35277Y216183D02*
D03*
X-56365Y95250D02*
D03*
X-44693Y106923D02*
D03*
X-30146Y140286D02*
D03*
X21082Y70866D02*
D03*
X-33020Y78740D02*
D03*
X238506Y220472D02*
D03*
X273361Y282589D02*
D03*
X261620Y273592D02*
D03*
X230248Y257429D02*
D03*
X230057Y270383D02*
D03*
X213740Y263227D02*
D03*
X246590Y361441D02*
D03*
X280389Y453500D02*
D03*
X271730Y514300D02*
D03*
X222504Y532638D02*
D03*
X225044Y499364D02*
D03*
X255578Y469689D02*
D03*
X251460Y497840D02*
D03*
X-139516Y462464D02*
D03*
X-211041Y411701D02*
D03*
X-194310Y365252D02*
D03*
X-134239Y307254D02*
D03*
X20361Y328126D02*
D03*
X-10668Y360172D02*
D03*
X-133574Y364344D02*
D03*
X-95686Y330665D02*
D03*
X161434Y296292D02*
D03*
X46231Y247691D02*
D03*
X107708Y150678D02*
D03*
X129756Y134275D02*
D03*
X76784Y135833D02*
D03*
X63103Y294513D02*
D03*
X-60089Y308102D02*
D03*
X-93980Y292100D02*
D03*
X-106680Y290830D02*
D03*
X-120904Y225552D02*
D03*
X-35924Y37269D02*
D03*
X211823Y422910D02*
D03*
X266372Y469085D02*
D03*
X269934Y334180D02*
D03*
X275455Y468249D02*
D03*
X272780Y269240D02*
D03*
X265292Y292839D02*
D03*
X271272Y409956D02*
D03*
X207264Y406654D02*
D03*
X208129Y368157D02*
D03*
X257702Y285393D02*
D03*
X143248Y130548D02*
D03*
X131486Y162560D02*
D03*
X154940Y149860D02*
D03*
X107708Y163909D02*
D03*
X121920Y182395D02*
D03*
X199736Y148775D02*
D03*
X201786Y45856D02*
D03*
X267122Y184150D02*
D03*
X259298Y46772D02*
D03*
X259969Y86360D02*
D03*
X150985Y36830D02*
D03*
X22860Y217043D02*
D03*
X1270Y231140D02*
D03*
X-14192Y204597D02*
D03*
X115702Y188257D02*
D03*
X246507Y273937D02*
D03*
X87630Y271145D02*
D03*
X223904Y293320D02*
D03*
X-43316Y297808D02*
D03*
X-7827Y285673D02*
D03*
X-163198Y294640D02*
D03*
X-175714Y344184D02*
D03*
X-80010Y148590D02*
D03*
X-87630Y156210D02*
D03*
X-188098Y220558D02*
D03*
X-175260Y160020D02*
D03*
X-105664Y361950D02*
D03*
X-121524Y323422D02*
D03*
X-54067Y260669D02*
D03*
X35905Y254345D02*
D03*
X228600Y332740D02*
D03*
X156975Y366525D02*
D03*
X102870Y297222D02*
D03*
Y332740D02*
D03*
X88773Y326390D02*
D03*
X66675Y323088D02*
D03*
X168910Y344551D02*
D03*
X-58420Y473710D02*
D03*
X85051Y532091D02*
D03*
X-201646Y203790D02*
D03*
X-175260Y351790D02*
D03*
X-150070Y363813D02*
D03*
X-158647Y333967D02*
D03*
X-120853Y359937D02*
D03*
X-121920Y377190D02*
D03*
X-161838Y388293D02*
D03*
X-199644Y430343D02*
D03*
X-192804Y487553D02*
D03*
X-125730Y460502D02*
D03*
X-153670Y436880D02*
D03*
X138048Y322919D02*
D03*
X62089Y128441D02*
D03*
X54480Y135249D02*
D03*
X46589Y128441D02*
D03*
X54338D02*
D03*
X46589Y117941D02*
D03*
X54338D02*
D03*
X62089D02*
D03*
X54338Y110441D02*
D03*
X-83217Y514392D02*
D03*
X-94639Y527267D02*
D03*
X-94327Y514392D02*
D03*
X-113030Y514350D02*
D03*
X-123190D02*
D03*
X-83321Y526956D02*
D03*
X-83820Y544830D02*
D03*
X-93980Y556260D02*
D03*
X-83820D02*
D03*
X-113293Y545770D02*
D03*
X-123293D02*
D03*
X-113293Y555770D02*
D03*
X-123293D02*
D03*
X-93980Y544830D02*
D03*
X-113030Y527050D02*
D03*
X-123190D02*
D03*
X-122767Y423214D02*
D03*
X-132767D02*
D03*
X-122767Y433214D02*
D03*
X-132767D02*
D03*
X-93532Y423214D02*
D03*
X-103532D02*
D03*
X-93532Y433214D02*
D03*
X-103532D02*
D03*
X-93532Y394665D02*
D03*
X-103532D02*
D03*
X-93532Y404665D02*
D03*
X-103532D02*
D03*
X-122767Y394665D02*
D03*
X-132767D02*
D03*
X-122767Y404665D02*
D03*
X-132767D02*
D03*
X-84303Y282154D02*
D03*
X-73719D02*
D03*
X-79012Y276861D02*
D03*
X-73719Y271569D02*
D03*
X-84303D02*
D03*
X133350Y558800D02*
D03*
X74930Y171450D02*
D03*
Y52070D02*
D03*
X245094Y416560D02*
D03*
X246924Y407670D02*
D03*
X-78373Y302061D02*
D03*
X228477Y438139D02*
D03*
X6560Y53784D02*
D03*
X-30480Y66040D02*
D03*
X214630Y384810D02*
D03*
X184150Y345440D02*
D03*
X-12700Y162560D02*
D03*
X-1405Y80145D02*
D03*
X-56537Y114173D02*
D03*
X-86009Y142720D02*
D03*
X-129204Y143675D02*
D03*
X191770Y405130D02*
D03*
X203200Y449580D02*
D03*
X93980Y66040D02*
D03*
X13761Y92804D02*
D03*
X-255270Y483870D02*
D03*
X-13800Y103760D02*
D03*
X3624Y294454D02*
D03*
X-186690Y477520D02*
D03*
X-59690Y566420D02*
D03*
X-160020Y556260D02*
D03*
X-199390Y586740D02*
D03*
X-288290Y370840D02*
D03*
X-195580Y323850D02*
D03*
X-257810Y204470D02*
D03*
X-265430Y86360D02*
D03*
X-271780Y34290D02*
D03*
X-179070Y104140D02*
D03*
X-133350Y88900D02*
D03*
X284480Y54610D02*
D03*
X228600Y68580D02*
D03*
X248920Y481330D02*
D03*
X224790Y474980D02*
D03*
X70354Y514431D02*
D03*
X-25400Y537210D02*
D03*
X82409Y567549D02*
D03*
X-54610Y364490D02*
D03*
X-137956Y279400D02*
D03*
X-106680Y250190D02*
D03*
X-40911Y252350D02*
D03*
X63500Y231140D02*
D03*
X-3731Y128919D02*
D03*
X119380Y106680D02*
D03*
X-41910Y163231D02*
D03*
X-98096Y64617D02*
D03*
X-110490Y268478D02*
D03*
X246380Y384810D02*
D03*
X-24130Y494030D02*
D03*
X-60960Y508000D02*
D03*
X-130810Y179070D02*
D03*
X-144780Y184150D02*
D03*
X15240Y238760D02*
D03*
X59690Y243840D02*
D03*
X168910Y36830D02*
D03*
X160020Y528320D02*
D03*
X165100Y586740D02*
D03*
X117323Y571298D02*
D03*
X-160020Y521970D02*
D03*
X-269240Y485140D02*
D03*
X-228600Y524510D02*
D03*
X-205680Y530920D02*
D03*
X-217170Y519430D02*
D03*
X198120Y349250D02*
D03*
X-147375Y317399D02*
D03*
X-162927Y360616D02*
D03*
X26670Y491490D02*
D03*
X15240Y584200D02*
D03*
X-186690Y459740D02*
D03*
X-203200Y549910D02*
D03*
X-186690Y530860D02*
D03*
X-110490Y495300D02*
D03*
X-144328Y416035D02*
D03*
X-162632Y404883D02*
D03*
X-163322Y374650D02*
D03*
X-160020Y508000D02*
D03*
D138*
X163830Y244557D02*
D03*
X281940Y165100D02*
D03*
Y106680D02*
D03*
X-279671Y166371D02*
D03*
Y107951D02*
D03*
D139*
X163830Y219156D02*
D03*
X-127000Y15240D02*
D03*
X-283482Y19051D02*
D03*
X-258081D02*
D03*
X-283727Y51082D02*
D03*
X-258327D02*
D03*
X119108Y15241D02*
D03*
X144508D02*
D03*
X169909D02*
D03*
X195308D02*
D03*
X220709D02*
D03*
X246108D02*
D03*
X106044Y243987D02*
D03*
X61997Y580487D02*
D03*
X106044Y209650D02*
D03*
X-68851Y15241D02*
D03*
X281940Y139700D02*
D03*
Y81280D02*
D03*
X-279671Y140971D02*
D03*
Y82551D02*
D03*
D140*
X-101600Y15240D02*
D03*
X-232682Y19051D02*
D03*
X-232927Y51082D02*
D03*
X271509Y15241D02*
D03*
X131444Y243987D02*
D03*
X36597Y580487D02*
D03*
X131444Y209650D02*
D03*
X-43451Y15241D02*
D03*
D141*
X-289540Y316200D02*
D03*
D142*
Y236200D02*
D03*
D143*
X175260Y502920D02*
D03*
X147320Y538480D02*
D03*
X-36830Y331470D02*
D03*
X172720Y458470D02*
D03*
X-201930Y21590D02*
D03*
X223520Y236220D02*
D03*
X193040D02*
D03*
X-246651Y83821D02*
D03*
X-218711Y582931D02*
D03*
X31388Y18048D02*
D03*
X-254000Y375920D02*
D03*
X-122191Y193041D02*
D03*
X-81552Y124461D02*
D03*
X94636Y42004D02*
D03*
X-145051Y135891D02*
D03*
Y165101D02*
D03*
X-271Y246381D02*
D03*
X-90170Y229870D02*
D03*
D144*
X-223520Y375920D02*
D03*
D145*
X71064Y19441D02*
D03*
D146*
X166706Y286470D02*
D03*
D147*
X-19050Y257152D02*
D03*
D148*
X227060Y278075D02*
D03*
X173720D02*
D03*
M02*
