G04*
G04 #@! TF.GenerationSoftware,Altium Limited,Altium Designer,25.2.1 (25)*
G04*
G04 Layer_Physical_Order=3*
G04 Layer_Color=3326705*
%FSLAX44Y44*%
%MOMM*%
G71*
G04*
G04 #@! TF.SameCoordinates,B15882C5-6AF9-4ACE-82F3-A7E45BBBB3D7*
G04*
G04*
G04 #@! TF.FilePolarity,Positive*
G04*
G01*
G75*
%ADD121R,1.3000X1.3000*%
%ADD122C,1.3000*%
%ADD127C,0.5080*%
%ADD138R,1.6510X1.6510*%
%ADD139C,1.6510*%
%ADD140R,1.6510X1.6510*%
%ADD141C,0.9000*%
%ADD142O,0.9000X1.7000*%
%ADD143C,1.5500*%
%ADD144C,1.6256*%
%ADD145C,2.1000*%
%ADD146C,0.7620*%
%ADD147C,0.7000*%
%ADD148C,0.6350*%
G36*
X297384Y2590D02*
X-301207D01*
X-302464Y3847D01*
X-302371Y597358D01*
X297384D01*
Y2590D01*
D02*
G37*
%LPC*%
G36*
X165858Y590550D02*
X164342D01*
X162942Y589970D01*
X161870Y588898D01*
X161290Y587498D01*
Y585982D01*
X161870Y584582D01*
X162942Y583510D01*
X164342Y582930D01*
X165858D01*
X167258Y583510D01*
X168330Y584582D01*
X168910Y585982D01*
Y587498D01*
X168330Y588898D01*
X167258Y589970D01*
X165858Y590550D01*
D02*
G37*
G36*
X15998Y588010D02*
X14482D01*
X13082Y587430D01*
X12010Y586358D01*
X11430Y584958D01*
Y583442D01*
X12010Y582042D01*
X13082Y580970D01*
X14482Y580390D01*
X15998D01*
X17398Y580970D01*
X18470Y582042D01*
X19050Y583442D01*
Y584958D01*
X18470Y586358D01*
X17398Y587430D01*
X15998Y588010D01*
D02*
G37*
G36*
X-217524Y591951D02*
X-219899D01*
X-222193Y591337D01*
X-224250Y590149D01*
X-225929Y588470D01*
X-227117Y586413D01*
X-227731Y584119D01*
Y581744D01*
X-227117Y579450D01*
X-225929Y577393D01*
X-224250Y575713D01*
X-222193Y574526D01*
X-219899Y573911D01*
X-217524D01*
X-215230Y574526D01*
X-213173Y575713D01*
X-211494Y577393D01*
X-210306Y579450D01*
X-209692Y581744D01*
Y584119D01*
X-210306Y586413D01*
X-211494Y588470D01*
X-213173Y590149D01*
X-215230Y591337D01*
X-217524Y591951D01*
D02*
G37*
G36*
X-155814Y576219D02*
X-157329D01*
X-158730Y575639D01*
X-159801Y574567D01*
X-160085Y573881D01*
X-161007Y573119D01*
X-162159Y573032D01*
X-162862Y573324D01*
X-164378D01*
X-165778Y572743D01*
X-166850Y571672D01*
X-167430Y570271D01*
Y568756D01*
X-166850Y567355D01*
X-165778Y566284D01*
X-164378Y565704D01*
X-162862D01*
X-161462Y566284D01*
X-160390Y567355D01*
X-160106Y568041D01*
X-159184Y568803D01*
X-158032Y568890D01*
X-157329Y568599D01*
X-155814D01*
X-154413Y569179D01*
X-153342Y570250D01*
X-152761Y571651D01*
Y573166D01*
X-153342Y574567D01*
X-154413Y575639D01*
X-155814Y576219D01*
D02*
G37*
G36*
X63251Y590012D02*
X60743D01*
X58320Y589363D01*
X56148Y588109D01*
X54375Y586335D01*
X53121Y584163D01*
X52472Y581741D01*
Y579233D01*
X53121Y576810D01*
X54375Y574638D01*
X56148Y572865D01*
X58320Y571611D01*
X60743Y570962D01*
X63251D01*
X65673Y571611D01*
X67845Y572865D01*
X69619Y574638D01*
X70873Y576810D01*
X71522Y579233D01*
Y581741D01*
X70873Y584163D01*
X69619Y586335D01*
X67845Y588109D01*
X65673Y589363D01*
X63251Y590012D01*
D02*
G37*
G36*
X46122D02*
X27072D01*
Y570962D01*
X46122D01*
Y590012D01*
D02*
G37*
G36*
X118081Y575108D02*
X116565D01*
X115165Y574528D01*
X114093Y573456D01*
X113513Y572056D01*
Y570540D01*
X114093Y569139D01*
X115165Y568068D01*
X116565Y567488D01*
X118081D01*
X119481Y568068D01*
X120553Y569139D01*
X121133Y570540D01*
Y572056D01*
X120553Y573456D01*
X119481Y574528D01*
X118081Y575108D01*
D02*
G37*
G36*
X83167Y571359D02*
X81651D01*
X80251Y570779D01*
X79179Y569707D01*
X78599Y568307D01*
Y566791D01*
X79179Y565391D01*
X80251Y564319D01*
X81651Y563739D01*
X83167D01*
X84567Y564319D01*
X85639Y565391D01*
X86219Y566791D01*
Y568307D01*
X85639Y569707D01*
X84567Y570779D01*
X83167Y571359D01*
D02*
G37*
G36*
X-58932Y570230D02*
X-60448D01*
X-61848Y569650D01*
X-62920Y568578D01*
X-63500Y567178D01*
Y565662D01*
X-62920Y564262D01*
X-61848Y563190D01*
X-60448Y562610D01*
X-58932D01*
X-57532Y563190D01*
X-56460Y564262D01*
X-55880Y565662D01*
Y567178D01*
X-56460Y568578D01*
X-57532Y569650D01*
X-58932Y570230D01*
D02*
G37*
G36*
X-159262Y560070D02*
X-160778D01*
X-162178Y559490D01*
X-163250Y558418D01*
X-163830Y557018D01*
Y555502D01*
X-163250Y554102D01*
X-162178Y553030D01*
X-160778Y552450D01*
X-159262D01*
X-157862Y553030D01*
X-156790Y554102D01*
X-156210Y555502D01*
Y557018D01*
X-156790Y558418D01*
X-157862Y559490D01*
X-159262Y560070D01*
D02*
G37*
G36*
X-202442Y553720D02*
X-203958D01*
X-205358Y553140D01*
X-206430Y552068D01*
X-207010Y550668D01*
Y549152D01*
X-206430Y547752D01*
X-205358Y546680D01*
X-203958Y546100D01*
X-202442D01*
X-201042Y546680D01*
X-199970Y547752D01*
X-199390Y549152D01*
Y550668D01*
X-199970Y552068D01*
X-201042Y553140D01*
X-202442Y553720D01*
D02*
G37*
G36*
X38604Y548640D02*
X37088D01*
X35688Y548060D01*
X34616Y546988D01*
X34036Y545588D01*
Y544072D01*
X34616Y542672D01*
X35688Y541600D01*
X37088Y541020D01*
X38604D01*
X40004Y541600D01*
X41076Y542672D01*
X41656Y544072D01*
Y545588D01*
X41076Y546988D01*
X40004Y548060D01*
X38604Y548640D01*
D02*
G37*
G36*
X148507Y547500D02*
X146132D01*
X143838Y546885D01*
X141781Y545698D01*
X140102Y544019D01*
X138914Y541962D01*
X138300Y539668D01*
Y537293D01*
X138914Y534999D01*
X140102Y532942D01*
X141781Y531262D01*
X143838Y530075D01*
X146132Y529460D01*
X148507D01*
X150801Y530075D01*
X152858Y531262D01*
X154538Y532942D01*
X155725Y534999D01*
X156340Y537293D01*
Y539668D01*
X155725Y541962D01*
X154538Y544019D01*
X152858Y545698D01*
X150801Y546885D01*
X148507Y547500D01*
D02*
G37*
G36*
X223262Y536448D02*
X221746D01*
X220346Y535868D01*
X219274Y534796D01*
X218694Y533396D01*
Y531880D01*
X219274Y530480D01*
X220346Y529408D01*
X221746Y528828D01*
X223262D01*
X224662Y529408D01*
X225734Y530480D01*
X226314Y531880D01*
Y533396D01*
X225734Y534796D01*
X224662Y535868D01*
X223262Y536448D01*
D02*
G37*
G36*
X85809Y535901D02*
X84293D01*
X82893Y535321D01*
X81821Y534249D01*
X81241Y532849D01*
Y531334D01*
X81821Y529933D01*
X82893Y528861D01*
X84293Y528281D01*
X85809D01*
X87210Y528861D01*
X88281Y529933D01*
X88861Y531334D01*
Y532849D01*
X88281Y534249D01*
X87210Y535321D01*
X85809Y535901D01*
D02*
G37*
G36*
X260668Y537271D02*
X258870D01*
X257208Y536583D01*
X255937Y535311D01*
X255249Y533650D01*
Y531852D01*
X255937Y530191D01*
X257208Y528919D01*
X258870Y528231D01*
X260668D01*
X262329Y528919D01*
X263601Y530191D01*
X264289Y531852D01*
Y533650D01*
X263601Y535311D01*
X262329Y536583D01*
X260668Y537271D01*
D02*
G37*
G36*
X202868D02*
X201069D01*
X199408Y536583D01*
X198137Y535311D01*
X197448Y533650D01*
Y531852D01*
X198137Y530191D01*
X199408Y528919D01*
X201069Y528231D01*
X202868D01*
X204529Y528919D01*
X205800Y530191D01*
X206488Y531852D01*
Y533650D01*
X205800Y535311D01*
X204529Y536583D01*
X202868Y537271D01*
D02*
G37*
G36*
X-204922Y534730D02*
X-206438D01*
X-207838Y534150D01*
X-208910Y533078D01*
X-209490Y531678D01*
Y530162D01*
X-208910Y528762D01*
X-207838Y527690D01*
X-206438Y527110D01*
X-204922D01*
X-203522Y527690D01*
X-202450Y528762D01*
X-201870Y530162D01*
Y531678D01*
X-202450Y533078D01*
X-203522Y534150D01*
X-204922Y534730D01*
D02*
G37*
G36*
X-185932Y534670D02*
X-187448D01*
X-188848Y534090D01*
X-189920Y533018D01*
X-190500Y531618D01*
Y530102D01*
X-189920Y528702D01*
X-188848Y527630D01*
X-187448Y527050D01*
X-185932D01*
X-184532Y527630D01*
X-183460Y528702D01*
X-182880Y530102D01*
Y531618D01*
X-183460Y533018D01*
X-184532Y534090D01*
X-185932Y534670D01*
D02*
G37*
G36*
X160778Y532130D02*
X159262D01*
X157862Y531550D01*
X156790Y530478D01*
X156210Y529078D01*
Y527562D01*
X156790Y526162D01*
X157862Y525090D01*
X159262Y524510D01*
X160778D01*
X162178Y525090D01*
X163250Y526162D01*
X163830Y527562D01*
Y529078D01*
X163250Y530478D01*
X162178Y531550D01*
X160778Y532130D01*
D02*
G37*
G36*
X-227842Y528320D02*
X-229358D01*
X-230758Y527740D01*
X-231830Y526668D01*
X-232410Y525268D01*
Y523752D01*
X-231830Y522352D01*
X-230758Y521280D01*
X-229358Y520700D01*
X-227842D01*
X-226442Y521280D01*
X-225370Y522352D01*
X-224790Y523752D01*
Y525268D01*
X-225370Y526668D01*
X-226442Y527740D01*
X-227842Y528320D01*
D02*
G37*
G36*
X-216412Y523240D02*
X-217928D01*
X-219328Y522660D01*
X-220400Y521588D01*
X-220980Y520188D01*
Y518672D01*
X-220400Y517272D01*
X-219328Y516200D01*
X-217928Y515620D01*
X-216412D01*
X-215012Y516200D01*
X-213940Y517272D01*
X-213360Y518672D01*
Y520188D01*
X-213940Y521588D01*
X-215012Y522660D01*
X-216412Y523240D01*
D02*
G37*
G36*
X143506Y517144D02*
X141990D01*
X140590Y516564D01*
X139518Y515492D01*
X138938Y514092D01*
Y512576D01*
X139518Y511176D01*
X140590Y510104D01*
X141990Y509524D01*
X143506D01*
X144906Y510104D01*
X145978Y511176D01*
X146558Y512576D01*
Y514092D01*
X145978Y515492D01*
X144906Y516564D01*
X143506Y517144D01*
D02*
G37*
G36*
X-228604D02*
X-230120D01*
X-231520Y516564D01*
X-232592Y515492D01*
X-233172Y514092D01*
Y512576D01*
X-232592Y511176D01*
X-231520Y510104D01*
X-230120Y509524D01*
X-228604D01*
X-227204Y510104D01*
X-226132Y511176D01*
X-225552Y512576D01*
Y514092D01*
X-226132Y515492D01*
X-227204Y516564D01*
X-228604Y517144D01*
D02*
G37*
G36*
X-60202Y511810D02*
X-61718D01*
X-63118Y511230D01*
X-64190Y510158D01*
X-64770Y508758D01*
Y507242D01*
X-64190Y505842D01*
X-63118Y504770D01*
X-61718Y504190D01*
X-60202D01*
X-58802Y504770D01*
X-57730Y505842D01*
X-57150Y507242D01*
Y508758D01*
X-57730Y510158D01*
X-58802Y511230D01*
X-60202Y511810D01*
D02*
G37*
G36*
X-159262Y525780D02*
X-160778D01*
X-162178Y525200D01*
X-163250Y524128D01*
X-163830Y522728D01*
Y521212D01*
X-163250Y519812D01*
X-162178Y518740D01*
X-160778Y518160D01*
X-159795D01*
X-158931Y516558D01*
X-158923Y516517D01*
X-158932Y516508D01*
X-159512Y515108D01*
Y513592D01*
X-159510Y513588D01*
X-160698Y511810D01*
X-160778D01*
X-162178Y511230D01*
X-163250Y510158D01*
X-163830Y508758D01*
Y507242D01*
X-163250Y505842D01*
X-162178Y504770D01*
X-160778Y504190D01*
X-159262D01*
X-157862Y504770D01*
X-156790Y505842D01*
X-156210Y507242D01*
Y508758D01*
X-156212Y508762D01*
X-155024Y510540D01*
X-154944D01*
X-153544Y511120D01*
X-152472Y512192D01*
X-151892Y513592D01*
Y515108D01*
X-152472Y516508D01*
X-153544Y517580D01*
X-154944Y518160D01*
X-155927D01*
X-156791Y519762D01*
X-156799Y519803D01*
X-156790Y519812D01*
X-156210Y521212D01*
Y522728D01*
X-156790Y524128D01*
X-157862Y525200D01*
X-159262Y525780D01*
D02*
G37*
G36*
X225802Y503174D02*
X224286D01*
X222886Y502594D01*
X221814Y501522D01*
X221234Y500122D01*
Y498606D01*
X221814Y497206D01*
X222886Y496134D01*
X224286Y495554D01*
X225802D01*
X227202Y496134D01*
X228274Y497206D01*
X228854Y498606D01*
Y500122D01*
X228274Y501522D01*
X227202Y502594D01*
X225802Y503174D01*
D02*
G37*
G36*
X176447Y511940D02*
X174072D01*
X171778Y511325D01*
X169721Y510138D01*
X168042Y508459D01*
X166854Y506402D01*
X166240Y504108D01*
Y501733D01*
X166854Y499439D01*
X168042Y497382D01*
X169721Y495702D01*
X171778Y494515D01*
X174072Y493900D01*
X176447D01*
X178741Y494515D01*
X180798Y495702D01*
X182478Y497382D01*
X183665Y499439D01*
X184280Y501733D01*
Y504108D01*
X183665Y506402D01*
X182478Y508459D01*
X180798Y510138D01*
X178741Y511325D01*
X176447Y511940D01*
D02*
G37*
G36*
X-239018Y499618D02*
X-240534D01*
X-241934Y499038D01*
X-243006Y497966D01*
X-243586Y496566D01*
Y495050D01*
X-243006Y493650D01*
X-241934Y492578D01*
X-240534Y491998D01*
X-239018D01*
X-237618Y492578D01*
X-236546Y493650D01*
X-235966Y495050D01*
Y496566D01*
X-236546Y497966D01*
X-237618Y499038D01*
X-239018Y499618D01*
D02*
G37*
G36*
X-61472Y499110D02*
X-62988D01*
X-64388Y498530D01*
X-65460Y497458D01*
X-66040Y496058D01*
Y494542D01*
X-65460Y493142D01*
X-64388Y492070D01*
X-62988Y491490D01*
X-61472D01*
X-60072Y492070D01*
X-59000Y493142D01*
X-58420Y494542D01*
Y496058D01*
X-59000Y497458D01*
X-60072Y498530D01*
X-61472Y499110D01*
D02*
G37*
G36*
X-109732D02*
X-111248D01*
X-112648Y498530D01*
X-113720Y497458D01*
X-114300Y496058D01*
Y494542D01*
X-113720Y493142D01*
X-112648Y492070D01*
X-111248Y491490D01*
X-109732D01*
X-108332Y492070D01*
X-107260Y493142D01*
X-106680Y494542D01*
Y496058D01*
X-107260Y497458D01*
X-108332Y498530D01*
X-109732Y499110D01*
D02*
G37*
G36*
X-23372Y497840D02*
X-24888D01*
X-26288Y497260D01*
X-27360Y496188D01*
X-27940Y494788D01*
Y493272D01*
X-27360Y491872D01*
X-26288Y490800D01*
X-24888Y490220D01*
X-23372D01*
X-21972Y490800D01*
X-20900Y491872D01*
X-20320Y493272D01*
Y494788D01*
X-20900Y496188D01*
X-21972Y497260D01*
X-23372Y497840D01*
D02*
G37*
G36*
X27428Y495300D02*
X25912D01*
X24512Y494720D01*
X23440Y493648D01*
X22860Y492248D01*
Y490732D01*
X23440Y489332D01*
X24512Y488260D01*
X25912Y487680D01*
X27428D01*
X28828Y488260D01*
X29900Y489332D01*
X30480Y490732D01*
Y492248D01*
X29900Y493648D01*
X28828Y494720D01*
X27428Y495300D01*
D02*
G37*
G36*
X-192046Y491363D02*
X-193562D01*
X-194962Y490783D01*
X-196034Y489711D01*
X-196614Y488311D01*
Y486795D01*
X-196034Y485395D01*
X-194962Y484323D01*
X-193562Y483743D01*
X-192046D01*
X-190646Y484323D01*
X-189574Y485395D01*
X-188994Y486795D01*
Y488311D01*
X-189574Y489711D01*
X-190646Y490783D01*
X-192046Y491363D01*
D02*
G37*
G36*
X-268482Y488950D02*
X-269998D01*
X-271398Y488370D01*
X-272470Y487298D01*
X-273050Y485898D01*
Y484382D01*
X-272470Y482982D01*
X-271398Y481910D01*
X-269998Y481330D01*
X-268482D01*
X-267082Y481910D01*
X-266010Y482982D01*
X-265430Y484382D01*
Y485898D01*
X-266010Y487298D01*
X-267082Y488370D01*
X-268482Y488950D01*
D02*
G37*
G36*
X-254512Y487680D02*
X-256028D01*
X-257428Y487100D01*
X-258500Y486028D01*
X-259080Y484628D01*
Y483112D01*
X-258500Y481712D01*
X-257428Y480640D01*
X-256028Y480060D01*
X-254512D01*
X-253112Y480640D01*
X-252040Y481712D01*
X-251460Y483112D01*
Y484628D01*
X-252040Y486028D01*
X-253112Y487100D01*
X-254512Y487680D01*
D02*
G37*
G36*
X249678Y485140D02*
X248162D01*
X246762Y484560D01*
X245690Y483488D01*
X245110Y482088D01*
Y480572D01*
X245690Y479172D01*
X246762Y478100D01*
X248162Y477520D01*
X249678D01*
X251078Y478100D01*
X252150Y479172D01*
X252730Y480572D01*
Y482088D01*
X252150Y483488D01*
X251078Y484560D01*
X249678Y485140D01*
D02*
G37*
G36*
X-185932Y481330D02*
X-187448D01*
X-188848Y480750D01*
X-189920Y479678D01*
X-190500Y478278D01*
Y476762D01*
X-189920Y475362D01*
X-188848Y474290D01*
X-187448Y473710D01*
X-185932D01*
X-184532Y474290D01*
X-183460Y475362D01*
X-182880Y476762D01*
Y478278D01*
X-183460Y479678D01*
X-184532Y480750D01*
X-185932Y481330D01*
D02*
G37*
G36*
X225548Y478790D02*
X224032D01*
X222632Y478210D01*
X221560Y477138D01*
X220980Y475738D01*
Y474222D01*
X221560Y472822D01*
X222632Y471750D01*
X224032Y471170D01*
X225548D01*
X226948Y471750D01*
X228020Y472822D01*
X228600Y474222D01*
Y475738D01*
X228020Y477138D01*
X226948Y478210D01*
X225548Y478790D01*
D02*
G37*
G36*
X-57662Y477520D02*
X-59178D01*
X-60578Y476940D01*
X-61650Y475868D01*
X-62230Y474468D01*
Y472952D01*
X-61650Y471552D01*
X-60578Y470480D01*
X-59178Y469900D01*
X-57662D01*
X-56262Y470480D01*
X-55190Y471552D01*
X-54610Y472952D01*
Y474468D01*
X-55190Y475868D01*
X-56262Y476940D01*
X-57662Y477520D01*
D02*
G37*
G36*
X256336Y473499D02*
X254820D01*
X253420Y472919D01*
X252348Y471847D01*
X251768Y470447D01*
Y468931D01*
X252348Y467530D01*
X253420Y466459D01*
X254820Y465879D01*
X256336D01*
X257736Y466459D01*
X258808Y467530D01*
X259388Y468931D01*
Y470447D01*
X258808Y471847D01*
X257736Y472919D01*
X256336Y473499D01*
D02*
G37*
G36*
X267130Y472895D02*
X265615D01*
X264214Y472315D01*
X263143Y471243D01*
X262562Y469843D01*
Y468327D01*
X263143Y466927D01*
X264214Y465855D01*
X265615Y465275D01*
X267130D01*
X268531Y465855D01*
X269602Y466927D01*
X269867Y467565D01*
X271205Y467509D01*
X271703Y467351D01*
X272225Y466091D01*
X273297Y465019D01*
X274697Y464439D01*
X276213D01*
X277613Y465019D01*
X278685Y466091D01*
X279265Y467491D01*
Y469007D01*
X278685Y470407D01*
X277613Y471479D01*
X276213Y472059D01*
X274697D01*
X273297Y471479D01*
X272225Y470407D01*
X271960Y469769D01*
X270622Y469824D01*
X270124Y469983D01*
X269602Y471243D01*
X268531Y472315D01*
X267130Y472895D01*
D02*
G37*
G36*
X-138758Y466274D02*
X-140274D01*
X-141674Y465694D01*
X-142746Y464622D01*
X-143326Y463222D01*
Y461706D01*
X-142746Y460306D01*
X-141674Y459234D01*
X-140274Y458654D01*
X-138758D01*
X-137358Y459234D01*
X-136286Y460306D01*
X-135706Y461706D01*
Y463222D01*
X-136286Y464622D01*
X-137358Y465694D01*
X-138758Y466274D01*
D02*
G37*
G36*
X-124972Y464312D02*
X-126488D01*
X-127888Y463732D01*
X-128960Y462660D01*
X-129540Y461260D01*
Y459744D01*
X-128960Y458344D01*
X-127888Y457272D01*
X-126488Y456692D01*
X-124972D01*
X-123572Y457272D01*
X-122500Y458344D01*
X-121920Y459744D01*
Y461260D01*
X-122500Y462660D01*
X-123572Y463732D01*
X-124972Y464312D01*
D02*
G37*
G36*
X-185932Y463550D02*
X-187448D01*
X-188848Y462970D01*
X-189920Y461898D01*
X-190500Y460498D01*
Y458982D01*
X-189920Y457582D01*
X-188848Y456510D01*
X-187448Y455930D01*
X-185932D01*
X-184532Y456510D01*
X-183460Y457582D01*
X-182880Y458982D01*
Y460498D01*
X-183460Y461898D01*
X-184532Y462970D01*
X-185932Y463550D01*
D02*
G37*
G36*
X281147Y457310D02*
X279631D01*
X278231Y456730D01*
X277159Y455658D01*
X276579Y454258D01*
Y452742D01*
X277159Y451342D01*
X278231Y450270D01*
X279631Y449690D01*
X281147D01*
X282547Y450270D01*
X283619Y451342D01*
X284199Y452742D01*
Y454258D01*
X283619Y455658D01*
X282547Y456730D01*
X281147Y457310D01*
D02*
G37*
G36*
X173907Y467490D02*
X171532D01*
X169238Y466875D01*
X167181Y465688D01*
X165502Y464009D01*
X164314Y461952D01*
X163700Y459658D01*
Y457283D01*
X164314Y454989D01*
X165502Y452932D01*
X167181Y451252D01*
X169238Y450065D01*
X171532Y449450D01*
X173907D01*
X176201Y450065D01*
X178258Y451252D01*
X179938Y452932D01*
X181125Y454989D01*
X181740Y457283D01*
Y459658D01*
X181125Y461952D01*
X179938Y464009D01*
X178258Y465688D01*
X176201Y466875D01*
X173907Y467490D01*
D02*
G37*
G36*
X203958Y453390D02*
X202442D01*
X201042Y452810D01*
X199970Y451738D01*
X199390Y450338D01*
Y448822D01*
X199970Y447422D01*
X201042Y446350D01*
X202442Y445770D01*
X203958D01*
X205358Y446350D01*
X206430Y447422D01*
X207010Y448822D01*
Y450338D01*
X206430Y451738D01*
X205358Y452810D01*
X203958Y453390D01*
D02*
G37*
G36*
X229235Y441949D02*
X227719D01*
X226318Y441369D01*
X225247Y440298D01*
X224667Y438897D01*
Y437381D01*
X225247Y435981D01*
X226318Y434909D01*
X227719Y434329D01*
X229235D01*
X230635Y434909D01*
X231707Y435981D01*
X232287Y437381D01*
Y438897D01*
X231707Y440298D01*
X230635Y441369D01*
X229235Y441949D01*
D02*
G37*
G36*
X-152912Y440690D02*
X-154428D01*
X-155828Y440110D01*
X-156900Y439038D01*
X-157480Y437638D01*
Y436122D01*
X-156900Y434722D01*
X-155828Y433650D01*
X-154428Y433070D01*
X-152912D01*
X-151512Y433650D01*
X-150440Y434722D01*
X-149860Y436122D01*
Y437638D01*
X-150440Y439038D01*
X-151512Y440110D01*
X-152912Y440690D01*
D02*
G37*
G36*
X266115Y437507D02*
X264599D01*
X263199Y436927D01*
X262127Y435855D01*
X261547Y434455D01*
Y432939D01*
X262127Y431539D01*
X263199Y430467D01*
X264599Y429887D01*
X266115D01*
X267515Y430467D01*
X268587Y431539D01*
X269167Y432939D01*
Y434455D01*
X268587Y435855D01*
X267515Y436927D01*
X266115Y437507D01*
D02*
G37*
G36*
X-198886Y434153D02*
X-200402D01*
X-201802Y433573D01*
X-202874Y432501D01*
X-203454Y431101D01*
Y429585D01*
X-202874Y428185D01*
X-201802Y427113D01*
X-200402Y426533D01*
X-198886D01*
X-197486Y427113D01*
X-196414Y428185D01*
X-195834Y429585D01*
Y431101D01*
X-196414Y432501D01*
X-197486Y433573D01*
X-198886Y434153D01*
D02*
G37*
G36*
X193544Y433543D02*
X192028D01*
X190628Y432963D01*
X189556Y431891D01*
X188976Y430491D01*
Y428975D01*
X189556Y427575D01*
X190628Y426503D01*
X192028Y425923D01*
X193544D01*
X194944Y426503D01*
X196016Y427575D01*
X196596Y428975D01*
Y430491D01*
X196016Y431891D01*
X194944Y432963D01*
X193544Y433543D01*
D02*
G37*
G36*
X212086Y435864D02*
X210570D01*
X209170Y435284D01*
X208098Y434212D01*
X207518Y432812D01*
Y431296D01*
X208098Y429896D01*
X209170Y428824D01*
X210334Y428342D01*
X210546Y427515D01*
X210511Y426490D01*
X209665Y426140D01*
X208593Y425068D01*
X208013Y423668D01*
Y422152D01*
X208593Y420752D01*
X209665Y419680D01*
X211066Y419100D01*
X212581D01*
X213982Y419680D01*
X215053Y420752D01*
X215633Y422152D01*
Y423668D01*
X215053Y425068D01*
X213982Y426140D01*
X212817Y426622D01*
X212606Y427449D01*
X212640Y428474D01*
X213486Y428824D01*
X214558Y429896D01*
X215138Y431296D01*
Y432812D01*
X214558Y434212D01*
X213486Y435284D01*
X212086Y435864D01*
D02*
G37*
G36*
X58416Y422783D02*
X56900D01*
X55500Y422203D01*
X54428Y421131D01*
X53848Y419731D01*
Y418215D01*
X54428Y416815D01*
X55500Y415743D01*
X56900Y415163D01*
X58416D01*
X59816Y415743D01*
X60888Y416815D01*
X61468Y418215D01*
Y419731D01*
X60888Y421131D01*
X59816Y422203D01*
X58416Y422783D01*
D02*
G37*
G36*
X-143570Y419845D02*
X-145086D01*
X-146486Y419265D01*
X-147558Y418193D01*
X-148138Y416793D01*
Y415277D01*
X-147558Y413877D01*
X-146486Y412805D01*
X-145086Y412225D01*
X-143570D01*
X-142170Y412805D01*
X-141098Y413877D01*
X-140518Y415277D01*
Y416793D01*
X-141098Y418193D01*
X-142170Y419265D01*
X-143570Y419845D01*
D02*
G37*
G36*
X-210283Y415511D02*
X-211799D01*
X-213199Y414931D01*
X-214271Y413859D01*
X-214851Y412459D01*
Y410943D01*
X-214271Y409543D01*
X-213199Y408471D01*
X-211799Y407891D01*
X-210283D01*
X-208883Y408471D01*
X-207811Y409543D01*
X-207231Y410943D01*
Y412459D01*
X-207811Y413859D01*
X-208883Y414931D01*
X-210283Y415511D01*
D02*
G37*
G36*
X272030Y413766D02*
X270514D01*
X269114Y413186D01*
X268042Y412114D01*
X267462Y410714D01*
Y409198D01*
X268042Y407798D01*
X269114Y406726D01*
X270514Y406146D01*
X272030D01*
X273430Y406726D01*
X274502Y407798D01*
X275082Y409198D01*
Y410714D01*
X274502Y412114D01*
X273430Y413186D01*
X272030Y413766D01*
D02*
G37*
G36*
X245852Y420370D02*
X244336D01*
X242936Y419790D01*
X241864Y418718D01*
X241284Y417318D01*
Y415802D01*
X241864Y414402D01*
X242936Y413330D01*
X244336Y412750D01*
X244587D01*
X244940Y410972D01*
X244766Y410900D01*
X243695Y409828D01*
X243114Y408428D01*
Y406912D01*
X243695Y405512D01*
X244766Y404440D01*
X246167Y403860D01*
X247682D01*
X249083Y404440D01*
X250154Y405512D01*
X250735Y406912D01*
Y408428D01*
X250154Y409828D01*
X249083Y410900D01*
X247682Y411480D01*
X247432D01*
X247079Y413258D01*
X247253Y413330D01*
X248324Y414402D01*
X248904Y415802D01*
Y417318D01*
X248324Y418718D01*
X247253Y419790D01*
X245852Y420370D01*
D02*
G37*
G36*
X208022Y410464D02*
X206506D01*
X205106Y409884D01*
X204034Y408812D01*
X203454Y407412D01*
Y405896D01*
X204034Y404496D01*
X205106Y403424D01*
X206506Y402844D01*
X208022D01*
X209422Y403424D01*
X210494Y404496D01*
X211074Y405896D01*
Y407412D01*
X210494Y408812D01*
X209422Y409884D01*
X208022Y410464D01*
D02*
G37*
G36*
X-161874Y408693D02*
X-163390D01*
X-164790Y408113D01*
X-165862Y407042D01*
X-166442Y405641D01*
Y404126D01*
X-165862Y402725D01*
X-164790Y401653D01*
X-163390Y401073D01*
X-161874D01*
X-160474Y401653D01*
X-159402Y402725D01*
X-158822Y404126D01*
Y405641D01*
X-159402Y407042D01*
X-160474Y408113D01*
X-161874Y408693D01*
D02*
G37*
G36*
X-13593Y402209D02*
X-15109D01*
X-16509Y401629D01*
X-17581Y400557D01*
X-18161Y399157D01*
Y397641D01*
X-17581Y396241D01*
X-16509Y395169D01*
X-15109Y394589D01*
X-13593D01*
X-12193Y395169D01*
X-11121Y396241D01*
X-10541Y397641D01*
Y399157D01*
X-11121Y400557D01*
X-12193Y401629D01*
X-13593Y402209D01*
D02*
G37*
G36*
X-55194Y394081D02*
X-56709D01*
X-58110Y393501D01*
X-59181Y392429D01*
X-59761Y391029D01*
Y389513D01*
X-59181Y388113D01*
X-58110Y387041D01*
X-56709Y386461D01*
X-55194D01*
X-53793Y387041D01*
X-52722Y388113D01*
X-52141Y389513D01*
Y391029D01*
X-52722Y392429D01*
X-53793Y393501D01*
X-55194Y394081D01*
D02*
G37*
G36*
X-161081Y392103D02*
X-162596D01*
X-163997Y391523D01*
X-165068Y390451D01*
X-165648Y389051D01*
Y387535D01*
X-165068Y386135D01*
X-163997Y385063D01*
X-162596Y384483D01*
X-161081D01*
X-159680Y385063D01*
X-158609Y386135D01*
X-158028Y387535D01*
Y389051D01*
X-158609Y390451D01*
X-159680Y391523D01*
X-161081Y392103D01*
D02*
G37*
G36*
X247138Y388620D02*
X245622D01*
X244222Y388040D01*
X243150Y386968D01*
X242570Y385568D01*
Y384052D01*
X243150Y382652D01*
X244222Y381580D01*
X245622Y381000D01*
X247138D01*
X248538Y381580D01*
X249610Y382652D01*
X250190Y384052D01*
Y385568D01*
X249610Y386968D01*
X248538Y388040D01*
X247138Y388620D01*
D02*
G37*
G36*
X215388D02*
X213872D01*
X212472Y388040D01*
X211400Y386968D01*
X210820Y385568D01*
Y384052D01*
X211400Y382652D01*
X212472Y381580D01*
X213872Y381000D01*
X215388D01*
X216788Y381580D01*
X217860Y382652D01*
X218440Y384052D01*
Y385568D01*
X217860Y386968D01*
X216788Y388040D01*
X215388Y388620D01*
D02*
G37*
G36*
X-200615Y387350D02*
X-202131D01*
X-203531Y386770D01*
X-204603Y385698D01*
X-205183Y384298D01*
Y382782D01*
X-204603Y381382D01*
X-203531Y380310D01*
X-202131Y379730D01*
X-200615D01*
X-199215Y380310D01*
X-198143Y381382D01*
X-197563Y382782D01*
Y384298D01*
X-198143Y385698D01*
X-199215Y386770D01*
X-200615Y387350D01*
D02*
G37*
G36*
X-222183Y386080D02*
X-222251D01*
Y377190D01*
X-213360D01*
Y377258D01*
X-214053Y379842D01*
X-215390Y382159D01*
X-217282Y384050D01*
X-219599Y385388D01*
X-222183Y386080D01*
D02*
G37*
G36*
X-224791D02*
X-224858D01*
X-227442Y385388D01*
X-229759Y384050D01*
X-231650Y382159D01*
X-232988Y379842D01*
X-233680Y377258D01*
Y377190D01*
X-224791D01*
Y386080D01*
D02*
G37*
G36*
X-121162Y381000D02*
X-122678D01*
X-124078Y380420D01*
X-125150Y379348D01*
X-125730Y377948D01*
Y376432D01*
X-125150Y375032D01*
X-124078Y373960D01*
X-122678Y373380D01*
X-121162D01*
X-119762Y373960D01*
X-118690Y375032D01*
X-118110Y376432D01*
Y377948D01*
X-118690Y379348D01*
X-119762Y380420D01*
X-121162Y381000D01*
D02*
G37*
G36*
X-162564Y378460D02*
X-164080D01*
X-165480Y377880D01*
X-166552Y376808D01*
X-167132Y375408D01*
Y373892D01*
X-166552Y372492D01*
X-165480Y371420D01*
X-164080Y370840D01*
X-162564D01*
X-161164Y371420D01*
X-160092Y372492D01*
X-159512Y373892D01*
Y375408D01*
X-160092Y376808D01*
X-161164Y377880D01*
X-162564Y378460D01*
D02*
G37*
G36*
X-23459Y377825D02*
X-24974D01*
X-26375Y377245D01*
X-27446Y376173D01*
X-28026Y374773D01*
Y373257D01*
X-27446Y371857D01*
X-26375Y370785D01*
X-24974Y370205D01*
X-23459D01*
X-22058Y370785D01*
X-20987Y371857D01*
X-20406Y373257D01*
Y374773D01*
X-20987Y376173D01*
X-22058Y377245D01*
X-23459Y377825D01*
D02*
G37*
G36*
X-252813Y384940D02*
X-255188D01*
X-257482Y384325D01*
X-259539Y383138D01*
X-261218Y381459D01*
X-262405Y379402D01*
X-263020Y377108D01*
Y374733D01*
X-262405Y372439D01*
X-261218Y370382D01*
X-259539Y368702D01*
X-257482Y367515D01*
X-255188Y366900D01*
X-252813D01*
X-250519Y367515D01*
X-248462Y368702D01*
X-246782Y370382D01*
X-245595Y372439D01*
X-244980Y374733D01*
Y377108D01*
X-245595Y379402D01*
X-246782Y381459D01*
X-248462Y383138D01*
X-250519Y384325D01*
X-252813Y384940D01*
D02*
G37*
G36*
X-213360Y374650D02*
X-222251D01*
Y365760D01*
X-222183D01*
X-219599Y366453D01*
X-217282Y367790D01*
X-215390Y369682D01*
X-214053Y371999D01*
X-213360Y374583D01*
Y374650D01*
D02*
G37*
G36*
X-224791D02*
X-233680D01*
Y374583D01*
X-232988Y371999D01*
X-231650Y369682D01*
X-229759Y367790D01*
X-227442Y366453D01*
X-224858Y365760D01*
X-224791D01*
Y374650D01*
D02*
G37*
G36*
X208887Y371967D02*
X207371D01*
X205971Y371387D01*
X204899Y370315D01*
X204319Y368915D01*
Y367399D01*
X204899Y365999D01*
X205971Y364927D01*
X207371Y364347D01*
X208887D01*
X210287Y364927D01*
X211359Y365999D01*
X211939Y367399D01*
Y368915D01*
X211359Y370315D01*
X210287Y371387D01*
X208887Y371967D01*
D02*
G37*
G36*
X266532Y371008D02*
X265016D01*
X263616Y370428D01*
X262544Y369356D01*
X261964Y367956D01*
Y366440D01*
X262544Y365040D01*
X263616Y363968D01*
X265016Y363388D01*
X266532D01*
X267932Y363968D01*
X269004Y365040D01*
X269584Y366440D01*
Y367956D01*
X269004Y369356D01*
X267932Y370428D01*
X266532Y371008D01*
D02*
G37*
G36*
X157733Y370335D02*
X156217D01*
X154817Y369755D01*
X153745Y368683D01*
X153165Y367283D01*
Y365767D01*
X153745Y364367D01*
X154817Y363295D01*
X156217Y362715D01*
X157733D01*
X159133Y363295D01*
X160205Y364367D01*
X160785Y365767D01*
Y367283D01*
X160205Y368683D01*
X159133Y369755D01*
X157733Y370335D01*
D02*
G37*
G36*
X-132816Y368154D02*
X-134332D01*
X-135732Y367574D01*
X-136804Y366502D01*
X-137384Y365102D01*
Y363586D01*
X-136804Y362186D01*
X-135732Y361114D01*
X-134332Y360534D01*
X-132816D01*
X-131415Y361114D01*
X-130344Y362186D01*
X-129764Y363586D01*
Y365102D01*
X-130344Y366502D01*
X-131415Y367574D01*
X-132816Y368154D01*
D02*
G37*
G36*
X-149312Y367623D02*
X-150828D01*
X-152228Y367043D01*
X-153300Y365971D01*
X-153880Y364571D01*
Y363055D01*
X-153300Y361655D01*
X-152228Y360583D01*
X-150828Y360003D01*
X-149312D01*
X-147912Y360583D01*
X-146840Y361655D01*
X-146260Y363055D01*
Y364571D01*
X-146840Y365971D01*
X-147912Y367043D01*
X-149312Y367623D01*
D02*
G37*
G36*
X-104906Y365760D02*
X-106422D01*
X-107822Y365180D01*
X-108894Y364108D01*
X-109474Y362708D01*
Y361192D01*
X-108894Y359792D01*
X-107822Y358720D01*
X-106422Y358140D01*
X-104906D01*
X-103506Y358720D01*
X-102434Y359792D01*
X-101854Y361192D01*
Y362708D01*
X-102434Y364108D01*
X-103506Y365180D01*
X-104906Y365760D01*
D02*
G37*
G36*
X247348Y365251D02*
X245833D01*
X244432Y364671D01*
X243361Y363599D01*
X242780Y362199D01*
Y360683D01*
X243361Y359283D01*
X244432Y358211D01*
X245833Y357631D01*
X247348D01*
X248749Y358211D01*
X249820Y359283D01*
X250401Y360683D01*
Y362199D01*
X249820Y363599D01*
X248749Y364671D01*
X247348Y365251D01*
D02*
G37*
G36*
X-162169Y364426D02*
X-163684D01*
X-165085Y363846D01*
X-166157Y362774D01*
X-166737Y361374D01*
Y359858D01*
X-166157Y358457D01*
X-165085Y357386D01*
X-163684Y356806D01*
X-162169D01*
X-160768Y357386D01*
X-159697Y358457D01*
X-159117Y359858D01*
Y361374D01*
X-159697Y362774D01*
X-160768Y363846D01*
X-162169Y364426D01*
D02*
G37*
G36*
X-9910Y363982D02*
X-11426D01*
X-12826Y363402D01*
X-13898Y362330D01*
X-14478Y360930D01*
Y359414D01*
X-13898Y358014D01*
X-12826Y356942D01*
X-11426Y356362D01*
X-9910D01*
X-8510Y356942D01*
X-7438Y358014D01*
X-6858Y359414D01*
Y360930D01*
X-7438Y362330D01*
X-8510Y363402D01*
X-9910Y363982D01*
D02*
G37*
G36*
X-120095Y363747D02*
X-121611D01*
X-123012Y363167D01*
X-124083Y362095D01*
X-124663Y360695D01*
Y359179D01*
X-124083Y357779D01*
X-123012Y356707D01*
X-121611Y356127D01*
X-120095D01*
X-118695Y356707D01*
X-117623Y357779D01*
X-117043Y359179D01*
Y360695D01*
X-117623Y362095D01*
X-118695Y363167D01*
X-120095Y363747D01*
D02*
G37*
G36*
X198878Y353060D02*
X197362D01*
X195962Y352480D01*
X194890Y351408D01*
X194310Y350008D01*
Y348492D01*
X194890Y347092D01*
X195962Y346020D01*
X197362Y345440D01*
X198878D01*
X200278Y346020D01*
X201350Y347092D01*
X201930Y348492D01*
Y350008D01*
X201350Y351408D01*
X200278Y352480D01*
X198878Y353060D01*
D02*
G37*
G36*
X184908Y349250D02*
X183392D01*
X181992Y348670D01*
X180920Y347598D01*
X180340Y346198D01*
Y344682D01*
X180920Y343282D01*
X181992Y342210D01*
X183392Y341630D01*
X184908D01*
X186308Y342210D01*
X187380Y343282D01*
X187960Y344682D01*
Y346198D01*
X187380Y347598D01*
X186308Y348670D01*
X184908Y349250D01*
D02*
G37*
G36*
X169668Y348361D02*
X168152D01*
X166752Y347781D01*
X165680Y346709D01*
X165100Y345309D01*
Y343793D01*
X165680Y342393D01*
X166752Y341321D01*
X168152Y340741D01*
X169668D01*
X171068Y341321D01*
X172140Y342393D01*
X172720Y343793D01*
Y345309D01*
X172140Y346709D01*
X171068Y347781D01*
X169668Y348361D01*
D02*
G37*
G36*
X-174502Y355600D02*
X-176018D01*
X-177418Y355020D01*
X-178490Y353948D01*
X-179070Y352548D01*
Y351032D01*
X-178490Y349632D01*
X-178101Y349243D01*
X-177903Y347663D01*
X-178234Y347052D01*
X-178944Y346342D01*
X-179524Y344941D01*
Y343426D01*
X-178944Y342025D01*
X-177872Y340954D01*
X-176472Y340373D01*
X-174956D01*
X-173556Y340954D01*
X-172484Y342025D01*
X-171904Y343426D01*
Y344941D01*
X-172484Y346342D01*
X-172873Y346730D01*
X-173071Y348311D01*
X-172741Y348921D01*
X-172030Y349632D01*
X-171450Y351032D01*
Y352548D01*
X-172030Y353948D01*
X-173102Y355020D01*
X-174502Y355600D01*
D02*
G37*
G36*
X270692Y337990D02*
X269176D01*
X267776Y337410D01*
X266704Y336338D01*
X266124Y334938D01*
Y333422D01*
X266704Y332022D01*
X267776Y330950D01*
X269176Y330370D01*
X270692D01*
X272092Y330950D01*
X273164Y332022D01*
X273744Y333422D01*
Y334938D01*
X273164Y336338D01*
X272092Y337410D01*
X270692Y337990D01*
D02*
G37*
G36*
X229358Y336550D02*
X227842D01*
X226442Y335970D01*
X225370Y334898D01*
X224790Y333498D01*
Y331982D01*
X225370Y330582D01*
X226442Y329510D01*
X227842Y328930D01*
X229358D01*
X230758Y329510D01*
X231830Y330582D01*
X232410Y331982D01*
Y333498D01*
X231830Y334898D01*
X230758Y335970D01*
X229358Y336550D01*
D02*
G37*
G36*
X103628D02*
X102112D01*
X100712Y335970D01*
X99640Y334898D01*
X99060Y333498D01*
Y331982D01*
X99640Y330582D01*
X100712Y329510D01*
X102112Y328930D01*
X103628D01*
X105028Y329510D01*
X106100Y330582D01*
X106680Y331982D01*
Y333498D01*
X106100Y334898D01*
X105028Y335970D01*
X103628Y336550D01*
D02*
G37*
G36*
X21119Y331936D02*
X19604D01*
X18203Y331356D01*
X17131Y330284D01*
X16551Y328883D01*
Y327368D01*
X17131Y325967D01*
X18203Y324896D01*
X19604Y324316D01*
X21119D01*
X22520Y324896D01*
X23591Y325967D01*
X24171Y327368D01*
Y328883D01*
X23591Y330284D01*
X22520Y331356D01*
X21119Y331936D01*
D02*
G37*
G36*
X89531Y330200D02*
X88015D01*
X86615Y329620D01*
X85543Y328548D01*
X84963Y327148D01*
Y325632D01*
X85543Y324232D01*
X86615Y323160D01*
X88015Y322580D01*
X89531D01*
X90931Y323160D01*
X92003Y324232D01*
X92583Y325632D01*
Y327148D01*
X92003Y328548D01*
X90931Y329620D01*
X89531Y330200D01*
D02*
G37*
G36*
X-35642Y340490D02*
X-38017D01*
X-40312Y339875D01*
X-42368Y338688D01*
X-44048Y337008D01*
X-45235Y334952D01*
X-45850Y332658D01*
Y330283D01*
X-45235Y327988D01*
X-44048Y325932D01*
X-42368Y324252D01*
X-40312Y323065D01*
X-38017Y322450D01*
X-35642D01*
X-33348Y323065D01*
X-31292Y324252D01*
X-29612Y325932D01*
X-28425Y327988D01*
X-27810Y330283D01*
Y332658D01*
X-28425Y334952D01*
X-29612Y337008D01*
X-31292Y338688D01*
X-33348Y339875D01*
X-35642Y340490D01*
D02*
G37*
G36*
X-120766Y327232D02*
X-122282D01*
X-123682Y326652D01*
X-124754Y325580D01*
X-125334Y324180D01*
Y322664D01*
X-124754Y321264D01*
X-123682Y320192D01*
X-122282Y319612D01*
X-120766D01*
X-119366Y320192D01*
X-118294Y321264D01*
X-117714Y322664D01*
Y324180D01*
X-118294Y325580D01*
X-119366Y326652D01*
X-120766Y327232D01*
D02*
G37*
G36*
X67433Y326898D02*
X65917D01*
X64517Y326318D01*
X63445Y325246D01*
X62865Y323846D01*
Y322330D01*
X63445Y320930D01*
X64517Y319858D01*
X65917Y319278D01*
X67433D01*
X68833Y319858D01*
X69905Y320930D01*
X70485Y322330D01*
Y323846D01*
X69905Y325246D01*
X68833Y326318D01*
X67433Y326898D01*
D02*
G37*
G36*
X138806Y326729D02*
X137291D01*
X135890Y326149D01*
X134819Y325077D01*
X134239Y323677D01*
Y322161D01*
X134819Y320761D01*
X135890Y319689D01*
X137291Y319109D01*
X138806D01*
X140207Y319689D01*
X141278Y320761D01*
X141859Y322161D01*
Y323677D01*
X141278Y325077D01*
X140207Y326149D01*
X138806Y326729D01*
D02*
G37*
G36*
X224786Y323596D02*
X223270D01*
X221870Y323016D01*
X220798Y321944D01*
X220218Y320544D01*
Y319028D01*
X220798Y317628D01*
X221870Y316556D01*
X223270Y315976D01*
X224786D01*
X226186Y316556D01*
X227258Y317628D01*
X227838Y319028D01*
Y320544D01*
X227258Y321944D01*
X226186Y323016D01*
X224786Y323596D01*
D02*
G37*
G36*
X-146618Y321209D02*
X-148133D01*
X-149534Y320629D01*
X-150605Y319557D01*
X-151185Y318157D01*
Y316641D01*
X-150605Y315241D01*
X-149534Y314169D01*
X-148133Y313589D01*
X-146618D01*
X-145217Y314169D01*
X-144145Y315241D01*
X-143565Y316641D01*
Y318157D01*
X-144145Y319557D01*
X-145217Y320629D01*
X-146618Y321209D01*
D02*
G37*
G36*
X-288392Y321970D02*
X-290688D01*
X-292808Y321092D01*
X-294431Y319469D01*
X-295310Y317348D01*
Y315053D01*
X-294431Y312932D01*
X-292808Y311309D01*
X-290688Y310430D01*
X-288392D01*
X-286271Y311309D01*
X-284648Y312932D01*
X-283770Y315053D01*
Y317348D01*
X-284648Y319469D01*
X-286271Y321092D01*
X-288392Y321970D01*
D02*
G37*
G36*
X272595Y317189D02*
X271079D01*
X269679Y316609D01*
X268607Y315537D01*
X268027Y314137D01*
Y312621D01*
X268607Y311221D01*
X269679Y310149D01*
X271079Y309569D01*
X272595D01*
X273995Y310149D01*
X275067Y311221D01*
X275647Y312621D01*
Y314137D01*
X275067Y315537D01*
X273995Y316609D01*
X272595Y317189D01*
D02*
G37*
G36*
X-133481Y311064D02*
X-134997D01*
X-136397Y310484D01*
X-137469Y309412D01*
X-138049Y308012D01*
Y306496D01*
X-137469Y305096D01*
X-136397Y304024D01*
X-134997Y303444D01*
X-133481D01*
X-132081Y304024D01*
X-131009Y305096D01*
X-130429Y306496D01*
Y308012D01*
X-131009Y309412D01*
X-132081Y310484D01*
X-133481Y311064D01*
D02*
G37*
G36*
X-77615Y305871D02*
X-79131D01*
X-80531Y305291D01*
X-81603Y304219D01*
X-82183Y302818D01*
Y301303D01*
X-81603Y299902D01*
X-80531Y298831D01*
X-79131Y298251D01*
X-77615D01*
X-76215Y298831D01*
X-75143Y299902D01*
X-74563Y301303D01*
Y302818D01*
X-75143Y304219D01*
X-76215Y305291D01*
X-77615Y305871D01*
D02*
G37*
G36*
X-196854Y300736D02*
X-198370D01*
X-199770Y300156D01*
X-200842Y299084D01*
X-201422Y297684D01*
Y296168D01*
X-200842Y294768D01*
X-199770Y293696D01*
X-198370Y293116D01*
X-196854D01*
X-195454Y293696D01*
X-194382Y294768D01*
X-193802Y296168D01*
Y297684D01*
X-194382Y299084D01*
X-195454Y300156D01*
X-196854Y300736D01*
D02*
G37*
G36*
X162192Y300102D02*
X160676D01*
X159276Y299522D01*
X158204Y298451D01*
X157624Y297050D01*
Y295534D01*
X158204Y294134D01*
X159276Y293062D01*
X160676Y292482D01*
X162192D01*
X163592Y293062D01*
X164664Y294134D01*
X165244Y295534D01*
Y297050D01*
X164664Y298451D01*
X163592Y299522D01*
X162192Y300102D01*
D02*
G37*
G36*
X-69042Y299394D02*
X-70558D01*
X-71958Y298814D01*
X-73030Y297742D01*
X-73610Y296341D01*
Y294826D01*
X-73030Y293425D01*
X-71958Y292354D01*
X-70558Y291774D01*
X-69042D01*
X-67642Y292354D01*
X-66570Y293425D01*
X-65990Y294826D01*
Y296341D01*
X-66570Y297742D01*
X-67642Y298814D01*
X-69042Y299394D01*
D02*
G37*
G36*
X94738Y295910D02*
X93222D01*
X91822Y295330D01*
X90750Y294258D01*
X90170Y292858D01*
Y291898D01*
X88392Y291544D01*
X88320Y291718D01*
X87248Y292790D01*
X85848Y293370D01*
X84332D01*
X82932Y292790D01*
X81860Y291718D01*
X81280Y290318D01*
Y288802D01*
X81860Y287402D01*
X82932Y286330D01*
X84332Y285750D01*
X85848D01*
X87248Y286330D01*
X88320Y287402D01*
X88900Y288802D01*
Y289762D01*
X90678Y290116D01*
X90750Y289942D01*
X91822Y288870D01*
X93222Y288290D01*
X94738D01*
X96138Y288870D01*
X97210Y289942D01*
X97790Y291342D01*
Y292858D01*
X97210Y294258D01*
X96138Y295330D01*
X94738Y295910D01*
D02*
G37*
G36*
X63861Y298323D02*
X62345D01*
X60945Y297743D01*
X59873Y296671D01*
X59293Y295271D01*
Y293755D01*
X59873Y292355D01*
X60945Y291283D01*
X62345Y290703D01*
X63861D01*
X65261Y291283D01*
X66333Y292355D01*
X66913Y293755D01*
Y295271D01*
X66333Y296671D01*
X65261Y297743D01*
X63861Y298323D01*
D02*
G37*
G36*
X224662Y297130D02*
X223147D01*
X221746Y296550D01*
X220674Y295478D01*
X220094Y294078D01*
Y292562D01*
X220674Y291162D01*
X221746Y290090D01*
X223147Y289510D01*
X224662D01*
X226063Y290090D01*
X227134Y291162D01*
X227714Y292562D01*
Y294078D01*
X227134Y295478D01*
X226063Y296550D01*
X224662Y297130D01*
D02*
G37*
G36*
X266050Y296649D02*
X264534D01*
X263134Y296069D01*
X262062Y294997D01*
X261482Y293597D01*
Y292081D01*
X262062Y290681D01*
X263134Y289609D01*
X264534Y289029D01*
X266050D01*
X267450Y289609D01*
X268522Y290681D01*
X269102Y292081D01*
Y293597D01*
X268522Y294997D01*
X267450Y296069D01*
X266050Y296649D01*
D02*
G37*
G36*
X4382Y298264D02*
X2867D01*
X1466Y297684D01*
X394Y296612D01*
X-186Y295212D01*
Y293696D01*
X394Y292296D01*
X1466Y291224D01*
X2867Y290644D01*
X4382D01*
X5892Y290376D01*
X6472Y288976D01*
X7544Y287904D01*
X8944Y287324D01*
X10460D01*
X11860Y287904D01*
X12932Y288976D01*
X13512Y290376D01*
Y291891D01*
X12932Y293292D01*
X11860Y294364D01*
X10460Y294944D01*
X8944D01*
X7434Y295212D01*
X6854Y296612D01*
X5782Y297684D01*
X4382Y298264D01*
D02*
G37*
G36*
X-105922Y294640D02*
X-107438D01*
X-108838Y294060D01*
X-109910Y292988D01*
X-110490Y291588D01*
Y290072D01*
X-109910Y288672D01*
X-108838Y287600D01*
X-107438Y287020D01*
X-105922D01*
X-104522Y287600D01*
X-103450Y288672D01*
X-102870Y290072D01*
Y291588D01*
X-103450Y292988D01*
X-104522Y294060D01*
X-105922Y294640D01*
D02*
G37*
G36*
X-222000Y292608D02*
X-223516D01*
X-224916Y292028D01*
X-225988Y290956D01*
X-226568Y289556D01*
Y288040D01*
X-225988Y286640D01*
X-224916Y285568D01*
X-223516Y284988D01*
X-222000D01*
X-220600Y285568D01*
X-219528Y286640D01*
X-218948Y288040D01*
Y289556D01*
X-219528Y290956D01*
X-220600Y292028D01*
X-222000Y292608D01*
D02*
G37*
G36*
X258460Y289203D02*
X256944D01*
X255544Y288623D01*
X254472Y287551D01*
X253892Y286151D01*
Y284635D01*
X254472Y283235D01*
X255544Y282163D01*
X256944Y281583D01*
X258460D01*
X259860Y282163D01*
X260932Y283235D01*
X261512Y284635D01*
Y286151D01*
X260932Y287551D01*
X259860Y288623D01*
X258460Y289203D01*
D02*
G37*
G36*
X167716Y291550D02*
X165695D01*
X163828Y290777D01*
X162399Y289348D01*
X161626Y287481D01*
Y285460D01*
X162399Y283592D01*
X163828Y282163D01*
X165695Y281390D01*
X167716D01*
X169583Y282163D01*
X171012Y283592D01*
X171786Y285460D01*
Y287481D01*
X171012Y289348D01*
X169583Y290777D01*
X167716Y291550D01*
D02*
G37*
G36*
X-196854Y288036D02*
X-198370D01*
X-199770Y287456D01*
X-200842Y286384D01*
X-201422Y284984D01*
Y283468D01*
X-200842Y282068D01*
X-199770Y280996D01*
X-198370Y280416D01*
X-196854D01*
X-195454Y280996D01*
X-194382Y282068D01*
X-193802Y283468D01*
Y284984D01*
X-194382Y286384D01*
X-195454Y287456D01*
X-196854Y288036D01*
D02*
G37*
G36*
X144280Y287407D02*
X142765D01*
X141364Y286827D01*
X140292Y285755D01*
X139712Y284354D01*
Y282839D01*
X140292Y281438D01*
X141364Y280367D01*
X142765Y279787D01*
X144280D01*
X145681Y280367D01*
X146752Y281438D01*
X147332Y282839D01*
Y284354D01*
X146752Y285755D01*
X145681Y286827D01*
X144280Y287407D01*
D02*
G37*
G36*
X22366Y278910D02*
X20850D01*
X19450Y278330D01*
X18378Y277258D01*
X17798Y275858D01*
Y274342D01*
X18378Y272942D01*
X19450Y271870D01*
X20850Y271290D01*
X22366D01*
X23766Y271870D01*
X24838Y272942D01*
X25418Y274342D01*
Y275858D01*
X24838Y277258D01*
X23766Y278330D01*
X22366Y278910D01*
D02*
G37*
G36*
X-102633Y272288D02*
X-104148D01*
X-105549Y271708D01*
X-105779Y271478D01*
X-106940Y270818D01*
X-108102Y271478D01*
X-108332Y271708D01*
X-109732Y272288D01*
X-111248D01*
X-112648Y271708D01*
X-113720Y270636D01*
X-114300Y269236D01*
Y267720D01*
X-113720Y266320D01*
X-112648Y265248D01*
X-111248Y264668D01*
X-109732D01*
X-108332Y265248D01*
X-108102Y265478D01*
X-106940Y266138D01*
X-105779Y265478D01*
X-105549Y265248D01*
X-104148Y264668D01*
X-102633D01*
X-101232Y265248D01*
X-100161Y266320D01*
X-99581Y267720D01*
Y269236D01*
X-100161Y270636D01*
X-101232Y271708D01*
X-102633Y272288D01*
D02*
G37*
G36*
X247265Y277747D02*
X245749D01*
X244349Y277167D01*
X243277Y276096D01*
X242697Y274695D01*
Y273180D01*
X243277Y271779D01*
X244349Y270707D01*
X245749Y270128D01*
X247265D01*
X248665Y270707D01*
X249737Y271779D01*
X250317Y273180D01*
Y274695D01*
X249737Y276096D01*
X248665Y277167D01*
X247265Y277747D01*
D02*
G37*
G36*
X125218Y277416D02*
X123702D01*
X122302Y276835D01*
X121230Y275764D01*
X120650Y274363D01*
Y272848D01*
X121230Y271447D01*
X122302Y270376D01*
X123702Y269795D01*
X125218D01*
X126618Y270376D01*
X127690Y271447D01*
X128270Y272848D01*
Y274363D01*
X127690Y275764D01*
X126618Y276835D01*
X125218Y277416D01*
D02*
G37*
G36*
X-222000Y277114D02*
X-223516D01*
X-224916Y276534D01*
X-225988Y275462D01*
X-226568Y274062D01*
Y272546D01*
X-225988Y271146D01*
X-224916Y270074D01*
X-223516Y269494D01*
X-222000D01*
X-220600Y270074D01*
X-219528Y271146D01*
X-218948Y272546D01*
Y274062D01*
X-219528Y275462D01*
X-220600Y276534D01*
X-222000Y277114D01*
D02*
G37*
G36*
X88388Y274955D02*
X86872D01*
X85472Y274375D01*
X84400Y273303D01*
X83820Y271903D01*
Y270387D01*
X84400Y268987D01*
X85472Y267915D01*
X86872Y267335D01*
X88388D01*
X89788Y267915D01*
X90860Y268987D01*
X91440Y270387D01*
Y271903D01*
X90860Y273303D01*
X89788Y274375D01*
X88388Y274955D01*
D02*
G37*
G36*
X230814Y274193D02*
X229299D01*
X227899Y273613D01*
X226827Y272541D01*
X226247Y271141D01*
Y269625D01*
X226827Y268225D01*
X227899Y267153D01*
X229299Y266573D01*
X230814D01*
X232215Y267153D01*
X233287Y268225D01*
X233867Y269625D01*
Y271141D01*
X233287Y272541D01*
X232215Y273613D01*
X230814Y274193D01*
D02*
G37*
G36*
X176352Y273845D02*
X174836D01*
X173436Y273265D01*
X172364Y272194D01*
X171784Y270793D01*
Y269277D01*
X172364Y267877D01*
X173436Y266805D01*
X174836Y266225D01*
X176352D01*
X177752Y266805D01*
X178824Y267877D01*
X179404Y269277D01*
Y270793D01*
X178824Y272194D01*
X177752Y273265D01*
X176352Y273845D01*
D02*
G37*
G36*
X273537Y273050D02*
X272022D01*
X270621Y272470D01*
X269550Y271398D01*
X268969Y269998D01*
Y268482D01*
X269550Y267082D01*
X270621Y266010D01*
X272022Y265430D01*
X273537D01*
X274938Y266010D01*
X276010Y267082D01*
X276590Y268482D01*
Y269998D01*
X276010Y271398D01*
X274938Y272470D01*
X273537Y273050D01*
D02*
G37*
G36*
X-53309Y264479D02*
X-54825D01*
X-56225Y263899D01*
X-56888Y263235D01*
X-57552Y263899D01*
X-58952Y264479D01*
X-60468D01*
X-61868Y263899D01*
X-62940Y262827D01*
X-63520Y261427D01*
Y259911D01*
X-62940Y258510D01*
X-61868Y257439D01*
X-60468Y256859D01*
X-58952D01*
X-57552Y257439D01*
X-56888Y258102D01*
X-56225Y257439D01*
X-54825Y256859D01*
X-53309D01*
X-51909Y257439D01*
X-50837Y258510D01*
X-50257Y259911D01*
Y261427D01*
X-50837Y262827D01*
X-51909Y263899D01*
X-53309Y264479D01*
D02*
G37*
G36*
X200088Y269250D02*
X198572D01*
X197172Y268670D01*
X196100Y267598D01*
X195520Y266198D01*
Y264682D01*
X196100Y263282D01*
X197172Y262210D01*
X198572Y261630D01*
X200088D01*
X201488Y262210D01*
X202560Y263282D01*
X203140Y264682D01*
Y266198D01*
X202560Y267598D01*
X201488Y268670D01*
X200088Y269250D01*
D02*
G37*
G36*
X214498Y267037D02*
X212983D01*
X211582Y266457D01*
X210511Y265385D01*
X209930Y263984D01*
Y262469D01*
X210461Y261188D01*
X210254Y260777D01*
X209334Y259731D01*
X209019Y259861D01*
X207503D01*
X206103Y259281D01*
X205031Y258209D01*
X204451Y256809D01*
Y255293D01*
X205031Y253893D01*
X206103Y252821D01*
X207503Y252241D01*
X209019D01*
X210419Y252821D01*
X211491Y253893D01*
X212071Y255293D01*
Y256809D01*
X211541Y258089D01*
X211747Y258501D01*
X212668Y259547D01*
X212983Y259417D01*
X214498D01*
X215899Y259997D01*
X216970Y261068D01*
X217550Y262469D01*
Y263984D01*
X216970Y265385D01*
X215899Y266457D01*
X214498Y267037D01*
D02*
G37*
G36*
X-199648Y264922D02*
X-201164D01*
X-202564Y264342D01*
X-203636Y263270D01*
X-204216Y261870D01*
Y260354D01*
X-203636Y258954D01*
X-202564Y257882D01*
X-201164Y257302D01*
X-199648D01*
X-198248Y257882D01*
X-197176Y258954D01*
X-196596Y260354D01*
Y261870D01*
X-197176Y263270D01*
X-198248Y264342D01*
X-199648Y264922D01*
D02*
G37*
G36*
X231005Y261239D02*
X229490D01*
X228089Y260659D01*
X227018Y259587D01*
X226438Y258187D01*
X226250Y258032D01*
X224660Y257300D01*
X223727Y257686D01*
X222211D01*
X220811Y257106D01*
X219739Y256034D01*
X219159Y254634D01*
Y253118D01*
X219739Y251718D01*
X220811Y250646D01*
X222211Y250066D01*
X223727D01*
X225127Y250646D01*
X226199Y251718D01*
X226779Y253118D01*
X226967Y253273D01*
X228557Y254006D01*
X229490Y253619D01*
X231005D01*
X232406Y254199D01*
X233478Y255271D01*
X234058Y256671D01*
Y258187D01*
X233478Y259587D01*
X232406Y260659D01*
X231005Y261239D01*
D02*
G37*
G36*
X25708Y261570D02*
X24193D01*
X22792Y260990D01*
X21721Y259918D01*
X21141Y258518D01*
Y257002D01*
X21721Y255602D01*
X22792Y254530D01*
X24193Y253950D01*
X25708D01*
X27109Y254530D01*
X28181Y255602D01*
X28761Y257002D01*
Y258518D01*
X28181Y259918D01*
X27109Y260990D01*
X25708Y261570D01*
D02*
G37*
G36*
X-18101Y261922D02*
X-19999D01*
X-21752Y261196D01*
X-23094Y259854D01*
X-23820Y258101D01*
Y256203D01*
X-23094Y254450D01*
X-21752Y253108D01*
X-19999Y252382D01*
X-18101D01*
X-16348Y253108D01*
X-15006Y254450D01*
X-14280Y256203D01*
Y258101D01*
X-15006Y259854D01*
X-16348Y261196D01*
X-18101Y261922D01*
D02*
G37*
G36*
X260219Y257852D02*
X258703D01*
X257303Y257272D01*
X256231Y256201D01*
X255651Y254800D01*
Y253285D01*
X256231Y251884D01*
X257303Y250812D01*
X258703Y250232D01*
X260219D01*
X261619Y250812D01*
X262691Y251884D01*
X263271Y253285D01*
Y254800D01*
X262691Y256201D01*
X261619Y257272D01*
X260219Y257852D01*
D02*
G37*
G36*
X277618Y257048D02*
X276102D01*
X274702Y256468D01*
X273630Y255396D01*
X273050Y253996D01*
Y252480D01*
X273630Y251080D01*
X274702Y250008D01*
X276102Y249428D01*
X277618D01*
X279018Y250008D01*
X280090Y251080D01*
X280670Y252480D01*
Y253996D01*
X280090Y255396D01*
X279018Y256468D01*
X277618Y257048D01*
D02*
G37*
G36*
X-40154Y256160D02*
X-41669D01*
X-43070Y255580D01*
X-44141Y254508D01*
X-44721Y253108D01*
Y251592D01*
X-44141Y250192D01*
X-43070Y249120D01*
X-41669Y248540D01*
X-40154D01*
X-38753Y249120D01*
X-37682Y250192D01*
X-37102Y251592D01*
Y253108D01*
X-37682Y254508D01*
X-38753Y255580D01*
X-40154Y256160D01*
D02*
G37*
G36*
X-105922Y254000D02*
X-107438D01*
X-108838Y253420D01*
X-109910Y252348D01*
X-110490Y250948D01*
Y249432D01*
X-109910Y248032D01*
X-108838Y246960D01*
X-107438Y246380D01*
X-105922D01*
X-104522Y246960D01*
X-103450Y248032D01*
X-102870Y249432D01*
Y250948D01*
X-103450Y252348D01*
X-104522Y253420D01*
X-105922Y254000D01*
D02*
G37*
G36*
X-153685Y253035D02*
X-155201D01*
X-156601Y252455D01*
X-157673Y251383D01*
X-158253Y249983D01*
Y248467D01*
X-157673Y247067D01*
X-156601Y245995D01*
X-155201Y245415D01*
X-153685D01*
X-152285Y245995D01*
X-151213Y247067D01*
X-150633Y248467D01*
Y249983D01*
X-151213Y251383D01*
X-152285Y252455D01*
X-153685Y253035D01*
D02*
G37*
G36*
X-142879Y251818D02*
X-144395D01*
X-145795Y251238D01*
X-146867Y250166D01*
X-147447Y248766D01*
Y247250D01*
X-146867Y245850D01*
X-145795Y244778D01*
X-144395Y244198D01*
X-142879D01*
X-141479Y244778D01*
X-140407Y245850D01*
X-139827Y247250D01*
Y248766D01*
X-140407Y250166D01*
X-141479Y251238D01*
X-142879Y251818D01*
D02*
G37*
G36*
X46989Y251501D02*
X45473D01*
X44073Y250921D01*
X43001Y249849D01*
X42421Y248449D01*
Y246933D01*
X43001Y245533D01*
X44073Y244461D01*
X45473Y243881D01*
X46989D01*
X48390Y244461D01*
X49461Y245533D01*
X50041Y246933D01*
Y248449D01*
X49461Y249849D01*
X48390Y250921D01*
X46989Y251501D01*
D02*
G37*
G36*
X60448Y247650D02*
X58932D01*
X57532Y247070D01*
X56460Y245998D01*
X55880Y244598D01*
Y243082D01*
X56460Y241682D01*
X57532Y240610D01*
X58932Y240030D01*
X60448D01*
X61848Y240610D01*
X62920Y241682D01*
X63500Y243082D01*
Y244598D01*
X62920Y245998D01*
X61848Y247070D01*
X60448Y247650D01*
D02*
G37*
G36*
X258792Y246410D02*
X257276D01*
X255876Y245830D01*
X254804Y244758D01*
X254224Y243358D01*
Y241842D01*
X254804Y240442D01*
X255876Y239370D01*
X257276Y238790D01*
X258792D01*
X260192Y239370D01*
X261264Y240442D01*
X261844Y241842D01*
Y243358D01*
X261264Y244758D01*
X260192Y245830D01*
X258792Y246410D01*
D02*
G37*
G36*
X916Y255401D02*
X-1459D01*
X-3753Y254786D01*
X-5810Y253599D01*
X-7489Y251920D01*
X-8677Y249863D01*
X-9291Y247569D01*
Y245194D01*
X-8677Y242900D01*
X-7489Y240843D01*
X-5810Y239163D01*
X-3753Y237976D01*
X-1459Y237361D01*
X916D01*
X3210Y237976D01*
X5267Y239163D01*
X6946Y240843D01*
X8134Y242900D01*
X8748Y245194D01*
Y247569D01*
X8134Y249863D01*
X6946Y251920D01*
X5267Y253599D01*
X3210Y254786D01*
X916Y255401D01*
D02*
G37*
G36*
X173355Y254081D02*
X154305D01*
Y235032D01*
X173355D01*
Y254081D01*
D02*
G37*
G36*
X15998Y242570D02*
X14482D01*
X13082Y241990D01*
X12010Y240918D01*
X11430Y239518D01*
Y238002D01*
X12010Y236602D01*
X13082Y235530D01*
X14482Y234950D01*
X15998D01*
X17398Y235530D01*
X18470Y236602D01*
X19050Y238002D01*
Y239518D01*
X18470Y240918D01*
X17398Y241990D01*
X15998Y242570D01*
D02*
G37*
G36*
X140969Y253512D02*
X121919D01*
Y234462D01*
X140969D01*
Y253512D01*
D02*
G37*
G36*
X107298D02*
X104790D01*
X102367Y252863D01*
X100195Y251609D01*
X98422Y249835D01*
X97168Y247663D01*
X96519Y245241D01*
Y242733D01*
X97168Y240310D01*
X98422Y238139D01*
X100195Y236365D01*
X102367Y235111D01*
X104790Y234462D01*
X107298D01*
X109720Y235111D01*
X111892Y236365D01*
X113666Y238139D01*
X114920Y240310D01*
X115569Y242733D01*
Y245241D01*
X114920Y247663D01*
X113666Y249835D01*
X111892Y251609D01*
X109720Y252863D01*
X107298Y253512D01*
D02*
G37*
G36*
X2028Y234950D02*
X512D01*
X-888Y234370D01*
X-1960Y233298D01*
X-2540Y231898D01*
Y230382D01*
X-1960Y228982D01*
X-888Y227910D01*
X512Y227330D01*
X2028D01*
X3428Y227910D01*
X4500Y228982D01*
X5080Y230382D01*
Y231898D01*
X4500Y233298D01*
X3428Y234370D01*
X2028Y234950D01*
D02*
G37*
G36*
X224707Y245240D02*
X222332D01*
X220038Y244625D01*
X217981Y243438D01*
X216302Y241759D01*
X215114Y239702D01*
X214500Y237408D01*
Y235033D01*
X215114Y232739D01*
X216302Y230682D01*
X217981Y229002D01*
X220038Y227815D01*
X222332Y227200D01*
X224707D01*
X227001Y227815D01*
X229058Y229002D01*
X230738Y230682D01*
X231925Y232739D01*
X232540Y235033D01*
Y237408D01*
X231925Y239702D01*
X230738Y241759D01*
X229058Y243438D01*
X227001Y244625D01*
X224707Y245240D01*
D02*
G37*
G36*
X194227D02*
X191852D01*
X189558Y244625D01*
X187502Y243438D01*
X185822Y241759D01*
X184635Y239702D01*
X184020Y237408D01*
Y235033D01*
X184635Y232739D01*
X185822Y230682D01*
X187502Y229002D01*
X189558Y227815D01*
X191852Y227200D01*
X194227D01*
X196521Y227815D01*
X198578Y229002D01*
X200258Y230682D01*
X201445Y232739D01*
X202060Y235033D01*
Y237408D01*
X201445Y239702D01*
X200258Y241759D01*
X198578Y243438D01*
X196521Y244625D01*
X194227Y245240D01*
D02*
G37*
G36*
X-289540Y246083D02*
X-291791Y245635D01*
X-293700Y244360D01*
X-294975Y242451D01*
X-295423Y240200D01*
Y232200D01*
X-294975Y229949D01*
X-293700Y228040D01*
X-291791Y226765D01*
X-289540Y226317D01*
X-287289Y226765D01*
X-285380Y228040D01*
X-284105Y229949D01*
X-283657Y232200D01*
Y240200D01*
X-284105Y242451D01*
X-285380Y244360D01*
X-287289Y245635D01*
X-289540Y246083D01*
D02*
G37*
G36*
X-88982Y238890D02*
X-91357D01*
X-93652Y238275D01*
X-95708Y237088D01*
X-97388Y235408D01*
X-98575Y233352D01*
X-99190Y231057D01*
Y228682D01*
X-98575Y226388D01*
X-97388Y224332D01*
X-95708Y222652D01*
X-93652Y221465D01*
X-91357Y220850D01*
X-88982D01*
X-86688Y221465D01*
X-84632Y222652D01*
X-82952Y224332D01*
X-81765Y226388D01*
X-81150Y228682D01*
Y231057D01*
X-81765Y233352D01*
X-82952Y235408D01*
X-84632Y237088D01*
X-86688Y238275D01*
X-88982Y238890D01*
D02*
G37*
G36*
X-20578Y228219D02*
X-22094D01*
X-23494Y227639D01*
X-24566Y226567D01*
X-25146Y225167D01*
Y223651D01*
X-24566Y222251D01*
X-23494Y221179D01*
X-22094Y220599D01*
X-20578D01*
X-19178Y221179D01*
X-18106Y222251D01*
X-17526Y223651D01*
Y225167D01*
X-18106Y226567D01*
X-19178Y227639D01*
X-20578Y228219D01*
D02*
G37*
G36*
X-161178Y227181D02*
X-162694D01*
X-164094Y226601D01*
X-165166Y225530D01*
X-165746Y224129D01*
Y222614D01*
X-165166Y221213D01*
X-164094Y220141D01*
X-162694Y219561D01*
X-161178D01*
X-159778Y220141D01*
X-158706Y221213D01*
X-158126Y222614D01*
Y224129D01*
X-158706Y225530D01*
X-159778Y226601D01*
X-161178Y227181D01*
D02*
G37*
G36*
X-187340Y224368D02*
X-188856D01*
X-190256Y223788D01*
X-191328Y222716D01*
X-191908Y221316D01*
Y219800D01*
X-191328Y218400D01*
X-190256Y217328D01*
X-188856Y216748D01*
X-187340D01*
X-185940Y217328D01*
X-184868Y218400D01*
X-184288Y219800D01*
Y221316D01*
X-184868Y222716D01*
X-185940Y223788D01*
X-187340Y224368D01*
D02*
G37*
G36*
X23618Y220853D02*
X22102D01*
X20702Y220273D01*
X19630Y219201D01*
X19050Y217801D01*
Y216285D01*
X19630Y214885D01*
X20702Y213813D01*
X22102Y213233D01*
X23618D01*
X25018Y213813D01*
X26090Y214885D01*
X26670Y216285D01*
Y217801D01*
X26090Y219201D01*
X25018Y220273D01*
X23618Y220853D01*
D02*
G37*
G36*
X-34519Y219993D02*
X-36035D01*
X-37435Y219413D01*
X-38507Y218342D01*
X-39087Y216941D01*
Y215425D01*
X-38507Y214025D01*
X-37435Y212953D01*
X-36035Y212373D01*
X-34519D01*
X-33119Y212953D01*
X-32047Y214025D01*
X-31467Y215425D01*
Y216941D01*
X-32047Y218342D01*
X-33119Y219413D01*
X-34519Y219993D01*
D02*
G37*
G36*
X165084Y228682D02*
X162576D01*
X160153Y228032D01*
X157981Y226778D01*
X156208Y225005D01*
X154954Y222833D01*
X154305Y220410D01*
Y217903D01*
X154954Y215480D01*
X156208Y213308D01*
X157981Y211535D01*
X160153Y210281D01*
X162576Y209632D01*
X165084D01*
X167506Y210281D01*
X169678Y211535D01*
X171452Y213308D01*
X172706Y215480D01*
X173355Y217903D01*
Y220410D01*
X172706Y222833D01*
X171452Y225005D01*
X169678Y226778D01*
X167506Y228032D01*
X165084Y228682D01*
D02*
G37*
G36*
X683Y215825D02*
X-833D01*
X-2233Y215245D01*
X-3305Y214173D01*
X-3885Y212773D01*
Y211257D01*
X-3305Y209857D01*
X-2233Y208785D01*
X-833Y208205D01*
X683D01*
X2083Y208785D01*
X3155Y209857D01*
X3735Y211257D01*
Y212773D01*
X3155Y214173D01*
X2083Y215245D01*
X683Y215825D01*
D02*
G37*
G36*
X51304Y215138D02*
X49788D01*
X48388Y214558D01*
X47316Y213486D01*
X46736Y212086D01*
Y210570D01*
X47316Y209170D01*
X48388Y208098D01*
X49788Y207518D01*
X51304D01*
X52704Y208098D01*
X53776Y209170D01*
X54356Y210570D01*
Y212086D01*
X53776Y213486D01*
X52704Y214558D01*
X51304Y215138D01*
D02*
G37*
G36*
X-74845Y211256D02*
X-76361D01*
X-77761Y210676D01*
X-78833Y209604D01*
X-79413Y208204D01*
Y206688D01*
X-78833Y205288D01*
X-77761Y204216D01*
X-76361Y203636D01*
X-74845D01*
X-73445Y204216D01*
X-72373Y205288D01*
X-71793Y206688D01*
Y208204D01*
X-72373Y209604D01*
X-73445Y210676D01*
X-74845Y211256D01*
D02*
G37*
G36*
X-13434Y208407D02*
X-14950D01*
X-16350Y207827D01*
X-17422Y206755D01*
X-18002Y205355D01*
Y203839D01*
X-17422Y202439D01*
X-16350Y201367D01*
X-14950Y200787D01*
X-13434D01*
X-12033Y201367D01*
X-10962Y202439D01*
X-10382Y203839D01*
Y205355D01*
X-10962Y206755D01*
X-12033Y207827D01*
X-13434Y208407D01*
D02*
G37*
G36*
X140969Y219175D02*
X121919D01*
Y200125D01*
X140969D01*
Y219175D01*
D02*
G37*
G36*
X107298D02*
X104790D01*
X102367Y218526D01*
X100195Y217272D01*
X98422Y215498D01*
X97168Y213326D01*
X96519Y210904D01*
Y208396D01*
X97168Y205973D01*
X98422Y203801D01*
X100195Y202028D01*
X102367Y200774D01*
X104790Y200125D01*
X107298D01*
X109720Y200774D01*
X111892Y202028D01*
X113666Y203801D01*
X114920Y205973D01*
X115569Y208396D01*
Y210904D01*
X114920Y213326D01*
X113666Y215498D01*
X111892Y217272D01*
X109720Y218526D01*
X107298Y219175D01*
D02*
G37*
G36*
X-121004Y202061D02*
X-123379D01*
X-125673Y201446D01*
X-127730Y200259D01*
X-129409Y198580D01*
X-130597Y196523D01*
X-131212Y194229D01*
Y192708D01*
X-131934Y192223D01*
X-132968Y191803D01*
X-134116Y192278D01*
X-135632D01*
X-137032Y191698D01*
X-138104Y190626D01*
X-138684Y189226D01*
Y187710D01*
X-138104Y186310D01*
X-137032Y185238D01*
X-135632Y184658D01*
X-134116D01*
X-132716Y185238D01*
X-131644Y186310D01*
X-131280Y187188D01*
X-129553Y187500D01*
X-129383Y187476D01*
X-127730Y185823D01*
X-125673Y184636D01*
X-123379Y184021D01*
X-121004D01*
X-118710Y184636D01*
X-116653Y185823D01*
X-114974Y187503D01*
X-113786Y189560D01*
X-113172Y191854D01*
Y194229D01*
X-113786Y196523D01*
X-114974Y198580D01*
X-116653Y200259D01*
X-118710Y201446D01*
X-121004Y202061D01*
D02*
G37*
G36*
X-144022Y187960D02*
X-145538D01*
X-146938Y187380D01*
X-147829Y186490D01*
X-148844Y186390D01*
X-149859Y186490D01*
X-150750Y187380D01*
X-152150Y187960D01*
X-153666D01*
X-155066Y187380D01*
X-156138Y186308D01*
X-156718Y184908D01*
Y183392D01*
X-156138Y181992D01*
X-155066Y180920D01*
X-153666Y180340D01*
X-152150D01*
X-150750Y180920D01*
X-149859Y181810D01*
X-148844Y181910D01*
X-147829Y181810D01*
X-146938Y180920D01*
X-145538Y180340D01*
X-144022D01*
X-142622Y180920D01*
X-141550Y181992D01*
X-140970Y183392D01*
Y184908D01*
X-141550Y186308D01*
X-142622Y187380D01*
X-144022Y187960D01*
D02*
G37*
G36*
X-100080Y192532D02*
X-101596D01*
X-102996Y191952D01*
X-104068Y190880D01*
X-104648Y189480D01*
Y187964D01*
X-104068Y186564D01*
X-102996Y185492D01*
X-101596Y184912D01*
X-100080D01*
X-98680Y185492D01*
X-97608Y186564D01*
X-97028Y187964D01*
Y189480D01*
X-97608Y190880D01*
X-98680Y191952D01*
X-100080Y192532D01*
D02*
G37*
G36*
X116460Y192067D02*
X114944D01*
X113544Y191487D01*
X112472Y190415D01*
X111892Y189015D01*
Y187499D01*
X112472Y186099D01*
X113544Y185027D01*
X114944Y184447D01*
X116460D01*
X117860Y185027D01*
X118932Y186099D01*
X119512Y187499D01*
Y189015D01*
X118932Y190415D01*
X117860Y191487D01*
X116460Y192067D01*
D02*
G37*
G36*
X282952Y190754D02*
X281436D01*
X280036Y190174D01*
X278964Y189102D01*
X278384Y187702D01*
Y186186D01*
X278964Y184786D01*
X280036Y183714D01*
X281436Y183134D01*
X282952D01*
X284352Y183714D01*
X284751Y184113D01*
X285206Y184124D01*
X286726Y183637D01*
X287092Y182754D01*
X288164Y181682D01*
X289564Y181102D01*
X291080D01*
X292480Y181682D01*
X293552Y182754D01*
X294132Y184154D01*
Y185670D01*
X293552Y187070D01*
X292480Y188142D01*
X291080Y188722D01*
X289564D01*
X288164Y188142D01*
X287765Y187743D01*
X287310Y187732D01*
X285790Y188219D01*
X285424Y189102D01*
X284352Y190174D01*
X282952Y190754D01*
D02*
G37*
G36*
X-130052Y182880D02*
X-131568D01*
X-132968Y182300D01*
X-134040Y181228D01*
X-134620Y179828D01*
Y178312D01*
X-134040Y176912D01*
X-132968Y175840D01*
X-131568Y175260D01*
X-130052D01*
X-128652Y175840D01*
X-127580Y176912D01*
X-127000Y178312D01*
Y179828D01*
X-127580Y181228D01*
X-128652Y182300D01*
X-130052Y182880D01*
D02*
G37*
G36*
X75688Y175260D02*
X74172D01*
X72772Y174680D01*
X71700Y173608D01*
X71120Y172208D01*
Y170692D01*
X71700Y169292D01*
X72772Y168220D01*
X74172Y167640D01*
X75688D01*
X77088Y168220D01*
X78160Y169292D01*
X78740Y170692D01*
Y172208D01*
X78160Y173608D01*
X77088Y174680D01*
X75688Y175260D01*
D02*
G37*
G36*
X108466Y167719D02*
X106951D01*
X105550Y167139D01*
X104478Y166067D01*
X103898Y164667D01*
Y163151D01*
X104478Y161751D01*
X105550Y160679D01*
X106951Y160099D01*
X108466D01*
X109867Y160679D01*
X110938Y161751D01*
X111518Y163151D01*
Y164667D01*
X110938Y166067D01*
X109867Y167139D01*
X108466Y167719D01*
D02*
G37*
G36*
X-41152Y167041D02*
X-42668D01*
X-44068Y166461D01*
X-45140Y165389D01*
X-45720Y163989D01*
Y162473D01*
X-45140Y161073D01*
X-44068Y160001D01*
X-42668Y159421D01*
X-41152D01*
X-39752Y160001D01*
X-38680Y161073D01*
X-38100Y162473D01*
Y163989D01*
X-38680Y165389D01*
X-39752Y166461D01*
X-41152Y167041D01*
D02*
G37*
G36*
X-11942Y166370D02*
X-13458D01*
X-14858Y165790D01*
X-15930Y164718D01*
X-16510Y163318D01*
Y161802D01*
X-15930Y160402D01*
X-14858Y159330D01*
X-13458Y158750D01*
X-11942D01*
X-10542Y159330D01*
X-9470Y160402D01*
X-8890Y161802D01*
Y163318D01*
X-9470Y164718D01*
X-10542Y165790D01*
X-11942Y166370D01*
D02*
G37*
G36*
X-270147Y175896D02*
X-289196D01*
Y156846D01*
X-270147D01*
Y175896D01*
D02*
G37*
G36*
X24126Y171704D02*
X22610D01*
X21210Y171124D01*
X20138Y170052D01*
X19558Y168652D01*
Y167136D01*
X20138Y165736D01*
X21009Y164865D01*
X21210Y164581D01*
X21208Y162740D01*
X20900Y162432D01*
X20320Y161032D01*
Y159516D01*
X20900Y158116D01*
X21972Y157044D01*
X23372Y156464D01*
X24888D01*
X26288Y157044D01*
X27360Y158116D01*
X27940Y159516D01*
Y161032D01*
X27360Y162432D01*
X26489Y163304D01*
X26288Y163587D01*
X26290Y165428D01*
X26598Y165736D01*
X27178Y167136D01*
Y168652D01*
X26598Y170052D01*
X25526Y171124D01*
X24126Y171704D01*
D02*
G37*
G36*
X-174502Y163830D02*
X-176018D01*
X-177418Y163250D01*
X-178490Y162178D01*
X-179070Y160778D01*
Y159262D01*
X-178490Y157862D01*
X-177418Y156790D01*
X-176018Y156210D01*
X-174502D01*
X-173102Y156790D01*
X-172030Y157862D01*
X-171450Y159262D01*
Y160778D01*
X-172030Y162178D01*
X-173102Y163250D01*
X-174502Y163830D01*
D02*
G37*
G36*
X-143864Y174121D02*
X-146239D01*
X-148533Y173507D01*
X-150590Y172319D01*
X-152269Y170640D01*
X-153457Y168583D01*
X-154072Y166289D01*
Y163914D01*
X-153457Y161620D01*
X-152269Y159563D01*
X-150590Y157883D01*
X-148533Y156696D01*
X-146239Y156081D01*
X-143864D01*
X-141570Y156696D01*
X-139513Y157883D01*
X-137834Y159563D01*
X-136646Y161620D01*
X-136032Y163914D01*
Y166289D01*
X-136646Y168583D01*
X-137834Y170640D01*
X-139513Y172319D01*
X-141570Y173507D01*
X-143864Y174121D01*
D02*
G37*
G36*
X291465Y174625D02*
X272415D01*
Y155575D01*
X291465D01*
Y174625D01*
D02*
G37*
G36*
X-188472Y162814D02*
X-189988D01*
X-191388Y162234D01*
X-192460Y161162D01*
X-193040Y159762D01*
Y158246D01*
X-192460Y156846D01*
X-191388Y155774D01*
X-189988Y155194D01*
X-188472D01*
X-187072Y155774D01*
X-186000Y156846D01*
X-185420Y158246D01*
Y159762D01*
X-186000Y161162D01*
X-187072Y162234D01*
X-188472Y162814D01*
D02*
G37*
G36*
X-86872Y160020D02*
X-88388D01*
X-89788Y159440D01*
X-90860Y158368D01*
X-91440Y156968D01*
Y155452D01*
X-90860Y154052D01*
X-89788Y152980D01*
X-88388Y152400D01*
X-86872D01*
X-85472Y152980D01*
X-84400Y154052D01*
X-83820Y155452D01*
Y156968D01*
X-84400Y158368D01*
X-85472Y159440D01*
X-86872Y160020D01*
D02*
G37*
G36*
X108466Y154488D02*
X106951D01*
X105550Y153908D01*
X104478Y152836D01*
X103898Y151436D01*
Y149920D01*
X104478Y148520D01*
X105550Y147448D01*
X106951Y146868D01*
X108466D01*
X109867Y147448D01*
X110938Y148520D01*
X111518Y149920D01*
Y151436D01*
X110938Y152836D01*
X109867Y153908D01*
X108466Y154488D01*
D02*
G37*
G36*
X-79252Y152400D02*
X-80768D01*
X-82168Y151820D01*
X-83240Y150748D01*
X-83820Y149348D01*
Y147832D01*
X-85195Y146507D01*
X-85251Y146530D01*
X-86767D01*
X-88167Y145950D01*
X-89239Y144878D01*
X-89819Y143478D01*
Y141962D01*
X-89239Y140562D01*
X-88167Y139490D01*
X-86767Y138910D01*
X-85251D01*
X-83851Y139490D01*
X-82779Y140562D01*
X-82199Y141962D01*
Y143478D01*
X-80824Y144803D01*
X-80768Y144780D01*
X-79252D01*
X-77852Y145360D01*
X-76780Y146432D01*
X-76200Y147832D01*
Y149348D01*
X-76780Y150748D01*
X-77852Y151820D01*
X-79252Y152400D01*
D02*
G37*
G36*
X69338Y152908D02*
X67822D01*
X66422Y152328D01*
X65350Y151256D01*
X64770Y149856D01*
Y148340D01*
X65350Y146940D01*
X66422Y145868D01*
X67822Y145288D01*
X69338D01*
X70738Y145868D01*
X71810Y146940D01*
X72390Y148340D01*
Y149856D01*
X71810Y151256D01*
X70738Y152328D01*
X69338Y152908D01*
D02*
G37*
G36*
X200494Y152585D02*
X198978D01*
X197578Y152005D01*
X196506Y150933D01*
X195926Y149533D01*
Y148017D01*
X196506Y146617D01*
X197578Y145545D01*
X198978Y144965D01*
X200494D01*
X201894Y145545D01*
X202966Y146617D01*
X203546Y148017D01*
Y149533D01*
X202966Y150933D01*
X201894Y152005D01*
X200494Y152585D01*
D02*
G37*
G36*
X32000Y152654D02*
X30484D01*
X29084Y152074D01*
X28012Y151002D01*
X27432Y149602D01*
Y148086D01*
X28012Y146686D01*
X29084Y145614D01*
X30484Y145034D01*
X32000D01*
X33400Y145614D01*
X35052Y144751D01*
Y144022D01*
X35632Y142622D01*
X36704Y141550D01*
X38104Y140970D01*
X39620D01*
X41020Y141550D01*
X42092Y142622D01*
X42672Y144022D01*
Y145538D01*
X42092Y146938D01*
X41020Y148010D01*
X39620Y148590D01*
X38104D01*
X36704Y148010D01*
X35052Y148873D01*
Y149602D01*
X34472Y151002D01*
X33400Y152074D01*
X32000Y152654D01*
D02*
G37*
G36*
X-128446Y147485D02*
X-129962D01*
X-131362Y146905D01*
X-132434Y145833D01*
X-133014Y144433D01*
Y142917D01*
X-132434Y141517D01*
X-131362Y140445D01*
X-129962Y139865D01*
X-128446D01*
X-127046Y140445D01*
X-125974Y141517D01*
X-125394Y142917D01*
Y144433D01*
X-125974Y145833D01*
X-127046Y146905D01*
X-128446Y147485D01*
D02*
G37*
G36*
X77541Y139642D02*
X76026D01*
X74625Y139062D01*
X73554Y137991D01*
X72974Y136590D01*
Y135075D01*
X73554Y133674D01*
X74625Y132603D01*
X76026Y132022D01*
X77541D01*
X78942Y132603D01*
X80014Y133674D01*
X80594Y135075D01*
Y136590D01*
X80014Y137991D01*
X78942Y139062D01*
X77541Y139642D01*
D02*
G37*
G36*
X-278417Y150496D02*
X-280926D01*
X-283348Y149847D01*
X-285520Y148593D01*
X-287293Y146820D01*
X-288547Y144648D01*
X-289196Y142225D01*
Y139717D01*
X-288547Y137295D01*
X-287293Y135123D01*
X-285520Y133349D01*
X-283348Y132095D01*
X-280926Y131446D01*
X-278417D01*
X-275995Y132095D01*
X-273823Y133349D01*
X-272050Y135123D01*
X-270796Y137295D01*
X-270147Y139717D01*
Y142225D01*
X-270796Y144648D01*
X-272050Y146820D01*
X-273823Y148593D01*
X-275995Y149847D01*
X-278417Y150496D01*
D02*
G37*
G36*
X130514Y138085D02*
X128998D01*
X127598Y137505D01*
X126526Y136433D01*
X125946Y135032D01*
Y133517D01*
X126526Y132116D01*
X127598Y131045D01*
X128998Y130465D01*
X130514D01*
X131914Y131045D01*
X132986Y132116D01*
X133566Y133517D01*
Y135032D01*
X132986Y136433D01*
X131914Y137505D01*
X130514Y138085D01*
D02*
G37*
G36*
X283194Y149225D02*
X280686D01*
X278263Y148576D01*
X276091Y147322D01*
X274318Y145549D01*
X273064Y143377D01*
X272415Y140954D01*
Y138446D01*
X273064Y136024D01*
X274318Y133852D01*
X276091Y132078D01*
X278263Y130824D01*
X280686Y130175D01*
X283194D01*
X285616Y130824D01*
X287788Y132078D01*
X289562Y133852D01*
X290816Y136024D01*
X291465Y138446D01*
Y140954D01*
X290816Y143377D01*
X289562Y145549D01*
X287788Y147322D01*
X285616Y148576D01*
X283194Y149225D01*
D02*
G37*
G36*
X-143864Y144911D02*
X-146239D01*
X-148533Y144297D01*
X-150590Y143109D01*
X-152269Y141430D01*
X-153457Y139373D01*
X-154072Y137079D01*
Y134704D01*
X-153457Y132410D01*
X-152269Y130353D01*
X-150590Y128673D01*
X-148533Y127486D01*
X-146239Y126871D01*
X-143864D01*
X-141570Y127486D01*
X-139513Y128673D01*
X-137834Y130353D01*
X-136646Y132410D01*
X-136032Y134704D01*
Y137079D01*
X-136646Y139373D01*
X-137834Y141430D01*
X-139513Y143109D01*
X-141570Y144297D01*
X-143864Y144911D01*
D02*
G37*
G36*
X-2973Y132729D02*
X-4489D01*
X-5889Y132149D01*
X-6961Y131077D01*
X-7541Y129677D01*
Y128161D01*
X-6961Y126761D01*
X-5889Y125689D01*
X-4489Y125109D01*
X-2973D01*
X-1573Y125689D01*
X-501Y126761D01*
X79Y128161D01*
Y129677D01*
X-501Y131077D01*
X-1573Y132149D01*
X-2973Y132729D01*
D02*
G37*
G36*
X-115828Y133096D02*
X-117344D01*
X-118744Y132516D01*
X-119816Y131444D01*
X-120396Y130044D01*
Y128528D01*
X-119816Y127128D01*
X-118744Y126056D01*
X-117344Y125476D01*
X-115828D01*
X-114428Y126056D01*
X-114165Y126319D01*
X-113279Y125999D01*
X-112522Y125447D01*
Y124210D01*
X-111942Y122810D01*
X-110870Y121738D01*
X-109470Y121158D01*
X-107954D01*
X-106554Y121738D01*
X-105482Y122810D01*
X-104902Y124210D01*
Y125726D01*
X-105482Y127126D01*
X-106554Y128198D01*
X-107954Y128778D01*
X-109470D01*
X-110870Y128198D01*
X-111133Y127935D01*
X-112019Y128255D01*
X-112776Y128807D01*
Y130044D01*
X-113356Y131444D01*
X-114428Y132516D01*
X-115828Y133096D01*
D02*
G37*
G36*
X-80364Y133481D02*
X-82739D01*
X-85033Y132866D01*
X-87090Y131679D01*
X-88769Y130000D01*
X-89957Y127943D01*
X-90571Y125649D01*
Y123274D01*
X-89957Y120980D01*
X-88769Y118923D01*
X-87090Y117243D01*
X-85033Y116056D01*
X-82739Y115441D01*
X-80364D01*
X-78070Y116056D01*
X-76013Y117243D01*
X-74334Y118923D01*
X-73146Y120980D01*
X-72531Y123274D01*
Y125649D01*
X-73146Y127943D01*
X-74334Y130000D01*
X-76013Y131679D01*
X-78070Y132866D01*
X-80364Y133481D01*
D02*
G37*
G36*
X-55779Y117983D02*
X-57295D01*
X-58695Y117403D01*
X-59767Y116331D01*
X-60347Y114931D01*
Y113415D01*
X-59767Y112015D01*
X-58695Y110943D01*
X-57295Y110363D01*
X-55779D01*
X-54378Y110943D01*
X-53307Y112015D01*
X-52727Y113415D01*
Y114931D01*
X-53307Y116331D01*
X-54378Y117403D01*
X-55779Y117983D01*
D02*
G37*
G36*
X-99136Y114607D02*
X-100652D01*
X-102052Y114027D01*
X-103124Y112955D01*
X-103704Y111555D01*
Y110039D01*
X-103124Y108639D01*
X-102052Y107567D01*
X-100652Y106987D01*
X-99136D01*
X-97736Y107567D01*
X-96664Y108639D01*
X-96084Y110039D01*
Y111555D01*
X-96664Y112955D01*
X-97736Y114027D01*
X-99136Y114607D01*
D02*
G37*
G36*
X14474Y114300D02*
X12958D01*
X11558Y113720D01*
X10486Y112648D01*
X9906Y111248D01*
Y109732D01*
X10486Y108332D01*
X11558Y107260D01*
X12958Y106680D01*
X14474D01*
X15874Y107260D01*
X16946Y108332D01*
X17526Y109732D01*
Y111248D01*
X16946Y112648D01*
X15874Y113720D01*
X14474Y114300D01*
D02*
G37*
G36*
X-43935Y110732D02*
X-45450D01*
X-46851Y110153D01*
X-47923Y109081D01*
X-48503Y107680D01*
Y106165D01*
X-47923Y104764D01*
X-46851Y103693D01*
X-45450Y103112D01*
X-43935D01*
X-42534Y103693D01*
X-41463Y104764D01*
X-40883Y106165D01*
Y107680D01*
X-41463Y109081D01*
X-42534Y110153D01*
X-43935Y110732D01*
D02*
G37*
G36*
X120138Y110490D02*
X118622D01*
X117222Y109910D01*
X116150Y108838D01*
X115570Y107438D01*
Y105922D01*
X116150Y104522D01*
X117222Y103450D01*
X118622Y102870D01*
X120138D01*
X121538Y103450D01*
X122610Y104522D01*
X123190Y105922D01*
Y107438D01*
X122610Y108838D01*
X121538Y109910D01*
X120138Y110490D01*
D02*
G37*
G36*
X-13043Y107570D02*
X-14558D01*
X-15958Y106990D01*
X-17030Y105919D01*
X-17610Y104518D01*
Y103003D01*
X-17030Y101602D01*
X-15958Y100531D01*
X-14558Y99950D01*
X-13043D01*
X-11642Y100531D01*
X-10570Y101602D01*
X-9990Y103003D01*
Y104518D01*
X-10570Y105919D01*
X-11642Y106990D01*
X-13043Y107570D01*
D02*
G37*
G36*
X-270147Y117476D02*
X-289196D01*
Y98426D01*
X-270147D01*
Y117476D01*
D02*
G37*
G36*
X291465Y116205D02*
X272415D01*
Y97155D01*
X291465D01*
Y116205D01*
D02*
G37*
G36*
X41398Y102870D02*
X39882D01*
X38482Y102290D01*
X37410Y101218D01*
X36830Y99818D01*
Y98302D01*
X37410Y96902D01*
X38482Y95830D01*
X39882Y95250D01*
X41398D01*
X42798Y95830D01*
X43870Y96902D01*
X44450Y98302D01*
Y99818D01*
X43870Y101218D01*
X42798Y102290D01*
X41398Y102870D01*
D02*
G37*
G36*
X-31117Y102605D02*
X-32633D01*
X-34034Y102024D01*
X-35105Y100953D01*
X-35685Y99552D01*
Y98037D01*
X-35105Y96636D01*
X-34034Y95565D01*
X-32633Y94985D01*
X-31117D01*
X-29717Y95565D01*
X-28645Y96636D01*
X-28065Y98037D01*
Y99552D01*
X-28645Y100953D01*
X-29717Y102024D01*
X-31117Y102605D01*
D02*
G37*
G36*
X-55607Y99060D02*
X-57123D01*
X-58523Y98480D01*
X-59595Y97408D01*
X-60175Y96008D01*
Y94492D01*
X-59595Y93092D01*
X-58523Y92020D01*
X-57123Y91440D01*
X-55607D01*
X-54207Y92020D01*
X-53135Y93092D01*
X-52555Y94492D01*
Y96008D01*
X-53135Y97408D01*
X-54207Y98480D01*
X-55607Y99060D01*
D02*
G37*
G36*
X24888Y97218D02*
X23372D01*
X21972Y96638D01*
X20900Y95566D01*
X20320Y94166D01*
Y92650D01*
X20900Y91250D01*
X21972Y90178D01*
X23372Y89598D01*
X24888D01*
X26288Y90178D01*
X27360Y91250D01*
X27940Y92650D01*
Y94166D01*
X27360Y95566D01*
X26288Y96638D01*
X24888Y97218D01*
D02*
G37*
G36*
X14519Y96614D02*
X13003D01*
X11603Y96034D01*
X10531Y94962D01*
X9951Y93562D01*
Y92046D01*
X10531Y90646D01*
X11603Y89574D01*
X13003Y88994D01*
X14519D01*
X15919Y89574D01*
X16991Y90646D01*
X17571Y92046D01*
Y93562D01*
X16991Y94962D01*
X15919Y96034D01*
X14519Y96614D01*
D02*
G37*
G36*
X-278317Y92838D02*
X-278402D01*
Y83821D01*
X-269384D01*
Y83905D01*
X-270086Y86522D01*
X-271440Y88868D01*
X-273355Y90783D01*
X-275701Y92137D01*
X-278317Y92838D01*
D02*
G37*
G36*
X-280942D02*
X-281026D01*
X-283642Y92137D01*
X-285988Y90783D01*
X-287903Y88868D01*
X-289257Y86522D01*
X-289958Y83905D01*
Y83821D01*
X-280942D01*
Y92838D01*
D02*
G37*
G36*
X283294Y91567D02*
X283209D01*
Y82550D01*
X292227D01*
Y82634D01*
X291526Y85251D01*
X290172Y87597D01*
X288256Y89512D01*
X285910Y90866D01*
X283294Y91567D01*
D02*
G37*
G36*
X280669D02*
X280585D01*
X277969Y90866D01*
X275623Y89512D01*
X273708Y87597D01*
X272354Y85251D01*
X271653Y82634D01*
Y82550D01*
X280669D01*
Y91567D01*
D02*
G37*
G36*
X260727Y90170D02*
X259211D01*
X257811Y89590D01*
X256739Y88518D01*
X256159Y87118D01*
Y85602D01*
X256739Y84202D01*
X257811Y83130D01*
X259211Y82550D01*
X260727D01*
X262127Y83130D01*
X263199Y84202D01*
X263779Y85602D01*
Y87118D01*
X263199Y88518D01*
X262127Y89590D01*
X260727Y90170D01*
D02*
G37*
G36*
X-647Y83955D02*
X-2163D01*
X-3563Y83375D01*
X-4635Y82303D01*
X-5215Y80903D01*
Y79387D01*
X-4635Y77987D01*
X-3563Y76915D01*
X-2163Y76335D01*
X-647D01*
X753Y76915D01*
X1825Y77987D01*
X2405Y79387D01*
Y80903D01*
X1825Y82303D01*
X753Y83375D01*
X-647Y83955D01*
D02*
G37*
G36*
X-245464Y92841D02*
X-247839D01*
X-250133Y92226D01*
X-252190Y91039D01*
X-253869Y89360D01*
X-255057Y87303D01*
X-255672Y85009D01*
Y82634D01*
X-255057Y80340D01*
X-253869Y78283D01*
X-252190Y76603D01*
X-250133Y75416D01*
X-247839Y74801D01*
X-245464D01*
X-243170Y75416D01*
X-241113Y76603D01*
X-239434Y78283D01*
X-238246Y80340D01*
X-237631Y82634D01*
Y85009D01*
X-238246Y87303D01*
X-239434Y89360D01*
X-241113Y91039D01*
X-243170Y92226D01*
X-245464Y92841D01*
D02*
G37*
G36*
X-139339Y79653D02*
X-146602D01*
Y72391D01*
X-139339D01*
Y79653D01*
D02*
G37*
G36*
X-149142D02*
X-156403D01*
Y72391D01*
X-149142D01*
Y79653D01*
D02*
G37*
G36*
X178432Y79652D02*
X171170D01*
Y72390D01*
X178432D01*
Y79652D01*
D02*
G37*
G36*
X168630D02*
X161368D01*
Y72390D01*
X168630D01*
Y79652D01*
D02*
G37*
G36*
X-269384Y81281D02*
X-278402D01*
Y72264D01*
X-278317D01*
X-275701Y72965D01*
X-273355Y74320D01*
X-271440Y76235D01*
X-270086Y78581D01*
X-269384Y81197D01*
Y81281D01*
D02*
G37*
G36*
X-280942D02*
X-289958D01*
Y81197D01*
X-289257Y78581D01*
X-287903Y76235D01*
X-285988Y74320D01*
X-283642Y72965D01*
X-281026Y72264D01*
X-280942D01*
Y81281D01*
D02*
G37*
G36*
X292227Y80010D02*
X283209D01*
Y70993D01*
X283294D01*
X285910Y71694D01*
X288256Y73049D01*
X290172Y74964D01*
X291526Y77310D01*
X292227Y79926D01*
Y80010D01*
D02*
G37*
G36*
X280669D02*
X271653D01*
Y79926D01*
X272354Y77310D01*
X273708Y74964D01*
X275623Y73049D01*
X277969Y71694D01*
X280585Y70993D01*
X280669D01*
Y80010D01*
D02*
G37*
G36*
X21840Y74676D02*
X20324D01*
X18924Y74096D01*
X17852Y73024D01*
X17272Y71624D01*
Y70108D01*
X17852Y68708D01*
X18924Y67636D01*
X20324Y67056D01*
X21840D01*
X23240Y67636D01*
X24312Y68708D01*
X24892Y70108D01*
Y71624D01*
X24312Y73024D01*
X23240Y74096D01*
X21840Y74676D01*
D02*
G37*
G36*
X-181849Y78891D02*
X-183895D01*
X-185871Y78362D01*
X-187642Y77339D01*
X-189089Y75892D01*
X-190112Y74120D01*
X-190642Y72144D01*
Y70098D01*
X-190112Y68122D01*
X-189089Y66350D01*
X-187642Y64904D01*
X-185871Y63881D01*
X-183895Y63351D01*
X-181849D01*
X-179872Y63881D01*
X-178101Y64904D01*
X-176654Y66350D01*
X-175631Y68122D01*
X-175102Y70098D01*
Y72144D01*
X-175631Y74120D01*
X-176654Y75892D01*
X-178101Y77339D01*
X-179872Y78362D01*
X-181849Y78891D01*
D02*
G37*
G36*
X135923Y78890D02*
X133877D01*
X131901Y78361D01*
X130129Y77338D01*
X128683Y75891D01*
X127660Y74119D01*
X127130Y72143D01*
Y70097D01*
X127660Y68121D01*
X128683Y66349D01*
X130129Y64903D01*
X131901Y63880D01*
X133877Y63350D01*
X135923D01*
X137899Y63880D01*
X139671Y64903D01*
X141118Y66349D01*
X142141Y68121D01*
X142670Y70097D01*
Y72143D01*
X142141Y74119D01*
X141118Y75891D01*
X139671Y77338D01*
X137899Y78361D01*
X135923Y78890D01*
D02*
G37*
G36*
X-139339Y69851D02*
X-146602D01*
Y62589D01*
X-139339D01*
Y69851D01*
D02*
G37*
G36*
X-149142D02*
X-156403D01*
Y62589D01*
X-149142D01*
Y69851D01*
D02*
G37*
G36*
X178432Y69850D02*
X171170D01*
Y62588D01*
X178432D01*
Y69850D01*
D02*
G37*
G36*
X168630D02*
X161368D01*
Y62588D01*
X168630D01*
Y69850D01*
D02*
G37*
G36*
X94738Y69850D02*
X93222D01*
X91822Y69270D01*
X90750Y68198D01*
X90170Y66798D01*
Y65282D01*
X90750Y63882D01*
X91822Y62810D01*
X93222Y62230D01*
X94738D01*
X96138Y62810D01*
X97210Y63882D01*
X97790Y65282D01*
Y66798D01*
X97210Y68198D01*
X96138Y69270D01*
X94738Y69850D01*
D02*
G37*
G36*
X-29722D02*
X-31238D01*
X-32638Y69270D01*
X-33710Y68198D01*
X-34290Y66798D01*
Y65282D01*
X-33710Y63882D01*
X-32638Y62810D01*
X-31238Y62230D01*
X-29722D01*
X-28322Y62810D01*
X-27250Y63882D01*
X-26670Y65282D01*
Y66798D01*
X-27250Y68198D01*
X-28322Y69270D01*
X-29722Y69850D01*
D02*
G37*
G36*
X-97338Y68427D02*
X-98853D01*
X-100254Y67846D01*
X-101326Y66775D01*
X-101906Y65374D01*
Y63859D01*
X-101326Y62458D01*
X-100254Y61387D01*
X-98853Y60807D01*
X-97338D01*
X-95937Y61387D01*
X-94866Y62458D01*
X-94286Y63859D01*
Y65374D01*
X-94866Y66775D01*
X-95937Y67846D01*
X-97338Y68427D01*
D02*
G37*
G36*
X-282372Y61369D02*
X-282457D01*
Y52352D01*
X-273440D01*
Y52436D01*
X-274141Y55053D01*
X-275495Y57399D01*
X-277411Y59314D01*
X-279756Y60668D01*
X-282372Y61369D01*
D02*
G37*
G36*
X-284997D02*
X-285081D01*
X-287698Y60668D01*
X-290043Y59314D01*
X-291959Y57399D01*
X-293313Y55053D01*
X-294014Y52436D01*
Y52352D01*
X-284997D01*
Y61369D01*
D02*
G37*
G36*
X260056Y50582D02*
X258540D01*
X257140Y50002D01*
X256068Y48930D01*
X255488Y47530D01*
Y46014D01*
X256068Y44613D01*
X257140Y43542D01*
X258540Y42962D01*
X260056D01*
X261457Y43542D01*
X262528Y44613D01*
X263108Y46014D01*
Y47530D01*
X262528Y48930D01*
X261457Y50002D01*
X260056Y50582D01*
D02*
G37*
G36*
X202543Y49666D02*
X201028D01*
X199627Y49086D01*
X198556Y48015D01*
X197976Y46614D01*
Y45099D01*
X198556Y43698D01*
X199627Y42626D01*
X201028Y42046D01*
X202543D01*
X203944Y42626D01*
X205016Y43698D01*
X205595Y45099D01*
Y46614D01*
X205016Y48015D01*
X203944Y49086D01*
X202543Y49666D01*
D02*
G37*
G36*
X-223402Y60607D02*
X-242452D01*
Y41557D01*
X-223402D01*
Y60607D01*
D02*
G37*
G36*
X-257073D02*
X-259581D01*
X-262003Y59958D01*
X-264175Y58704D01*
X-265949Y56931D01*
X-267203Y54759D01*
X-267852Y52336D01*
Y49828D01*
X-267203Y47406D01*
X-265949Y45234D01*
X-264175Y43460D01*
X-262003Y42206D01*
X-259581Y41557D01*
X-257073D01*
X-254650Y42206D01*
X-252478Y43460D01*
X-250705Y45234D01*
X-249451Y47406D01*
X-248802Y49828D01*
Y52336D01*
X-249451Y54759D01*
X-250705Y56931D01*
X-252478Y58704D01*
X-254650Y59958D01*
X-257073Y60607D01*
D02*
G37*
G36*
X-273440Y49812D02*
X-282457D01*
Y40795D01*
X-282372D01*
X-279756Y41496D01*
X-277411Y42850D01*
X-275495Y44766D01*
X-274141Y47112D01*
X-273440Y49728D01*
Y49812D01*
D02*
G37*
G36*
X-284997D02*
X-294014D01*
Y49728D01*
X-293313Y47112D01*
X-291959Y44766D01*
X-290043Y42850D01*
X-287698Y41496D01*
X-285081Y40795D01*
X-284997D01*
Y49812D01*
D02*
G37*
G36*
X-35166Y41079D02*
X-36681D01*
X-38082Y40499D01*
X-39153Y39427D01*
X-39734Y38027D01*
Y36511D01*
X-39153Y35111D01*
X-38082Y34039D01*
X-36681Y33459D01*
X-35166D01*
X-33765Y34039D01*
X-32694Y35111D01*
X-32113Y36511D01*
Y38027D01*
X-32694Y39427D01*
X-33765Y40499D01*
X-35166Y41079D01*
D02*
G37*
G36*
X169668Y40640D02*
X168152D01*
X166752Y40060D01*
X165680Y38988D01*
X165100Y37588D01*
Y36072D01*
X165680Y34672D01*
X166752Y33600D01*
X168152Y33020D01*
X169668D01*
X171068Y33600D01*
X172140Y34672D01*
X172720Y36072D01*
Y37588D01*
X172140Y38988D01*
X171068Y40060D01*
X169668Y40640D01*
D02*
G37*
G36*
X95824Y51024D02*
X93449D01*
X91155Y50409D01*
X89098Y49222D01*
X87418Y47543D01*
X86231Y45486D01*
X85616Y43192D01*
Y40817D01*
X86231Y38523D01*
X87418Y36466D01*
X89098Y34786D01*
X91155Y33599D01*
X93449Y32984D01*
X95824D01*
X98118Y33599D01*
X100175Y34786D01*
X101854Y36466D01*
X103041Y38523D01*
X103656Y40817D01*
Y43192D01*
X103041Y45486D01*
X101854Y47543D01*
X100175Y49222D01*
X98118Y50409D01*
X95824Y51024D01*
D02*
G37*
G36*
X245070Y40386D02*
X243554D01*
X242154Y39806D01*
X241082Y38734D01*
X240502Y37334D01*
Y35818D01*
X241082Y34418D01*
X242154Y33346D01*
X243554Y32766D01*
X245070D01*
X246471Y33346D01*
X247542Y34418D01*
X248122Y35818D01*
Y37334D01*
X247542Y38734D01*
X246471Y39806D01*
X245070Y40386D01*
D02*
G37*
G36*
X72714Y31973D02*
X72334D01*
Y20711D01*
X83596D01*
Y21091D01*
X82742Y24279D01*
X81092Y27136D01*
X78759Y29469D01*
X75901Y31119D01*
X72714Y31973D01*
D02*
G37*
G36*
X69794D02*
X69415D01*
X66227Y31119D01*
X63369Y29469D01*
X61036Y27136D01*
X59386Y24279D01*
X58532Y21091D01*
Y20711D01*
X69794D01*
Y31973D01*
D02*
G37*
G36*
X-282127Y29338D02*
X-282211D01*
Y20321D01*
X-273195D01*
Y20405D01*
X-273895Y23022D01*
X-275250Y25368D01*
X-277165Y27283D01*
X-279511Y28637D01*
X-282127Y29338D01*
D02*
G37*
G36*
X-284751D02*
X-284836D01*
X-287452Y28637D01*
X-289798Y27283D01*
X-291713Y25368D01*
X-293067Y23022D01*
X-293769Y20405D01*
Y20321D01*
X-284751D01*
Y29338D01*
D02*
G37*
G36*
X120463Y25528D02*
X120379D01*
Y16511D01*
X129396D01*
Y16595D01*
X128694Y19212D01*
X127340Y21558D01*
X125425Y23473D01*
X123079Y24827D01*
X120463Y25528D01*
D02*
G37*
G36*
X117838D02*
X117754D01*
X115138Y24827D01*
X112792Y23473D01*
X110877Y21558D01*
X109523Y19212D01*
X108821Y16595D01*
Y16511D01*
X117838D01*
Y25528D01*
D02*
G37*
G36*
X-200743Y30610D02*
X-203118D01*
X-205412Y29996D01*
X-207469Y28808D01*
X-209148Y27129D01*
X-210336Y25072D01*
X-210950Y22778D01*
Y20403D01*
X-210336Y18109D01*
X-209148Y16052D01*
X-207469Y14372D01*
X-205412Y13185D01*
X-203118Y12570D01*
X-200743D01*
X-198449Y13185D01*
X-196392Y14372D01*
X-194712Y16052D01*
X-193525Y18109D01*
X-192910Y20403D01*
Y22778D01*
X-193525Y25072D01*
X-194712Y27129D01*
X-196392Y28808D01*
X-198449Y29996D01*
X-200743Y30610D01*
D02*
G37*
G36*
X-223157Y28576D02*
X-242206D01*
Y9526D01*
X-223157D01*
Y28576D01*
D02*
G37*
G36*
X-256828D02*
X-259335D01*
X-261758Y27927D01*
X-263930Y26673D01*
X-265703Y24900D01*
X-266957Y22728D01*
X-267607Y20305D01*
Y17797D01*
X-266957Y15375D01*
X-265703Y13203D01*
X-263930Y11429D01*
X-261758Y10175D01*
X-259335Y9526D01*
X-256828D01*
X-254405Y10175D01*
X-252233Y11429D01*
X-250460Y13203D01*
X-249206Y15375D01*
X-248556Y17797D01*
Y20305D01*
X-249206Y22728D01*
X-250460Y24900D01*
X-252233Y26673D01*
X-254405Y27927D01*
X-256828Y28576D01*
D02*
G37*
G36*
X32576Y27068D02*
X30201D01*
X27906Y26454D01*
X25850Y25266D01*
X24170Y23587D01*
X22983Y21530D01*
X22368Y19236D01*
Y16861D01*
X22983Y14567D01*
X24170Y12510D01*
X25850Y10831D01*
X27906Y9643D01*
X30201Y9028D01*
X32576D01*
X34870Y9643D01*
X36927Y10831D01*
X38606Y12510D01*
X39793Y14567D01*
X40408Y16861D01*
Y19236D01*
X39793Y21530D01*
X38606Y23587D01*
X36927Y25266D01*
X34870Y26454D01*
X32576Y27068D01*
D02*
G37*
G36*
X-273195Y17781D02*
X-282211D01*
Y8764D01*
X-282127D01*
X-279511Y9465D01*
X-277165Y10820D01*
X-275250Y12735D01*
X-273895Y15081D01*
X-273195Y17697D01*
Y17781D01*
D02*
G37*
G36*
X-284751D02*
X-293769D01*
Y17697D01*
X-293067Y15081D01*
X-291713Y12735D01*
X-289798Y10820D01*
X-287452Y9465D01*
X-284836Y8764D01*
X-284751D01*
Y17781D01*
D02*
G37*
G36*
X83596Y18171D02*
X72334D01*
Y6909D01*
X72714D01*
X75901Y7763D01*
X78759Y9413D01*
X81092Y11746D01*
X82742Y14604D01*
X83596Y17792D01*
Y18171D01*
D02*
G37*
G36*
X69794D02*
X58532D01*
Y17792D01*
X59386Y14604D01*
X61036Y11746D01*
X63369Y9413D01*
X66227Y7763D01*
X69415Y6909D01*
X69794D01*
Y18171D01*
D02*
G37*
G36*
X281033Y24766D02*
X261984D01*
Y5716D01*
X281033D01*
Y24766D01*
D02*
G37*
G36*
X247362D02*
X244855D01*
X242432Y24117D01*
X240260Y22863D01*
X238487Y21090D01*
X237233Y18918D01*
X236583Y16495D01*
Y13987D01*
X237233Y11565D01*
X238487Y9393D01*
X240260Y7619D01*
X242432Y6365D01*
X244855Y5716D01*
X247362D01*
X249785Y6365D01*
X251957Y7619D01*
X253730Y9393D01*
X254984Y11565D01*
X255634Y13987D01*
Y16495D01*
X254984Y18918D01*
X253730Y21090D01*
X251957Y22863D01*
X249785Y24117D01*
X247362Y24766D01*
D02*
G37*
G36*
X221963D02*
X219454D01*
X217032Y24117D01*
X214860Y22863D01*
X213087Y21090D01*
X211833Y18918D01*
X211183Y16495D01*
Y13987D01*
X211833Y11565D01*
X213087Y9393D01*
X214860Y7619D01*
X217032Y6365D01*
X219454Y5716D01*
X221963D01*
X224385Y6365D01*
X226557Y7619D01*
X228330Y9393D01*
X229584Y11565D01*
X230233Y13987D01*
Y16495D01*
X229584Y18918D01*
X228330Y21090D01*
X226557Y22863D01*
X224385Y24117D01*
X221963Y24766D01*
D02*
G37*
G36*
X196562D02*
X194055D01*
X191632Y24117D01*
X189460Y22863D01*
X187687Y21090D01*
X186433Y18918D01*
X185784Y16495D01*
Y13987D01*
X186433Y11565D01*
X187687Y9393D01*
X189460Y7619D01*
X191632Y6365D01*
X194055Y5716D01*
X196562D01*
X198985Y6365D01*
X201157Y7619D01*
X202930Y9393D01*
X204184Y11565D01*
X204834Y13987D01*
Y16495D01*
X204184Y18918D01*
X202930Y21090D01*
X201157Y22863D01*
X198985Y24117D01*
X196562Y24766D01*
D02*
G37*
G36*
X171162D02*
X168654D01*
X166232Y24117D01*
X164060Y22863D01*
X162287Y21090D01*
X161033Y18918D01*
X160383Y16495D01*
Y13987D01*
X161033Y11565D01*
X162287Y9393D01*
X164060Y7619D01*
X166232Y6365D01*
X168654Y5716D01*
X171162D01*
X173585Y6365D01*
X175757Y7619D01*
X177530Y9393D01*
X178784Y11565D01*
X179433Y13987D01*
Y16495D01*
X178784Y18918D01*
X177530Y21090D01*
X175757Y22863D01*
X173585Y24117D01*
X171162Y24766D01*
D02*
G37*
G36*
X145763D02*
X143254D01*
X140832Y24117D01*
X138660Y22863D01*
X136887Y21090D01*
X135633Y18918D01*
X134984Y16495D01*
Y13987D01*
X135633Y11565D01*
X136887Y9393D01*
X138660Y7619D01*
X140832Y6365D01*
X143254Y5716D01*
X145763D01*
X148185Y6365D01*
X150357Y7619D01*
X152130Y9393D01*
X153384Y11565D01*
X154033Y13987D01*
Y16495D01*
X153384Y18918D01*
X152130Y21090D01*
X150357Y22863D01*
X148185Y24117D01*
X145763Y24766D01*
D02*
G37*
G36*
X-33926D02*
X-52976D01*
Y5716D01*
X-33926D01*
Y24766D01*
D02*
G37*
G36*
X-67597D02*
X-70106D01*
X-72528Y24117D01*
X-74700Y22863D01*
X-76473Y21090D01*
X-77727Y18918D01*
X-78376Y16495D01*
Y13987D01*
X-77727Y11565D01*
X-76473Y9393D01*
X-74700Y7619D01*
X-72528Y6365D01*
X-70106Y5716D01*
X-67597D01*
X-65175Y6365D01*
X-63003Y7619D01*
X-61230Y9393D01*
X-59976Y11565D01*
X-59327Y13987D01*
Y16495D01*
X-59976Y18918D01*
X-61230Y21090D01*
X-63003Y22863D01*
X-65175Y24117D01*
X-67597Y24766D01*
D02*
G37*
G36*
X-92075Y24765D02*
X-111125D01*
Y5715D01*
X-92075D01*
Y24765D01*
D02*
G37*
G36*
X-125746D02*
X-128254D01*
X-130676Y24116D01*
X-132849Y22862D01*
X-134622Y21089D01*
X-135876Y18916D01*
X-136525Y16494D01*
Y13986D01*
X-135876Y11564D01*
X-134622Y9391D01*
X-132849Y7618D01*
X-130676Y6364D01*
X-128254Y5715D01*
X-125746D01*
X-123323Y6364D01*
X-121152Y7618D01*
X-119378Y9391D01*
X-118124Y11564D01*
X-117475Y13986D01*
Y16494D01*
X-118124Y18916D01*
X-119378Y21089D01*
X-121152Y22862D01*
X-123323Y24116D01*
X-125746Y24765D01*
D02*
G37*
G36*
X129396Y13971D02*
X120379D01*
Y4954D01*
X120463D01*
X123079Y5655D01*
X125425Y7010D01*
X127340Y8925D01*
X128694Y11271D01*
X129396Y13887D01*
Y13971D01*
D02*
G37*
G36*
X117838D02*
X108821D01*
Y13887D01*
X109523Y11271D01*
X110877Y8925D01*
X112792Y7010D01*
X115138Y5655D01*
X117754Y4954D01*
X117838D01*
Y13971D01*
D02*
G37*
%LPD*%
D121*
X169900Y71120D02*
D03*
X-147871Y71121D02*
D03*
D122*
X134900Y71120D02*
D03*
X-182872Y71121D02*
D03*
D127*
X259461Y254042D02*
D03*
X271837Y313379D02*
D03*
X265357Y433697D02*
D03*
X-24216Y374015D02*
D03*
X-14351Y398399D02*
D03*
X-116586Y129286D02*
D03*
X-108712Y124968D02*
D03*
X-99894Y110797D02*
D03*
X-134874Y188468D02*
D03*
X-152908Y184150D02*
D03*
X-154443Y249225D02*
D03*
X-103391Y268478D02*
D03*
X265774Y367198D02*
D03*
X246380Y374650D02*
D03*
X-229362Y513334D02*
D03*
X-59710Y260669D02*
D03*
X-65387Y289371D02*
D03*
X-69800Y295584D02*
D03*
X-31575Y250643D02*
D03*
X-155702Y514350D02*
D03*
X-239776Y495808D02*
D03*
X-201373Y383540D02*
D03*
X-197612Y296926D02*
D03*
X-222758Y288798D02*
D03*
Y273304D02*
D03*
X282194Y186944D02*
D03*
X290322Y184912D02*
D03*
X258034Y242600D02*
D03*
X199330Y265440D02*
D03*
X142748Y513334D02*
D03*
X37846Y544830D02*
D03*
X85090Y289560D02*
D03*
X93980Y292100D02*
D03*
X21608Y275100D02*
D03*
X9702Y291134D02*
D03*
X24951Y257760D02*
D03*
X50546Y211328D02*
D03*
X-100838Y188722D02*
D03*
X273812Y433324D02*
D03*
X53594Y167894D02*
D03*
X48403Y161179D02*
D03*
X124460Y273605D02*
D03*
X211328Y432054D02*
D03*
X192786Y429733D02*
D03*
X224028Y319786D02*
D03*
X272796Y235966D02*
D03*
X276860Y253238D02*
D03*
X24130Y160274D02*
D03*
X31242Y148844D02*
D03*
X38862Y144780D02*
D03*
X28448Y133096D02*
D03*
X24130Y93408D02*
D03*
X-31875Y98794D02*
D03*
X59944Y151638D02*
D03*
X45466Y167640D02*
D03*
X68580Y149098D02*
D03*
X99954Y134492D02*
D03*
X100325Y119131D02*
D03*
X23368Y167894D02*
D03*
X30480Y71120D02*
D03*
X58420Y83820D02*
D03*
X13716Y110490D02*
D03*
X40640Y99060D02*
D03*
X-163620Y569514D02*
D03*
X-156571Y572409D02*
D03*
X-197612Y284226D02*
D03*
X-200406Y261112D02*
D03*
X244312Y36576D02*
D03*
X5080Y99060D02*
D03*
X-40005Y115951D02*
D03*
X-55951Y390271D02*
D03*
X57658Y418973D02*
D03*
X222969Y253876D02*
D03*
X208261Y256051D02*
D03*
X175594Y270035D02*
D03*
X143522Y283597D02*
D03*
X3683Y536798D02*
D03*
X-62230Y495300D02*
D03*
X-161936Y223371D02*
D03*
X-189230Y159004D02*
D03*
X-147807Y211964D02*
D03*
X-143637Y248008D02*
D03*
X-83693Y242381D02*
D03*
X-75603Y207446D02*
D03*
X-75Y212015D02*
D03*
X-21336Y224409D02*
D03*
X-35277Y216183D02*
D03*
X-56365Y95250D02*
D03*
X-44693Y106923D02*
D03*
X-30146Y140286D02*
D03*
X21082Y70866D02*
D03*
X-33020Y78740D02*
D03*
X238506Y220472D02*
D03*
X273361Y282589D02*
D03*
X261620Y273592D02*
D03*
X230248Y257429D02*
D03*
X230057Y270383D02*
D03*
X213740Y263227D02*
D03*
X246590Y361441D02*
D03*
X280389Y453500D02*
D03*
X271730Y514300D02*
D03*
X222504Y532638D02*
D03*
X225044Y499364D02*
D03*
X255578Y469689D02*
D03*
X251460Y497840D02*
D03*
X-139516Y462464D02*
D03*
X-211041Y411701D02*
D03*
X-194310Y365252D02*
D03*
X-134239Y307254D02*
D03*
X20361Y328126D02*
D03*
X-10668Y360172D02*
D03*
X-133574Y364344D02*
D03*
X-95686Y330665D02*
D03*
X161434Y296292D02*
D03*
X46231Y247691D02*
D03*
X107708Y150678D02*
D03*
X129756Y134275D02*
D03*
X76784Y135833D02*
D03*
X63103Y294513D02*
D03*
X-60089Y308102D02*
D03*
X-93980Y292100D02*
D03*
X-106680Y290830D02*
D03*
X-120904Y225552D02*
D03*
X-35924Y37269D02*
D03*
X211823Y422910D02*
D03*
X266372Y469085D02*
D03*
X269934Y334180D02*
D03*
X275455Y468249D02*
D03*
X272780Y269240D02*
D03*
X265292Y292839D02*
D03*
X271272Y409956D02*
D03*
X207264Y406654D02*
D03*
X208129Y368157D02*
D03*
X257702Y285393D02*
D03*
X143248Y130548D02*
D03*
X131486Y162560D02*
D03*
X154940Y149860D02*
D03*
X107708Y163909D02*
D03*
X121920Y182395D02*
D03*
X199736Y148775D02*
D03*
X201786Y45856D02*
D03*
X267122Y184150D02*
D03*
X259298Y46772D02*
D03*
X259969Y86360D02*
D03*
X150985Y36830D02*
D03*
X22860Y217043D02*
D03*
X1270Y231140D02*
D03*
X-14192Y204597D02*
D03*
X115702Y188257D02*
D03*
X246507Y273937D02*
D03*
X87630Y271145D02*
D03*
X223904Y293320D02*
D03*
X-43316Y297808D02*
D03*
X-7827Y285673D02*
D03*
X-163198Y294640D02*
D03*
X-175714Y344184D02*
D03*
X-80010Y148590D02*
D03*
X-87630Y156210D02*
D03*
X-188098Y220558D02*
D03*
X-175260Y160020D02*
D03*
X-105664Y361950D02*
D03*
X-121524Y323422D02*
D03*
X-54067Y260669D02*
D03*
X35905Y254345D02*
D03*
X228600Y332740D02*
D03*
X156975Y366525D02*
D03*
X102870Y297222D02*
D03*
Y332740D02*
D03*
X88773Y326390D02*
D03*
X66675Y323088D02*
D03*
X168910Y344551D02*
D03*
X-58420Y473710D02*
D03*
X85051Y532091D02*
D03*
X-201646Y203790D02*
D03*
X-175260Y351790D02*
D03*
X-150070Y363813D02*
D03*
X-158647Y333967D02*
D03*
X-120853Y359937D02*
D03*
X-121920Y377190D02*
D03*
X-161838Y388293D02*
D03*
X-199644Y430343D02*
D03*
X-192804Y487553D02*
D03*
X-125730Y460502D02*
D03*
X-153670Y436880D02*
D03*
X138048Y322919D02*
D03*
X62089Y128441D02*
D03*
X54480Y135249D02*
D03*
X46589Y128441D02*
D03*
X54338D02*
D03*
X46589Y117941D02*
D03*
X54338D02*
D03*
X62089D02*
D03*
X54338Y110441D02*
D03*
X-83217Y514392D02*
D03*
X-94639Y527267D02*
D03*
X-94327Y514392D02*
D03*
X-113030Y514350D02*
D03*
X-123190D02*
D03*
X-83321Y526956D02*
D03*
X-83820Y544830D02*
D03*
X-93980Y556260D02*
D03*
X-83820D02*
D03*
X-113293Y545770D02*
D03*
X-123293D02*
D03*
X-113293Y555770D02*
D03*
X-123293D02*
D03*
X-93980Y544830D02*
D03*
X-113030Y527050D02*
D03*
X-123190D02*
D03*
X-122767Y423214D02*
D03*
X-132767D02*
D03*
X-122767Y433214D02*
D03*
X-132767D02*
D03*
X-93532Y423214D02*
D03*
X-103532D02*
D03*
X-93532Y433214D02*
D03*
X-103532D02*
D03*
X-93532Y394665D02*
D03*
X-103532D02*
D03*
X-93532Y404665D02*
D03*
X-103532D02*
D03*
X-122767Y394665D02*
D03*
X-132767D02*
D03*
X-122767Y404665D02*
D03*
X-132767D02*
D03*
X-84303Y282154D02*
D03*
X-73719D02*
D03*
X-79012Y276861D02*
D03*
X-73719Y271569D02*
D03*
X-84303D02*
D03*
X133350Y558800D02*
D03*
X74930Y171450D02*
D03*
Y52070D02*
D03*
X245094Y416560D02*
D03*
X246924Y407670D02*
D03*
X-78373Y302061D02*
D03*
X228477Y438139D02*
D03*
X6560Y53784D02*
D03*
X-30480Y66040D02*
D03*
X214630Y384810D02*
D03*
X184150Y345440D02*
D03*
X-12700Y162560D02*
D03*
X-1405Y80145D02*
D03*
X-56537Y114173D02*
D03*
X-86009Y142720D02*
D03*
X-129204Y143675D02*
D03*
X191770Y405130D02*
D03*
X203200Y449580D02*
D03*
X93980Y66040D02*
D03*
X13761Y92804D02*
D03*
X-255270Y483870D02*
D03*
X-13800Y103760D02*
D03*
X3624Y294454D02*
D03*
X-186690Y477520D02*
D03*
X-59690Y566420D02*
D03*
X-160020Y556260D02*
D03*
X-199390Y586740D02*
D03*
X-288290Y370840D02*
D03*
X-195580Y323850D02*
D03*
X-257810Y204470D02*
D03*
X-265430Y86360D02*
D03*
X-271780Y34290D02*
D03*
X-179070Y104140D02*
D03*
X-133350Y88900D02*
D03*
X284480Y54610D02*
D03*
X228600Y68580D02*
D03*
X248920Y481330D02*
D03*
X224790Y474980D02*
D03*
X70354Y514431D02*
D03*
X-25400Y537210D02*
D03*
X82409Y567549D02*
D03*
X-54610Y364490D02*
D03*
X-137956Y279400D02*
D03*
X-106680Y250190D02*
D03*
X-40911Y252350D02*
D03*
X63500Y231140D02*
D03*
X-3731Y128919D02*
D03*
X119380Y106680D02*
D03*
X-41910Y163231D02*
D03*
X-98096Y64617D02*
D03*
X-110490Y268478D02*
D03*
X246380Y384810D02*
D03*
X-24130Y494030D02*
D03*
X-60960Y508000D02*
D03*
X-130810Y179070D02*
D03*
X-144780Y184150D02*
D03*
X15240Y238760D02*
D03*
X59690Y243840D02*
D03*
X168910Y36830D02*
D03*
X160020Y528320D02*
D03*
X165100Y586740D02*
D03*
X117323Y571298D02*
D03*
X-160020Y521970D02*
D03*
X-269240Y485140D02*
D03*
X-228600Y524510D02*
D03*
X-205680Y530920D02*
D03*
X-217170Y519430D02*
D03*
X198120Y349250D02*
D03*
X-147375Y317399D02*
D03*
X-162927Y360616D02*
D03*
X26670Y491490D02*
D03*
X15240Y584200D02*
D03*
X-186690Y459740D02*
D03*
X-203200Y549910D02*
D03*
X-186690Y530860D02*
D03*
X-110490Y495300D02*
D03*
X-144328Y416035D02*
D03*
X-162632Y404883D02*
D03*
X-163322Y374650D02*
D03*
X-160020Y508000D02*
D03*
D138*
X163830Y244557D02*
D03*
X281940Y165100D02*
D03*
Y106680D02*
D03*
X-279671Y166371D02*
D03*
Y107951D02*
D03*
D139*
X163830Y219156D02*
D03*
X-127000Y15240D02*
D03*
X-283482Y19051D02*
D03*
X-258081D02*
D03*
X-283727Y51082D02*
D03*
X-258327D02*
D03*
X119108Y15241D02*
D03*
X144508D02*
D03*
X169909D02*
D03*
X195308D02*
D03*
X220709D02*
D03*
X246108D02*
D03*
X106044Y243987D02*
D03*
X61997Y580487D02*
D03*
X106044Y209650D02*
D03*
X-68851Y15241D02*
D03*
X281940Y139700D02*
D03*
Y81280D02*
D03*
X-279671Y140971D02*
D03*
Y82551D02*
D03*
D140*
X-101600Y15240D02*
D03*
X-232682Y19051D02*
D03*
X-232927Y51082D02*
D03*
X271509Y15241D02*
D03*
X131444Y243987D02*
D03*
X36597Y580487D02*
D03*
X131444Y209650D02*
D03*
X-43451Y15241D02*
D03*
D141*
X-289540Y316200D02*
D03*
D142*
Y236200D02*
D03*
D143*
X175260Y502920D02*
D03*
X147320Y538480D02*
D03*
X-36830Y331470D02*
D03*
X172720Y458470D02*
D03*
X-201930Y21590D02*
D03*
X223520Y236220D02*
D03*
X193040D02*
D03*
X-246651Y83821D02*
D03*
X-218711Y582931D02*
D03*
X31388Y18048D02*
D03*
X-254000Y375920D02*
D03*
X-122191Y193041D02*
D03*
X-81552Y124461D02*
D03*
X94636Y42004D02*
D03*
X-145051Y135891D02*
D03*
Y165101D02*
D03*
X-271Y246381D02*
D03*
X-90170Y229870D02*
D03*
D144*
X-223520Y375920D02*
D03*
D145*
X71064Y19441D02*
D03*
D146*
X166706Y286470D02*
D03*
D147*
X-19050Y257152D02*
D03*
D148*
X227060Y278075D02*
D03*
X173720D02*
D03*
M02*
