G04*
G04 #@! TF.GenerationSoftware,Altium Limited,Altium Designer,25.2.1 (25)*
G04*
G04 Layer_Physical_Order=4*
G04 Layer_Color=16711680*
%FSLAX44Y44*%
%MOMM*%
G71*
G04*
G04 #@! TF.SameCoordinates,EAE3CEDA-5B81-4212-8C7C-1E3112CA4337*
G04*
G04*
G04 #@! TF.FilePolarity,Positive*
G04*
G01*
G75*
%ADD16C,0.2032*%
%ADD121R,1.3000X1.3000*%
%ADD122C,1.3000*%
%ADD127C,0.5080*%
%ADD128C,0.1778*%
%ADD133C,0.3131*%
%ADD134C,0.3810*%
%ADD135C,0.5080*%
%ADD136C,0.2286*%
%ADD137C,0.3048*%
%ADD138R,1.6510X1.6510*%
%ADD139C,1.6510*%
%ADD140R,1.6510X1.6510*%
%ADD141C,0.9000*%
%ADD142O,0.9000X1.7000*%
%ADD143C,1.5500*%
%ADD144C,1.6256*%
%ADD145C,2.1000*%
%ADD146C,0.7620*%
%ADD147C,0.7000*%
%ADD148C,0.6350*%
G04:AMPARAMS|DCode=149|XSize=0.8128mm|YSize=1.016mm|CornerRadius=0.2032mm|HoleSize=0mm|Usage=FLASHONLY|Rotation=90.000|XOffset=0mm|YOffset=0mm|HoleType=Round|Shape=RoundedRectangle|*
%AMROUNDEDRECTD149*
21,1,0.8128,0.6096,0,0,90.0*
21,1,0.4064,1.0160,0,0,90.0*
1,1,0.4064,0.3048,0.2032*
1,1,0.4064,0.3048,-0.2032*
1,1,0.4064,-0.3048,-0.2032*
1,1,0.4064,-0.3048,0.2032*
%
%ADD149ROUNDEDRECTD149*%
G04:AMPARAMS|DCode=150|XSize=0.8128mm|YSize=1.016mm|CornerRadius=0.2032mm|HoleSize=0mm|Usage=FLASHONLY|Rotation=0.000|XOffset=0mm|YOffset=0mm|HoleType=Round|Shape=RoundedRectangle|*
%AMROUNDEDRECTD150*
21,1,0.8128,0.6096,0,0,0.0*
21,1,0.4064,1.0160,0,0,0.0*
1,1,0.4064,0.2032,-0.3048*
1,1,0.4064,-0.2032,-0.3048*
1,1,0.4064,-0.2032,0.3048*
1,1,0.4064,0.2032,0.3048*
%
%ADD150ROUNDEDRECTD150*%
%ADD151C,1.2700*%
G36*
X-94932Y303530D02*
X-95059Y298450D01*
X-102552D01*
X-97472Y303530D01*
X-102552Y308610D01*
X-94932D01*
Y303530D01*
D02*
G37*
G36*
X-100013D02*
X-105092Y298450D01*
X-108204D01*
Y308610D01*
X-105092D01*
X-100013Y303530D01*
D02*
G37*
G36*
X-48531Y295047D02*
Y287554D01*
X-53611Y292634D01*
X-58692Y287554D01*
Y295174D01*
X-53611D01*
X-48531Y295047D01*
D02*
G37*
G36*
Y285014D02*
Y281902D01*
X-58692D01*
Y285014D01*
X-53611Y290094D01*
X-48531Y285014D01*
D02*
G37*
G36*
G01X-50564Y293015D02*
G01X-56659D01*
G02X-58692Y295047I0J2032D01*
G01Y299111D01*
G02X-56659Y301143I2032J0D01*
G01X-50564D01*
G02X-48531Y299111I0J-2032D01*
G01Y295047D01*
G02X-50564Y293015I-2032J0D01*
D02*
G37*
D16*
X47031Y247691D02*
X55708Y256367D01*
X175935D01*
X185500Y283798D02*
X195022Y293320D01*
X175935Y256367D02*
X185500Y265932D01*
Y283798D01*
X46231Y247691D02*
X47031D01*
X195022Y293320D02*
X223904D01*
D121*
X169900Y71120D02*
D03*
X-147871Y71121D02*
D03*
D122*
X134900Y71120D02*
D03*
X-182872Y71121D02*
D03*
D127*
X259461Y254042D02*
D03*
X271837Y313379D02*
D03*
X265357Y433697D02*
D03*
X-24216Y374015D02*
D03*
X-14351Y398399D02*
D03*
X-116586Y129286D02*
D03*
X-108712Y124968D02*
D03*
X-99894Y110797D02*
D03*
X-134874Y188468D02*
D03*
X-152908Y184150D02*
D03*
X-154443Y249225D02*
D03*
X-103391Y268478D02*
D03*
X265774Y367198D02*
D03*
X246380Y374650D02*
D03*
X-229362Y513334D02*
D03*
X-59710Y260669D02*
D03*
X-65387Y289371D02*
D03*
X-69800Y295584D02*
D03*
X-31575Y250643D02*
D03*
X-155702Y514350D02*
D03*
X-239776Y495808D02*
D03*
X-201373Y383540D02*
D03*
X-197612Y296926D02*
D03*
X-222758Y288798D02*
D03*
Y273304D02*
D03*
X282194Y186944D02*
D03*
X290322Y184912D02*
D03*
X258034Y242600D02*
D03*
X199330Y265440D02*
D03*
X142748Y513334D02*
D03*
X37846Y544830D02*
D03*
X85090Y289560D02*
D03*
X93980Y292100D02*
D03*
X21608Y275100D02*
D03*
X9702Y291134D02*
D03*
X24951Y257760D02*
D03*
X50546Y211328D02*
D03*
X-100838Y188722D02*
D03*
X273812Y433324D02*
D03*
X53594Y167894D02*
D03*
X48403Y161179D02*
D03*
X124460Y273605D02*
D03*
X211328Y432054D02*
D03*
X192786Y429733D02*
D03*
X224028Y319786D02*
D03*
X272796Y235966D02*
D03*
X276860Y253238D02*
D03*
X24130Y160274D02*
D03*
X31242Y148844D02*
D03*
X38862Y144780D02*
D03*
X28448Y133096D02*
D03*
X24130Y93408D02*
D03*
X-31875Y98794D02*
D03*
X59944Y151638D02*
D03*
X45466Y167640D02*
D03*
X68580Y149098D02*
D03*
X99954Y134492D02*
D03*
X100325Y119131D02*
D03*
X23368Y167894D02*
D03*
X30480Y71120D02*
D03*
X58420Y83820D02*
D03*
X13716Y110490D02*
D03*
X40640Y99060D02*
D03*
X-163620Y569514D02*
D03*
X-156571Y572409D02*
D03*
X-197612Y284226D02*
D03*
X-200406Y261112D02*
D03*
X244312Y36576D02*
D03*
X5080Y99060D02*
D03*
X-40005Y115951D02*
D03*
X-55951Y390271D02*
D03*
X57658Y418973D02*
D03*
X222969Y253876D02*
D03*
X208261Y256051D02*
D03*
X175594Y270035D02*
D03*
X143522Y283597D02*
D03*
X3683Y536798D02*
D03*
X-62230Y495300D02*
D03*
X-161936Y223371D02*
D03*
X-189230Y159004D02*
D03*
X-147807Y211964D02*
D03*
X-143637Y248008D02*
D03*
X-83693Y242381D02*
D03*
X-75603Y207446D02*
D03*
X-75Y212015D02*
D03*
X-21336Y224409D02*
D03*
X-35277Y216183D02*
D03*
X-56365Y95250D02*
D03*
X-44693Y106923D02*
D03*
X-30146Y140286D02*
D03*
X21082Y70866D02*
D03*
X-33020Y78740D02*
D03*
X238506Y220472D02*
D03*
X273361Y282589D02*
D03*
X261620Y273592D02*
D03*
X230248Y257429D02*
D03*
X230057Y270383D02*
D03*
X213740Y263227D02*
D03*
X246590Y361441D02*
D03*
X280389Y453500D02*
D03*
X271730Y514300D02*
D03*
X222504Y532638D02*
D03*
X225044Y499364D02*
D03*
X255578Y469689D02*
D03*
X251460Y497840D02*
D03*
X-139516Y462464D02*
D03*
X-211041Y411701D02*
D03*
X-194310Y365252D02*
D03*
X-134239Y307254D02*
D03*
X20361Y328126D02*
D03*
X-10668Y360172D02*
D03*
X-133574Y364344D02*
D03*
X-95686Y330665D02*
D03*
X161434Y296292D02*
D03*
X46231Y247691D02*
D03*
X107708Y150678D02*
D03*
X129756Y134275D02*
D03*
X76784Y135833D02*
D03*
X63103Y294513D02*
D03*
X-60089Y308102D02*
D03*
X-93980Y292100D02*
D03*
X-106680Y290830D02*
D03*
X-120904Y225552D02*
D03*
X-35924Y37269D02*
D03*
X211823Y422910D02*
D03*
X266372Y469085D02*
D03*
X269934Y334180D02*
D03*
X275455Y468249D02*
D03*
X272780Y269240D02*
D03*
X265292Y292839D02*
D03*
X271272Y409956D02*
D03*
X207264Y406654D02*
D03*
X208129Y368157D02*
D03*
X257702Y285393D02*
D03*
X143248Y130548D02*
D03*
X131486Y162560D02*
D03*
X154940Y149860D02*
D03*
X107708Y163909D02*
D03*
X121920Y182395D02*
D03*
X199736Y148775D02*
D03*
X201786Y45856D02*
D03*
X267122Y184150D02*
D03*
X259298Y46772D02*
D03*
X259969Y86360D02*
D03*
X150985Y36830D02*
D03*
X22860Y217043D02*
D03*
X1270Y231140D02*
D03*
X-14192Y204597D02*
D03*
X115702Y188257D02*
D03*
X246507Y273937D02*
D03*
X87630Y271145D02*
D03*
X223904Y293320D02*
D03*
X-43316Y297808D02*
D03*
X-7827Y285673D02*
D03*
X-163198Y294640D02*
D03*
X-175714Y344184D02*
D03*
X-80010Y148590D02*
D03*
X-87630Y156210D02*
D03*
X-188098Y220558D02*
D03*
X-175260Y160020D02*
D03*
X-105664Y361950D02*
D03*
X-121524Y323422D02*
D03*
X-54067Y260669D02*
D03*
X35905Y254345D02*
D03*
X228600Y332740D02*
D03*
X156975Y366525D02*
D03*
X102870Y297222D02*
D03*
Y332740D02*
D03*
X88773Y326390D02*
D03*
X66675Y323088D02*
D03*
X168910Y344551D02*
D03*
X-58420Y473710D02*
D03*
X85051Y532091D02*
D03*
X-201646Y203790D02*
D03*
X-175260Y351790D02*
D03*
X-150070Y363813D02*
D03*
X-158647Y333967D02*
D03*
X-120853Y359937D02*
D03*
X-121920Y377190D02*
D03*
X-161838Y388293D02*
D03*
X-199644Y430343D02*
D03*
X-192804Y487553D02*
D03*
X-125730Y460502D02*
D03*
X-153670Y436880D02*
D03*
X138048Y322919D02*
D03*
X62089Y128441D02*
D03*
X54480Y135249D02*
D03*
X46589Y128441D02*
D03*
X54338D02*
D03*
X46589Y117941D02*
D03*
X54338D02*
D03*
X62089D02*
D03*
X54338Y110441D02*
D03*
X-83217Y514392D02*
D03*
X-94639Y527267D02*
D03*
X-94327Y514392D02*
D03*
X-113030Y514350D02*
D03*
X-123190D02*
D03*
X-83321Y526956D02*
D03*
X-83820Y544830D02*
D03*
X-93980Y556260D02*
D03*
X-83820D02*
D03*
X-113293Y545770D02*
D03*
X-123293D02*
D03*
X-113293Y555770D02*
D03*
X-123293D02*
D03*
X-93980Y544830D02*
D03*
X-113030Y527050D02*
D03*
X-123190D02*
D03*
X-122767Y423214D02*
D03*
X-132767D02*
D03*
X-122767Y433214D02*
D03*
X-132767D02*
D03*
X-93532Y423214D02*
D03*
X-103532D02*
D03*
X-93532Y433214D02*
D03*
X-103532D02*
D03*
X-93532Y394665D02*
D03*
X-103532D02*
D03*
X-93532Y404665D02*
D03*
X-103532D02*
D03*
X-122767Y394665D02*
D03*
X-132767D02*
D03*
X-122767Y404665D02*
D03*
X-132767D02*
D03*
X-84303Y282154D02*
D03*
X-73719D02*
D03*
X-79012Y276861D02*
D03*
X-73719Y271569D02*
D03*
X-84303D02*
D03*
X133350Y558800D02*
D03*
X74930Y171450D02*
D03*
Y52070D02*
D03*
X245094Y416560D02*
D03*
X246924Y407670D02*
D03*
X-78373Y302061D02*
D03*
X228477Y438139D02*
D03*
X6560Y53784D02*
D03*
X-30480Y66040D02*
D03*
X214630Y384810D02*
D03*
X184150Y345440D02*
D03*
X-12700Y162560D02*
D03*
X-1405Y80145D02*
D03*
X-56537Y114173D02*
D03*
X-86009Y142720D02*
D03*
X-129204Y143675D02*
D03*
X191770Y405130D02*
D03*
X203200Y449580D02*
D03*
X93980Y66040D02*
D03*
X13761Y92804D02*
D03*
X-255270Y483870D02*
D03*
X-13800Y103760D02*
D03*
X3624Y294454D02*
D03*
X-186690Y477520D02*
D03*
X-59690Y566420D02*
D03*
X-160020Y556260D02*
D03*
X-199390Y586740D02*
D03*
X-288290Y370840D02*
D03*
X-195580Y323850D02*
D03*
X-257810Y204470D02*
D03*
X-265430Y86360D02*
D03*
X-271780Y34290D02*
D03*
X-179070Y104140D02*
D03*
X-133350Y88900D02*
D03*
X284480Y54610D02*
D03*
X228600Y68580D02*
D03*
X248920Y481330D02*
D03*
X224790Y474980D02*
D03*
X70354Y514431D02*
D03*
X-25400Y537210D02*
D03*
X82409Y567549D02*
D03*
X-54610Y364490D02*
D03*
X-137956Y279400D02*
D03*
X-106680Y250190D02*
D03*
X-40911Y252350D02*
D03*
X63500Y231140D02*
D03*
X-3731Y128919D02*
D03*
X119380Y106680D02*
D03*
X-41910Y163231D02*
D03*
X-98096Y64617D02*
D03*
X-110490Y268478D02*
D03*
X246380Y384810D02*
D03*
X-24130Y494030D02*
D03*
X-60960Y508000D02*
D03*
X-130810Y179070D02*
D03*
X-144780Y184150D02*
D03*
X15240Y238760D02*
D03*
X59690Y243840D02*
D03*
X168910Y36830D02*
D03*
X160020Y528320D02*
D03*
X165100Y586740D02*
D03*
X117323Y571298D02*
D03*
X-160020Y521970D02*
D03*
X-269240Y485140D02*
D03*
X-228600Y524510D02*
D03*
X-205680Y530920D02*
D03*
X-217170Y519430D02*
D03*
X198120Y349250D02*
D03*
X-147375Y317399D02*
D03*
X-162927Y360616D02*
D03*
X26670Y491490D02*
D03*
X15240Y584200D02*
D03*
X-186690Y459740D02*
D03*
X-203200Y549910D02*
D03*
X-186690Y530860D02*
D03*
X-110490Y495300D02*
D03*
X-144328Y416035D02*
D03*
X-162632Y404883D02*
D03*
X-163322Y374650D02*
D03*
X-160020Y508000D02*
D03*
D128*
X104762Y198036D02*
G03*
X107326Y198036I1282J11613D01*
G01*
X184002Y242800D02*
G03*
X183541Y230326I9037J-6580D01*
G01*
X184007Y242806D02*
G03*
X184002Y242800I3635J-2655D01*
G01*
X189014Y246649D02*
G03*
X184007Y242806I4026J-10429D01*
G01*
X-75603Y207446D02*
X-59306D01*
X-33088Y181229D01*
X-161036Y131397D02*
X-112671Y83032D01*
X-175260Y173482D02*
X-161036Y159258D01*
Y131397D02*
Y159258D01*
X-157226Y132256D02*
Y161466D01*
Y132256D02*
X-111303Y86334D01*
X-171958Y176198D02*
X-157226Y161466D01*
X251557Y245283D02*
X252984Y246710D01*
Y277334D01*
X249140Y281178D02*
X252984Y277334D01*
X251557Y239917D02*
Y245283D01*
X184792Y175918D02*
X246507Y237633D01*
Y273937D01*
X236141Y286843D02*
X276411Y327112D01*
X196518Y286843D02*
X236141D01*
X258880Y344499D02*
Y451674D01*
X255578Y345867D02*
Y469689D01*
X235847Y326136D02*
X255578Y345867D01*
X227436Y313055D02*
X258880Y344499D01*
X-61724Y380492D02*
X95413D01*
X119253Y356652D01*
X-22987Y393319D02*
X-21590Y391922D01*
X88653D02*
X122555Y358020D01*
X-14351Y398399D02*
X-254Y412496D01*
X-21590Y391922D02*
X88653D01*
X243938Y281178D02*
X249140D01*
X243483Y285393D02*
X257702D01*
X239836Y277076D02*
X243938Y281178D01*
X239836Y257694D02*
Y277076D01*
X236534Y278444D02*
X243483Y285393D01*
X236534Y267700D02*
Y278444D01*
X-100526Y111429D02*
X-99894Y110797D01*
X-101600Y116893D02*
X-100526Y115818D01*
X-101600Y116893D02*
Y152130D01*
X-100526Y111429D02*
Y115818D01*
X-101727Y154570D02*
X-87376Y168921D01*
X-101727Y152257D02*
X-101600Y152130D01*
X-101727Y152257D02*
Y154570D01*
X-146312Y203073D02*
X-142502Y206883D01*
X-141800D01*
X-144944Y199771D02*
X-141134Y203581D01*
X-151371Y199771D02*
X-144944D01*
X-140433Y203581D02*
X-134850Y209164D01*
X-141800Y206883D02*
X-136218Y212466D01*
X-139766Y200279D02*
X-139065D01*
X-143576Y196469D02*
X-139766Y200279D01*
X-141134Y203581D02*
X-140433D01*
X-139065Y200279D02*
X-133485Y205859D01*
X-152738Y196469D02*
X-143576D01*
X-150003Y203073D02*
X-146312D01*
X-154755Y262742D02*
Y295357D01*
X-167808Y245338D02*
Y259735D01*
X-160920Y251908D02*
X-149881Y262947D01*
X-160920Y246542D02*
Y251908D01*
X-160145Y267398D02*
Y281795D01*
X-149881Y262947D02*
Y298261D01*
X-169675Y291325D02*
X-160145Y281795D01*
X-175017Y228790D02*
X-159989Y243817D01*
X-164506Y252992D02*
X-154755Y262742D01*
X-167808Y259735D02*
X-160145Y267398D01*
X-181621Y231525D02*
X-167808Y245338D01*
X-178319Y230157D02*
X-164506Y243971D01*
X-160920Y246542D02*
X-159989Y245611D01*
Y243817D02*
Y245611D01*
X-164506Y243971D02*
Y252992D01*
X-160456Y301058D02*
X-154755Y295357D01*
X-104635Y274955D02*
X-100708D01*
X-96409Y266729D02*
Y270656D01*
X-99340Y278257D02*
X-93107Y272024D01*
X-100708Y274955D02*
X-96409Y270656D01*
X-113792Y288782D02*
X-103267Y278257D01*
X-93107Y268097D02*
X-90102Y265092D01*
X-96409Y266729D02*
X-91470Y261790D01*
X-103267Y278257D02*
X-99340D01*
X-117094Y287414D02*
X-104635Y274955D01*
X-93107Y268097D02*
Y272024D01*
X-41331Y273304D02*
X14244D01*
X-14404Y279196D02*
X16544D01*
X-33421Y298212D02*
X-14404Y279196D01*
X16544D02*
X18925Y281577D01*
X-39963Y270002D02*
X12876D01*
X69900Y279196D02*
X78613Y287909D01*
X24291Y281577D02*
X26672Y279196D01*
X-41432Y273203D02*
X-41331Y273304D01*
X26672Y279196D02*
X69900D01*
X18925Y281577D02*
X24291D01*
X-40009Y304800D02*
X-33421Y298212D01*
Y298212D02*
X-33421D01*
X-91470Y261790D02*
X-67748D01*
X-69116Y265092D02*
X-61006Y273203D01*
X-67748Y261790D02*
X-59638Y269901D01*
X-40064D02*
X-39963Y270002D01*
X-90102Y265092D02*
X-69116D01*
X-61006Y273203D02*
X-41432D01*
X-59638Y269901D02*
X-40064D01*
X25659Y265321D02*
X30340Y270002D01*
X-58352Y282347D02*
X-56024D01*
X-53421Y279743D02*
Y280799D01*
X-85081Y295584D02*
X-69800D01*
X-62897Y297841D02*
X-54373D01*
X-65376Y289371D02*
X-58352Y282347D01*
X-78373Y302061D02*
X-67117D01*
X-65387Y289371D02*
X-65376D01*
X-67117Y302061D02*
X-62897Y297841D01*
X-24178Y231140D02*
X1270D01*
X-211716Y372303D02*
X-201373Y382646D01*
Y383540D01*
X-194896Y373826D02*
Y386396D01*
X-217518Y409018D02*
X-194896Y386396D01*
X-208123Y201108D02*
Y360599D01*
X-211716Y100196D02*
Y372303D01*
X-245364Y66548D02*
X-211716Y100196D01*
X-208123Y360599D02*
X-194896Y373826D01*
X-208123Y201108D02*
X-208026Y201010D01*
X-232927Y73397D02*
X-208026Y98298D01*
Y201010D01*
X251557Y239917D02*
X252984Y238490D01*
Y195791D02*
Y238490D01*
X199330Y265440D02*
X203594Y269704D01*
X219657D01*
X206465Y281735D02*
X212295D01*
X192260Y267530D02*
X206465Y281735D01*
X192260Y263173D02*
Y267530D01*
X276411Y327112D02*
Y337220D01*
X76454Y355854D02*
X87122Y366522D01*
X65786Y288036D02*
X72009Y294259D01*
X82407Y296037D02*
X86741D01*
X72009Y294259D02*
Y298479D01*
X78613Y292243D02*
X82407Y296037D01*
X83947Y299339D02*
X95250Y310642D01*
X81039Y299339D02*
X83947D01*
X76454Y302924D02*
Y355854D01*
X75311Y293611D02*
X81039Y299339D01*
X75311Y290703D02*
Y293611D01*
X86741Y296037D02*
X102870Y312166D01*
X78613Y287909D02*
Y292243D01*
X69342Y284734D02*
X75311Y290703D01*
X72009Y298479D02*
X76454Y302924D01*
X75271Y273304D02*
X84748Y263827D01*
X28972Y273304D02*
X75271D01*
X12876Y270002D02*
X17557Y265321D01*
X30340Y270002D02*
X73903D01*
X18925Y268623D02*
X24291D01*
X17557Y265321D02*
X25659D01*
X24291Y268623D02*
X28972Y273304D01*
X14244D02*
X18925Y268623D01*
X-93516Y197667D02*
X-58866D01*
X-103645Y212466D02*
X-92148Y200969D01*
X-105854Y205335D02*
X-87886Y187048D01*
X-105013Y209164D02*
X-93516Y197667D01*
X-92148Y200969D02*
X-57498D01*
X-150490Y218441D02*
X-65631D01*
X-133485Y205859D02*
X-106377D01*
X-134850Y209164D02*
X-105013D01*
X-136218Y212466D02*
X-103645D01*
X68580Y148204D02*
X69781Y147003D01*
X76708Y135908D02*
Y139565D01*
X69781Y146491D02*
X76708Y139565D01*
Y135908D02*
X76784Y135833D01*
X69781Y146491D02*
Y147003D01*
X68580Y148204D02*
Y149098D01*
X72295Y112852D02*
Y128127D01*
X26051Y174371D02*
X72295Y128127D01*
X84748Y263827D02*
X167700D01*
X73903Y270002D02*
X84109Y259797D01*
X142825Y273605D02*
X149999Y280780D01*
X91646Y267129D02*
X146987D01*
X84109Y259797D02*
X174515D01*
X87630Y271145D02*
X91646Y267129D01*
X124460Y273605D02*
X142825D01*
X192786Y421640D02*
X207264Y407162D01*
X203075Y431147D02*
Y449455D01*
Y431147D02*
X211312Y422910D01*
X211823D01*
X192786Y421640D02*
Y429733D01*
X217929Y319786D02*
X224028D01*
X217170Y319027D02*
X217929Y319786D01*
X170887Y319027D02*
X217170D01*
X53542Y436372D02*
X170887Y319027D01*
X1680Y436372D02*
X53542D01*
X-50898Y383794D02*
X1680Y436372D01*
X-60357Y383794D02*
X-50898D01*
X-75879Y399316D02*
X-60357Y383794D01*
X-75879Y399316D02*
Y440527D01*
X-95854Y460502D02*
X-75879Y440527D01*
X-125730Y460502D02*
X-95854D01*
X197311Y326263D02*
X230835D01*
X230961Y326136D02*
X235847D01*
X230835Y326263D02*
X230961Y326136D01*
X231013Y304419D02*
X268224Y341630D01*
X72748Y412496D02*
X172190Y313055D01*
X227436D01*
X122555Y305588D02*
X123724Y304419D01*
X231013D01*
X197185Y326136D02*
X197311Y326263D01*
X168448Y326136D02*
X197185D01*
X276776Y253322D02*
Y264609D01*
Y253322D02*
X276860Y253238D01*
X272780Y268606D02*
Y269240D01*
Y268606D02*
X276776Y264609D01*
X24130Y160274D02*
X24762Y159642D01*
Y155324D02*
Y159642D01*
Y155324D02*
X31242Y148844D01*
X-35570Y174371D02*
X26051D01*
X57277Y418592D02*
X57658Y418973D01*
X-3318Y418592D02*
X57277D01*
X-22987Y398923D02*
X-3318Y418592D01*
X-22987Y393319D02*
Y398923D01*
X122555Y305588D02*
Y358020D01*
X268224Y341630D02*
X272001D01*
X276411Y337220D01*
X190171Y280781D02*
X196518Y286843D01*
X190142Y280752D02*
X190171Y280781D01*
X188929Y279539D02*
X190142Y280752D01*
X188929Y264512D02*
Y279539D01*
X176340Y251922D02*
X188929Y264512D01*
X171196Y251922D02*
X176340D01*
X163830Y244557D02*
X171196Y251922D01*
X-58866Y197667D02*
X-35570Y174371D01*
X213133Y255797D02*
X213172Y255758D01*
X208515Y255797D02*
X213133D01*
X208300Y256012D02*
X208515Y255797D01*
X213172Y255758D02*
X215691D01*
X220291Y260357D01*
X-182396Y244759D02*
Y353814D01*
X-118347Y416035D02*
X-112141Y409829D01*
Y359490D02*
Y409829D01*
X-144328Y416035D02*
X-118347D01*
X-137639Y307662D02*
X-134647D01*
X-147375Y317399D02*
X-137639Y307662D01*
X-134647D02*
X-134239Y307254D01*
X73152Y360934D02*
X86614Y374396D01*
X73152Y304292D02*
Y360934D01*
X86614Y374396D02*
X96839D01*
X115951Y355284D01*
X-55951Y390271D02*
X-55189D01*
X-3301Y442160D01*
X-79181Y397948D02*
X-61724Y380492D01*
X97028Y366522D02*
X112649Y350901D01*
X87122Y366522D02*
X97028D01*
X-254Y412496D02*
X72748D01*
X222969Y253876D02*
X223862D01*
X226786Y250952D01*
X233093D01*
X170441Y266567D02*
X171698D01*
X175166Y270035D01*
X167700Y263827D02*
X170441Y266567D01*
X178054Y237421D02*
Y248967D01*
X192260Y263173D01*
X212295Y281735D02*
X224028Y270002D01*
X174515Y259797D02*
X182071Y267353D01*
Y285703D02*
X196342Y299974D01*
X175166Y270035D02*
X175594D01*
X182071Y267353D02*
Y285703D01*
X147573Y293376D02*
X153301Y287647D01*
X149999Y280780D02*
Y286280D01*
X146205Y290074D02*
X149999Y286280D01*
X124034Y294754D02*
X145358D01*
X123411Y290706D02*
X146205Y290074D01*
X112649Y301469D02*
X123411Y290706D01*
X153301Y273443D02*
Y287647D01*
X137387Y283196D02*
X143522Y283597D01*
X125490Y283196D02*
X137387D01*
X145358Y294754D02*
X147573Y293376D01*
X-166357Y213222D02*
X-155708D01*
X-150490Y218441D01*
X-65631D02*
X-49247Y202057D01*
X-171715Y218581D02*
Y227422D01*
X-57498Y200969D02*
X-34456Y177927D01*
X-21336Y224409D02*
X-16129D01*
X-16129Y224409D02*
X151796D01*
X-16129Y224409D02*
X-16129Y224409D01*
X-27813Y227505D02*
X-24178Y231140D01*
X-27813Y214487D02*
Y227505D01*
X-32594Y209706D02*
X-27813Y214487D01*
X-79678Y248858D02*
X-40526Y209706D01*
X-32594D01*
X112118Y175918D02*
X184792D01*
X226426Y260357D02*
X229354Y257429D01*
X229676Y270002D02*
X230057Y270383D01*
X229354Y257429D02*
X230248D01*
X220291Y260357D02*
X226426D01*
X206171Y263121D02*
X213635D01*
X213740Y263227D01*
X219657Y269704D02*
X225454Y263906D01*
X258880Y451674D02*
X275455Y468249D01*
X-195834Y495300D02*
X-186182D01*
X-139516Y462464D02*
X-135001Y466979D01*
X-95415Y450723D02*
X-82483Y437791D01*
X-141605Y450723D02*
X-95415D01*
X-160020Y473808D02*
Y507773D01*
X-186182Y495300D02*
X-141605Y450723D01*
X-94047Y454025D02*
X-79181Y439159D01*
X-160020Y473808D02*
X-140237Y454025D01*
X-94047D01*
X-211041Y411701D02*
X-205420Y417322D01*
X-165911D01*
X-217518Y409018D02*
Y414384D01*
X-210880Y421022D01*
X-199805D01*
X-193167Y427660D01*
Y487190D01*
X-123698Y294040D02*
Y310543D01*
X-128001Y314846D02*
X-123698Y310543D01*
X-127762Y293434D02*
Y309937D01*
X-131303Y313478D02*
X-127762Y309937D01*
X-131303Y313478D02*
Y350381D01*
X-128001Y314846D02*
Y343629D01*
X-145566Y343191D02*
X-127330Y361427D01*
Y362620D01*
X-143353Y355937D02*
Y366013D01*
X-156155Y392212D02*
X-133574Y369630D01*
X-143593Y366253D02*
X-143353Y366013D01*
X-127330Y362620D02*
X-115443Y374507D01*
X-152170Y347119D02*
X-143353Y355937D01*
X-140291Y367621D02*
X-140051Y367381D01*
X-148868Y345752D02*
X-140051Y354569D01*
X-145566Y328549D02*
Y343191D01*
X-133574Y364344D02*
Y369630D01*
X-140051Y354569D02*
Y367381D01*
X125015Y298443D02*
X158741D01*
X160892Y296292D01*
X161434D01*
X146987Y267129D02*
X153301Y273443D01*
X72295Y112852D02*
X144508Y40638D01*
X-245364Y31734D02*
Y66548D01*
X-73691Y3557D02*
X200148D01*
X-82483Y381441D02*
X-47752Y346710D01*
X20066D01*
X-82483Y381441D02*
Y437791D01*
X59690Y288036D02*
X65786D01*
X54610Y293116D02*
Y296637D01*
Y293116D02*
X59690Y288036D01*
X54610Y296637D02*
X66675Y308702D01*
X63373Y294513D02*
X73152Y304292D01*
X63103Y294513D02*
X63373D01*
X66675Y308702D02*
Y323088D01*
X44958Y292510D02*
X52734Y284734D01*
X69342D01*
X20066Y346710D02*
X44958Y321818D01*
Y292510D02*
Y321818D01*
X-53594Y302768D02*
X-51562Y304800D01*
X-53594Y297096D02*
Y297841D01*
Y302768D01*
X-51562Y304800D02*
X-40009D01*
X-54373Y297841D02*
X-53611Y297079D01*
X-113792Y288782D02*
Y288804D01*
X-120396Y295408D02*
X-113792Y288804D01*
X-93980Y303530D02*
X-93027D01*
X-123698Y294040D02*
X-117094Y287436D01*
Y287414D02*
Y287436D01*
X-106680Y290830D02*
X-93980Y303530D01*
X-41925Y194735D02*
X97493D01*
X-49247Y202057D02*
X-41925Y194735D01*
X-156850Y209920D02*
X-150003Y203073D01*
X-167724Y209920D02*
X-156850D01*
X-170460Y203316D02*
X-159586D01*
X-178319Y215846D02*
X-169092Y206618D01*
X-158218D01*
X-159586Y203316D02*
X-152738Y196469D01*
X-158218Y206618D02*
X-151371Y199771D01*
X-181621Y214478D02*
X-170460Y203316D01*
X-87886Y187048D02*
X-87376Y186529D01*
Y168921D02*
Y186529D01*
X-33088Y181229D02*
X106807D01*
X-106377Y205859D02*
X-105854Y205335D01*
X-175017Y217213D02*
X-167724Y209920D01*
X-132308Y242443D02*
Y242443D01*
X-125095Y249656D02*
Y282575D01*
X-134086Y240665D02*
X-132308Y242443D01*
X-113157Y244475D02*
Y252873D01*
X-132718Y237363D02*
X-121793Y248288D01*
X-157104Y237363D02*
X-132718D01*
X-158472Y240665D02*
X-134086D01*
X-132308Y242443D02*
X-125095Y249656D01*
X-121793Y248288D02*
Y287465D01*
X-147421Y228727D02*
X-128905D01*
X-113157Y244475D01*
X-171715Y218581D02*
X-166357Y213222D01*
X-159623Y216524D02*
X-147421Y228727D01*
X-168413Y226054D02*
X-157104Y237363D01*
X-171715Y227422D02*
X-158472Y240665D01*
X-114039Y79730D02*
X-62906D01*
X-111303Y86334D02*
X-60171D01*
X-112671Y83032D02*
X-61538D01*
X-181737Y147428D02*
X-114039Y79730D01*
X-23876Y31486D02*
Y45369D01*
X-62906Y79730D02*
X-27178Y44001D01*
X-29805Y30227D02*
X-27178Y32854D01*
X-61538Y83032D02*
X-23876Y45369D01*
X-27178Y32854D02*
Y44001D01*
X-28437Y26925D02*
X-23876Y31486D01*
X-48745Y30227D02*
X-29805D01*
X-57168Y26925D02*
X-28437D01*
X-98096Y64617D02*
X-98096D01*
X-86614Y16480D02*
Y53135D01*
X-98096Y64617D02*
X-86614Y53135D01*
Y16480D02*
X-73691Y3557D01*
X-43451Y15241D02*
X-41209Y17484D01*
X-17483D01*
X-60171Y86334D02*
X-9820Y35983D01*
X207264Y406654D02*
Y407162D01*
X228477Y427867D02*
Y438139D01*
X207264Y406654D02*
X228477Y427867D01*
X235614Y299974D02*
X269820Y334180D01*
X269934D01*
X207264Y406654D02*
X207697Y406221D01*
Y368590D02*
X208129Y368157D01*
X207697Y368590D02*
Y406221D01*
X233093Y250952D02*
X239836Y257694D01*
X225454Y263906D02*
X232740D01*
X236534Y267700D01*
X208263Y151069D02*
X252984Y195791D01*
X106807Y181229D02*
X112118Y175918D01*
X105029Y177927D02*
X195308Y87647D01*
Y15241D02*
Y87647D01*
X-34456Y177927D02*
X105029D01*
X208263Y11672D02*
Y151069D01*
X200148Y3557D02*
X208263Y11672D01*
X144508Y15241D02*
Y40638D01*
X151796Y224409D02*
X152533Y224409D01*
X153065Y224942D02*
X160333Y232345D01*
X152533Y224409D02*
X153065Y224942D01*
X104708Y198037D02*
X104762Y198036D01*
X-14192Y204597D02*
X-7632Y198037D01*
X104708D01*
X97493Y194735D02*
X97515Y194735D01*
X97546Y194735D01*
X100573Y194664D01*
X107249D01*
X120826D02*
X181963D01*
X107249D02*
X113019Y194734D01*
X107326Y198036D02*
X121698D01*
X121769Y197966D01*
X113019Y194734D02*
X118385D01*
X120826Y194664D01*
X159163Y197966D02*
X183541Y222344D01*
X121769Y197966D02*
X159163D01*
X181963Y194664D02*
X223520Y236220D01*
X202083Y259033D02*
X206171Y263121D01*
X224028Y270002D02*
X229676D01*
X173505Y232873D02*
X178054Y237421D01*
X183541Y222344D02*
Y230326D01*
X189014Y246649D02*
X202083Y259033D01*
X196342Y299974D02*
X235614D01*
X52424Y442160D02*
X168448Y326136D01*
X-47637Y285395D02*
X-43316Y289716D01*
Y297808D01*
X-53421Y280799D02*
X-48825Y285395D01*
X-47637D01*
X-53611Y297079D02*
X-53594Y297096D01*
X-172977Y244839D02*
Y336152D01*
X-160456Y301058D02*
Y322998D01*
X-194818Y222998D02*
X-172977Y244839D01*
X-169675Y334785D02*
X-150313Y354147D01*
X-156450Y352680D02*
Y361637D01*
X-172977Y336152D02*
X-156450Y352680D01*
X-176279Y343618D02*
X-175714Y344184D01*
X-176279Y246206D02*
Y343618D01*
X-169675Y291325D02*
Y334785D01*
X-198120Y224366D02*
X-176279Y246206D01*
X-181621Y214478D02*
Y231525D01*
X-178319Y215846D02*
Y230157D01*
X-168413Y219949D02*
Y226054D01*
X-175017Y217213D02*
Y228790D01*
X-168413Y219949D02*
X-164989Y216524D01*
X-194818Y215462D02*
Y222998D01*
X-201422Y225733D02*
X-182396Y244759D01*
X-198120Y214094D02*
Y224366D01*
X-201422Y212726D02*
Y225733D01*
X-175260Y173482D02*
Y191234D01*
X-181737Y147428D02*
Y193041D01*
X-201422Y212726D02*
X-181737Y193041D01*
X-198120Y214094D02*
X-175260Y191234D01*
X-171958Y176198D02*
Y192602D01*
X-194818Y215462D02*
X-171958Y192602D01*
X-128001Y343629D02*
X-112141Y359490D01*
X-131303Y350381D02*
X-121747Y359937D01*
X-121524Y323422D02*
X-120892Y322790D01*
X-127762Y293434D02*
X-121793Y287465D01*
X-120892Y321055D02*
X-120396Y320558D01*
X-120892Y321055D02*
Y322790D01*
X-120396Y311655D02*
X-120396Y311655D01*
Y320558D01*
X-120396Y295408D02*
Y311655D01*
X-153852Y311332D02*
X-125095Y282575D01*
X-91886Y248858D02*
X-79678D01*
X-109363Y256667D02*
X-99695D01*
X-91886Y248858D01*
X-89340Y299445D02*
X-88943D01*
X-85081Y295584D01*
X-93027Y303133D02*
Y303530D01*
Y303133D02*
X-89340Y299445D01*
X-56024Y282347D02*
X-53611Y279934D01*
X109347Y299339D02*
Y337185D01*
Y299339D02*
X125490Y283196D01*
X115951Y302836D02*
X124034Y294754D01*
X119253Y304204D02*
X125015Y298443D01*
X119253Y304204D02*
Y325566D01*
X115951Y302836D02*
Y355284D01*
X112649Y301469D02*
Y350901D01*
X119253Y325566D02*
Y356652D01*
X105918Y340614D02*
X109347Y337185D01*
X228069Y333271D02*
X228600Y332740D01*
X165983Y333271D02*
X228069D01*
X51452Y447802D02*
X165983Y333271D01*
X102870Y312166D02*
Y332740D01*
X95250Y336550D02*
X99314Y340614D01*
X95250Y310642D02*
Y336550D01*
X99314Y340614D02*
X105918D01*
X-3301Y442160D02*
X52424D01*
X-69850Y447802D02*
X51452D01*
X-79181Y397948D02*
Y439159D01*
X-89027Y466979D02*
X-69850Y447802D01*
X-135001Y466979D02*
X-89027D01*
X-245364Y31734D02*
X-232019Y18389D01*
X-232927Y51082D02*
Y73397D01*
X-165911Y417322D02*
X-156155Y407566D01*
X-182396Y353814D02*
X-175594Y360616D01*
X-157154Y305535D02*
X-149881Y298261D01*
X-175594Y360616D02*
X-162927D01*
X-136475Y383667D02*
X-119237D01*
X-156155Y392212D02*
Y407566D01*
X-148281Y395473D02*
Y410828D01*
Y395473D02*
X-136475Y383667D01*
X-150517Y377847D02*
Y377847D01*
X-146262Y373592D02*
X-146019D01*
X-147387Y370290D02*
X-143593Y366496D01*
X-150313Y363570D02*
X-150070Y363813D01*
X-140291Y367621D02*
Y367864D01*
X-146019Y373592D02*
X-140291Y367864D01*
X-147630Y370290D02*
X-147387D01*
X-150517Y377847D02*
X-146262Y373592D01*
X-163217Y374545D02*
X-151884D01*
X-150313Y354147D02*
Y363570D01*
X-143593Y366253D02*
Y366496D01*
X-151884Y374545D02*
X-147630Y370290D01*
X-160963Y388293D02*
X-150517Y377847D01*
X-161838Y388293D02*
X-160963D01*
X-157154Y321630D02*
X-148868Y329916D01*
X-153852Y320262D02*
X-145566Y328549D01*
X-153852Y311332D02*
Y320262D01*
X-148868Y329916D02*
Y345752D01*
X-157154Y305535D02*
Y321630D01*
X-152170Y331284D02*
Y347119D01*
X-160456Y322998D02*
X-152170Y331284D01*
X-121747Y359937D02*
X-120853D01*
X-119237Y383667D02*
X-115443Y379873D01*
X-199644Y491490D02*
X-195834Y495300D01*
X-199644Y430343D02*
Y491490D01*
X-193167Y487190D02*
X-192804Y487553D01*
X-160133Y507887D02*
X-160020Y507773D01*
X-153670Y416217D02*
Y436880D01*
X214630Y384810D02*
X246380D01*
X-113157Y252873D02*
X-109363Y256667D01*
X-17483Y17484D02*
X-9820Y25147D01*
Y35983D01*
X-127000Y15240D02*
Y44872D01*
X-100778Y71094D02*
X-89611D01*
X-127000Y44872D02*
X-100778Y71094D01*
X-89611D02*
X-48745Y30227D01*
X-68851Y15241D02*
X-57168Y26925D01*
X-164989Y216524D02*
X-159623D01*
X160333Y232345D02*
X160860Y232873D01*
X173505D01*
X172720Y374650D02*
X198120Y349250D01*
X-153670Y416217D02*
X-148281Y410828D01*
X-115443Y374507D02*
Y379873D01*
X-156547Y361735D02*
X-156450Y361637D01*
X-160639Y368173D02*
X-156547Y364081D01*
Y361735D02*
Y364081D01*
X172720Y374650D02*
Y458470D01*
X-166005Y368173D02*
X-160639D01*
X-169799Y397716D02*
X-162632Y404883D01*
X-169799Y371967D02*
X-166005Y368173D01*
X-169799Y371967D02*
Y397716D01*
X-163322Y374650D02*
X-163217Y374545D01*
D133*
X284013Y221194D02*
Y438888D01*
X280389Y442512D02*
X284013Y438888D01*
X280389Y442512D02*
Y453500D01*
X259969Y190300D02*
X288668Y218999D01*
X279740Y475402D02*
X288668Y466474D01*
X238760Y175940D02*
X284013Y221194D01*
X288668Y218999D02*
Y466474D01*
X238760Y42128D02*
X244312Y36576D01*
X238760Y42128D02*
Y175940D01*
X222250Y508166D02*
Y532384D01*
X222504Y532638D01*
X222250Y508166D02*
X224671Y505745D01*
Y499737D02*
X225044Y499364D01*
X224671Y499737D02*
Y505745D01*
X266372Y469283D02*
X272492Y475402D01*
X266372Y469085D02*
Y469283D01*
X272492Y475402D02*
X279740D01*
X251072Y440866D02*
Y445206D01*
X243134Y447040D02*
X249238D01*
X245006Y434800D02*
X251072Y440866D01*
X249238Y447040D02*
X251072Y445206D01*
X243134Y461010D02*
X249626D01*
X251460Y455224D02*
Y459176D01*
X243134Y453390D02*
X249626D01*
X248547Y480957D02*
X248920Y481330D01*
X241300Y448874D02*
X243134Y447040D01*
X248425Y479456D02*
X248547Y479579D01*
X224790Y474980D02*
X229632D01*
X241300Y451556D02*
X243134Y453390D01*
X235781Y409845D02*
Y468830D01*
X249626Y453390D02*
X251460Y455224D01*
X235781Y409845D02*
X237616Y408011D01*
X249626Y461010D02*
X251460Y459176D01*
X237616Y408011D02*
X246584D01*
X243134Y468630D02*
X246591D01*
X229632Y474980D02*
X235781Y468830D01*
X241300Y448874D02*
Y451556D01*
X245006Y416648D02*
X245094Y416560D01*
X241300Y466796D02*
X243134Y468630D01*
X245006Y416648D02*
X245094Y416560D01*
X248425Y470464D02*
Y479456D01*
X248547Y479579D02*
Y480957D01*
X246584Y408011D02*
X246924Y407670D01*
X246591Y468630D02*
X248425Y470464D01*
X245006Y416648D02*
Y434800D01*
X241300Y462844D02*
X243134Y461010D01*
X241300Y462844D02*
Y466796D01*
X259969Y86360D02*
Y190300D01*
X-186690Y530860D02*
X-158794D01*
X-123234Y495300D02*
X-110490D01*
X-158794Y530860D02*
X-123234Y495300D01*
X-218711Y565421D02*
X-203200Y549910D01*
X-218711Y565421D02*
Y582931D01*
D134*
X265357Y415871D02*
X271272Y409956D01*
X265357Y415871D02*
Y433697D01*
X-16735Y367128D02*
X-10911Y361304D01*
X-24216Y374015D02*
X-17330Y367128D01*
X-16735D01*
X-131770Y195961D02*
X-131087Y195278D01*
X-124428D01*
X-165401Y192151D02*
X-141788D01*
X-137978Y195961D01*
X-124428Y195278D02*
X-122191Y193041D01*
X-137978Y195961D02*
X-131770D01*
X265774Y345286D02*
Y367198D01*
X229224Y308737D02*
X265774Y345286D01*
X-38174Y265684D02*
X11088D01*
X-61018Y250685D02*
X-58527Y253176D01*
X-67225Y250685D02*
X-61018D01*
X-58527Y253176D02*
X-50683D01*
X-88962D02*
X-69716D01*
X-67225Y250685D01*
X52199Y537337D02*
X54446Y539584D01*
X19177Y537337D02*
X52199D01*
X24440Y532003D02*
X54408D01*
X54496Y532091D02*
X85051D01*
X54446Y539584D02*
X146216D01*
X54408Y532003D02*
X54496Y532091D01*
X-24130Y494030D02*
X19177Y537337D01*
X-21026Y486537D02*
X24440Y532003D01*
X17458Y254657D02*
Y259314D01*
X11088Y265684D02*
X17458Y259314D01*
Y254657D02*
X23303Y248811D01*
X16767Y237577D02*
X34641D01*
X27383Y248811D02*
X34641Y241553D01*
Y237577D02*
Y241553D01*
X23303Y248811D02*
X27383D01*
X-122191Y193041D02*
X-103705D01*
X-101081Y188965D02*
X-100838Y188722D01*
X-103705Y193041D02*
X-101081Y190417D01*
Y188965D02*
Y190417D01*
X-74066Y75412D02*
X-35924Y37269D01*
X-124295Y75412D02*
X-74066D01*
X-31475Y98394D02*
X-31446D01*
X-31875Y98794D02*
X-31475Y98394D01*
X-31446D02*
X-19050Y85998D01*
Y80145D02*
Y85998D01*
X13761Y140970D02*
Y162430D01*
Y110535D02*
Y140970D01*
X34708D01*
X38518Y144780D01*
X28570Y132974D02*
X32380D01*
X36913Y128441D01*
X28448Y133096D02*
X28570Y132974D01*
X36913Y128441D02*
X46589D01*
X-63446Y143710D02*
X-63446D01*
X-56537Y136801D01*
Y114173D02*
Y136801D01*
X-68255Y148519D02*
X-63446Y143710D01*
X-79939Y148519D02*
X-68255D01*
X146216Y539584D02*
X147320Y538480D01*
X152224Y322919D02*
X166406Y308737D01*
X229224D01*
X276225Y488823D02*
X293663Y471385D01*
X274615Y197883D02*
X293663Y216930D01*
Y471385D01*
X-193355Y6351D02*
X-124295Y75412D01*
X-245382Y6351D02*
X-193355D01*
X-258081Y19051D02*
X-245382Y6351D01*
X13761Y162430D02*
X18982Y167651D01*
X22781D01*
X23024Y167894D01*
X23368D01*
X38518Y144780D02*
X38862D01*
X13761Y92804D02*
X34384D01*
X40640Y99060D01*
X13716Y110490D02*
X13738Y110468D01*
Y92827D02*
X13761Y92804D01*
X13716Y110490D02*
X13761Y110535D01*
X13738Y92827D02*
Y110468D01*
X60960Y99060D02*
X93980Y66040D01*
X40640Y99060D02*
X60960D01*
X-163620Y569514D02*
Y569857D01*
X-164064Y570302D02*
Y579067D01*
X-156571Y572409D02*
X-149860Y579120D01*
X-164064Y579067D02*
X-156518Y586613D01*
X-149860Y579120D02*
X-135109D01*
X-164064Y570302D02*
X-163620Y569857D01*
X251805Y31659D02*
Y49875D01*
X248088Y27941D02*
X251805Y31659D01*
X220709Y15241D02*
X233409Y27941D01*
X248088D01*
X-29618Y329233D02*
X-28753Y328369D01*
X-36830Y331470D02*
X-34593Y329233D01*
X-29618D01*
X-28753Y328369D02*
X20118D01*
X-71247Y486283D02*
X-62230Y495300D01*
X-161936Y223371D02*
X-152262Y233045D01*
X-150Y212090D02*
X-75Y212015D01*
X-22162Y212090D02*
X-150D01*
X-40911Y222162D02*
Y252350D01*
X-46471Y205388D02*
X-28864D01*
X-40911Y222162D02*
X-35277Y216527D01*
Y216183D02*
Y216527D01*
X-28864Y205388D02*
X-22162Y212090D01*
X-70953Y229870D02*
X-46471Y205388D01*
X-19050Y77470D02*
Y80145D01*
X251805Y49875D02*
X267462Y65532D01*
X198628Y488823D02*
X276225D01*
X183515Y473710D02*
X198628Y488823D01*
X20118Y328369D02*
X20361Y328126D01*
X-10911Y360415D02*
X-10668Y360172D01*
X-10911Y360415D02*
Y361304D01*
X-110173Y303530D02*
X-110060Y303642D01*
Y311834D01*
X-109474Y312420D01*
Y314325D01*
X-108204Y315595D01*
X-17516D01*
X3624Y294454D01*
X-117475Y246500D02*
Y254661D01*
X-130930Y233045D02*
X-117475Y246500D01*
X-152262Y233045D02*
X-130930D01*
X-65899Y554134D02*
Y560211D01*
X-67582Y552451D02*
X-65899Y554134D01*
Y560211D02*
X-59690Y566420D01*
X267462Y173419D02*
X274615Y180572D01*
Y197883D01*
X267462Y65532D02*
Y173419D01*
X-30480Y66040D02*
X-19050Y77470D01*
X-19050Y80145D02*
X-1405D01*
X-19050Y80145D02*
X-19050Y80145D01*
X-80010Y148590D02*
X-79939Y148519D01*
X93980Y42660D02*
X94636Y42004D01*
X93980Y42660D02*
Y66040D01*
X-85943Y154523D02*
X-77235Y163231D01*
X-93502Y136412D02*
Y146964D01*
X-87630Y156210D02*
X-85943Y154523D01*
X-93502Y146964D02*
X-85943Y154523D01*
X-187855Y214605D02*
Y220315D01*
X-188098Y220558D02*
X-187855Y220315D01*
Y214605D02*
X-165401Y192151D01*
X-90170Y229870D02*
X-70953D01*
X-96771Y260985D02*
X-88962Y253176D01*
X-111151Y260985D02*
X-96771D01*
X-50683Y253176D02*
X-38174Y265684D01*
X15584Y238760D02*
X16767Y237577D01*
X15240Y238760D02*
X15584D01*
X53427Y237577D02*
X59690Y243840D01*
X34641Y237577D02*
X53427D01*
X138048Y322919D02*
X152224D01*
X57283Y466217D02*
X156975Y366525D01*
X-61524Y466217D02*
X57283D01*
X51462Y453898D02*
X160655Y344705D01*
X52021Y460883D02*
X160860Y352044D01*
X168756Y344705D02*
X168910Y344551D01*
X160655Y344705D02*
X168756D01*
X160860Y352044D02*
X177546D01*
X-63733Y460883D02*
X52021D01*
X-64292Y453898D02*
X51462D01*
X-76581Y466188D02*
X-64292Y453898D01*
X-58420Y473710D02*
X183515D01*
X-71247Y468397D02*
X-63733Y460883D01*
X-65913Y470606D02*
X-61524Y466217D01*
X-65913Y470606D02*
Y479425D01*
X-58801Y486537D01*
X-21026D01*
X-71247Y468397D02*
Y486283D01*
X-76581Y466188D02*
Y492379D01*
X-60960Y508000D01*
X15240Y574088D02*
Y584200D01*
X21779Y567549D02*
X82409D01*
X15240Y574088D02*
X21779Y567549D01*
X-279671Y82551D02*
X-276235D01*
X-272426Y86360D02*
X-265774D01*
X-276235Y82551D02*
X-272426Y86360D01*
X-279671Y79115D02*
Y82551D01*
X-283727Y75059D02*
X-279671Y79115D01*
X-283727Y51082D02*
Y75059D01*
X-283685Y34290D02*
Y51040D01*
Y19093D02*
Y34290D01*
X-271780D01*
X-283727Y19051D02*
X-283685Y19093D01*
X54338Y128441D02*
X62089D01*
X46589D02*
X54338D01*
X54409Y135178D02*
X54480Y135249D01*
X54338Y128441D02*
X54409Y128512D01*
Y135178D01*
X54338Y117941D02*
X62089D01*
X46589D02*
X54338D01*
Y110441D02*
Y117941D01*
X46589D02*
Y128441D01*
X177546Y352044D02*
X184150Y345440D01*
X-40895Y162560D02*
X-12700D01*
X-93502Y136412D02*
X-81552Y124461D01*
X-77235Y163231D02*
X-41910D01*
X-156518Y586613D02*
X-135059D01*
X-130107Y581661D01*
X-123462D01*
X-135109Y579120D02*
X-127617Y571628D01*
X-156480Y556260D02*
X-148862Y548641D01*
X-160020Y556260D02*
X-156480D01*
X-127617Y571628D02*
X-112029D01*
X-101996Y581661D01*
X-95521D01*
X-106437Y246137D02*
Y249947D01*
X-117475Y254661D02*
X-111151Y260985D01*
X-106680Y250190D02*
X-106437Y249947D01*
Y246137D02*
X-90170Y229870D01*
X-41566Y163231D02*
X-40895Y162560D01*
X-41910Y163231D02*
X-41566D01*
X26670Y491490D02*
X163830D01*
X175260Y502920D01*
D135*
X-17306Y106923D02*
X-13557Y103174D01*
X-44693Y106923D02*
X-17306D01*
X-13800Y103760D02*
X-13557Y103517D01*
X-11569D01*
X21082Y70866D01*
Y70866D02*
Y70866D01*
X-104410Y95250D02*
X-56365D01*
X-136975Y143675D02*
X-129204D01*
X-145051Y135891D02*
X-144759D01*
X-136975Y143675D01*
X-116832Y107672D02*
Y107672D01*
Y107672D02*
X-104410Y95250D01*
X-145051Y135891D02*
X-116832Y107672D01*
D136*
X107708Y150678D02*
X108206D01*
X124549Y134335D01*
X129696D01*
X129756Y134275D01*
X99740Y171450D02*
X107281Y163909D01*
X107708D01*
X74930Y171450D02*
X99740D01*
D137*
X-148082Y446786D02*
X-97045D01*
X-86420Y436160D01*
X-178816Y477520D02*
X-148082Y446786D01*
X-86420Y381194D02*
Y436160D01*
X-105664Y361950D02*
X-86420Y381194D01*
X-152218Y393842D02*
Y409197D01*
Y393842D02*
X-135566Y377190D01*
X-121920D01*
X-186690Y477520D02*
X-178816D01*
X-186690Y443669D02*
Y459740D01*
Y443669D02*
X-152218Y409197D01*
D138*
X163830Y244557D02*
D03*
X281940Y165100D02*
D03*
Y106680D02*
D03*
X-279671Y166371D02*
D03*
Y107951D02*
D03*
D139*
X163830Y219156D02*
D03*
X-127000Y15240D02*
D03*
X-283482Y19051D02*
D03*
X-258081D02*
D03*
X-283727Y51082D02*
D03*
X-258327D02*
D03*
X119108Y15241D02*
D03*
X144508D02*
D03*
X169909D02*
D03*
X195308D02*
D03*
X220709D02*
D03*
X246108D02*
D03*
X106044Y243987D02*
D03*
X61997Y580487D02*
D03*
X106044Y209650D02*
D03*
X-68851Y15241D02*
D03*
X281940Y139700D02*
D03*
Y81280D02*
D03*
X-279671Y140971D02*
D03*
Y82551D02*
D03*
D140*
X-101600Y15240D02*
D03*
X-232682Y19051D02*
D03*
X-232927Y51082D02*
D03*
X271509Y15241D02*
D03*
X131444Y243987D02*
D03*
X36597Y580487D02*
D03*
X131444Y209650D02*
D03*
X-43451Y15241D02*
D03*
D141*
X-289540Y316200D02*
D03*
D142*
Y236200D02*
D03*
D143*
X175260Y502920D02*
D03*
X147320Y538480D02*
D03*
X-36830Y331470D02*
D03*
X172720Y458470D02*
D03*
X-201930Y21590D02*
D03*
X223520Y236220D02*
D03*
X193040D02*
D03*
X-246651Y83821D02*
D03*
X-218711Y582931D02*
D03*
X31388Y18048D02*
D03*
X-254000Y375920D02*
D03*
X-122191Y193041D02*
D03*
X-81552Y124461D02*
D03*
X94636Y42004D02*
D03*
X-145051Y135891D02*
D03*
Y165101D02*
D03*
X-271Y246381D02*
D03*
X-90170Y229870D02*
D03*
D144*
X-223520Y375920D02*
D03*
D145*
X71064Y19441D02*
D03*
D146*
X166706Y286470D02*
D03*
D147*
X-19050Y257152D02*
D03*
D148*
X227060Y278075D02*
D03*
X173720D02*
D03*
D149*
X-53611Y279934D02*
D03*
D150*
X-110173Y303530D02*
D03*
X-93027D02*
D03*
D151*
X-148862Y548641D02*
D03*
X-67582Y552451D02*
D03*
X-123462Y581661D02*
D03*
X-95521D02*
D03*
M02*
