G04*
G04 #@! TF.GenerationSoftware,Altium Limited,Altium Designer,25.2.1 (25)*
G04*
G04 Layer_Color=8388736*
%FSLAX44Y44*%
%MOMM*%
G71*
G04*
G04 #@! TF.SameCoordinates,62CD579E-F84E-4E22-AA80-F3E822DACE5A*
G04*
G04*
G04 #@! TF.FilePolarity,Negative*
G04*
G01*
G75*
%ADD20R,0.7500X0.9000*%
%ADD21R,0.9500X1.3500*%
%ADD25R,1.2000X0.8000*%
G04:AMPARAMS|DCode=27|XSize=0.6mm|YSize=1.15mm|CornerRadius=0.15mm|HoleSize=0mm|Usage=FLASHONLY|Rotation=180.000|XOffset=0mm|YOffset=0mm|HoleType=Round|Shape=RoundedRectangle|*
%AMROUNDEDRECTD27*
21,1,0.6000,0.8500,0,0,180.0*
21,1,0.3000,1.1500,0,0,180.0*
1,1,0.3000,-0.1500,0.4250*
1,1,0.3000,0.1500,0.4250*
1,1,0.3000,0.1500,-0.4250*
1,1,0.3000,-0.1500,-0.4250*
%
%ADD27ROUNDEDRECTD27*%
G04:AMPARAMS|DCode=28|XSize=0.3mm|YSize=1.15mm|CornerRadius=0.075mm|HoleSize=0mm|Usage=FLASHONLY|Rotation=180.000|XOffset=0mm|YOffset=0mm|HoleType=Round|Shape=RoundedRectangle|*
%AMROUNDEDRECTD28*
21,1,0.3000,1.0000,0,0,180.0*
21,1,0.1500,1.1500,0,0,180.0*
1,1,0.1500,-0.0750,0.5000*
1,1,0.1500,0.0750,0.5000*
1,1,0.1500,0.0750,-0.5000*
1,1,0.1500,-0.0750,-0.5000*
%
%ADD28ROUNDEDRECTD28*%
G04:AMPARAMS|DCode=35|XSize=1.05mm|YSize=0.4mm|CornerRadius=0.05mm|HoleSize=0mm|Usage=FLASHONLY|Rotation=270.000|XOffset=0mm|YOffset=0mm|HoleType=Round|Shape=RoundedRectangle|*
%AMROUNDEDRECTD35*
21,1,1.0500,0.3000,0,0,270.0*
21,1,0.9500,0.4000,0,0,270.0*
1,1,0.1000,-0.1500,-0.4750*
1,1,0.1000,-0.1500,0.4750*
1,1,0.1000,0.1500,0.4750*
1,1,0.1000,0.1500,-0.4750*
%
%ADD35ROUNDEDRECTD35*%
%ADD37R,1.0000X1.6000*%
%ADD38R,1.6000X1.0000*%
G04:AMPARAMS|DCode=39|XSize=3.3mm|YSize=0.45mm|CornerRadius=0.045mm|HoleSize=0mm|Usage=FLASHONLY|Rotation=180.000|XOffset=0mm|YOffset=0mm|HoleType=Round|Shape=RoundedRectangle|*
%AMROUNDEDRECTD39*
21,1,3.3000,0.3600,0,0,180.0*
21,1,3.2100,0.4500,0,0,180.0*
1,1,0.0900,-1.6050,0.1800*
1,1,0.0900,1.6050,0.1800*
1,1,0.0900,1.6050,-0.1800*
1,1,0.0900,-1.6050,-0.1800*
%
%ADD39ROUNDEDRECTD39*%
G04:AMPARAMS|DCode=40|XSize=0.3mm|YSize=0.63mm|CornerRadius=0.03mm|HoleSize=0mm|Usage=FLASHONLY|Rotation=180.000|XOffset=0mm|YOffset=0mm|HoleType=Round|Shape=RoundedRectangle|*
%AMROUNDEDRECTD40*
21,1,0.3000,0.5700,0,0,180.0*
21,1,0.2400,0.6300,0,0,180.0*
1,1,0.0600,-0.1200,0.2850*
1,1,0.0600,0.1200,0.2850*
1,1,0.0600,0.1200,-0.2850*
1,1,0.0600,-0.1200,-0.2850*
%
%ADD40ROUNDEDRECTD40*%
%ADD43R,1.6200X2.1800*%
%ADD44R,0.9000X0.8000*%
%ADD45R,0.8000X0.9000*%
%ADD49R,1.3500X0.9500*%
%ADD50R,1.0682X1.2065*%
%ADD52R,0.9562X1.2062*%
G04:AMPARAMS|DCode=54|XSize=1.1mm|YSize=1.9mm|CornerRadius=0.1375mm|HoleSize=0mm|Usage=FLASHONLY|Rotation=0.000|XOffset=0mm|YOffset=0mm|HoleType=Round|Shape=RoundedRectangle|*
%AMROUNDEDRECTD54*
21,1,1.1000,1.6250,0,0,0.0*
21,1,0.8250,1.9000,0,0,0.0*
1,1,0.2750,0.4125,-0.8125*
1,1,0.2750,-0.4125,-0.8125*
1,1,0.2750,-0.4125,0.8125*
1,1,0.2750,0.4125,0.8125*
%
%ADD54ROUNDEDRECTD54*%
G04:AMPARAMS|DCode=55|XSize=0.45mm|YSize=0.25mm|CornerRadius=0.05mm|HoleSize=0mm|Usage=FLASHONLY|Rotation=90.000|XOffset=0mm|YOffset=0mm|HoleType=Round|Shape=RoundedRectangle|*
%AMROUNDEDRECTD55*
21,1,0.4500,0.1500,0,0,90.0*
21,1,0.3500,0.2500,0,0,90.0*
1,1,0.1000,0.0750,0.1750*
1,1,0.1000,0.0750,-0.1750*
1,1,0.1000,-0.0750,-0.1750*
1,1,0.1000,-0.0750,0.1750*
%
%ADD55ROUNDEDRECTD55*%
G04:AMPARAMS|DCode=56|XSize=0.24mm|YSize=0.6mm|CornerRadius=0.0504mm|HoleSize=0mm|Usage=FLASHONLY|Rotation=0.000|XOffset=0mm|YOffset=0mm|HoleType=Round|Shape=RoundedRectangle|*
%AMROUNDEDRECTD56*
21,1,0.2400,0.4992,0,0,0.0*
21,1,0.1392,0.6000,0,0,0.0*
1,1,0.1008,0.0696,-0.2496*
1,1,0.1008,-0.0696,-0.2496*
1,1,0.1008,-0.0696,0.2496*
1,1,0.1008,0.0696,0.2496*
%
%ADD56ROUNDEDRECTD56*%
G04:AMPARAMS|DCode=57|XSize=0.6mm|YSize=0.24mm|CornerRadius=0.0504mm|HoleSize=0mm|Usage=FLASHONLY|Rotation=0.000|XOffset=0mm|YOffset=0mm|HoleType=Round|Shape=RoundedRectangle|*
%AMROUNDEDRECTD57*
21,1,0.6000,0.1392,0,0,0.0*
21,1,0.4992,0.2400,0,0,0.0*
1,1,0.1008,0.2496,-0.0696*
1,1,0.1008,-0.2496,-0.0696*
1,1,0.1008,-0.2496,0.0696*
1,1,0.1008,0.2496,0.0696*
%
%ADD57ROUNDEDRECTD57*%
G04:AMPARAMS|DCode=61|XSize=0.2393mm|YSize=0.966mm|CornerRadius=0.0598mm|HoleSize=0mm|Usage=FLASHONLY|Rotation=180.000|XOffset=0mm|YOffset=0mm|HoleType=Round|Shape=RoundedRectangle|*
%AMROUNDEDRECTD61*
21,1,0.2393,0.8464,0,0,180.0*
21,1,0.1196,0.9660,0,0,180.0*
1,1,0.1196,-0.0598,0.4232*
1,1,0.1196,0.0598,0.4232*
1,1,0.1196,0.0598,-0.4232*
1,1,0.1196,-0.0598,-0.4232*
%
%ADD61ROUNDEDRECTD61*%
G04:AMPARAMS|DCode=62|XSize=0.966mm|YSize=0.2393mm|CornerRadius=0.0598mm|HoleSize=0mm|Usage=FLASHONLY|Rotation=180.000|XOffset=0mm|YOffset=0mm|HoleType=Round|Shape=RoundedRectangle|*
%AMROUNDEDRECTD62*
21,1,0.9660,0.1196,0,0,180.0*
21,1,0.8464,0.2393,0,0,180.0*
1,1,0.1196,-0.4232,0.0598*
1,1,0.1196,0.4232,0.0598*
1,1,0.1196,0.4232,-0.0598*
1,1,0.1196,-0.4232,-0.0598*
%
%ADD62ROUNDEDRECTD62*%
%ADD71R,0.9061X1.3098*%
%ADD72R,1.4500X0.9500*%
%ADD73R,1.3500X1.0000*%
%ADD78R,0.7400X0.3900*%
%ADD79R,1.5000X0.3000*%
G04:AMPARAMS|DCode=80|XSize=2.3016mm|YSize=2.8016mm|CornerRadius=0.3258mm|HoleSize=0mm|Usage=FLASHONLY|Rotation=180.000|XOffset=0mm|YOffset=0mm|HoleType=Round|Shape=RoundedRectangle|*
%AMROUNDEDRECTD80*
21,1,2.3016,2.1500,0,0,180.0*
21,1,1.6500,2.8016,0,0,180.0*
1,1,0.6516,-0.8250,1.0750*
1,1,0.6516,0.8250,1.0750*
1,1,0.6516,0.8250,-1.0750*
1,1,0.6516,-0.8250,-1.0750*
%
%ADD80ROUNDEDRECTD80*%
G04:AMPARAMS|DCode=81|XSize=2.1016mm|YSize=1.9016mm|CornerRadius=0.2758mm|HoleSize=0mm|Usage=FLASHONLY|Rotation=180.000|XOffset=0mm|YOffset=0mm|HoleType=Round|Shape=RoundedRectangle|*
%AMROUNDEDRECTD81*
21,1,2.1016,1.3500,0,0,180.0*
21,1,1.5500,1.9016,0,0,180.0*
1,1,0.5516,-0.7750,0.6750*
1,1,0.5516,0.7750,0.6750*
1,1,0.5516,0.7750,-0.6750*
1,1,0.5516,-0.7750,-0.6750*
%
%ADD81ROUNDEDRECTD81*%
%ADD82R,1.1516X2.1016*%
G04:AMPARAMS|DCode=83|XSize=2.2816mm|YSize=2.1016mm|CornerRadius=0.3008mm|HoleSize=0mm|Usage=FLASHONLY|Rotation=180.000|XOffset=0mm|YOffset=0mm|HoleType=Round|Shape=RoundedRectangle|*
%AMROUNDEDRECTD83*
21,1,2.2816,1.5000,0,0,180.0*
21,1,1.6800,2.1016,0,0,180.0*
1,1,0.6016,-0.8400,0.7500*
1,1,0.6016,0.8400,0.7500*
1,1,0.6016,0.8400,-0.7500*
1,1,0.6016,-0.8400,-0.7500*
%
%ADD83ROUNDEDRECTD83*%
G04:AMPARAMS|DCode=84|XSize=1.1016mm|YSize=5.6016mm|CornerRadius=0.1758mm|HoleSize=0mm|Usage=FLASHONLY|Rotation=90.000|XOffset=0mm|YOffset=0mm|HoleType=Round|Shape=RoundedRectangle|*
%AMROUNDEDRECTD84*
21,1,1.1016,5.2500,0,0,90.0*
21,1,0.7500,5.6016,0,0,90.0*
1,1,0.3516,2.6250,0.3750*
1,1,0.3516,2.6250,-0.3750*
1,1,0.3516,-2.6250,-0.3750*
1,1,0.3516,-2.6250,0.3750*
%
%ADD84ROUNDEDRECTD84*%
G04:AMPARAMS|DCode=85|XSize=1.7016mm|YSize=3.1016mm|CornerRadius=0.2508mm|HoleSize=0mm|Usage=FLASHONLY|Rotation=90.000|XOffset=0mm|YOffset=0mm|HoleType=Round|Shape=RoundedRectangle|*
%AMROUNDEDRECTD85*
21,1,1.7016,2.6000,0,0,90.0*
21,1,1.2000,3.1016,0,0,90.0*
1,1,0.5016,1.3000,0.6000*
1,1,0.5016,1.3000,-0.6000*
1,1,0.5016,-1.3000,-0.6000*
1,1,0.5016,-1.3000,0.6000*
%
%ADD85ROUNDEDRECTD85*%
G04:AMPARAMS|DCode=86|XSize=0.8415mm|YSize=2.8915mm|CornerRadius=0.2358mm|HoleSize=0mm|Usage=FLASHONLY|Rotation=270.000|XOffset=0mm|YOffset=0mm|HoleType=Round|Shape=RoundedRectangle|*
%AMROUNDEDRECTD86*
21,1,0.8415,2.4200,0,0,270.0*
21,1,0.3700,2.8915,0,0,270.0*
1,1,0.4716,-1.2100,-0.1850*
1,1,0.4716,-1.2100,0.1850*
1,1,0.4716,1.2100,0.1850*
1,1,0.4716,1.2100,-0.1850*
%
%ADD86ROUNDEDRECTD86*%
G04:AMPARAMS|DCode=87|XSize=1.8016mm|YSize=1.9016mm|CornerRadius=0.2633mm|HoleSize=0mm|Usage=FLASHONLY|Rotation=270.000|XOffset=0mm|YOffset=0mm|HoleType=Round|Shape=RoundedRectangle|*
%AMROUNDEDRECTD87*
21,1,1.8016,1.3750,0,0,270.0*
21,1,1.2750,1.9016,0,0,270.0*
1,1,0.5266,-0.6875,-0.6375*
1,1,0.5266,-0.6875,0.6375*
1,1,0.5266,0.6875,0.6375*
1,1,0.5266,0.6875,-0.6375*
%
%ADD87ROUNDEDRECTD87*%
G04:AMPARAMS|DCode=88|XSize=0.8016mm|YSize=2.0016mm|CornerRadius=0.1383mm|HoleSize=0mm|Usage=FLASHONLY|Rotation=270.000|XOffset=0mm|YOffset=0mm|HoleType=Round|Shape=RoundedRectangle|*
%AMROUNDEDRECTD88*
21,1,0.8016,1.7250,0,0,270.0*
21,1,0.5250,2.0016,0,0,270.0*
1,1,0.2766,-0.8625,-0.2625*
1,1,0.2766,-0.8625,0.2625*
1,1,0.2766,0.8625,0.2625*
1,1,0.2766,0.8625,-0.2625*
%
%ADD88ROUNDEDRECTD88*%
G04:AMPARAMS|DCode=89|XSize=1.5016mm|YSize=2.7016mm|CornerRadius=0.2258mm|HoleSize=0mm|Usage=FLASHONLY|Rotation=270.000|XOffset=0mm|YOffset=0mm|HoleType=Round|Shape=RoundedRectangle|*
%AMROUNDEDRECTD89*
21,1,1.5016,2.2500,0,0,270.0*
21,1,1.0500,2.7016,0,0,270.0*
1,1,0.4516,-1.1250,-0.5250*
1,1,0.4516,-1.1250,0.5250*
1,1,0.4516,1.1250,0.5250*
1,1,0.4516,1.1250,-0.5250*
%
%ADD89ROUNDEDRECTD89*%
G04:AMPARAMS|DCode=90|XSize=0.9016mm|YSize=1.3016mm|CornerRadius=0.1508mm|HoleSize=0mm|Usage=FLASHONLY|Rotation=0.000|XOffset=0mm|YOffset=0mm|HoleType=Round|Shape=RoundedRectangle|*
%AMROUNDEDRECTD90*
21,1,0.9016,1.0000,0,0,0.0*
21,1,0.6000,1.3016,0,0,0.0*
1,1,0.3016,0.3000,-0.5000*
1,1,0.3016,-0.3000,-0.5000*
1,1,0.3016,-0.3000,0.5000*
1,1,0.3016,0.3000,0.5000*
%
%ADD90ROUNDEDRECTD90*%
G04:AMPARAMS|DCode=91|XSize=1.1116mm|YSize=1.5716mm|CornerRadius=0.1771mm|HoleSize=0mm|Usage=FLASHONLY|Rotation=90.000|XOffset=0mm|YOffset=0mm|HoleType=Round|Shape=RoundedRectangle|*
%AMROUNDEDRECTD91*
21,1,1.1116,1.2175,0,0,90.0*
21,1,0.7575,1.5716,0,0,90.0*
1,1,0.3541,0.6088,0.3787*
1,1,0.3541,0.6088,-0.3787*
1,1,0.3541,-0.6088,-0.3787*
1,1,0.3541,-0.6088,0.3787*
%
%ADD91ROUNDEDRECTD91*%
G04:AMPARAMS|DCode=92|XSize=1.1116mm|YSize=1.5716mm|CornerRadius=0.1771mm|HoleSize=0mm|Usage=FLASHONLY|Rotation=0.000|XOffset=0mm|YOffset=0mm|HoleType=Round|Shape=RoundedRectangle|*
%AMROUNDEDRECTD92*
21,1,1.1116,1.2175,0,0,0.0*
21,1,0.7575,1.5716,0,0,0.0*
1,1,0.3541,0.3787,-0.6088*
1,1,0.3541,-0.3787,-0.6088*
1,1,0.3541,-0.3787,0.6088*
1,1,0.3541,0.3787,0.6088*
%
%ADD92ROUNDEDRECTD92*%
G04:AMPARAMS|DCode=93|XSize=1.1016mm|YSize=1.2016mm|CornerRadius=0.1758mm|HoleSize=0mm|Usage=FLASHONLY|Rotation=180.000|XOffset=0mm|YOffset=0mm|HoleType=Round|Shape=RoundedRectangle|*
%AMROUNDEDRECTD93*
21,1,1.1016,0.8500,0,0,180.0*
21,1,0.7500,1.2016,0,0,180.0*
1,1,0.3516,-0.3750,0.4250*
1,1,0.3516,0.3750,0.4250*
1,1,0.3516,0.3750,-0.4250*
1,1,0.3516,-0.3750,-0.4250*
%
%ADD93ROUNDEDRECTD93*%
G04:AMPARAMS|DCode=94|XSize=1.6016mm|YSize=1.4016mm|CornerRadius=0.2133mm|HoleSize=0mm|Usage=FLASHONLY|Rotation=270.000|XOffset=0mm|YOffset=0mm|HoleType=Round|Shape=RoundedRectangle|*
%AMROUNDEDRECTD94*
21,1,1.6016,0.9750,0,0,270.0*
21,1,1.1750,1.4016,0,0,270.0*
1,1,0.4266,-0.4875,-0.5875*
1,1,0.4266,-0.4875,0.5875*
1,1,0.4266,0.4875,0.5875*
1,1,0.4266,0.4875,-0.5875*
%
%ADD94ROUNDEDRECTD94*%
G04:AMPARAMS|DCode=95|XSize=1.1016mm|YSize=1.2016mm|CornerRadius=0.1758mm|HoleSize=0mm|Usage=FLASHONLY|Rotation=270.000|XOffset=0mm|YOffset=0mm|HoleType=Round|Shape=RoundedRectangle|*
%AMROUNDEDRECTD95*
21,1,1.1016,0.8500,0,0,270.0*
21,1,0.7500,1.2016,0,0,270.0*
1,1,0.3516,-0.4250,-0.3750*
1,1,0.3516,-0.4250,0.3750*
1,1,0.3516,0.4250,0.3750*
1,1,0.3516,0.4250,-0.3750*
%
%ADD95ROUNDEDRECTD95*%
%ADD96R,1.0016X0.9016*%
G04:AMPARAMS|DCode=97|XSize=1.0922mm|YSize=1.1938mm|CornerRadius=0.2985mm|HoleSize=0mm|Usage=FLASHONLY|Rotation=90.000|XOffset=0mm|YOffset=0mm|HoleType=Round|Shape=RoundedRectangle|*
%AMROUNDEDRECTD97*
21,1,1.0922,0.5969,0,0,90.0*
21,1,0.4953,1.1938,0,0,90.0*
1,1,0.5969,0.2985,0.2477*
1,1,0.5969,0.2985,-0.2477*
1,1,0.5969,-0.2985,-0.2477*
1,1,0.5969,-0.2985,0.2477*
%
%ADD97ROUNDEDRECTD97*%
G04:AMPARAMS|DCode=98|XSize=1.15mm|YSize=0.35mm|CornerRadius=0.0508mm|HoleSize=0mm|Usage=FLASHONLY|Rotation=90.000|XOffset=0mm|YOffset=0mm|HoleType=Round|Shape=RoundedRectangle|*
%AMROUNDEDRECTD98*
21,1,1.1500,0.2485,0,0,90.0*
21,1,1.0485,0.3500,0,0,90.0*
1,1,0.1015,0.1243,0.5243*
1,1,0.1015,0.1243,-0.5243*
1,1,0.1015,-0.1243,-0.5243*
1,1,0.1015,-0.1243,0.5243*
%
%ADD98ROUNDEDRECTD98*%
G04:AMPARAMS|DCode=99|XSize=1.45mm|YSize=0.2mm|CornerRadius=0.05mm|HoleSize=0mm|Usage=FLASHONLY|Rotation=90.000|XOffset=0mm|YOffset=0mm|HoleType=Round|Shape=RoundedRectangle|*
%AMROUNDEDRECTD99*
21,1,1.4500,0.1000,0,0,90.0*
21,1,1.3500,0.2000,0,0,90.0*
1,1,0.1000,0.0500,0.6750*
1,1,0.1000,0.0500,-0.6750*
1,1,0.1000,-0.0500,-0.6750*
1,1,0.1000,-0.0500,0.6750*
%
%ADD99ROUNDEDRECTD99*%
%ADD100R,1.3000X0.8000*%
%ADD101R,0.8000X1.3000*%
%ADD102R,2.1000X2.1000*%
G04:AMPARAMS|DCode=103|XSize=1.6637mm|YSize=1.6637mm|CornerRadius=0.0499mm|HoleSize=0mm|Usage=FLASHONLY|Rotation=180.000|XOffset=0mm|YOffset=0mm|HoleType=Round|Shape=RoundedRectangle|*
%AMROUNDEDRECTD103*
21,1,1.6637,1.5639,0,0,180.0*
21,1,1.5639,1.6637,0,0,180.0*
1,1,0.0998,-0.7819,0.7819*
1,1,0.0998,0.7819,0.7819*
1,1,0.0998,0.7819,-0.7819*
1,1,0.0998,-0.7819,-0.7819*
%
%ADD103ROUNDEDRECTD103*%
G04:AMPARAMS|DCode=104|XSize=0.65mm|YSize=0.25mm|CornerRadius=0.0625mm|HoleSize=0mm|Usage=FLASHONLY|Rotation=270.000|XOffset=0mm|YOffset=0mm|HoleType=Round|Shape=RoundedRectangle|*
%AMROUNDEDRECTD104*
21,1,0.6500,0.1250,0,0,270.0*
21,1,0.5250,0.2500,0,0,270.0*
1,1,0.1250,-0.0625,-0.2625*
1,1,0.1250,-0.0625,0.2625*
1,1,0.1250,0.0625,0.2625*
1,1,0.1250,0.0625,-0.2625*
%
%ADD104ROUNDEDRECTD104*%
G04:AMPARAMS|DCode=105|XSize=1.1516mm|YSize=0.7516mm|CornerRadius=0.1321mm|HoleSize=0mm|Usage=FLASHONLY|Rotation=180.000|XOffset=0mm|YOffset=0mm|HoleType=Round|Shape=RoundedRectangle|*
%AMROUNDEDRECTD105*
21,1,1.1516,0.4875,0,0,180.0*
21,1,0.8875,0.7516,0,0,180.0*
1,1,0.2641,-0.4438,0.2438*
1,1,0.2641,0.4438,0.2438*
1,1,0.2641,0.4438,-0.2438*
1,1,0.2641,-0.4438,-0.2438*
%
%ADD105ROUNDEDRECTD105*%
G04:AMPARAMS|DCode=106|XSize=1.1016mm|YSize=1.7016mm|CornerRadius=0.1758mm|HoleSize=0mm|Usage=FLASHONLY|Rotation=90.000|XOffset=0mm|YOffset=0mm|HoleType=Round|Shape=RoundedRectangle|*
%AMROUNDEDRECTD106*
21,1,1.1016,1.3500,0,0,90.0*
21,1,0.7500,1.7016,0,0,90.0*
1,1,0.3516,0.6750,0.3750*
1,1,0.3516,0.6750,-0.3750*
1,1,0.3516,-0.6750,-0.3750*
1,1,0.3516,-0.6750,0.3750*
%
%ADD106ROUNDEDRECTD106*%
%ADD107R,0.9016X0.7016*%
G04:AMPARAMS|DCode=108|XSize=1.6016mm|YSize=1.4016mm|CornerRadius=0.3758mm|HoleSize=0mm|Usage=FLASHONLY|Rotation=180.000|XOffset=0mm|YOffset=0mm|HoleType=Round|Shape=RoundedRectangle|*
%AMROUNDEDRECTD108*
21,1,1.6016,0.6500,0,0,180.0*
21,1,0.8500,1.4016,0,0,180.0*
1,1,0.7516,-0.4250,0.3250*
1,1,0.7516,0.4250,0.3250*
1,1,0.7516,0.4250,-0.3250*
1,1,0.7516,-0.4250,-0.3250*
%
%ADD108ROUNDEDRECTD108*%
G04:AMPARAMS|DCode=109|XSize=1.6016mm|YSize=1.4016mm|CornerRadius=0.3758mm|HoleSize=0mm|Usage=FLASHONLY|Rotation=90.000|XOffset=0mm|YOffset=0mm|HoleType=Round|Shape=RoundedRectangle|*
%AMROUNDEDRECTD109*
21,1,1.6016,0.6500,0,0,90.0*
21,1,0.8500,1.4016,0,0,90.0*
1,1,0.7516,0.3250,0.4250*
1,1,0.7516,0.3250,-0.4250*
1,1,0.7516,-0.3250,-0.4250*
1,1,0.7516,-0.3250,0.4250*
%
%ADD109ROUNDEDRECTD109*%
%ADD110R,1.2516X1.5516*%
%ADD111R,0.9016X1.0516*%
G04:AMPARAMS|DCode=112|XSize=1.0922mm|YSize=1.1938mm|CornerRadius=0.2985mm|HoleSize=0mm|Usage=FLASHONLY|Rotation=180.000|XOffset=0mm|YOffset=0mm|HoleType=Round|Shape=RoundedRectangle|*
%AMROUNDEDRECTD112*
21,1,1.0922,0.5969,0,0,180.0*
21,1,0.4953,1.1938,0,0,180.0*
1,1,0.5969,-0.2477,0.2985*
1,1,0.5969,0.2477,0.2985*
1,1,0.5969,0.2477,-0.2985*
1,1,0.5969,-0.2477,-0.2985*
%
%ADD112ROUNDEDRECTD112*%
G04:AMPARAMS|DCode=113|XSize=1.9016mm|YSize=1.7016mm|CornerRadius=0.2508mm|HoleSize=0mm|Usage=FLASHONLY|Rotation=180.000|XOffset=0mm|YOffset=0mm|HoleType=Round|Shape=RoundedRectangle|*
%AMROUNDEDRECTD113*
21,1,1.9016,1.2000,0,0,180.0*
21,1,1.4000,1.7016,0,0,180.0*
1,1,0.5016,-0.7000,0.6000*
1,1,0.5016,0.7000,0.6000*
1,1,0.5016,0.7000,-0.6000*
1,1,0.5016,-0.7000,-0.6000*
%
%ADD113ROUNDEDRECTD113*%
G04:AMPARAMS|DCode=114|XSize=1.9016mm|YSize=1.7016mm|CornerRadius=0.2508mm|HoleSize=0mm|Usage=FLASHONLY|Rotation=90.000|XOffset=0mm|YOffset=0mm|HoleType=Round|Shape=RoundedRectangle|*
%AMROUNDEDRECTD114*
21,1,1.9016,1.2000,0,0,90.0*
21,1,1.4000,1.7016,0,0,90.0*
1,1,0.5016,0.6000,0.7000*
1,1,0.5016,0.6000,-0.7000*
1,1,0.5016,-0.6000,-0.7000*
1,1,0.5016,-0.6000,0.7000*
%
%ADD114ROUNDEDRECTD114*%
G04:AMPARAMS|DCode=115|XSize=1.6016mm|YSize=1.4016mm|CornerRadius=0.2133mm|HoleSize=0mm|Usage=FLASHONLY|Rotation=180.000|XOffset=0mm|YOffset=0mm|HoleType=Round|Shape=RoundedRectangle|*
%AMROUNDEDRECTD115*
21,1,1.6016,0.9750,0,0,180.0*
21,1,1.1750,1.4016,0,0,180.0*
1,1,0.4266,-0.5875,0.4875*
1,1,0.4266,0.5875,0.4875*
1,1,0.4266,0.5875,-0.4875*
1,1,0.4266,-0.5875,-0.4875*
%
%ADD115ROUNDEDRECTD115*%
%ADD116R,1.7526X1.7526*%
%ADD117C,1.7526*%
%ADD118R,1.7526X1.7526*%
%ADD119C,1.0016*%
%ADD120O,1.0016X1.8016*%
%ADD121R,1.3000X1.3000*%
%ADD122C,1.3000*%
%ADD123C,1.6516*%
%ADD124C,1.7272*%
%ADD125C,2.2016*%
%ADD126C,0.8636*%
%ADD127C,0.5080*%
G36*
X272288Y405641D02*
X274964D01*
X275064Y405631D01*
X275457Y405553D01*
X275552Y405524D01*
X275553Y405524D01*
X275922Y405371D01*
X275922Y405371D01*
X276010Y405323D01*
X276343Y405101D01*
X276343Y405101D01*
X276386Y405066D01*
X276421Y405037D01*
X276421Y405037D01*
X276704Y404754D01*
X276767Y404677D01*
X276989Y404344D01*
X276989Y404344D01*
X277020Y404287D01*
X277037Y404256D01*
X277037Y404256D01*
X277190Y403886D01*
X277190Y403886D01*
X277219Y403791D01*
X277297Y403398D01*
X277307Y403298D01*
D01*
Y403298D01*
Y403098D01*
Y397002D01*
Y396802D01*
X277297Y396702D01*
X277219Y396310D01*
X277190Y396214D01*
X277190Y396214D01*
X277037Y395845D01*
X277037Y395844D01*
X276989Y395756D01*
X276767Y395424D01*
X276767Y395423D01*
X276732Y395381D01*
X276704Y395346D01*
X276703Y395346D01*
X276421Y395063D01*
X276343Y394999D01*
X276011Y394777D01*
X276010Y394777D01*
X275953Y394746D01*
X275922Y394730D01*
X275922Y394730D01*
X275553Y394577D01*
X275552Y394577D01*
X275457Y394548D01*
X275064Y394469D01*
X274964Y394460D01*
D01*
X274964D01*
X272288D01*
Y393954D01*
X258001D01*
Y394460D01*
X253355D01*
X253256Y394469D01*
X252863Y394548D01*
X252767Y394577D01*
X252767Y394577D01*
X252398Y394730D01*
X252397Y394730D01*
X252309Y394777D01*
X251977Y394999D01*
X251976Y394999D01*
X251934Y395034D01*
X251899Y395063D01*
X251899Y395063D01*
X251616Y395346D01*
X251553Y395423D01*
X251330Y395756D01*
X251330Y395756D01*
X251299Y395814D01*
X251283Y395844D01*
X251283Y395844D01*
X251130Y396214D01*
X251130Y396214D01*
X251101Y396310D01*
X251023Y396702D01*
X251013Y396802D01*
D01*
Y396802D01*
Y397002D01*
Y403098D01*
Y403298D01*
X251023Y403398D01*
X251101Y403791D01*
X251130Y403886D01*
X251130Y403886D01*
X251283Y404256D01*
X251283Y404256D01*
X251330Y404344D01*
X251552Y404677D01*
X251553Y404677D01*
X251587Y404720D01*
X251616Y404754D01*
X251616Y404755D01*
X251899Y405037D01*
X251976Y405101D01*
X252309Y405323D01*
X252309Y405323D01*
X252367Y405354D01*
X252397Y405371D01*
X252397Y405371D01*
X252767Y405524D01*
X252767Y405524D01*
X252863Y405553D01*
X253256Y405631D01*
X253355Y405641D01*
D01*
X253355D01*
X258001D01*
Y406146D01*
X272288D01*
Y405641D01*
D02*
G37*
G36*
X242099Y412341D02*
Y400441D01*
X217099D01*
Y417441D01*
X236999D01*
X242099Y412341D01*
D02*
G37*
G36*
X272310Y382304D02*
X274987D01*
X275086Y382294D01*
X275479Y382216D01*
X275575Y382187D01*
X275575Y382187D01*
X275944Y382034D01*
X275944Y382034D01*
X276033Y381987D01*
X276365Y381765D01*
X276366Y381764D01*
X276408Y381730D01*
X276443Y381701D01*
X276443Y381701D01*
X276726Y381418D01*
X276789Y381341D01*
X277012Y381008D01*
X277012Y381008D01*
X277043Y380950D01*
X277059Y380920D01*
X277059Y380919D01*
X277212Y380550D01*
X277212Y380550D01*
X277241Y380454D01*
X277319Y380061D01*
X277329Y379962D01*
D01*
Y379962D01*
Y379762D01*
Y373666D01*
Y373466D01*
X277319Y373366D01*
X277241Y372973D01*
X277212Y372878D01*
X277212Y372878D01*
X277059Y372508D01*
X277059Y372508D01*
X277012Y372420D01*
X276790Y372087D01*
X276789Y372087D01*
X276755Y372044D01*
X276726Y372009D01*
X276726Y372009D01*
X276443Y371726D01*
X276366Y371663D01*
X276033Y371441D01*
X276033Y371441D01*
X275975Y371410D01*
X275944Y371393D01*
X275944Y371393D01*
X275575Y371240D01*
X275575Y371240D01*
X275479Y371211D01*
X275086Y371133D01*
X274987Y371123D01*
D01*
X274987D01*
X272310D01*
Y370618D01*
X258022D01*
Y371123D01*
X253377D01*
X253278Y371133D01*
X252885Y371211D01*
X252790Y371240D01*
X252789Y371240D01*
X252420Y371393D01*
X252420Y371393D01*
X252332Y371441D01*
X251999Y371663D01*
X251999Y371663D01*
X251956Y371698D01*
X251921Y371726D01*
X251921Y371726D01*
X251638Y372009D01*
X251575Y372087D01*
X251353Y372419D01*
X251353Y372420D01*
X251322Y372477D01*
X251305Y372508D01*
X251305Y372508D01*
X251152Y372877D01*
X251152Y372878D01*
X251123Y372973D01*
X251045Y373366D01*
X251035Y373465D01*
D01*
Y373466D01*
Y373666D01*
Y379762D01*
Y379962D01*
X251045Y380061D01*
X251123Y380454D01*
X251152Y380550D01*
X251152Y380550D01*
X251305Y380919D01*
X251305Y380919D01*
X251353Y381008D01*
X251575Y381340D01*
X251575Y381341D01*
X251610Y381383D01*
X251638Y381418D01*
X251639Y381418D01*
X251921Y381701D01*
X251999Y381764D01*
X252331Y381987D01*
X252332Y381987D01*
X252389Y382018D01*
X252420Y382034D01*
X252420Y382034D01*
X252789Y382187D01*
X252790Y382187D01*
X252885Y382216D01*
X253278Y382294D01*
X253377Y382304D01*
D01*
X253377D01*
X258022D01*
Y382810D01*
X272310D01*
Y382304D01*
D02*
G37*
G36*
X-146784Y335718D02*
X-146391Y335640D01*
X-146295Y335611D01*
X-146295Y335611D01*
X-145926Y335458D01*
X-145926Y335458D01*
X-145837Y335411D01*
X-145505Y335189D01*
X-145505Y335188D01*
X-145462Y335154D01*
X-145427Y335125D01*
X-145427Y335125D01*
X-145144Y334842D01*
X-145081Y334765D01*
X-144858Y334432D01*
X-144858Y334432D01*
X-144827Y334374D01*
X-144811Y334344D01*
X-144811Y334343D01*
X-144658Y333974D01*
X-144658Y333974D01*
X-144629Y333878D01*
X-144551Y333485D01*
X-144541Y333386D01*
D01*
Y333386D01*
Y333186D01*
Y328741D01*
X-144036D01*
Y319089D01*
Y314453D01*
X-144541D01*
Y311977D01*
Y311777D01*
X-144551Y311677D01*
X-144629Y311284D01*
X-144658Y311189D01*
X-144658Y311189D01*
X-144811Y310819D01*
X-144811Y310819D01*
X-144858Y310731D01*
X-145081Y310398D01*
X-145081Y310398D01*
X-145115Y310355D01*
X-145144Y310320D01*
X-145144Y310320D01*
X-145427Y310037D01*
X-145505Y309974D01*
X-145837Y309752D01*
X-145837Y309751D01*
X-145895Y309721D01*
X-145926Y309704D01*
X-145926Y309704D01*
X-146295Y309551D01*
X-146295Y309551D01*
X-146391Y309522D01*
X-146784Y309444D01*
X-146883Y309434D01*
D01*
X-146883D01*
X-153380D01*
X-153479Y309444D01*
X-153872Y309522D01*
X-153968Y309551D01*
X-153968Y309551D01*
X-154337Y309704D01*
X-154337Y309704D01*
X-154426Y309752D01*
X-154758Y309974D01*
X-154758Y309974D01*
X-154801Y310009D01*
X-154836Y310037D01*
X-154836Y310038D01*
X-155119Y310320D01*
X-155182Y310398D01*
X-155405Y310730D01*
X-155405Y310731D01*
X-155435Y310788D01*
X-155452Y310819D01*
X-155452Y310819D01*
X-155605Y311189D01*
X-155605Y311189D01*
X-155634Y311284D01*
X-155712Y311677D01*
X-155722Y311777D01*
D01*
Y311777D01*
Y311977D01*
Y314453D01*
X-156228D01*
Y319089D01*
Y328741D01*
X-155722D01*
Y333186D01*
Y333386D01*
X-155712Y333485D01*
X-155634Y333878D01*
X-155605Y333974D01*
X-155605Y333974D01*
X-155452Y334343D01*
X-155452Y334344D01*
X-155405Y334432D01*
X-155182Y334765D01*
X-155182Y334765D01*
X-155147Y334807D01*
X-155119Y334842D01*
X-155119Y334842D01*
X-154836Y335125D01*
X-154758Y335188D01*
X-154426Y335411D01*
X-154426Y335411D01*
X-154368Y335442D01*
X-154337Y335458D01*
X-154337Y335458D01*
X-153968Y335611D01*
X-153968Y335611D01*
X-153872Y335640D01*
X-153479Y335718D01*
X-153380Y335728D01*
D01*
X-153380D01*
X-146883D01*
X-146784Y335718D01*
D02*
G37*
G36*
X-147296Y244941D02*
X-146904Y244863D01*
X-146808Y244834D01*
X-146808Y244834D01*
X-146438Y244681D01*
X-146438Y244681D01*
X-146350Y244633D01*
X-146017Y244411D01*
X-146017Y244411D01*
X-145975Y244376D01*
X-145940Y244347D01*
X-145940Y244347D01*
X-145657Y244064D01*
X-145593Y243987D01*
X-145371Y243654D01*
X-145371Y243654D01*
X-145340Y243597D01*
X-145324Y243566D01*
X-145324Y243566D01*
X-145171Y243196D01*
X-145171Y243196D01*
X-145141Y243100D01*
X-145063Y242708D01*
X-145054Y242608D01*
D01*
Y242608D01*
Y242408D01*
Y237963D01*
X-144548D01*
Y228311D01*
Y223676D01*
X-145054D01*
Y221199D01*
Y220999D01*
X-145063Y220899D01*
X-145141Y220507D01*
X-145171Y220411D01*
X-145171Y220411D01*
X-145324Y220042D01*
X-145324Y220041D01*
X-145371Y219953D01*
X-145593Y219620D01*
X-145593Y219620D01*
X-145628Y219578D01*
X-145657Y219543D01*
X-145657Y219543D01*
X-145940Y219260D01*
X-146017Y219196D01*
X-146350Y218974D01*
X-146350Y218974D01*
X-146407Y218943D01*
X-146438Y218927D01*
X-146438Y218927D01*
X-146808Y218774D01*
X-146808Y218774D01*
X-146904Y218745D01*
X-147296Y218666D01*
X-147396Y218657D01*
D01*
X-147396D01*
X-153892D01*
X-153992Y218666D01*
X-154384Y218745D01*
X-154480Y218774D01*
X-154480Y218774D01*
X-154850Y218927D01*
X-154850Y218927D01*
X-154938Y218974D01*
X-155271Y219196D01*
X-155271Y219196D01*
X-155314Y219231D01*
X-155348Y219260D01*
X-155349Y219260D01*
X-155631Y219543D01*
X-155695Y219620D01*
X-155917Y219953D01*
X-155917Y219953D01*
X-155948Y220011D01*
X-155964Y220041D01*
X-155964Y220041D01*
X-156117Y220411D01*
X-156117Y220411D01*
X-156147Y220507D01*
X-156225Y220899D01*
X-156235Y220999D01*
D01*
Y220999D01*
Y221199D01*
Y223676D01*
X-156740D01*
Y228311D01*
Y237963D01*
X-156235D01*
Y242408D01*
Y242608D01*
X-156225Y242708D01*
X-156147Y243100D01*
X-156117Y243196D01*
X-156117Y243196D01*
X-155964Y243566D01*
X-155964Y243566D01*
X-155917Y243654D01*
X-155695Y243987D01*
X-155695Y243987D01*
X-155660Y244030D01*
X-155631Y244064D01*
X-155631Y244065D01*
X-155348Y244347D01*
X-155271Y244411D01*
X-154938Y244633D01*
X-154938Y244633D01*
X-154881Y244664D01*
X-154850Y244681D01*
X-154850Y244681D01*
X-154480Y244834D01*
X-154480Y244834D01*
X-154384Y244863D01*
X-153992Y244941D01*
X-153892Y244951D01*
D01*
X-153892D01*
X-147396D01*
X-147296Y244941D01*
D02*
G37*
G36*
X17046Y193478D02*
X17439Y193400D01*
X17535Y193371D01*
X17535Y193371D01*
X17904Y193218D01*
X17904Y193218D01*
X17993Y193171D01*
X18325Y192949D01*
X18325Y192948D01*
X18368Y192914D01*
X18403Y192885D01*
X18403Y192885D01*
X18686Y192602D01*
X18749Y192525D01*
X18972Y192192D01*
X18972Y192192D01*
X19002Y192134D01*
X19019Y192104D01*
X19019Y192104D01*
X19172Y191734D01*
X19172Y191734D01*
X19201Y191638D01*
X19279Y191245D01*
X19289Y191146D01*
D01*
Y191146D01*
Y190946D01*
Y188469D01*
X19794D01*
Y183834D01*
Y174182D01*
X19289D01*
Y169737D01*
Y169537D01*
X19279Y169437D01*
X19201Y169044D01*
X19172Y168949D01*
X19172Y168949D01*
X19019Y168579D01*
X19019Y168579D01*
X18972Y168491D01*
X18749Y168158D01*
X18749Y168158D01*
X18714Y168115D01*
X18686Y168080D01*
X18686Y168080D01*
X18403Y167797D01*
X18325Y167734D01*
X17993Y167512D01*
X17993Y167512D01*
X17935Y167481D01*
X17904Y167464D01*
X17904Y167464D01*
X17535Y167311D01*
X17535Y167311D01*
X17439Y167282D01*
X17046Y167204D01*
X16947Y167194D01*
D01*
X16947D01*
X10450D01*
X10351Y167204D01*
X9958Y167282D01*
X9862Y167311D01*
X9862Y167311D01*
X9493Y167464D01*
X9493Y167464D01*
X9404Y167512D01*
X9072Y167734D01*
X9072Y167734D01*
X9029Y167769D01*
X8994Y167797D01*
X8994Y167798D01*
X8711Y168080D01*
X8648Y168158D01*
X8425Y168490D01*
X8425Y168491D01*
X8395Y168548D01*
X8378Y168579D01*
X8378Y168579D01*
X8225Y168948D01*
X8225Y168949D01*
X8196Y169044D01*
X8118Y169437D01*
X8108Y169537D01*
D01*
Y169537D01*
Y169737D01*
Y174182D01*
X7602D01*
Y183834D01*
Y188469D01*
X8108D01*
Y190946D01*
Y191146D01*
X8118Y191245D01*
X8196Y191638D01*
X8225Y191734D01*
X8225Y191734D01*
X8378Y192103D01*
X8378Y192104D01*
X8425Y192192D01*
X8648Y192525D01*
X8648Y192525D01*
X8683Y192567D01*
X8711Y192602D01*
X8711Y192602D01*
X8994Y192885D01*
X9072Y192948D01*
X9404Y193171D01*
X9404Y193171D01*
X9462Y193202D01*
X9493Y193218D01*
X9493Y193218D01*
X9862Y193371D01*
X9862Y193371D01*
X9958Y193400D01*
X10351Y193478D01*
X10450Y193488D01*
D01*
X10450D01*
X16947D01*
X17046Y193478D01*
D02*
G37*
G36*
X-100076Y183137D02*
X-97399D01*
X-97300Y183127D01*
X-96907Y183049D01*
X-96811Y183020D01*
X-96811Y183019D01*
X-96442Y182866D01*
X-96442Y182866D01*
X-96353Y182819D01*
X-96021Y182597D01*
X-96021Y182597D01*
X-95978Y182562D01*
X-95943Y182533D01*
X-95943Y182533D01*
X-95660Y182250D01*
X-95597Y182173D01*
X-95374Y181840D01*
X-95374Y181840D01*
X-95344Y181783D01*
X-95327Y181752D01*
X-95327Y181752D01*
X-95174Y181382D01*
X-95174Y181382D01*
X-95145Y181286D01*
X-95067Y180894D01*
X-95057Y180794D01*
D01*
Y180794D01*
Y180594D01*
Y174498D01*
Y174298D01*
X-95067Y174198D01*
X-95145Y173806D01*
X-95174Y173710D01*
X-95174Y173710D01*
X-95327Y173340D01*
X-95327Y173340D01*
X-95374Y173252D01*
X-95597Y172919D01*
X-95597Y172919D01*
X-95632Y172877D01*
X-95660Y172842D01*
X-95660Y172842D01*
X-95943Y172559D01*
X-96021Y172495D01*
X-96353Y172273D01*
X-96353Y172273D01*
X-96411Y172242D01*
X-96442Y172226D01*
X-96442Y172226D01*
X-96811Y172073D01*
X-96811Y172073D01*
X-96907Y172043D01*
X-97300Y171965D01*
X-97399Y171956D01*
D01*
X-97399D01*
X-100076D01*
Y171450D01*
X-114363D01*
Y171956D01*
X-119009D01*
X-119108Y171965D01*
X-119501Y172043D01*
X-119597Y172073D01*
X-119597Y172073D01*
X-119966Y172226D01*
X-119966Y172226D01*
X-120055Y172273D01*
X-120387Y172495D01*
X-120387Y172495D01*
X-120430Y172530D01*
X-120465Y172559D01*
X-120465Y172559D01*
X-120748Y172842D01*
X-120811Y172919D01*
X-121034Y173252D01*
X-121034Y173252D01*
X-121064Y173309D01*
X-121081Y173340D01*
X-121081Y173340D01*
X-121234Y173710D01*
X-121234Y173710D01*
X-121263Y173806D01*
X-121341Y174198D01*
X-121351Y174298D01*
D01*
Y174298D01*
Y174498D01*
Y180594D01*
Y180794D01*
X-121341Y180894D01*
X-121263Y181286D01*
X-121234Y181382D01*
X-121234Y181382D01*
X-121081Y181752D01*
X-121081Y181752D01*
X-121034Y181840D01*
X-120811Y182173D01*
X-120811Y182173D01*
X-120776Y182215D01*
X-120748Y182250D01*
X-120748Y182250D01*
X-120465Y182533D01*
X-120387Y182597D01*
X-120055Y182819D01*
X-120055Y182819D01*
X-119997Y182850D01*
X-119966Y182866D01*
X-119966Y182866D01*
X-119597Y183019D01*
X-119597Y183020D01*
X-119501Y183049D01*
X-119108Y183127D01*
X-119009Y183137D01*
D01*
X-119009D01*
X-114363D01*
Y183642D01*
X-100076D01*
Y183137D01*
D02*
G37*
G36*
X-93444Y160458D02*
X-93051Y160380D01*
X-92955Y160351D01*
X-92955Y160351D01*
X-92586Y160198D01*
X-92586Y160198D01*
X-92497Y160151D01*
X-92165Y159929D01*
X-92165Y159929D01*
X-92122Y159894D01*
X-92087Y159865D01*
X-92087Y159865D01*
X-91804Y159582D01*
X-91741Y159505D01*
X-91518Y159172D01*
X-91518Y159172D01*
X-91488Y159114D01*
X-91471Y159084D01*
X-91471Y159083D01*
X-91318Y158714D01*
X-91318Y158714D01*
X-91289Y158618D01*
X-91211Y158225D01*
X-91201Y158126D01*
D01*
Y158126D01*
Y157926D01*
Y153481D01*
X-90695D01*
Y143829D01*
Y139193D01*
X-91201D01*
Y136717D01*
Y136517D01*
X-91211Y136417D01*
X-91289Y136024D01*
X-91318Y135929D01*
X-91318Y135929D01*
X-91471Y135559D01*
X-91471Y135559D01*
X-91518Y135471D01*
X-91741Y135138D01*
X-91741Y135138D01*
X-91776Y135095D01*
X-91804Y135060D01*
X-91804Y135060D01*
X-92087Y134777D01*
X-92165Y134714D01*
X-92497Y134492D01*
X-92497Y134492D01*
X-92555Y134461D01*
X-92586Y134444D01*
X-92586Y134444D01*
X-92955Y134291D01*
X-92955Y134291D01*
X-93051Y134262D01*
X-93444Y134184D01*
X-93543Y134174D01*
D01*
X-93543D01*
X-100040D01*
X-100139Y134184D01*
X-100532Y134262D01*
X-100628Y134291D01*
X-100628Y134291D01*
X-100997Y134444D01*
X-100997Y134444D01*
X-101086Y134492D01*
X-101418Y134714D01*
X-101418Y134714D01*
X-101461Y134749D01*
X-101496Y134777D01*
X-101496Y134778D01*
X-101779Y135060D01*
X-101842Y135138D01*
X-102065Y135470D01*
X-102065Y135471D01*
X-102095Y135528D01*
X-102112Y135559D01*
X-102112Y135559D01*
X-102265Y135928D01*
X-102265Y135929D01*
X-102294Y136024D01*
X-102372Y136417D01*
X-102382Y136517D01*
D01*
Y136517D01*
Y136717D01*
Y139193D01*
X-102887D01*
Y143829D01*
Y153481D01*
X-102382D01*
Y157926D01*
Y158126D01*
X-102372Y158225D01*
X-102294Y158618D01*
X-102265Y158714D01*
X-102265Y158714D01*
X-102112Y159083D01*
X-102112Y159084D01*
X-102065Y159172D01*
X-101842Y159504D01*
X-101842Y159505D01*
X-101807Y159547D01*
X-101779Y159582D01*
X-101779Y159582D01*
X-101496Y159865D01*
X-101418Y159929D01*
X-101086Y160151D01*
X-101086Y160151D01*
X-101028Y160182D01*
X-100997Y160198D01*
X-100997Y160198D01*
X-100628Y160351D01*
X-100628Y160351D01*
X-100532Y160380D01*
X-100139Y160458D01*
X-100040Y160468D01*
D01*
X-100040D01*
X-93543D01*
X-93444Y160458D01*
D02*
G37*
G36*
X-115034Y160141D02*
X-114641Y160063D01*
X-114545Y160034D01*
X-114545Y160034D01*
X-114176Y159881D01*
X-114176Y159881D01*
X-114087Y159833D01*
X-113755Y159611D01*
X-113755Y159611D01*
X-113712Y159576D01*
X-113677Y159548D01*
X-113677Y159547D01*
X-113394Y159264D01*
X-113331Y159187D01*
X-113108Y158855D01*
X-113108Y158854D01*
X-113077Y158797D01*
X-113061Y158766D01*
X-113061Y158766D01*
X-112908Y158397D01*
X-112908Y158396D01*
X-112879Y158301D01*
X-112801Y157908D01*
X-112791Y157808D01*
D01*
Y157808D01*
Y157608D01*
Y155132D01*
X-112285D01*
Y150496D01*
Y140844D01*
X-112791D01*
Y136399D01*
Y136199D01*
X-112801Y136100D01*
X-112879Y135707D01*
X-112908Y135611D01*
X-112908Y135611D01*
X-113061Y135242D01*
X-113061Y135241D01*
X-113108Y135153D01*
X-113331Y134820D01*
X-113331Y134820D01*
X-113365Y134778D01*
X-113394Y134743D01*
X-113394Y134743D01*
X-113677Y134460D01*
X-113755Y134396D01*
X-114087Y134174D01*
X-114087Y134174D01*
X-114145Y134143D01*
X-114176Y134127D01*
X-114176Y134127D01*
X-114545Y133974D01*
X-114545Y133974D01*
X-114641Y133945D01*
X-115034Y133867D01*
X-115133Y133857D01*
D01*
X-115133D01*
X-121630D01*
X-121729Y133867D01*
X-122122Y133945D01*
X-122218Y133974D01*
X-122218Y133974D01*
X-122587Y134127D01*
X-122587Y134127D01*
X-122676Y134174D01*
X-123008Y134396D01*
X-123008Y134396D01*
X-123051Y134431D01*
X-123086Y134460D01*
X-123086Y134460D01*
X-123369Y134743D01*
X-123432Y134820D01*
X-123654Y135153D01*
X-123655Y135153D01*
X-123685Y135211D01*
X-123702Y135241D01*
X-123702Y135241D01*
X-123855Y135611D01*
X-123855Y135611D01*
X-123884Y135707D01*
X-123962Y136100D01*
X-123972Y136199D01*
D01*
Y136199D01*
Y136399D01*
Y140844D01*
X-124478D01*
Y150496D01*
Y155132D01*
X-123972D01*
Y157608D01*
Y157808D01*
X-123962Y157908D01*
X-123884Y158301D01*
X-123855Y158396D01*
X-123855Y158396D01*
X-123702Y158766D01*
X-123702Y158766D01*
X-123655Y158854D01*
X-123432Y159187D01*
X-123432Y159187D01*
X-123397Y159230D01*
X-123369Y159264D01*
X-123369Y159265D01*
X-123086Y159548D01*
X-123008Y159611D01*
X-122676Y159833D01*
X-122676Y159833D01*
X-122618Y159864D01*
X-122587Y159881D01*
X-122587Y159881D01*
X-122218Y160034D01*
X-122218Y160034D01*
X-122122Y160063D01*
X-121729Y160141D01*
X-121630Y160151D01*
D01*
X-121630D01*
X-115133D01*
X-115034Y160141D01*
D02*
G37*
G36*
X-50595Y155283D02*
X-50047Y154735D01*
X-49750Y154018D01*
Y153630D01*
Y153242D01*
X-50047Y152525D01*
X-50595Y151977D01*
X-51312Y151680D01*
X-51700D01*
Y151680D01*
X-55200Y151680D01*
X-55588D01*
X-56305Y151977D01*
X-56853Y152525D01*
X-57150Y153242D01*
Y153630D01*
Y154018D01*
X-56853Y154735D01*
X-56305Y155283D01*
X-55588Y155580D01*
X-51312D01*
X-50595Y155283D01*
D02*
G37*
G36*
Y150283D02*
X-50047Y149735D01*
X-49750Y149018D01*
Y148630D01*
Y148242D01*
X-50047Y147525D01*
X-50595Y146977D01*
X-51312Y146680D01*
X-55588D01*
X-56305Y146977D01*
X-56853Y147525D01*
X-57150Y148242D01*
Y148630D01*
Y149018D01*
X-56853Y149735D01*
X-56305Y150283D01*
X-55588Y150580D01*
X-55200D01*
Y150580D01*
X-51700Y150580D01*
X-51312D01*
X-50595Y150283D01*
D02*
G37*
G36*
X57589Y147691D02*
X57688D01*
X57872Y147615D01*
X58012Y147474D01*
X58088Y147291D01*
Y147191D01*
X58088Y147191D01*
Y138441D01*
X64089Y138441D01*
X64188D01*
X64372Y138365D01*
X64512Y138224D01*
X64588Y138041D01*
Y137941D01*
X64588D01*
X64588Y108941D01*
Y108842D01*
X64512Y108658D01*
X64372Y108517D01*
X64188Y108441D01*
X58088D01*
X58088Y99191D01*
Y99092D01*
X58012Y98908D01*
X57872Y98767D01*
X57688Y98691D01*
X57589D01*
X57589Y98691D01*
X56589D01*
X56489Y98691D01*
X56305Y98767D01*
X56165Y98908D01*
X56089Y99092D01*
X56089Y99191D01*
X56089Y103941D01*
X52589D01*
X52589Y99191D01*
X52589Y99092D01*
X52512Y98908D01*
X52372Y98767D01*
X52188Y98691D01*
X50989D01*
X50805Y98767D01*
X50665Y98908D01*
X50588Y99092D01*
Y99191D01*
Y99191D01*
Y107941D01*
X44489D01*
X44305Y108017D01*
X44165Y108158D01*
X44089Y108342D01*
Y108441D01*
Y108441D01*
X44089Y137941D01*
Y138041D01*
X44165Y138224D01*
X44305Y138365D01*
X44489Y138441D01*
X44588D01*
Y138441D01*
X50588D01*
X50588Y147191D01*
Y147291D01*
X50665Y147474D01*
X50805Y147615D01*
X50989Y147691D01*
X51089D01*
Y147691D01*
X52088Y147691D01*
X52188Y147691D01*
X52372Y147615D01*
X52512Y147474D01*
X52589Y147291D01*
X52589Y147191D01*
X52589Y147191D01*
X52589Y142441D01*
X56089D01*
Y147191D01*
X56089Y147291D01*
X56165Y147474D01*
X56305Y147615D01*
X56489Y147691D01*
X56589Y147691D01*
Y147691D01*
X57589Y147691D01*
D02*
G37*
G36*
X-50595Y145283D02*
X-50047Y144735D01*
X-49750Y144018D01*
Y143630D01*
Y143242D01*
X-50047Y142525D01*
X-50595Y141977D01*
X-51312Y141680D01*
X-51700D01*
Y141680D01*
X-55200Y141680D01*
X-55588D01*
X-56305Y141977D01*
X-56853Y142525D01*
X-57150Y143242D01*
Y143630D01*
Y144018D01*
X-56853Y144735D01*
X-56305Y145283D01*
X-55588Y145580D01*
X-51312D01*
X-50595Y145283D01*
D02*
G37*
G36*
X122728Y137597D02*
X123120Y137519D01*
X123216Y137490D01*
X123216Y137490D01*
X123586Y137337D01*
X123586Y137337D01*
X123674Y137290D01*
X124007Y137067D01*
X124007Y137067D01*
X124049Y137032D01*
X124084Y137004D01*
X124084Y137004D01*
X124367Y136721D01*
X124431Y136643D01*
X124653Y136311D01*
X124653Y136311D01*
X124684Y136253D01*
X124700Y136222D01*
X124700Y136222D01*
X124853Y135853D01*
X124853Y135853D01*
X124883Y135757D01*
X124961Y135364D01*
X124971Y135265D01*
D01*
Y135265D01*
Y135064D01*
Y132588D01*
X125476D01*
Y127952D01*
Y118301D01*
X124971D01*
Y113855D01*
Y113655D01*
X124961Y113556D01*
X124883Y113163D01*
X124853Y113067D01*
X124853Y113067D01*
X124700Y112698D01*
X124700Y112698D01*
X124653Y112609D01*
X124431Y112277D01*
X124431Y112277D01*
X124396Y112234D01*
X124367Y112199D01*
X124367Y112199D01*
X124084Y111916D01*
X124007Y111853D01*
X123674Y111630D01*
X123674Y111630D01*
X123617Y111600D01*
X123586Y111583D01*
X123586Y111583D01*
X123216Y111430D01*
X123216Y111430D01*
X123120Y111401D01*
X122728Y111323D01*
X122628Y111313D01*
D01*
X122628D01*
X116132D01*
X116032Y111323D01*
X115640Y111401D01*
X115544Y111430D01*
X115544Y111430D01*
X115174Y111583D01*
X115174Y111583D01*
X115086Y111630D01*
X114753Y111853D01*
X114753Y111853D01*
X114711Y111888D01*
X114676Y111916D01*
X114676Y111916D01*
X114393Y112199D01*
X114329Y112277D01*
X114107Y112609D01*
X114107Y112609D01*
X114076Y112667D01*
X114060Y112698D01*
X114060Y112698D01*
X113907Y113067D01*
X113906Y113067D01*
X113877Y113163D01*
X113799Y113556D01*
X113790Y113655D01*
D01*
Y113655D01*
Y113855D01*
Y118301D01*
X113284D01*
Y127952D01*
Y132588D01*
X113790D01*
Y135064D01*
Y135265D01*
X113799Y135364D01*
X113877Y135757D01*
X113906Y135853D01*
X113907Y135853D01*
X114060Y136222D01*
X114060Y136222D01*
X114107Y136311D01*
X114329Y136643D01*
X114329Y136643D01*
X114364Y136686D01*
X114393Y136721D01*
X114393Y136721D01*
X114676Y137004D01*
X114753Y137067D01*
X115086Y137290D01*
X115086Y137290D01*
X115143Y137320D01*
X115174Y137337D01*
X115174Y137337D01*
X115544Y137490D01*
X115544Y137490D01*
X115640Y137519D01*
X116032Y137597D01*
X116132Y137607D01*
D01*
X116132D01*
X122628D01*
X122728Y137597D01*
D02*
G37*
G36*
X-10351Y47501D02*
X-5705D01*
X-5606Y47491D01*
X-5213Y47413D01*
X-5117Y47383D01*
X-5117Y47383D01*
X-4748Y47230D01*
X-4748Y47230D01*
X-4659Y47183D01*
X-4327Y46961D01*
X-4327Y46961D01*
X-4284Y46926D01*
X-4249Y46897D01*
X-4249Y46897D01*
X-3966Y46614D01*
X-3903Y46537D01*
X-3680Y46204D01*
X-3680Y46204D01*
X-3650Y46147D01*
X-3633Y46116D01*
X-3633Y46116D01*
X-3480Y45746D01*
X-3480Y45746D01*
X-3451Y45650D01*
X-3373Y45258D01*
X-3363Y45158D01*
D01*
Y45158D01*
Y44958D01*
Y38862D01*
Y38662D01*
X-3373Y38562D01*
X-3451Y38170D01*
X-3480Y38074D01*
X-3480Y38074D01*
X-3633Y37704D01*
X-3633Y37704D01*
X-3680Y37616D01*
X-3903Y37283D01*
X-3903Y37283D01*
X-3938Y37241D01*
X-3966Y37206D01*
X-3966Y37206D01*
X-4249Y36923D01*
X-4327Y36859D01*
X-4659Y36637D01*
X-4659Y36637D01*
X-4717Y36606D01*
X-4748Y36590D01*
X-4748Y36590D01*
X-5117Y36437D01*
X-5117Y36437D01*
X-5213Y36407D01*
X-5606Y36329D01*
X-5705Y36319D01*
D01*
X-5705D01*
X-10351D01*
Y35814D01*
X-24638D01*
Y36319D01*
X-27315D01*
X-27414Y36329D01*
X-27807Y36407D01*
X-27903Y36437D01*
X-27903Y36437D01*
X-28272Y36590D01*
X-28272Y36590D01*
X-28361Y36637D01*
X-28693Y36859D01*
X-28693Y36859D01*
X-28736Y36894D01*
X-28771Y36923D01*
X-28771Y36923D01*
X-29054Y37206D01*
X-29117Y37283D01*
X-29340Y37616D01*
X-29340Y37616D01*
X-29370Y37673D01*
X-29387Y37704D01*
X-29387Y37704D01*
X-29540Y38074D01*
X-29540Y38074D01*
X-29569Y38170D01*
X-29647Y38562D01*
X-29657Y38662D01*
D01*
Y38662D01*
Y38862D01*
Y44958D01*
Y45158D01*
X-29647Y45258D01*
X-29569Y45650D01*
X-29540Y45746D01*
X-29540Y45746D01*
X-29387Y46116D01*
X-29387Y46116D01*
X-29340Y46204D01*
X-29117Y46537D01*
X-29117Y46537D01*
X-29082Y46579D01*
X-29054Y46614D01*
X-29054Y46614D01*
X-28771Y46897D01*
X-28693Y46961D01*
X-28361Y47183D01*
X-28361Y47183D01*
X-28303Y47214D01*
X-28272Y47230D01*
X-28272Y47230D01*
X-27903Y47383D01*
X-27903Y47383D01*
X-27807Y47413D01*
X-27414Y47491D01*
X-27315Y47501D01*
D01*
X-27315D01*
X-24638D01*
Y48006D01*
X-10351D01*
Y47501D01*
D02*
G37*
D20*
X57228Y160021D02*
D03*
X69229D02*
D03*
D21*
X36558Y59691D02*
D03*
X51559D02*
D03*
X83429Y83821D02*
D03*
X68428D02*
D03*
D25*
X20048Y119492D02*
D03*
Y101491D02*
D03*
D27*
X262868Y522001D02*
D03*
X198869D02*
D03*
X254869D02*
D03*
X206869D02*
D03*
D28*
X248369D02*
D03*
X243368D02*
D03*
X238369D02*
D03*
X233368D02*
D03*
X228369D02*
D03*
X223368D02*
D03*
X218369D02*
D03*
X213368D02*
D03*
D35*
X242720Y500740D02*
D03*
X236220D02*
D03*
X229720D02*
D03*
Y482240D02*
D03*
X236220D02*
D03*
X242720D02*
D03*
D37*
X236686Y134953D02*
D03*
X206686D02*
D03*
D38*
X-189501Y141211D02*
D03*
Y171211D02*
D03*
D39*
X200390Y278075D02*
D03*
D40*
X217890Y285674D02*
D03*
X212890D02*
D03*
X207890D02*
D03*
X202890D02*
D03*
X197890D02*
D03*
X192890D02*
D03*
X187890D02*
D03*
X182890D02*
D03*
X217890Y270474D02*
D03*
X212890D02*
D03*
X207890D02*
D03*
X202890D02*
D03*
X197890D02*
D03*
X192890D02*
D03*
X187890D02*
D03*
X182890D02*
D03*
D43*
X35779Y219711D02*
D03*
X77978D02*
D03*
D44*
X256026Y145954D02*
D03*
Y130954D02*
D03*
D45*
X-178191Y123191D02*
D03*
X-193192D02*
D03*
X68428Y64771D02*
D03*
X83429D02*
D03*
D49*
X88629Y148351D02*
D03*
Y133351D02*
D03*
Y101721D02*
D03*
Y116721D02*
D03*
D50*
X36558Y180980D02*
D03*
Y164463D02*
D03*
D52*
X41638Y82551D02*
D03*
X21139D02*
D03*
D54*
X-131880Y322580D02*
D03*
X-106880D02*
D03*
D55*
X-9281Y98651D02*
D03*
X-14282D02*
D03*
X-19281D02*
D03*
X-24282D02*
D03*
D56*
X46838Y144691D02*
D03*
Y101691D02*
D03*
X61839D02*
D03*
Y144691D02*
D03*
D57*
X37839Y140691D02*
D03*
Y135691D02*
D03*
Y130691D02*
D03*
Y125691D02*
D03*
Y120691D02*
D03*
Y115691D02*
D03*
Y110691D02*
D03*
Y105691D02*
D03*
X70838D02*
D03*
Y110691D02*
D03*
Y115691D02*
D03*
Y120691D02*
D03*
Y125691D02*
D03*
Y130691D02*
D03*
Y135691D02*
D03*
Y140691D02*
D03*
D61*
X-71511Y262131D02*
D03*
X-76512D02*
D03*
X-81511D02*
D03*
X-86512D02*
D03*
Y291592D02*
D03*
X-81511D02*
D03*
X-76512D02*
D03*
X-71511D02*
D03*
D62*
X-93742Y269361D02*
D03*
Y274361D02*
D03*
Y279361D02*
D03*
Y284361D02*
D03*
X-64281D02*
D03*
Y279361D02*
D03*
Y274361D02*
D03*
Y269361D02*
D03*
D71*
X84678Y166371D02*
D03*
X100199D02*
D03*
D72*
X119784Y149001D02*
D03*
Y168501D02*
D03*
D73*
X7348Y136051D02*
D03*
Y156051D02*
D03*
D78*
X-53450Y158630D02*
D03*
D79*
X-39950Y157130D02*
D03*
Y151130D02*
D03*
Y145130D02*
D03*
D80*
X-71392Y48161D02*
D03*
Y99161D02*
D03*
D81*
X-73572Y193041D02*
D03*
X-28572D02*
D03*
D82*
X129049Y309881D02*
D03*
X111049D02*
D03*
X93049D02*
D03*
X75049D02*
D03*
X57049D02*
D03*
X39049D02*
D03*
X21049D02*
D03*
X3048D02*
D03*
X-14952D02*
D03*
X147049D02*
D03*
X-15511Y474981D02*
D03*
X92488D02*
D03*
X74488D02*
D03*
X56488D02*
D03*
X38488D02*
D03*
X20489D02*
D03*
X2489D02*
D03*
X110489D02*
D03*
X128489D02*
D03*
X146489D02*
D03*
D83*
X281969Y567051D02*
D03*
X179768D02*
D03*
X281969Y527751D02*
D03*
X179768D02*
D03*
D84*
X-238400Y559986D02*
D03*
Y539986D02*
D03*
D85*
X-260900Y583986D02*
D03*
Y515986D02*
D03*
D86*
X-257115Y475003D02*
D03*
X-216475D02*
D03*
X-257115Y462303D02*
D03*
X-216475D02*
D03*
X-257115Y449603D02*
D03*
X-216475D02*
D03*
Y436903D02*
D03*
X-257115Y424203D02*
D03*
X-216475D02*
D03*
D87*
X-189540Y347700D02*
D03*
Y192700D02*
D03*
D88*
X-179040Y332200D02*
D03*
Y321200D02*
D03*
Y310200D02*
D03*
Y299200D02*
D03*
Y288200D02*
D03*
Y277200D02*
D03*
Y266200D02*
D03*
Y255200D02*
D03*
Y244200D02*
D03*
D89*
X-285540Y345200D02*
D03*
Y188200D02*
D03*
D90*
X219328Y440691D02*
D03*
X237329D02*
D03*
D91*
X-15511Y546460D02*
D03*
Y566060D02*
D03*
X11158Y567331D02*
D03*
Y547730D02*
D03*
X-40911Y268332D02*
D03*
Y287932D02*
D03*
X-150132Y277772D02*
D03*
Y258172D02*
D03*
X199118Y478430D02*
D03*
Y458830D02*
D03*
D92*
X56518Y528321D02*
D03*
X36918D02*
D03*
X3178Y586741D02*
D03*
X-16422D02*
D03*
X254089Y350521D02*
D03*
X273689D02*
D03*
D93*
X248920Y227720D02*
D03*
Y244720D02*
D03*
X115299Y503311D02*
D03*
Y520311D02*
D03*
X20705Y57809D02*
D03*
Y40809D02*
D03*
X-12700Y153280D02*
D03*
Y136280D02*
D03*
X-53611Y311541D02*
D03*
Y328541D02*
D03*
X183388Y439538D02*
D03*
Y422538D02*
D03*
X201676Y439030D02*
D03*
Y422030D02*
D03*
D94*
X-42841Y127001D02*
D03*
X-61842D02*
D03*
X-2201Y115571D02*
D03*
X-21202D02*
D03*
X-19932Y63501D02*
D03*
X-931D02*
D03*
X254164Y300219D02*
D03*
X235164D02*
D03*
X260738Y421641D02*
D03*
X279739D02*
D03*
D95*
X30090Y283210D02*
D03*
X13090D02*
D03*
X94703Y502920D02*
D03*
X77702D02*
D03*
X32358Y266701D02*
D03*
X15359D02*
D03*
X-70027Y329277D02*
D03*
X-87027D02*
D03*
X163168Y158751D02*
D03*
X146169D02*
D03*
X285360Y244856D02*
D03*
X268360D02*
D03*
X-109882Y237491D02*
D03*
X-126881D02*
D03*
X220100Y374650D02*
D03*
X237100D02*
D03*
X256676Y441960D02*
D03*
X273676D02*
D03*
D96*
X21336Y149506D02*
D03*
Y137006D02*
D03*
D97*
X-87624Y311098D02*
D03*
X-70624D02*
D03*
X-126881Y219711D02*
D03*
X-109882D02*
D03*
X54729Y266701D02*
D03*
X71728D02*
D03*
X72000Y283210D02*
D03*
X55000D02*
D03*
X94703Y523322D02*
D03*
X77702D02*
D03*
X52678Y553721D02*
D03*
X35679D02*
D03*
X191380Y302260D02*
D03*
X174380D02*
D03*
X236492Y340604D02*
D03*
X219492D02*
D03*
X265549Y480061D02*
D03*
X282548D02*
D03*
X272660Y458470D02*
D03*
X255660D02*
D03*
X282603Y496989D02*
D03*
X265602D02*
D03*
X195110Y505529D02*
D03*
X212110D02*
D03*
X288596Y302166D02*
D03*
X271595D02*
D03*
X146169Y177801D02*
D03*
X163168D02*
D03*
X268360Y226060D02*
D03*
X285360D02*
D03*
X220100Y356870D02*
D03*
X237100D02*
D03*
X-22252Y242571D02*
D03*
X-39251D02*
D03*
X-56542D02*
D03*
X-73541D02*
D03*
X-135282Y297181D02*
D03*
X-152281D02*
D03*
X219630Y458883D02*
D03*
X236630D02*
D03*
D98*
X-22282Y82651D02*
D03*
X-11281D02*
D03*
D99*
X-16782Y84151D02*
D03*
D100*
X-39913Y363523D02*
D03*
Y375523D02*
D03*
Y387523D02*
D03*
Y399523D02*
D03*
Y411523D02*
D03*
Y423523D02*
D03*
Y435523D02*
D03*
Y447523D02*
D03*
Y459523D02*
D03*
Y471523D02*
D03*
Y483523D02*
D03*
Y495523D02*
D03*
Y507523D02*
D03*
Y519523D02*
D03*
Y531523D02*
D03*
Y543523D02*
D03*
Y555523D02*
D03*
Y567523D02*
D03*
Y579523D02*
D03*
Y591523D02*
D03*
X-173913D02*
D03*
Y579523D02*
D03*
Y567523D02*
D03*
Y555523D02*
D03*
Y543523D02*
D03*
Y531523D02*
D03*
Y519523D02*
D03*
Y507523D02*
D03*
Y495523D02*
D03*
Y483523D02*
D03*
Y471523D02*
D03*
Y459523D02*
D03*
Y447523D02*
D03*
Y435523D02*
D03*
Y423523D02*
D03*
Y411523D02*
D03*
Y399523D02*
D03*
Y387523D02*
D03*
Y375523D02*
D03*
Y363523D02*
D03*
D101*
X-166951Y349111D02*
D03*
X-154951D02*
D03*
X-142951D02*
D03*
X-130951D02*
D03*
X-118952D02*
D03*
X-106952D02*
D03*
X-94951D02*
D03*
X-82951D02*
D03*
X-70951D02*
D03*
X-58952D02*
D03*
X-46952D02*
D03*
D102*
X-127767Y399665D02*
D03*
X-98531D02*
D03*
Y428214D02*
D03*
X-127767D02*
D03*
X-88900Y520721D02*
D03*
X-118293Y520700D02*
D03*
Y550769D02*
D03*
X-88900D02*
D03*
D103*
X-79012Y276861D02*
D03*
D104*
X240849Y393441D02*
D03*
X236348D02*
D03*
X231849D02*
D03*
X227349D02*
D03*
X222849D02*
D03*
X218348D02*
D03*
Y424441D02*
D03*
X222849D02*
D03*
X227349D02*
D03*
X231849D02*
D03*
X236348D02*
D03*
X240849D02*
D03*
D105*
X152575Y267901D02*
D03*
X111074D02*
D03*
Y289401D02*
D03*
X152575D02*
D03*
X141810Y123870D02*
D03*
X183310D02*
D03*
Y145370D02*
D03*
X141810D02*
D03*
X288681Y282698D02*
D03*
X247181D02*
D03*
Y261198D02*
D03*
X288681D02*
D03*
D106*
X197247Y334953D02*
D03*
Y359953D02*
D03*
Y384953D02*
D03*
X173247Y334953D02*
D03*
Y359953D02*
D03*
Y384953D02*
D03*
D107*
X-71120Y157630D02*
D03*
Y144630D02*
D03*
D108*
X-15511Y504851D02*
D03*
Y523851D02*
D03*
X9888Y504851D02*
D03*
Y523851D02*
D03*
X76781Y543519D02*
D03*
Y562519D02*
D03*
D109*
X56219Y505461D02*
D03*
X37218D02*
D03*
X2879Y19051D02*
D03*
X-16122D02*
D03*
X57991Y39406D02*
D03*
X38991D02*
D03*
D110*
X103728Y186691D02*
D03*
X86229D02*
D03*
D111*
X56979Y184151D02*
D03*
X69478D02*
D03*
D112*
X133078Y503311D02*
D03*
Y520311D02*
D03*
X152128Y503311D02*
D03*
Y520311D02*
D03*
X215646Y318516D02*
D03*
Y301516D02*
D03*
X-194582Y557921D02*
D03*
Y574921D02*
D03*
Y521091D02*
D03*
Y538091D02*
D03*
X11158Y209941D02*
D03*
Y226941D02*
D03*
D113*
X148319Y558771D02*
D03*
Y586771D02*
D03*
D114*
X257780Y200660D02*
D03*
X285780D02*
D03*
D115*
X-124732Y277471D02*
D03*
Y258471D02*
D03*
X-18052Y268631D02*
D03*
Y287631D02*
D03*
D116*
X163830Y244557D02*
D03*
X281940Y165100D02*
D03*
Y106680D02*
D03*
X-279671Y166371D02*
D03*
Y107951D02*
D03*
D117*
X163830Y219156D02*
D03*
X-127000Y15240D02*
D03*
X-283482Y19051D02*
D03*
X-258081D02*
D03*
X-283727Y51082D02*
D03*
X-258327D02*
D03*
X119108Y15241D02*
D03*
X144508D02*
D03*
X169909D02*
D03*
X195308D02*
D03*
X220709D02*
D03*
X246108D02*
D03*
X106044Y243987D02*
D03*
X61997Y580487D02*
D03*
X106044Y209650D02*
D03*
X-68851Y15241D02*
D03*
X281940Y139700D02*
D03*
Y81280D02*
D03*
X-279671Y140971D02*
D03*
Y82551D02*
D03*
D118*
X-101600Y15240D02*
D03*
X-232682Y19051D02*
D03*
X-232927Y51082D02*
D03*
X271509Y15241D02*
D03*
X131444Y243987D02*
D03*
X36597Y580487D02*
D03*
X131444Y209650D02*
D03*
X-43451Y15241D02*
D03*
D119*
X-289540Y316200D02*
D03*
D120*
Y236200D02*
D03*
D121*
X169900Y71120D02*
D03*
X-147871Y71121D02*
D03*
D122*
X134900Y71120D02*
D03*
X-182872Y71121D02*
D03*
D123*
X175260Y502920D02*
D03*
X147320Y538480D02*
D03*
X-36830Y331470D02*
D03*
X172720Y458470D02*
D03*
X-201930Y21590D02*
D03*
X223520Y236220D02*
D03*
X193040D02*
D03*
X-246651Y83821D02*
D03*
X-218711Y582931D02*
D03*
X31388Y18048D02*
D03*
X-254000Y375920D02*
D03*
X-122191Y193041D02*
D03*
X-81552Y124461D02*
D03*
X94636Y42004D02*
D03*
X-145051Y135891D02*
D03*
Y165101D02*
D03*
X-271Y246381D02*
D03*
X-90170Y229870D02*
D03*
D124*
X-223520Y375920D02*
D03*
D125*
X71064Y19441D02*
D03*
D126*
X166706Y286470D02*
D03*
D127*
X54480Y135249D02*
D03*
X46589Y128441D02*
D03*
X54338D02*
D03*
X46589Y117941D02*
D03*
X54338D02*
D03*
X62089D02*
D03*
X54338Y110441D02*
D03*
X-84303Y282154D02*
D03*
X-73719D02*
D03*
X-79012Y276861D02*
D03*
X-73719Y271569D02*
D03*
X-84303D02*
D03*
M02*
