M48
;Layer_Color=9474304
;FILE_FORMAT=4:4
METRIC,LZ
;TYPE=PLATED
T01F00S00C0.2032
T02F00S00C0.3000
T03F00S00C0.3175
T04F00S00C0.3810
T05F00S00C0.8000
T06F00S00C1.0160
T07F00S00C1.6000
;TYPE=NON_PLATED
T08F00S00C0.6500
T09F00S00C0.9000
%
T01
X-0027178Y0003429
X-0026543Y0008636
X-0017907Y0010414
X-0017526Y0016002
X-0018923Y00159004
X-00201646Y0020379
X-00188098Y00220558
X-00161936Y00223371
X-00147807Y00211964
X-0014478Y0018415
X-00152908
X-00134874Y00188468
X-0013081Y0017907
X-00129204Y00143675
X-00116586Y00129286
X-00108712Y00124968
X-00099894Y00110797
X-00086009Y0014272
X-0008001Y0014859
X-0008763Y0015621
X-00100838Y00188722
X-00075603Y00207446
X-00083693Y00242381
X-00084303Y00271569
X-00079012Y00276861
X-00084303Y00282154
X-00073719
Y00271569
X-0005971Y00260669
X-00054067
X-00040911Y0025235
X-00035277Y00216183
X-0004191Y00163231
X-00040005Y00115951
X-00044693Y00106923
X-00056537Y00114173
X-00056365Y0009525
X-0003302Y0007874
X-00035924Y00037269
X-00098096Y00064617
X-0013335Y000889
X-00120904Y00225552
X-0010668Y0025019
X-00103391Y00268478
X-0011049
X-0010668Y0029083
X-0009398Y002921
X-00078373Y00302061
X-000698Y00295584
X-00065387Y00289371
X-00060089Y00308102
X-00043316Y00297808
X-0005461Y0036449
X-00055951Y00390271
X-00093532Y00394665
X-00103532
Y00404665
X-00093532
Y00423214
X-00103532
X-00122767
X-00132767
Y00404665
Y00394665
X-00122767
Y00404665
X-0012192Y0037719
X-00120853Y00359937
X-00133574Y00364344
X-0015007Y00363813
X-00162927Y00360616
X-00163322Y0037465
X-00161838Y00388293
X-00162632Y00404883
X-00144328Y00416035
X-00211041Y00411701
X-00201373Y0038354
X-0019431Y00365252
X-0017526Y0035179
X-00175714Y00344184
X-00158647Y00333967
X-00147375Y00317399
X-00134239Y00307254
X-00121524Y00323422
X-00095686Y00330665
X-00105664Y0036195
X-00137956Y002794
X-00143637Y00248008
X-00154443Y00249225
X-00163198Y0029464
X-00197612Y00296926
Y00284226
X-00200406Y00261112
X-00222758Y00273304
Y00288798
X-0019558Y0032385
X-0028829Y0037084
X-0025781Y0020447
X-00014192Y00204597
X-00000075Y00212015
X0000127Y0023114
X0001524Y0023876
X00024951Y0025776
X00035905Y00254345
X00046231Y00247691
X0005969Y0024384
X000635Y0023114
X00050546Y00211328
X0002286Y00217043
X00023368Y00167894
X0002413Y00160274
X00031242Y00148844
X00038862Y0014478
X00028448Y00133096
X00046589Y00128441
X00054338
X0005448Y00135249
X00062089Y00128441
Y00117941
X00054338
Y00110441
X00046589Y00117941
X0004064Y0009906
X0002413Y00093408
X00013761Y00092804
X0000508Y0009906
X00013716Y0011049
X-000138Y0010376
X-00031875Y00098794
X-0003048Y0006604
X-00001405Y00080145
X00021082Y00070866
X0003048Y0007112
X0005842Y0008382
X0007493Y0005207
X0009398Y0006604
X00100325Y00119131
X00099954Y00134492
X00107708Y00150678
Y00163909
X00131486Y0016256
X0012192Y00182395
X00115702Y00188257
X0007493Y0017145
X00053594Y00167894
X00045466Y0016764
X00048403Y00161179
X00059944Y00151638
X0006858Y00149098
X00076784Y00135833
X00129756Y00134275
X00143248Y00130548
X0015494Y0014986
X00199736Y00148775
X00267122Y0018415
X00282194Y00186944
X00290322Y00184912
X00272796Y00235966
X0027686Y00253238
X00259461Y00254042
X00258034Y002426
X0026162Y00273592
X00246507Y00273937
X00230057Y00270383
X00230248Y00257429
X00222969Y00253876
X00208261Y00256051
X0021374Y00263227
X0019933Y0026544
X00175594Y00270035
X00161434Y00296292
X00143522Y00283597
X0012446Y00273605
X0008763Y00271145
X0008509Y0028956
X0009398Y002921
X0010287Y00297222
Y0033274
X00088773Y0032639
X00066675Y00323088
X00063103Y00294513
X00009702Y00291134
X00003624Y00294454
X-00007827Y00285673
X00021608Y002751
X00020361Y00328126
X-00010668Y00360172
X-00024216Y00374015
X-00014351Y00398399
X00057658Y00418973
X0019177Y0040513
X00207264Y00406654
X00211823Y0042291
X00245094Y0041656
X00246924Y0040767
X0024638Y0038481
Y0037465
X0024659Y00361441
X00265774Y00367198
X00269934Y0033418
X00271837Y00313379
X00265292Y00292839
X00257702Y00285393
X00273361Y00282589
X0027278Y0026924
X00223904Y0029332
X00224028Y00319786
X002286Y0033274
X0019812Y0034925
X0018415Y0034544
X0016891Y00344551
X00156975Y00366525
X00208129Y00368157
X0021463Y0038481
X00271272Y00409956
X00138048Y00322919
X00238506Y00220472
X00259969Y0008636
X00259298Y00046772
X00244312Y00036576
X002286Y0006858
X00201786Y00045856
X0016891Y0003683
X00150985
X0011938Y0010668
X-00003731Y00128919
X-00030146Y00140286
X-000127Y0016256
X-00021336Y00224409
X-00031575Y00250643
X0000656Y00053784
X0028448Y0005461
X00273812Y00433324
X00265357Y00433697
X00280389Y004535
X00275455Y00468249
X00266372Y00469085
X00255578Y00469689
X0024892Y0048133
X0025146Y0049784
X00225044Y00499364
X0022479Y0047498
X00228477Y00438139
X00211328Y00432054
X00192786Y00429733
X002032Y0044958
X00222504Y00532638
X0016002Y0052832
X00142748Y00513334
X0013335Y005588
X00117323Y00571298
X00082409Y00567549
X00085051Y00532091
X00070354Y00514431
X00037846Y0054483
X00003683Y00536798
X-000254Y0053721
X-0002413Y0049403
X0002667Y0049149
X0001524Y005842
X001651Y0058674
X0027173Y005143
X-0006096Y00508
X-0006223Y004953
X-0005842Y0047371
X-00083217Y00514392
X-00094327
X-00094639Y00527267
X-00083321Y00526956
X-0008382Y0054483
X-0009398
Y0055626
X-0008382
X-00113293Y0055577
Y0054577
X-00123293
Y0055577
X-0012319Y0052705
X-0011303
Y0051435
X-0012319
X-0011049Y004953
X-0012573Y00460502
X-00139516Y00462464
X-00132767Y00433214
X-00122767
X-00103532
X-00093532
X-0015367Y0043688
X-00199644Y00430343
X-0018669Y0045974
Y0047752
X-00192804Y00487553
X-0018669Y0053086
X-0020568Y0053092
X-002032Y0054991
X-0019939Y0058674
X-0016362Y00569514
X-00156571Y00572409
X-0016002Y0055626
Y0052197
X-00155702Y0051435
X-0016002Y00508
X-0021717Y0051943
X-002286Y0052451
X-00229362Y00513334
X-00239776Y00495808
X-0025527Y0048387
X-0026924Y0048514
X-0005969Y0056642
T02
X-0001905Y00257152
T03
X0017372Y00278075
X0022706
T04
X00166706Y0028647
T05
X-00182872Y00071121
X-00147871
X001349Y0007112
X001699
T06
X00031388Y00018048
X00119108Y00015241
X00144508
X00169909
X00195308
X00220709
X00246108
X00271509
X-00043451
X-00068851
X-001016Y0001524
X-00127
X-0020193Y0002159
X-00232682Y00019051
X-00258081
X-00283482
X-00283727Y00051082
X-00258327
X-00232927
X-00246651Y00083821
X-00279671Y00082551
Y00107951
Y00140971
Y00166371
X-00145051Y00165101
Y00135891
X-00081552Y00124461
X-00122191Y00193041
X-0009017Y0022987
X-0003683Y0033147
X-0022352Y0037592
X-00254
X-00000271Y00246381
X00106044Y00243987
X00131444
X0016383Y00244557
Y00219156
X00131444Y0020965
X00106044
X0019304Y0023622
X0022352
X0028194Y001651
Y001397
Y0010668
Y0008128
X00094636Y00042004
X0017272Y0045847
X0017526Y0050292
X0014732Y0053848
X00061997Y00580487
X00036597
X-00218711Y00582931
T07
X00071064Y00019441
T08
X00201968Y00532751
X00259769
T09
X-0028954Y003162
M30
